<svg width="469" height="134" viewBox="0 0 469 134" fill="none" xmlns="http://www.w3.org/2000/svg">
<path opacity="0.3" d="M103.4 40.92L110.397 40.7043L110.396 40.6906L103.4 40.92ZM9 47.64H2V54.64H9V47.64ZM47.72 47.64V54.64H54.72V47.64H47.72ZM60.36 44.12L67.3592 44.2229L67.36 44.1715V44.12H60.36ZM32.36 62.04L29.1155 55.8373L29.0861 55.8527L29.0569 55.8683L32.36 62.04ZM7.4 123H0.4L0.4 130H7.4V123ZM103.4 123V130H110.4V123H103.4ZM103.4 91H110.4V84H103.4V91ZM51.08 91L44.3684 89.0114L41.7051 98H51.08V91ZM110.396 40.6906C110.116 32.1443 107.724 25.0602 103.673 19.3615C99.6532 13.7077 94.2805 9.80811 88.6087 7.13012C77.4665 1.86915 64.386 0.959991 55.24 0.959991V14.96C63.854 14.96 74.3735 15.8908 82.6313 19.7899C86.6595 21.6919 89.9368 24.2023 92.2623 27.4735C94.556 30.6998 96.204 35.0557 96.4038 41.1494L110.396 40.6906ZM55.24 0.959991C43.0917 0.959991 29.9499 3.80083 19.6415 11.1909C9.01286 18.8105 2 30.8668 2 47.64H16C16 35.2932 20.9071 27.5095 27.7985 22.5691C35.0101 17.3992 44.9883 14.96 55.24 14.96V0.959991ZM9 54.64C9.02531 54.64 9.05067 54.64 9.07608 54.64C9.10149 54.64 9.12695 54.64 9.15246 54.64C9.17797 54.64 9.20352 54.64 9.22912 54.64C9.25473 54.64 9.28038 54.64 9.30608 54.64C9.33177 54.64 9.35752 54.64 9.38331 54.64C9.40911 54.64 9.43495 54.64 9.46084 54.64C9.48672 54.64 9.51266 54.64 9.53864 54.64C9.56462 54.64 9.59065 54.64 9.61673 54.64C9.6428 54.64 9.66893 54.64 9.69509 54.64C9.72126 54.64 9.74748 54.64 9.77374 54.64C9.8 54.64 9.8263 54.64 9.85266 54.64C9.87901 54.64 9.9054 54.64 9.93185 54.64C9.95829 54.64 9.98478 54.64 10.0113 54.64C10.0378 54.64 10.0644 54.64 10.091 54.64C10.1177 54.64 10.1443 54.64 10.1711 54.64C10.1978 54.64 10.2245 54.64 10.2513 54.64C10.2781 54.64 10.305 54.64 10.3319 54.64C10.3588 54.64 10.3857 54.64 10.4127 54.64C10.4396 54.64 10.4667 54.64 10.4937 54.64C10.5208 54.64 10.5479 54.64 10.575 54.64C10.6022 54.64 10.6294 54.64 10.6566 54.64C10.6839 54.64 10.7111 54.64 10.7385 54.64C10.7658 54.64 10.7932 54.64 10.8206 54.64C10.848 54.64 10.8754 54.64 10.9029 54.64C10.9304 54.64 10.9579 54.64 10.9855 54.64C11.0131 54.64 11.0407 54.64 11.0683 54.64C11.096 54.64 11.1237 54.64 11.1514 54.64C11.1792 54.64 11.207 54.64 11.2348 54.64C11.2626 54.64 11.2905 54.64 11.3184 54.64C11.3463 54.64 11.3742 54.64 11.4022 54.64C11.4302 54.64 11.4582 54.64 11.4863 54.64C11.5143 54.64 11.5424 54.64 11.5706 54.64C11.5987 54.64 11.6269 54.64 11.6551 54.64C11.6834 54.64 11.7116 54.64 11.7399 54.64C11.7682 54.64 11.7966 54.64 11.8249 54.64C11.8533 54.64 11.8817 54.64 11.9102 54.64C11.9386 54.64 11.9671 54.64 11.9957 54.64C12.0242 54.64 12.0528 54.64 12.0814 54.64C12.11 54.64 12.1386 54.64 12.1673 54.64C12.196 54.64 12.2247 54.64 12.2535 54.64C12.2822 54.64 12.311 54.64 12.3399 54.64C12.3687 54.64 12.3976 54.64 12.4265 54.64C12.4554 54.64 12.4843 54.64 12.5133 54.64C12.5423 54.64 12.5713 54.64 12.6004 54.64C12.6294 54.64 12.6585 54.64 12.6876 54.64C12.7168 54.64 12.7459 54.64 12.7751 54.64C12.8043 54.64 12.8336 54.64 12.8628 54.64C12.8921 54.64 12.9214 54.64 12.9507 54.64C12.9801 54.64 13.0094 54.64 13.0388 54.64C13.0683 54.64 13.0977 54.64 13.1272 54.64C13.1567 54.64 13.1862 54.64 13.2157 54.64C13.2453 54.64 13.2748 54.64 13.3044 54.64C13.3341 54.64 13.3637 54.64 13.3934 54.64C13.4231 54.64 13.4528 54.64 13.4825 54.64C13.5123 54.64 13.5421 54.64 13.5719 54.64C13.6017 54.64 13.6315 54.64 13.6614 54.64C13.6913 54.64 13.7212 54.64 13.7512 54.64C13.7811 54.64 13.8111 54.64 13.8411 54.64C13.8711 54.64 13.9011 54.64 13.9312 54.64C13.9613 54.64 13.9914 54.64 14.0215 54.64C14.0517 54.64 14.0818 54.64 14.112 54.64C14.1422 54.64 14.1725 54.64 14.2027 54.64C14.233 54.64 14.2633 54.64 14.2936 54.64C14.3239 54.64 14.3543 54.64 14.3847 54.64C14.4151 54.64 14.4455 54.64 14.4759 54.64C14.5064 54.64 14.5369 54.64 14.5674 54.64C14.5979 54.64 14.6284 54.64 14.659 54.64C14.6895 54.64 14.7201 54.64 14.7508 54.64C14.7814 54.64 14.812 54.64 14.8427 54.64C14.8734 54.64 14.9041 54.64 14.9349 54.64C14.9656 54.64 14.9964 54.64 15.0272 54.64C15.058 54.64 15.0888 54.64 15.1196 54.64C15.1505 54.64 15.1814 54.64 15.2123 54.64C15.2432 54.64 15.2741 54.64 15.3051 54.64C15.3361 54.64 15.3671 54.64 15.3981 54.64C15.4291 54.64 15.4602 54.64 15.4912 54.64C15.5223 54.64 15.5534 54.64 15.5845 54.64C15.6157 54.64 15.6468 54.64 15.678 54.64C15.7092 54.64 15.7404 54.64 15.7716 54.64C15.8029 54.64 15.8341 54.64 15.8654 54.64C15.8967 54.64 15.928 54.64 15.9593 54.64C15.9907 54.64 16.022 54.64 16.0534 54.64C16.0848 54.64 16.1162 54.64 16.1477 54.64C16.1791 54.64 16.2106 54.64 16.2421 54.64C16.2736 54.64 16.3051 54.64 16.3366 54.64C16.3681 54.64 16.3997 54.64 16.4313 54.64C16.4629 54.64 16.4945 54.64 16.5261 54.64C16.5578 54.64 16.5894 54.64 16.6211 54.64C16.6528 54.64 16.6845 54.64 16.7162 54.64C16.7479 54.64 16.7797 54.64 16.8115 54.64C16.8432 54.64 16.875 54.64 16.9069 54.64C16.9387 54.64 16.9705 54.64 17.0024 54.64C17.0342 54.64 17.0661 54.64 17.098 54.64C17.13 54.64 17.1619 54.64 17.1938 54.64C17.2258 54.64 17.2578 54.64 17.2898 54.64C17.3218 54.64 17.3538 54.64 17.3858 54.64C17.4179 54.64 17.4499 54.64 17.482 54.64C17.5141 54.64 17.5462 54.64 17.5783 54.64C17.6104 54.64 17.6426 54.64 17.6747 54.64C17.7069 54.64 17.7391 54.64 17.7713 54.64C17.8035 54.64 17.8357 54.64 17.868 54.64C17.9002 54.64 17.9325 54.64 17.9648 54.64C17.9971 54.64 18.0294 54.64 18.0617 54.64C18.094 54.64 18.1263 54.64 18.1587 54.64C18.1911 54.64 18.2235 54.64 18.2558 54.64C18.2882 54.64 18.3207 54.64 18.3531 54.64C18.3855 54.64 18.418 54.64 18.4505 54.64C18.4829 54.64 18.5154 54.64 18.5479 54.64C18.5804 54.64 18.613 54.64 18.6455 54.64C18.6781 54.64 18.7106 54.64 18.7432 54.64C18.7758 54.64 18.8084 54.64 18.841 54.64C18.8736 54.64 18.9062 54.64 18.9389 54.64C18.9715 54.64 19.0042 54.64 19.0369 54.64C19.0695 54.64 19.1022 54.64 19.1349 54.64C19.1677 54.64 19.2004 54.64 19.2331 54.64C19.2659 54.64 19.2986 54.64 19.3314 54.64C19.3642 54.64 19.397 54.64 19.4298 54.64C19.4626 54.64 19.4954 54.64 19.5282 54.64C19.5611 54.64 19.5939 54.64 19.6268 54.64C19.6597 54.64 19.6925 54.64 19.7254 54.64C19.7583 54.64 19.7912 54.64 19.8242 54.64C19.8571 54.64 19.89 54.64 19.923 54.64C19.9559 54.64 19.9889 54.64 20.0219 54.64C20.0548 54.64 20.0878 54.64 20.1208 54.64C20.1538 54.64 20.1869 54.64 20.2199 54.64C20.2529 54.64 20.286 54.64 20.319 54.64C20.3521 54.64 20.3851 54.64 20.4182 54.64C20.4513 54.64 20.4844 54.64 20.5175 54.64C20.5506 54.64 20.5837 54.64 20.6169 54.64C20.65 54.64 20.6831 54.64 20.7163 54.64C20.7494 54.64 20.7826 54.64 20.8158 54.64C20.8489 54.64 20.8821 54.64 20.9153 54.64C20.9485 54.64 20.9817 54.64 21.015 54.64C21.0482 54.64 21.0814 54.64 21.1146 54.64C21.1479 54.64 21.1811 54.64 21.2144 54.64C21.2477 54.64 21.2809 54.64 21.3142 54.64C21.3475 54.64 21.3808 54.64 21.4141 54.64C21.4474 54.64 21.4807 54.64 21.514 54.64C21.5473 54.64 21.5806 54.64 21.614 54.64C21.6473 54.64 21.6807 54.64 21.714 54.64C21.7474 54.64 21.7807 54.64 21.8141 54.64C21.8475 54.64 21.8808 54.64 21.9142 54.64C21.9476 54.64 21.981 54.64 22.0144 54.64C22.0478 54.64 22.0812 54.64 22.1146 54.64C22.1481 54.64 22.1815 54.64 22.2149 54.64C22.2484 54.64 22.2818 54.64 22.3152 54.64C22.3487 54.64 22.3821 54.64 22.4156 54.64C22.4491 54.64 22.4825 54.64 22.516 54.64C22.5495 54.64 22.5829 54.64 22.6164 54.64C22.6499 54.64 22.6834 54.64 22.7169 54.64C22.7504 54.64 22.7839 54.64 22.8174 54.64C22.8509 54.64 22.8844 54.64 22.918 54.64C22.9515 54.64 22.985 54.64 23.0185 54.64C23.0521 54.64 23.0856 54.64 23.1191 54.64C23.1527 54.64 23.1862 54.64 23.2198 54.64C23.2533 54.64 23.2869 54.64 23.3204 54.64C23.354 54.64 23.3875 54.64 23.4211 54.64C23.4546 54.64 23.4882 54.64 23.5218 54.64C23.5554 54.64 23.5889 54.64 23.6225 54.64C23.6561 54.64 23.6897 54.64 23.7232 54.64C23.7568 54.64 23.7904 54.64 23.824 54.64C23.8576 54.64 23.8912 54.64 23.9248 54.64C23.9584 54.64 23.992 54.64 24.0256 54.64C24.0592 54.64 24.0928 54.64 24.1264 54.64C24.16 54.64 24.1936 54.64 24.2272 54.64C24.2608 54.64 24.2944 54.64 24.328 54.64C24.3616 54.64 24.3952 54.64 24.4288 54.64C24.4624 54.64 24.496 54.64 24.5296 54.64C24.5632 54.64 24.5969 54.64 24.6305 54.64C24.6641 54.64 24.6977 54.64 24.7313 54.64C24.7649 54.64 24.7985 54.64 24.8321 54.64C24.8657 54.64 24.8994 54.64 24.933 54.64C24.9666 54.64 25.0002 54.64 25.0338 54.64C25.0674 54.64 25.101 54.64 25.1346 54.64C25.1682 54.64 25.2018 54.64 25.2354 54.64C25.269 54.64 25.3026 54.64 25.3362 54.64C25.3698 54.64 25.4034 54.64 25.437 54.64C25.4706 54.64 25.5042 54.64 25.5378 54.64C25.5714 54.64 25.605 54.64 25.6386 54.64C25.6722 54.64 25.7058 54.64 25.7393 54.64C25.7729 54.64 25.8065 54.64 25.8401 54.64C25.8737 54.64 25.9072 54.64 25.9408 54.64C25.9744 54.64 26.0079 54.64 26.0415 54.64C26.0751 54.64 26.1086 54.64 26.1422 54.64C26.1757 54.64 26.2093 54.64 26.2428 54.64C26.2764 54.64 26.3099 54.64 26.3435 54.64C26.377 54.64 26.4105 54.64 26.444 54.64C26.4776 54.64 26.5111 54.64 26.5446 54.64C26.5781 54.64 26.6116 54.64 26.6452 54.64C26.6787 54.64 26.7122 54.64 26.7457 54.64C26.7792 54.64 26.8126 54.64 26.8461 54.64C26.8796 54.64 26.9131 54.64 26.9466 54.64C26.98 54.64 27.0135 54.64 27.047 54.64C27.0804 54.64 27.1139 54.64 27.1473 54.64C27.1808 54.64 27.2142 54.64 27.2476 54.64C27.2811 54.64 27.3145 54.64 27.3479 54.64C27.3813 54.64 27.4147 54.64 27.4481 54.64C27.4815 54.64 27.5149 54.64 27.5483 54.64C27.5817 54.64 27.6151 54.64 27.6484 54.64C27.6818 54.64 27.7152 54.64 27.7485 54.64C27.7819 54.64 27.8152 54.64 27.8486 54.64C27.8819 54.64 27.9152 54.64 27.9485 54.64C27.9818 54.64 28.0152 54.64 28.0484 54.64C28.0817 54.64 28.115 54.64 28.1483 54.64C28.1816 54.64 28.2149 54.64 28.2481 54.64C28.2814 54.64 28.3146 54.64 28.3479 54.64C28.3811 54.64 28.4143 54.64 28.4475 54.64C28.4808 54.64 28.514 54.64 28.5472 54.64C28.5804 54.64 28.6135 54.64 28.6467 54.64C28.6799 54.64 28.7131 54.64 28.7462 54.64C28.7794 54.64 28.8125 54.64 28.8456 54.64C28.8787 54.64 28.9119 54.64 28.945 54.64C28.9781 54.64 29.0112 54.64 29.0442 54.64C29.0773 54.64 29.1104 54.64 29.1434 54.64C29.1765 54.64 29.2095 54.64 29.2426 54.64C29.2756 54.64 29.3086 54.64 29.3416 54.64C29.3746 54.64 29.4076 54.64 29.4406 54.64C29.4736 54.64 29.5065 54.64 29.5395 54.64C29.5724 54.64 29.6053 54.64 29.6383 54.64C29.6712 54.64 29.7041 54.64 29.737 54.64C29.7699 54.64 29.8028 54.64 29.8356 54.64C29.8685 54.64 29.9013 54.64 29.9342 54.64C29.967 54.64 29.9998 54.64 30.0326 54.64C30.0654 54.64 30.0982 54.64 30.131 54.64C30.1638 54.64 30.1965 54.64 30.2292 54.64C30.262 54.64 30.2947 54.64 30.3274 54.64C30.3601 54.64 30.3928 54.64 30.4255 54.64C30.4582 54.64 30.4908 54.64 30.5235 54.64C30.5561 54.64 30.5888 54.64 30.6214 54.64C30.654 54.64 30.6866 54.64 30.7191 54.64C30.7517 54.64 30.7843 54.64 30.8168 54.64C30.8494 54.64 30.8819 54.64 30.9144 54.64C30.9469 54.64 30.9794 54.64 31.0118 54.64C31.0443 54.64 31.0768 54.64 31.1092 54.64C31.1416 54.64 31.174 54.64 31.2064 54.64C31.2388 54.64 31.2712 54.64 31.3036 54.64C31.3359 54.64 31.3683 54.64 31.4006 54.64C31.4329 54.64 31.4652 54.64 31.4975 54.64C31.5298 54.64 31.562 54.64 31.5943 54.64C31.6265 54.64 31.6587 54.64 31.6909 54.64C31.7231 54.64 31.7553 54.64 31.7875 54.64C31.8197 54.64 31.8518 54.64 31.8839 54.64C31.916 54.64 31.9481 54.64 31.9802 54.64C32.0123 54.64 32.0443 54.64 32.0764 54.64C32.1084 54.64 32.1404 54.64 32.1724 54.64C32.2044 54.64 32.2364 54.64 32.2683 54.64C32.3003 54.64 32.3322 54.64 32.3641 54.64C32.396 54.64 32.4279 54.64 32.4598 54.64C32.4916 54.64 32.5235 54.64 32.5553 54.64C32.5871 54.64 32.6189 54.64 32.6507 54.64C32.6824 54.64 32.7142 54.64 32.7459 54.64C32.7776 54.64 32.8093 54.64 32.841 54.64C32.8727 54.64 32.9044 54.64 32.936 54.64C32.9676 54.64 32.9992 54.64 33.0308 54.64C33.0624 54.64 33.0939 54.64 33.1255 54.64C33.157 54.64 33.1885 54.64 33.22 54.64C33.2515 54.64 33.2829 54.64 33.3144 54.64C33.3458 54.64 33.3772 54.64 33.4086 54.64C33.44 54.64 33.4714 54.64 33.5027 54.64C33.534 54.64 33.5653 54.64 33.5966 54.64C33.6279 54.64 33.6591 54.64 33.6904 54.64C33.7216 54.64 33.7528 54.64 33.784 54.64C33.8152 54.64 33.8463 54.64 33.8774 54.64C33.9086 54.64 33.9397 54.64 33.9707 54.64C34.0018 54.64 34.0328 54.64 34.0639 54.64C34.0949 54.64 34.1259 54.64 34.1568 54.64C34.1878 54.64 34.2187 54.64 34.2496 54.64C34.2805 54.64 34.3114 54.64 34.3423 54.64C34.3731 54.64 34.4039 54.64 34.4347 54.64C34.4655 54.64 34.4963 54.64 34.527 54.64C34.5578 54.64 34.5885 54.64 34.6191 54.64C34.6498 54.64 34.6805 54.64 34.7111 54.64C34.7417 54.64 34.7723 54.64 34.8029 54.64C34.8334 54.64 34.864 54.64 34.8945 54.64C34.925 54.64 34.9554 54.64 34.9859 54.64C35.0163 54.64 35.0467 54.64 35.0771 54.64C35.1075 54.64 35.1378 54.64 35.1682 54.64C35.1985 54.64 35.2288 54.64 35.259 54.64C35.2893 54.64 35.3195 54.64 35.3497 54.64C35.3799 54.64 35.4101 54.64 35.4402 54.64C35.4703 54.64 35.5004 54.64 35.5305 54.64C35.5606 54.64 35.5906 54.64 35.6206 54.64C35.6506 54.64 35.6806 54.64 35.7105 54.64C35.7405 54.64 35.7704 54.64 35.8002 54.64C35.8301 54.64 35.86 54.64 35.8898 54.64C35.9196 54.64 35.9494 54.64 35.9791 54.64C36.0088 54.64 36.0386 54.64 36.0682 54.64C36.0979 54.64 36.1275 54.64 36.1572 54.64C36.1868 54.64 36.2163 54.64 36.2459 54.64C36.2754 54.64 36.3049 54.64 36.3344 54.64C36.3639 54.64 36.3933 54.64 36.4227 54.64C36.4521 54.64 36.4815 54.64 36.5108 54.64C36.5401 54.64 36.5694 54.64 36.5987 54.64C36.628 54.64 36.6572 54.64 36.6864 54.64C36.7156 54.64 36.7447 54.64 36.7738 54.64C36.803 54.64 36.832 54.64 36.8611 54.64C36.8901 54.64 36.9191 54.64 36.9481 54.64C36.9771 54.64 37.006 54.64 37.0349 54.64C37.0638 54.64 37.0927 54.64 37.1215 54.64C37.1504 54.64 37.1791 54.64 37.2079 54.64C37.2367 54.64 37.2654 54.64 37.294 54.64C37.3227 54.64 37.3514 54.64 37.38 54.64C37.4086 54.64 37.4371 54.64 37.4657 54.64C37.4942 54.64 37.5227 54.64 37.5511 54.64C37.5796 54.64 37.608 54.64 37.6364 54.64C37.6647 54.64 37.6931 54.64 37.7214 54.64C37.7496 54.64 37.7779 54.64 37.8061 54.64C37.8343 54.64 37.8625 54.64 37.8906 54.64C37.9188 54.64 37.9469 54.64 37.9749 54.64C38.003 54.64 38.031 54.64 38.059 54.64C38.087 54.64 38.1149 54.64 38.1428 54.64C38.1707 54.64 38.1986 54.64 38.2264 54.64C38.2542 54.64 38.282 54.64 38.3097 54.64C38.3374 54.64 38.3651 54.64 38.3928 54.64C38.4204 54.64 38.448 54.64 38.4756 54.64C38.5032 54.64 38.5307 54.64 38.5582 54.64C38.5857 54.64 38.6131 54.64 38.6405 54.64C38.6679 54.64 38.6953 54.64 38.7226 54.64C38.7499 54.64 38.7772 54.64 38.8044 54.64C38.8316 54.64 38.8588 54.64 38.8859 54.64C38.9131 54.64 38.9402 54.64 38.9672 54.64C38.9943 54.64 39.0213 54.64 39.0483 54.64C39.0753 54.64 39.1022 54.64 39.1291 54.64C39.1559 54.64 39.1828 54.64 39.2096 54.64C39.2364 54.64 39.2631 54.64 39.2898 54.64C39.3165 54.64 39.3432 54.64 39.3698 54.64C39.3964 54.64 39.423 54.64 39.4495 54.64C39.476 54.64 39.5025 54.64 39.529 54.64C39.5554 54.64 39.5818 54.64 39.6081 54.64C39.6345 54.64 39.6608 54.64 39.687 54.64C39.7133 54.64 39.7395 54.64 39.7656 54.64C39.7918 54.64 39.8179 54.64 39.844 54.64C39.8701 54.64 39.8961 54.64 39.9221 54.64C39.948 54.64 39.974 54.64 39.9998 54.64C40.0257 54.64 40.0515 54.64 40.0773 54.64C40.1031 54.64 40.1289 54.64 40.1545 54.64C40.1802 54.64 40.2059 54.64 40.2315 54.64C40.2571 54.64 40.2826 54.64 40.3081 54.64C40.3336 54.64 40.3591 54.64 40.3845 54.64C40.4099 54.64 40.4352 54.64 40.4605 54.64C40.4858 54.64 40.5111 54.64 40.5363 54.64C40.5615 54.64 40.5867 54.64 40.6118 54.64C40.6369 54.64 40.6619 54.64 40.6869 54.64C40.7119 54.64 40.7369 54.64 40.7618 54.64C40.7867 54.64 40.8116 54.64 40.8364 54.64C40.8612 54.64 40.886 54.64 40.9107 54.64C40.9354 54.64 40.96 54.64 40.9846 54.64C41.0092 54.64 41.0338 54.64 41.0583 54.64C41.0828 54.64 41.1073 54.64 41.1317 54.64C41.1561 54.64 41.1804 54.64 41.2047 54.64C41.229 54.64 41.2533 54.64 41.2775 54.64C41.3017 54.64 41.3258 54.64 41.3499 54.64C41.374 54.64 41.398 54.64 41.422 54.64C41.446 54.64 41.4699 54.64 41.4938 54.64C41.5177 54.64 41.5415 54.64 41.5653 54.64C41.5891 54.64 41.6128 54.64 41.6364 54.64C41.6601 54.64 41.6837 54.64 41.7073 54.64C41.7308 54.64 41.7544 54.64 41.7778 54.64C41.8013 54.64 41.8247 54.64 41.848 54.64C41.8713 54.64 41.8946 54.64 41.9179 54.64C41.9411 54.64 41.9643 54.64 41.9874 54.64C42.0105 54.64 42.0336 54.64 42.0566 54.64C42.0796 54.64 42.1026 54.64 42.1255 54.64C42.1484 54.64 42.1713 54.64 42.1941 54.64C42.2169 54.64 42.2396 54.64 42.2623 54.64C42.285 54.64 42.3076 54.64 42.3302 54.64C42.3527 54.64 42.3752 54.64 42.3977 54.64C42.4201 54.64 42.4425 54.64 42.4649 54.64C42.4872 54.64 42.5095 54.64 42.5317 54.64C42.554 54.64 42.5762 54.64 42.5983 54.64C42.6204 54.64 42.6424 54.64 42.6644 54.64C42.6864 54.64 42.7084 54.64 42.7303 54.64C42.7521 54.64 42.774 54.64 42.7957 54.64C42.8175 54.64 42.8392 54.64 42.8609 54.64C42.8825 54.64 42.9041 54.64 42.9256 54.64C42.9472 54.64 42.9686 54.64 42.9901 54.64C43.0115 54.64 43.0328 54.64 43.0541 54.64C43.0754 54.64 43.0967 54.64 43.1178 54.64C43.139 54.64 43.1601 54.64 43.1812 54.64C43.2022 54.64 43.2232 54.64 43.2442 54.64C43.2651 54.64 43.286 54.64 43.3068 54.64C43.3276 54.64 43.3484 54.64 43.3691 54.64C43.3898 54.64 43.4104 54.64 43.431 54.64C43.4515 54.64 43.4721 54.64 43.4925 54.64C43.513 54.64 43.5333 54.64 43.5537 54.64C43.574 54.64 43.5943 54.64 43.6145 54.64C43.6347 54.64 43.6548 54.64 43.6749 54.64C43.695 54.64 43.715 54.64 43.7349 54.64C43.7549 54.64 43.7748 54.64 43.7946 54.64C43.8144 54.64 43.8342 54.64 43.8539 54.64C43.8736 54.64 43.8932 54.64 43.9128 54.64C43.9324 54.64 43.9519 54.64 43.9713 54.64C43.9908 54.64 44.0102 54.64 44.0295 54.64C44.0488 54.64 44.0681 54.64 44.0872 54.64C44.1064 54.64 44.1256 54.64 44.1446 54.64C44.1637 54.64 44.1827 54.64 44.2016 54.64C44.2205 54.64 44.2394 54.64 44.2582 54.64C44.277 54.64 44.2958 54.64 44.3144 54.64C44.3331 54.64 44.3517 54.64 44.3702 54.64C44.3888 54.64 44.4073 54.64 44.4257 54.64C44.4441 54.64 44.4624 54.64 44.4807 54.64C44.499 54.64 44.5172 54.64 44.5353 54.64C44.5535 54.64 44.5715 54.64 44.5895 54.64C44.6076 54.64 44.6255 54.64 44.6434 54.64C44.6612 54.64 44.6791 54.64 44.6968 54.64C44.7145 54.64 44.7322 54.64 44.7498 54.64C44.7674 54.64 44.7849 54.64 44.8024 54.64C44.8199 54.64 44.8373 54.64 44.8546 54.64C44.8719 54.64 44.8892 54.64 44.9064 54.64C44.9236 54.64 44.9407 54.64 44.9578 54.64C44.9748 54.64 44.9918 54.64 45.0088 54.64C45.0257 54.64 45.0425 54.64 45.0593 54.64C45.0761 54.64 45.0928 54.64 45.1094 54.64C45.1261 54.64 45.1426 54.64 45.1591 54.64C45.1756 54.64 45.1921 54.64 45.2084 54.64C45.2248 54.64 45.2411 54.64 45.2573 54.64C45.2735 54.64 45.2897 54.64 45.3058 54.64C45.3218 54.64 45.3378 54.64 45.3538 54.64C45.3697 54.64 45.3856 54.64 45.4014 54.64C45.4172 54.64 45.4329 54.64 45.4485 54.64C45.4642 54.64 45.4798 54.64 45.4953 54.64C45.5108 54.64 45.5262 54.64 45.5416 54.64C45.5569 54.64 45.5722 54.64 45.5874 54.64C45.6026 54.64 45.6178 54.64 45.6329 54.64C45.6479 54.64 45.6629 54.64 45.6778 54.64C45.6928 54.64 45.7076 54.64 45.7224 54.64C45.7372 54.64 45.7519 54.64 45.7665 54.64C45.7811 54.64 45.7957 54.64 45.8102 54.64C45.8247 54.64 45.8391 54.64 45.8534 54.64C45.8677 54.64 45.882 54.64 45.8962 54.64C45.9104 54.64 45.9245 54.64 45.9385 54.64C45.9525 54.64 45.9665 54.64 45.9804 54.64C45.9943 54.64 46.0081 54.64 46.0218 54.64C46.0355 54.64 46.0492 54.64 46.0628 54.64C46.0764 54.64 46.0899 54.64 46.1033 54.64C46.1167 54.64 46.1301 54.64 46.1434 54.64C46.1566 54.64 46.1698 54.64 46.183 54.64C46.1961 54.64 46.2091 54.64 46.2221 54.64C46.2351 54.64 46.248 54.64 46.2608 54.64C46.2736 54.64 46.2863 54.64 46.299 54.64C46.3117 54.64 46.3242 54.64 46.3367 54.64C46.3493 54.64 46.3617 54.64 46.374 54.64C46.3864 54.64 46.3986 54.64 46.4108 54.64C46.423 54.64 46.4352 54.64 46.4472 54.64C46.4592 54.64 46.4712 54.64 46.4831 54.64C46.4949 54.64 46.5067 54.64 46.5185 54.64C46.5302 54.64 46.5418 54.64 46.5534 54.64C46.5649 54.64 46.5764 54.64 46.5878 54.64C46.5992 54.64 46.6105 54.64 46.6218 54.64C46.633 54.64 46.6442 54.64 46.6553 54.64C46.6663 54.64 46.6773 54.64 46.6883 54.64C46.6992 54.64 46.71 54.64 46.7208 54.64C46.7315 54.64 46.7422 54.64 46.7528 54.64C46.7634 54.64 46.7739 54.64 46.7844 54.64C46.7948 54.64 46.8051 54.64 46.8154 54.64C46.8257 54.64 46.8359 54.64 46.846 54.64C46.8561 54.64 46.8661 54.64 46.876 54.64C46.886 54.64 46.8958 54.64 46.9056 54.64C46.9154 54.64 46.9251 54.64 46.9347 54.64C46.9443 54.64 46.9538 54.64 46.9633 54.64C46.9727 54.64 46.9821 54.64 46.9913 54.64C47.0006 54.64 47.0098 54.64 47.0189 54.64C47.028 54.64 47.037 54.64 47.046 54.64C47.0549 54.64 47.0638 54.64 47.0726 54.64C47.0813 54.64 47.09 54.64 47.0986 54.64C47.1072 54.64 47.1157 54.64 47.1242 54.64C47.1326 54.64 47.141 54.64 47.1492 54.64C47.1575 54.64 47.1657 54.64 47.1737 54.64C47.1818 54.64 47.1898 54.64 47.1978 54.64C47.2057 54.64 47.2135 54.64 47.2213 54.64C47.229 54.64 47.2367 54.64 47.2442 54.64C47.2518 54.64 47.2593 54.64 47.2667 54.64C47.2741 54.64 47.2814 54.64 47.2887 54.64C47.2959 54.64 47.303 54.64 47.3101 54.64C47.3171 54.64 47.3241 54.64 47.331 54.64C47.3379 54.64 47.3446 54.64 47.3513 54.64C47.3581 54.64 47.3647 54.64 47.3712 54.64C47.3777 54.64 47.3842 54.64 47.3905 54.64C47.3969 54.64 47.4031 54.64 47.4093 54.64C47.4155 54.64 47.4215 54.64 47.4275 54.64C47.4335 54.64 47.4394 54.64 47.4453 54.64C47.4511 54.64 47.4568 54.64 47.4624 54.64C47.4681 54.64 47.4736 54.64 47.4791 54.64C47.4845 54.64 47.4899 54.64 47.4952 54.64C47.5005 54.64 47.5057 54.64 47.5107 54.64C47.5158 54.64 47.5209 54.64 47.5258 54.64C47.5307 54.64 47.5355 54.64 47.5402 54.64C47.545 54.64 47.5496 54.64 47.5542 54.64C47.5587 54.64 47.5632 54.64 47.5676 54.64C47.5719 54.64 47.5762 54.64 47.5804 54.64C47.5846 54.64 47.5887 54.64 47.5927 54.64C47.5967 54.64 47.6006 54.64 47.6044 54.64C47.6082 54.64 47.6119 54.64 47.6156 54.64C47.6192 54.64 47.6227 54.64 47.6262 54.64C47.6296 54.64 47.633 54.64 47.6362 54.64C47.6395 54.64 47.6426 54.64 47.6457 54.64C47.6488 54.64 47.6518 54.64 47.6546 54.64C47.6575 54.64 47.6603 54.64 47.663 54.64C47.6657 54.64 47.6683 54.64 47.6708 54.64C47.6733 54.64 47.6757 54.64 47.6781 54.64C47.6804 54.64 47.6826 54.64 47.6847 54.64C47.6868 54.64 47.6889 54.64 47.6908 54.64C47.6927 54.64 47.6946 54.64 47.6963 54.64C47.6981 54.64 47.6997 54.64 47.7013 54.64C47.7028 54.64 47.7043 54.64 47.7057 54.64C47.707 54.64 47.7083 54.64 47.7095 54.64C47.7106 54.64 47.7117 54.64 47.7127 54.64C47.7136 54.64 47.7145 54.64 47.7153 54.64C47.7161 54.64 47.7168 54.64 47.7174 54.64C47.7179 54.64 47.7184 54.64 47.7188 54.64C47.7192 54.64 47.7195 54.64 47.7197 54.64C47.7199 54.64 47.72 54.64 47.72 47.64C47.72 40.64 47.7199 40.64 47.7197 40.64C47.7195 40.64 47.7192 40.64 47.7188 40.64C47.7184 40.64 47.7179 40.64 47.7174 40.64C47.7168 40.64 47.7161 40.64 47.7153 40.64C47.7145 40.64 47.7136 40.64 47.7127 40.64C47.7117 40.64 47.7106 40.64 47.7095 40.64C47.7083 40.64 47.707 40.64 47.7057 40.64C47.7043 40.64 47.7028 40.64 47.7013 40.64C47.6997 40.64 47.6981 40.64 47.6963 40.64C47.6946 40.64 47.6927 40.64 47.6908 40.64C47.6889 40.64 47.6868 40.64 47.6847 40.64C47.6826 40.64 47.6804 40.64 47.6781 40.64C47.6757 40.64 47.6733 40.64 47.6708 40.64C47.6683 40.64 47.6657 40.64 47.663 40.64C47.6603 40.64 47.6575 40.64 47.6546 40.64C47.6518 40.64 47.6488 40.64 47.6457 40.64C47.6426 40.64 47.6395 40.64 47.6362 40.64C47.633 40.64 47.6296 40.64 47.6262 40.64C47.6227 40.64 47.6192 40.64 47.6156 40.64C47.6119 40.64 47.6082 40.64 47.6044 40.64C47.6006 40.64 47.5967 40.64 47.5927 40.64C47.5887 40.64 47.5846 40.64 47.5804 40.64C47.5762 40.64 47.5719 40.64 47.5676 40.64C47.5632 40.64 47.5587 40.64 47.5542 40.64C47.5496 40.64 47.545 40.64 47.5402 40.64C47.5355 40.64 47.5307 40.64 47.5258 40.64C47.5209 40.64 47.5158 40.64 47.5107 40.64C47.5057 40.64 47.5005 40.64 47.4952 40.64C47.4899 40.64 47.4845 40.64 47.4791 40.64C47.4736 40.64 47.4681 40.64 47.4624 40.64C47.4568 40.64 47.4511 40.64 47.4453 40.64C47.4394 40.64 47.4335 40.64 47.4275 40.64C47.4215 40.64 47.4155 40.64 47.4093 40.64C47.4031 40.64 47.3969 40.64 47.3905 40.64C47.3842 40.64 47.3777 40.64 47.3712 40.64C47.3647 40.64 47.3581 40.64 47.3513 40.64C47.3446 40.64 47.3379 40.64 47.331 40.64C47.3241 40.64 47.3171 40.64 47.3101 40.64C47.303 40.64 47.2959 40.64 47.2887 40.64C47.2814 40.64 47.2741 40.64 47.2667 40.64C47.2593 40.64 47.2518 40.64 47.2442 40.64C47.2367 40.64 47.229 40.64 47.2213 40.64C47.2135 40.64 47.2057 40.64 47.1978 40.64C47.1898 40.64 47.1818 40.64 47.1737 40.64C47.1657 40.64 47.1575 40.64 47.1492 40.64C47.141 40.64 47.1326 40.64 47.1242 40.64C47.1157 40.64 47.1072 40.64 47.0986 40.64C47.09 40.64 47.0813 40.64 47.0726 40.64C47.0638 40.64 47.0549 40.64 47.046 40.64C47.037 40.64 47.028 40.64 47.0189 40.64C47.0098 40.64 47.0006 40.64 46.9913 40.64C46.9821 40.64 46.9727 40.64 46.9633 40.64C46.9538 40.64 46.9443 40.64 46.9347 40.64C46.9251 40.64 46.9154 40.64 46.9056 40.64C46.8958 40.64 46.886 40.64 46.876 40.64C46.8661 40.64 46.8561 40.64 46.846 40.64C46.8359 40.64 46.8257 40.64 46.8154 40.64C46.8051 40.64 46.7948 40.64 46.7844 40.64C46.7739 40.64 46.7634 40.64 46.7528 40.64C46.7422 40.64 46.7315 40.64 46.7208 40.64C46.71 40.64 46.6992 40.64 46.6883 40.64C46.6773 40.64 46.6663 40.64 46.6553 40.64C46.6442 40.64 46.633 40.64 46.6218 40.64C46.6105 40.64 46.5992 40.64 46.5878 40.64C46.5764 40.64 46.5649 40.64 46.5534 40.64C46.5418 40.64 46.5302 40.64 46.5185 40.64C46.5067 40.64 46.4949 40.64 46.4831 40.64C46.4712 40.64 46.4592 40.64 46.4472 40.64C46.4352 40.64 46.423 40.64 46.4108 40.64C46.3986 40.64 46.3864 40.64 46.374 40.64C46.3617 40.64 46.3493 40.64 46.3367 40.64C46.3242 40.64 46.3117 40.64 46.299 40.64C46.2863 40.64 46.2736 40.64 46.2608 40.64C46.248 40.64 46.2351 40.64 46.2221 40.64C46.2091 40.64 46.1961 40.64 46.183 40.64C46.1698 40.64 46.1566 40.64 46.1434 40.64C46.1301 40.64 46.1167 40.64 46.1033 40.64C46.0899 40.64 46.0764 40.64 46.0628 40.64C46.0492 40.64 46.0355 40.64 46.0218 40.64C46.0081 40.64 45.9943 40.64 45.9804 40.64C45.9665 40.64 45.9525 40.64 45.9385 40.64C45.9245 40.64 45.9104 40.64 45.8962 40.64C45.882 40.64 45.8677 40.64 45.8534 40.64C45.8391 40.64 45.8247 40.64 45.8102 40.64C45.7957 40.64 45.7811 40.64 45.7665 40.64C45.7519 40.64 45.7372 40.64 45.7224 40.64C45.7076 40.64 45.6928 40.64 45.6778 40.64C45.6629 40.64 45.6479 40.64 45.6329 40.64C45.6178 40.64 45.6026 40.64 45.5874 40.64C45.5722 40.64 45.5569 40.64 45.5416 40.64C45.5262 40.64 45.5108 40.64 45.4953 40.64C45.4798 40.64 45.4642 40.64 45.4485 40.64C45.4329 40.64 45.4172 40.64 45.4014 40.64C45.3856 40.64 45.3697 40.64 45.3538 40.64C45.3378 40.64 45.3218 40.64 45.3058 40.64C45.2897 40.64 45.2735 40.64 45.2573 40.64C45.2411 40.64 45.2248 40.64 45.2084 40.64C45.1921 40.64 45.1756 40.64 45.1591 40.64C45.1426 40.64 45.1261 40.64 45.1094 40.64C45.0928 40.64 45.0761 40.64 45.0593 40.64C45.0425 40.64 45.0257 40.64 45.0088 40.64C44.9918 40.64 44.9748 40.64 44.9578 40.64C44.9407 40.64 44.9236 40.64 44.9064 40.64C44.8892 40.64 44.8719 40.64 44.8546 40.64C44.8373 40.64 44.8199 40.64 44.8024 40.64C44.7849 40.64 44.7674 40.64 44.7498 40.64C44.7322 40.64 44.7145 40.64 44.6968 40.64C44.6791 40.64 44.6612 40.64 44.6434 40.64C44.6255 40.64 44.6076 40.64 44.5895 40.64C44.5715 40.64 44.5535 40.64 44.5353 40.64C44.5172 40.64 44.499 40.64 44.4807 40.64C44.4624 40.64 44.4441 40.64 44.4257 40.64C44.4073 40.64 44.3888 40.64 44.3702 40.64C44.3517 40.64 44.3331 40.64 44.3144 40.64C44.2958 40.64 44.277 40.64 44.2582 40.64C44.2394 40.64 44.2205 40.64 44.2016 40.64C44.1827 40.64 44.1637 40.64 44.1446 40.64C44.1256 40.64 44.1064 40.64 44.0872 40.64C44.0681 40.64 44.0488 40.64 44.0295 40.64C44.0102 40.64 43.9908 40.64 43.9713 40.64C43.9519 40.64 43.9324 40.64 43.9128 40.64C43.8932 40.64 43.8736 40.64 43.8539 40.64C43.8342 40.64 43.8144 40.64 43.7946 40.64C43.7748 40.64 43.7549 40.64 43.7349 40.64C43.715 40.64 43.695 40.64 43.6749 40.64C43.6548 40.64 43.6347 40.64 43.6145 40.64C43.5943 40.64 43.574 40.64 43.5537 40.64C43.5333 40.64 43.513 40.64 43.4925 40.64C43.4721 40.64 43.4515 40.64 43.431 40.64C43.4104 40.64 43.3898 40.64 43.3691 40.64C43.3484 40.64 43.3276 40.64 43.3068 40.64C43.286 40.64 43.2651 40.64 43.2442 40.64C43.2232 40.64 43.2022 40.64 43.1812 40.64C43.1601 40.64 43.139 40.64 43.1178 40.64C43.0967 40.64 43.0754 40.64 43.0541 40.64C43.0328 40.64 43.0115 40.64 42.9901 40.64C42.9686 40.64 42.9472 40.64 42.9256 40.64C42.9041 40.64 42.8825 40.64 42.8609 40.64C42.8392 40.64 42.8175 40.64 42.7957 40.64C42.774 40.64 42.7521 40.64 42.7303 40.64C42.7084 40.64 42.6864 40.64 42.6644 40.64C42.6424 40.64 42.6204 40.64 42.5983 40.64C42.5762 40.64 42.554 40.64 42.5317 40.64C42.5095 40.64 42.4872 40.64 42.4649 40.64C42.4425 40.64 42.4201 40.64 42.3977 40.64C42.3752 40.64 42.3527 40.64 42.3302 40.64C42.3076 40.64 42.285 40.64 42.2623 40.64C42.2396 40.64 42.2169 40.64 42.1941 40.64C42.1713 40.64 42.1484 40.64 42.1255 40.64C42.1026 40.64 42.0796 40.64 42.0566 40.64C42.0336 40.64 42.0105 40.64 41.9874 40.64C41.9643 40.64 41.9411 40.64 41.9179 40.64C41.8946 40.64 41.8713 40.64 41.848 40.64C41.8247 40.64 41.8013 40.64 41.7778 40.64C41.7544 40.64 41.7308 40.64 41.7073 40.64C41.6837 40.64 41.6601 40.64 41.6364 40.64C41.6128 40.64 41.5891 40.64 41.5653 40.64C41.5415 40.64 41.5177 40.64 41.4938 40.64C41.4699 40.64 41.446 40.64 41.422 40.64C41.398 40.64 41.374 40.64 41.3499 40.64C41.3258 40.64 41.3017 40.64 41.2775 40.64C41.2533 40.64 41.229 40.64 41.2047 40.64C41.1804 40.64 41.1561 40.64 41.1317 40.64C41.1073 40.64 41.0828 40.64 41.0583 40.64C41.0338 40.64 41.0092 40.64 40.9846 40.64C40.96 40.64 40.9354 40.64 40.9107 40.64C40.886 40.64 40.8612 40.64 40.8364 40.64C40.8116 40.64 40.7867 40.64 40.7618 40.64C40.7369 40.64 40.7119 40.64 40.6869 40.64C40.6619 40.64 40.6369 40.64 40.6118 40.64C40.5867 40.64 40.5615 40.64 40.5363 40.64C40.5111 40.64 40.4858 40.64 40.4605 40.64C40.4352 40.64 40.4099 40.64 40.3845 40.64C40.3591 40.64 40.3336 40.64 40.3081 40.64C40.2826 40.64 40.2571 40.64 40.2315 40.64C40.2059 40.64 40.1802 40.64 40.1545 40.64C40.1289 40.64 40.1031 40.64 40.0773 40.64C40.0515 40.64 40.0257 40.64 39.9998 40.64C39.974 40.64 39.948 40.64 39.9221 40.64C39.8961 40.64 39.8701 40.64 39.844 40.64C39.8179 40.64 39.7918 40.64 39.7656 40.64C39.7395 40.64 39.7133 40.64 39.687 40.64C39.6608 40.64 39.6345 40.64 39.6081 40.64C39.5818 40.64 39.5554 40.64 39.529 40.64C39.5025 40.64 39.476 40.64 39.4495 40.64C39.423 40.64 39.3964 40.64 39.3698 40.64C39.3432 40.64 39.3165 40.64 39.2898 40.64C39.2631 40.64 39.2364 40.64 39.2096 40.64C39.1828 40.64 39.1559 40.64 39.1291 40.64C39.1022 40.64 39.0753 40.64 39.0483 40.64C39.0213 40.64 38.9943 40.64 38.9672 40.64C38.9402 40.64 38.9131 40.64 38.8859 40.64C38.8588 40.64 38.8316 40.64 38.8044 40.64C38.7772 40.64 38.7499 40.64 38.7226 40.64C38.6953 40.64 38.6679 40.64 38.6405 40.64C38.6131 40.64 38.5857 40.64 38.5582 40.64C38.5307 40.64 38.5032 40.64 38.4756 40.64C38.448 40.64 38.4204 40.64 38.3928 40.64C38.3651 40.64 38.3374 40.64 38.3097 40.64C38.282 40.64 38.2542 40.64 38.2264 40.64C38.1986 40.64 38.1707 40.64 38.1428 40.64C38.1149 40.64 38.087 40.64 38.059 40.64C38.031 40.64 38.003 40.64 37.9749 40.64C37.9469 40.64 37.9188 40.64 37.8906 40.64C37.8625 40.64 37.8343 40.64 37.8061 40.64C37.7779 40.64 37.7496 40.64 37.7214 40.64C37.6931 40.64 37.6647 40.64 37.6364 40.64C37.608 40.64 37.5796 40.64 37.5511 40.64C37.5227 40.64 37.4942 40.64 37.4657 40.64C37.4371 40.64 37.4086 40.64 37.38 40.64C37.3514 40.64 37.3227 40.64 37.294 40.64C37.2654 40.64 37.2367 40.64 37.2079 40.64C37.1791 40.64 37.1504 40.64 37.1215 40.64C37.0927 40.64 37.0638 40.64 37.0349 40.64C37.006 40.64 36.9771 40.64 36.9481 40.64C36.9191 40.64 36.8901 40.64 36.8611 40.64C36.832 40.64 36.803 40.64 36.7738 40.64C36.7447 40.64 36.7156 40.64 36.6864 40.64C36.6572 40.64 36.628 40.64 36.5987 40.64C36.5694 40.64 36.5401 40.64 36.5108 40.64C36.4815 40.64 36.4521 40.64 36.4227 40.64C36.3933 40.64 36.3639 40.64 36.3344 40.64C36.3049 40.64 36.2754 40.64 36.2459 40.64C36.2163 40.64 36.1868 40.64 36.1572 40.64C36.1275 40.64 36.0979 40.64 36.0682 40.64C36.0386 40.64 36.0088 40.64 35.9791 40.64C35.9494 40.64 35.9196 40.64 35.8898 40.64C35.86 40.64 35.8301 40.64 35.8002 40.64C35.7704 40.64 35.7405 40.64 35.7105 40.64C35.6806 40.64 35.6506 40.64 35.6206 40.64C35.5906 40.64 35.5606 40.64 35.5305 40.64C35.5004 40.64 35.4703 40.64 35.4402 40.64C35.4101 40.64 35.3799 40.64 35.3497 40.64C35.3195 40.64 35.2893 40.64 35.259 40.64C35.2288 40.64 35.1985 40.64 35.1682 40.64C35.1378 40.64 35.1075 40.64 35.0771 40.64C35.0467 40.64 35.0163 40.64 34.9859 40.64C34.9554 40.64 34.925 40.64 34.8945 40.64C34.864 40.64 34.8334 40.64 34.8029 40.64C34.7723 40.64 34.7417 40.64 34.7111 40.64C34.6805 40.64 34.6498 40.64 34.6191 40.64C34.5885 40.64 34.5578 40.64 34.527 40.64C34.4963 40.64 34.4655 40.64 34.4347 40.64C34.4039 40.64 34.3731 40.64 34.3423 40.64C34.3114 40.64 34.2805 40.64 34.2496 40.64C34.2187 40.64 34.1878 40.64 34.1568 40.64C34.1259 40.64 34.0949 40.64 34.0639 40.64C34.0328 40.64 34.0018 40.64 33.9707 40.64C33.9397 40.64 33.9086 40.64 33.8774 40.64C33.8463 40.64 33.8152 40.64 33.784 40.64C33.7528 40.64 33.7216 40.64 33.6904 40.64C33.6591 40.64 33.6279 40.64 33.5966 40.64C33.5653 40.64 33.534 40.64 33.5027 40.64C33.4714 40.64 33.44 40.64 33.4086 40.64C33.3772 40.64 33.3458 40.64 33.3144 40.64C33.2829 40.64 33.2515 40.64 33.22 40.64C33.1885 40.64 33.157 40.64 33.1255 40.64C33.0939 40.64 33.0624 40.64 33.0308 40.64C32.9992 40.64 32.9676 40.64 32.936 40.64C32.9044 40.64 32.8727 40.64 32.841 40.64C32.8093 40.64 32.7776 40.64 32.7459 40.64C32.7142 40.64 32.6824 40.64 32.6507 40.64C32.6189 40.64 32.5871 40.64 32.5553 40.64C32.5235 40.64 32.4916 40.64 32.4598 40.64C32.4279 40.64 32.396 40.64 32.3641 40.64C32.3322 40.64 32.3003 40.64 32.2683 40.64C32.2364 40.64 32.2044 40.64 32.1724 40.64C32.1404 40.64 32.1084 40.64 32.0764 40.64C32.0443 40.64 32.0123 40.64 31.9802 40.64C31.9481 40.64 31.916 40.64 31.8839 40.64C31.8518 40.64 31.8197 40.64 31.7875 40.64C31.7553 40.64 31.7231 40.64 31.6909 40.64C31.6587 40.64 31.6265 40.64 31.5943 40.64C31.562 40.64 31.5298 40.64 31.4975 40.64C31.4652 40.64 31.4329 40.64 31.4006 40.64C31.3683 40.64 31.3359 40.64 31.3036 40.64C31.2712 40.64 31.2388 40.64 31.2064 40.64C31.174 40.64 31.1416 40.64 31.1092 40.64C31.0768 40.64 31.0443 40.64 31.0118 40.64C30.9794 40.64 30.9469 40.64 30.9144 40.64C30.8819 40.64 30.8494 40.64 30.8168 40.64C30.7843 40.64 30.7517 40.64 30.7191 40.64C30.6866 40.64 30.654 40.64 30.6214 40.64C30.5888 40.64 30.5561 40.64 30.5235 40.64C30.4908 40.64 30.4582 40.64 30.4255 40.64C30.3928 40.64 30.3601 40.64 30.3274 40.64C30.2947 40.64 30.262 40.64 30.2292 40.64C30.1965 40.64 30.1638 40.64 30.131 40.64C30.0982 40.64 30.0654 40.64 30.0326 40.64C29.9998 40.64 29.967 40.64 29.9342 40.64C29.9013 40.64 29.8685 40.64 29.8356 40.64C29.8028 40.64 29.7699 40.64 29.737 40.64C29.7041 40.64 29.6712 40.64 29.6383 40.64C29.6053 40.64 29.5724 40.64 29.5395 40.64C29.5065 40.64 29.4736 40.64 29.4406 40.64C29.4076 40.64 29.3746 40.64 29.3416 40.64C29.3086 40.64 29.2756 40.64 29.2426 40.64C29.2095 40.64 29.1765 40.64 29.1434 40.64C29.1104 40.64 29.0773 40.64 29.0442 40.64C29.0112 40.64 28.9781 40.64 28.945 40.64C28.9119 40.64 28.8787 40.64 28.8456 40.64C28.8125 40.64 28.7794 40.64 28.7462 40.64C28.7131 40.64 28.6799 40.64 28.6467 40.64C28.6135 40.64 28.5804 40.64 28.5472 40.64C28.514 40.64 28.4808 40.64 28.4475 40.64C28.4143 40.64 28.3811 40.64 28.3479 40.64C28.3146 40.64 28.2814 40.64 28.2481 40.64C28.2149 40.64 28.1816 40.64 28.1483 40.64C28.115 40.64 28.0817 40.64 28.0484 40.64C28.0152 40.64 27.9818 40.64 27.9485 40.64C27.9152 40.64 27.8819 40.64 27.8486 40.64C27.8152 40.64 27.7819 40.64 27.7485 40.64C27.7152 40.64 27.6818 40.64 27.6484 40.64C27.6151 40.64 27.5817 40.64 27.5483 40.64C27.5149 40.64 27.4815 40.64 27.4481 40.64C27.4147 40.64 27.3813 40.64 27.3479 40.64C27.3145 40.64 27.2811 40.64 27.2476 40.64C27.2142 40.64 27.1808 40.64 27.1473 40.64C27.1139 40.64 27.0804 40.64 27.047 40.64C27.0135 40.64 26.98 40.64 26.9466 40.64C26.9131 40.64 26.8796 40.64 26.8461 40.64C26.8126 40.64 26.7792 40.64 26.7457 40.64C26.7122 40.64 26.6787 40.64 26.6452 40.64C26.6116 40.64 26.5781 40.64 26.5446 40.64C26.5111 40.64 26.4776 40.64 26.444 40.64C26.4105 40.64 26.377 40.64 26.3435 40.64C26.3099 40.64 26.2764 40.64 26.2428 40.64C26.2093 40.64 26.1757 40.64 26.1422 40.64C26.1086 40.64 26.0751 40.64 26.0415 40.64C26.0079 40.64 25.9744 40.64 25.9408 40.64C25.9072 40.64 25.8737 40.64 25.8401 40.64C25.8065 40.64 25.7729 40.64 25.7393 40.64C25.7058 40.64 25.6722 40.64 25.6386 40.64C25.605 40.64 25.5714 40.64 25.5378 40.64C25.5042 40.64 25.4706 40.64 25.437 40.64C25.4034 40.64 25.3698 40.64 25.3362 40.64C25.3026 40.64 25.269 40.64 25.2354 40.64C25.2018 40.64 25.1682 40.64 25.1346 40.64C25.101 40.64 25.0674 40.64 25.0338 40.64C25.0002 40.64 24.9666 40.64 24.933 40.64C24.8994 40.64 24.8657 40.64 24.8321 40.64C24.7985 40.64 24.7649 40.64 24.7313 40.64C24.6977 40.64 24.6641 40.64 24.6305 40.64C24.5969 40.64 24.5632 40.64 24.5296 40.64C24.496 40.64 24.4624 40.64 24.4288 40.64C24.3952 40.64 24.3616 40.64 24.328 40.64C24.2944 40.64 24.2608 40.64 24.2272 40.64C24.1936 40.64 24.16 40.64 24.1264 40.64C24.0928 40.64 24.0592 40.64 24.0256 40.64C23.992 40.64 23.9584 40.64 23.9248 40.64C23.8912 40.64 23.8576 40.64 23.824 40.64C23.7904 40.64 23.7568 40.64 23.7232 40.64C23.6897 40.64 23.6561 40.64 23.6225 40.64C23.5889 40.64 23.5554 40.64 23.5218 40.64C23.4882 40.64 23.4546 40.64 23.4211 40.64C23.3875 40.64 23.354 40.64 23.3204 40.64C23.2869 40.64 23.2533 40.64 23.2198 40.64C23.1862 40.64 23.1527 40.64 23.1191 40.64C23.0856 40.64 23.0521 40.64 23.0185 40.64C22.985 40.64 22.9515 40.64 22.918 40.64C22.8844 40.64 22.8509 40.64 22.8174 40.64C22.7839 40.64 22.7504 40.64 22.7169 40.64C22.6834 40.64 22.6499 40.64 22.6164 40.64C22.5829 40.64 22.5495 40.64 22.516 40.64C22.4825 40.64 22.4491 40.64 22.4156 40.64C22.3821 40.64 22.3487 40.64 22.3152 40.64C22.2818 40.64 22.2484 40.64 22.2149 40.64C22.1815 40.64 22.1481 40.64 22.1146 40.64C22.0812 40.64 22.0478 40.64 22.0144 40.64C21.981 40.64 21.9476 40.64 21.9142 40.64C21.8808 40.64 21.8475 40.64 21.8141 40.64C21.7807 40.64 21.7474 40.64 21.714 40.64C21.6807 40.64 21.6473 40.64 21.614 40.64C21.5806 40.64 21.5473 40.64 21.514 40.64C21.4807 40.64 21.4474 40.64 21.4141 40.64C21.3808 40.64 21.3475 40.64 21.3142 40.64C21.2809 40.64 21.2477 40.64 21.2144 40.64C21.1811 40.64 21.1479 40.64 21.1146 40.64C21.0814 40.64 21.0482 40.64 21.015 40.64C20.9817 40.64 20.9485 40.64 20.9153 40.64C20.8821 40.64 20.8489 40.64 20.8158 40.64C20.7826 40.64 20.7494 40.64 20.7163 40.64C20.6831 40.64 20.65 40.64 20.6169 40.64C20.5837 40.64 20.5506 40.64 20.5175 40.64C20.4844 40.64 20.4513 40.64 20.4182 40.64C20.3851 40.64 20.3521 40.64 20.319 40.64C20.286 40.64 20.2529 40.64 20.2199 40.64C20.1869 40.64 20.1538 40.64 20.1208 40.64C20.0878 40.64 20.0548 40.64 20.0219 40.64C19.9889 40.64 19.9559 40.64 19.923 40.64C19.89 40.64 19.8571 40.64 19.8242 40.64C19.7912 40.64 19.7583 40.64 19.7254 40.64C19.6925 40.64 19.6597 40.64 19.6268 40.64C19.5939 40.64 19.5611 40.64 19.5282 40.64C19.4954 40.64 19.4626 40.64 19.4298 40.64C19.397 40.64 19.3642 40.64 19.3314 40.64C19.2986 40.64 19.2659 40.64 19.2331 40.64C19.2004 40.64 19.1677 40.64 19.1349 40.64C19.1022 40.64 19.0695 40.64 19.0369 40.64C19.0042 40.64 18.9715 40.64 18.9389 40.64C18.9062 40.64 18.8736 40.64 18.841 40.64C18.8084 40.64 18.7758 40.64 18.7432 40.64C18.7106 40.64 18.6781 40.64 18.6455 40.64C18.613 40.64 18.5804 40.64 18.5479 40.64C18.5154 40.64 18.4829 40.64 18.4505 40.64C18.418 40.64 18.3855 40.64 18.3531 40.64C18.3207 40.64 18.2882 40.64 18.2558 40.64C18.2235 40.64 18.1911 40.64 18.1587 40.64C18.1263 40.64 18.094 40.64 18.0617 40.64C18.0294 40.64 17.9971 40.64 17.9648 40.64C17.9325 40.64 17.9002 40.64 17.868 40.64C17.8357 40.64 17.8035 40.64 17.7713 40.64C17.7391 40.64 17.7069 40.64 17.6747 40.64C17.6426 40.64 17.6104 40.64 17.5783 40.64C17.5462 40.64 17.5141 40.64 17.482 40.64C17.4499 40.64 17.4179 40.64 17.3858 40.64C17.3538 40.64 17.3218 40.64 17.2898 40.64C17.2578 40.64 17.2258 40.64 17.1938 40.64C17.1619 40.64 17.13 40.64 17.098 40.64C17.0661 40.64 17.0342 40.64 17.0024 40.64C16.9705 40.64 16.9387 40.64 16.9069 40.64C16.875 40.64 16.8432 40.64 16.8115 40.64C16.7797 40.64 16.7479 40.64 16.7162 40.64C16.6845 40.64 16.6528 40.64 16.6211 40.64C16.5894 40.64 16.5578 40.64 16.5261 40.64C16.4945 40.64 16.4629 40.64 16.4313 40.64C16.3997 40.64 16.3681 40.64 16.3366 40.64C16.3051 40.64 16.2736 40.64 16.2421 40.64C16.2106 40.64 16.1791 40.64 16.1477 40.64C16.1162 40.64 16.0848 40.64 16.0534 40.64C16.022 40.64 15.9907 40.64 15.9593 40.64C15.928 40.64 15.8967 40.64 15.8654 40.64C15.8341 40.64 15.8029 40.64 15.7716 40.64C15.7404 40.64 15.7092 40.64 15.678 40.64C15.6468 40.64 15.6157 40.64 15.5845 40.64C15.5534 40.64 15.5223 40.64 15.4912 40.64C15.4602 40.64 15.4291 40.64 15.3981 40.64C15.3671 40.64 15.3361 40.64 15.3051 40.64C15.2741 40.64 15.2432 40.64 15.2123 40.64C15.1814 40.64 15.1505 40.64 15.1196 40.64C15.0888 40.64 15.058 40.64 15.0272 40.64C14.9964 40.64 14.9656 40.64 14.9349 40.64C14.9041 40.64 14.8734 40.64 14.8427 40.64C14.812 40.64 14.7814 40.64 14.7508 40.64C14.7201 40.64 14.6895 40.64 14.659 40.64C14.6284 40.64 14.5979 40.64 14.5674 40.64C14.5369 40.64 14.5064 40.64 14.4759 40.64C14.4455 40.64 14.4151 40.64 14.3847 40.64C14.3543 40.64 14.3239 40.64 14.2936 40.64C14.2633 40.64 14.233 40.64 14.2027 40.64C14.1725 40.64 14.1422 40.64 14.112 40.64C14.0818 40.64 14.0517 40.64 14.0215 40.64C13.9914 40.64 13.9613 40.64 13.9312 40.64C13.9011 40.64 13.8711 40.64 13.8411 40.64C13.8111 40.64 13.7811 40.64 13.7512 40.64C13.7212 40.64 13.6913 40.64 13.6614 40.64C13.6315 40.64 13.6017 40.64 13.5719 40.64C13.5421 40.64 13.5123 40.64 13.4825 40.64C13.4528 40.64 13.4231 40.64 13.3934 40.64C13.3637 40.64 13.3341 40.64 13.3044 40.64C13.2748 40.64 13.2453 40.64 13.2157 40.64C13.1862 40.64 13.1567 40.64 13.1272 40.64C13.0977 40.64 13.0683 40.64 13.0388 40.64C13.0094 40.64 12.9801 40.64 12.9507 40.64C12.9214 40.64 12.8921 40.64 12.8628 40.64C12.8336 40.64 12.8043 40.64 12.7751 40.64C12.7459 40.64 12.7168 40.64 12.6876 40.64C12.6585 40.64 12.6294 40.64 12.6004 40.64C12.5713 40.64 12.5423 40.64 12.5133 40.64C12.4843 40.64 12.4554 40.64 12.4265 40.64C12.3976 40.64 12.3687 40.64 12.3399 40.64C12.311 40.64 12.2822 40.64 12.2535 40.64C12.2247 40.64 12.196 40.64 12.1673 40.64C12.1386 40.64 12.11 40.64 12.0814 40.64C12.0528 40.64 12.0242 40.64 11.9957 40.64C11.9671 40.64 11.9386 40.64 11.9102 40.64C11.8817 40.64 11.8533 40.64 11.8249 40.64C11.7966 40.64 11.7682 40.64 11.7399 40.64C11.7116 40.64 11.6834 40.64 11.6551 40.64C11.6269 40.64 11.5987 40.64 11.5706 40.64C11.5424 40.64 11.5143 40.64 11.4863 40.64C11.4582 40.64 11.4302 40.64 11.4022 40.64C11.3742 40.64 11.3463 40.64 11.3184 40.64C11.2905 40.64 11.2626 40.64 11.2348 40.64C11.207 40.64 11.1792 40.64 11.1514 40.64C11.1237 40.64 11.096 40.64 11.0683 40.64C11.0407 40.64 11.0131 40.64 10.9855 40.64C10.9579 40.64 10.9304 40.64 10.9029 40.64C10.8754 40.64 10.848 40.64 10.8206 40.64C10.7932 40.64 10.7658 40.64 10.7385 40.64C10.7111 40.64 10.6839 40.64 10.6566 40.64C10.6294 40.64 10.6022 40.64 10.575 40.64C10.5479 40.64 10.5208 40.64 10.4937 40.64C10.4667 40.64 10.4396 40.64 10.4127 40.64C10.3857 40.64 10.3588 40.64 10.3319 40.64C10.305 40.64 10.2781 40.64 10.2513 40.64C10.2245 40.64 10.1978 40.64 10.1711 40.64C10.1443 40.64 10.1177 40.64 10.091 40.64C10.0644 40.64 10.0378 40.64 10.0113 40.64C9.98478 40.64 9.95829 40.64 9.93185 40.64C9.9054 40.64 9.87901 40.64 9.85266 40.64C9.8263 40.64 9.8 40.64 9.77374 40.64C9.74748 40.64 9.72126 40.64 9.69509 40.64C9.66893 40.64 9.6428 40.64 9.61673 40.64C9.59065 40.64 9.56462 40.64 9.53864 40.64C9.51266 40.64 9.48672 40.64 9.46084 40.64C9.43495 40.64 9.40911 40.64 9.38331 40.64C9.35752 40.64 9.33177 40.64 9.30608 40.64C9.28038 40.64 9.25473 40.64 9.22912 40.64C9.20352 40.64 9.17797 40.64 9.15246 40.64C9.12695 40.64 9.10149 40.64 9.07608 40.64C9.05067 40.64 9.02531 40.64 9 40.64V54.64ZM54.72 47.64C54.72 46.2948 54.8073 45.3886 54.9218 44.7988C55.0366 44.207 55.1322 44.1811 54.9844 44.4029C54.9023 44.526 54.7705 44.6866 54.5832 44.8449C54.3952 45.0038 54.2097 45.1112 54.0627 45.1762C53.7897 45.297 53.8179 45.2 54.44 45.2V31.2C50.3856 31.2 46.0819 32.5177 43.3357 36.6371C41.0701 40.0354 40.72 44.2222 40.72 47.64H54.72ZM54.44 45.2C54.8363 45.2 54.9183 45.2518 54.7918 45.21C54.6349 45.1583 54.2931 45.005 53.9405 44.6595C53.585 44.3111 53.4163 43.9609 53.3546 43.7812C53.3043 43.6349 53.36 43.708 53.36 44.12H67.36C67.36 40.97 66.528 37.3933 63.7395 34.6605C60.9768 31.9531 57.4387 31.2 54.44 31.2V45.2ZM53.3608 44.0171C53.35 44.7488 53.0688 46.2691 47.4371 48.6883C44.8849 49.7847 42.055 50.7244 38.7875 51.868C35.6968 52.9498 32.2172 54.2149 29.1155 55.8373L35.6045 68.2427C37.7028 67.1451 40.3032 66.1702 43.4125 65.082C46.345 64.0556 49.8351 62.8953 52.9629 61.5517C58.6912 59.0909 67.21 54.3711 67.3592 44.2229L53.3608 44.0171ZM29.0569 55.8683C23.1622 59.0232 15.8832 63.4078 10.1486 70.5938C4.27427 77.955 0.4 87.7604 0.4 101.08H14.4C14.4 90.7196 17.3257 84.045 21.0914 79.3262C24.9968 74.4322 30.1978 71.1368 35.6631 68.2116L29.0569 55.8683ZM0.4 101.08L0.4 123H14.4L14.4 101.08H0.4ZM7.4 130H103.4V116H7.4V130ZM110.4 123V91H96.4V123H110.4ZM103.4 84H51.08L51.08 98H103.4V84ZM57.7916 92.9886C57.6017 93.6296 57.2511 93.5658 58.17 92.9979C59.1392 92.3988 60.7218 91.7359 63.1985 90.9484C67.5221 89.5738 75.1961 87.7419 81.7969 85.1284C88.7871 82.3608 96.3012 78.1735 101.912 70.9124C107.614 63.5318 110.797 53.6992 110.397 40.7043L96.4033 41.1357C96.7228 51.5008 94.2055 57.9882 90.8334 62.3526C87.3688 66.8365 82.4329 69.8192 76.6431 72.1116C70.4639 74.5581 65.0279 75.6762 58.9565 77.6066C56.2357 78.4716 53.2995 79.5499 50.8094 81.089C48.2689 82.6592 45.5183 85.1304 44.3684 89.0114L57.7916 92.9886ZM185.784 0.959991C168.996 0.959991 154.769 7.1405 144.867 19.0177C135.096 30.7388 130.144 47.2666 130.144 67H144.144C144.144 49.4534 148.552 36.4612 155.62 27.9823C162.559 19.6595 172.652 14.96 185.784 14.96V0.959991ZM130.144 67C130.144 86.7334 135.096 103.261 144.867 114.982C154.769 126.859 168.996 133.04 185.784 133.04V119.04C172.652 119.04 162.559 114.341 155.62 106.018C148.552 97.5388 144.144 84.5466 144.144 67H130.144ZM185.784 133.04C202.643 133.04 216.878 126.865 226.766 114.976C236.519 103.249 241.424 86.7195 241.424 67H227.424C227.424 84.5605 223.049 97.5509 216.002 106.024C209.09 114.335 199.004 119.04 185.784 119.04V133.04ZM241.424 67C241.424 47.2805 236.519 30.7509 226.766 19.0239C216.878 7.13493 202.643 0.959991 185.784 0.959991V14.96C199.004 14.96 209.09 19.6651 216.002 27.976C223.049 36.4491 227.424 49.4395 227.424 67H241.424ZM185.784 84.64C185.197 84.64 184.975 84.5066 184.803 84.3745C184.537 84.1698 183.985 83.606 183.379 82.219C182.102 79.294 181.264 74.2957 181.264 67H167.264C167.264 74.9043 168.106 82.226 170.549 87.821C171.803 90.694 173.621 93.4402 176.279 95.4805C179.032 97.5934 182.29 98.64 185.784 98.64V84.64ZM181.264 67C181.264 59.7043 182.102 54.706 183.379 51.781C183.985 50.394 184.537 49.8302 184.803 49.6255C184.975 49.4934 185.197 49.36 185.784 49.36V35.36C182.29 35.36 179.032 36.4066 176.279 38.5195C173.621 40.5598 171.803 43.306 170.549 46.179C168.106 51.774 167.264 59.0956 167.264 67H181.264ZM185.784 49.36C186.441 49.36 186.682 49.5113 186.845 49.636C187.102 49.8315 187.643 50.3787 188.238 51.7556C189.499 54.6751 190.304 59.6688 190.304 67H204.304C204.304 59.1312 203.509 51.8049 201.09 46.2044C199.845 43.3213 198.026 40.5585 195.342 38.509C192.565 36.3887 189.287 35.36 185.784 35.36V49.36ZM190.304 67C190.304 74.3312 189.499 79.3249 188.238 82.2444C187.643 83.6213 187.102 84.1685 186.845 84.364C186.682 84.4887 186.441 84.64 185.784 84.64V98.64C189.287 98.64 192.565 97.6113 195.342 95.491C198.026 93.4415 199.845 90.6787 201.09 87.7956C203.509 82.1951 204.304 74.8688 204.304 67H190.304ZM291.539 11V3.99999H290.108L288.791 4.56174L291.539 11ZM266.419 21.72L263.671 15.2817L259.419 17.0965V21.72H266.419ZM266.419 44.6H259.419V51.6H266.419V44.6ZM289.939 44.6H296.939V37.6H289.939V44.6ZM289.939 123H282.939V130H289.939V123ZM328.019 123V130H335.019V123H328.019ZM328.019 11H335.019V3.99999H328.019V11ZM288.791 4.56174L263.671 15.2817L269.166 28.1582L294.286 17.4382L288.791 4.56174ZM259.419 21.72V44.6H273.419V21.72H259.419ZM266.419 51.6H289.939V37.6H266.419V51.6ZM282.939 44.6V123H296.939V44.6H282.939ZM289.939 130H328.019V116H289.939V130ZM335.019 123V11H321.019V123H335.019ZM328.019 3.99999H291.539V18H328.019V3.99999ZM434.93 51.8L436.059 44.8917L436.036 44.8879L436.013 44.8843L434.93 51.8ZM403.25 59.16V66.16H405.999L408.013 64.2896L403.25 59.16ZM402.29 59.16L395.29 59.092L395.222 66.16H402.29V59.16ZM419.25 47.16H412.25V54.16H419.25V47.16ZM458.93 47.16V54.16H465.93V47.16H458.93ZM364.37 81.4L357.376 81.6941L357.377 81.706L357.377 81.7178L364.37 81.4ZM461.33 84.6L468.325 84.8577L468.326 84.8288L468.327 84.7999L461.33 84.6ZM436.013 44.8843C421.239 42.5703 407.191 45.9483 398.487 54.0304L408.013 64.2896C412.749 59.8917 422.061 56.8697 433.847 58.7157L436.013 44.8843ZM403.25 52.16H402.29V66.16H403.25V52.16ZM409.29 59.228C409.366 51.3701 410.461 47.3074 411.443 45.4433C411.882 44.6099 412.169 44.4652 412.099 44.5099C411.995 44.5762 411.912 44.56 412.05 44.56V30.56C409.548 30.56 406.945 31.1838 404.541 32.7251C402.171 34.2448 400.378 36.4101 399.057 38.9167C396.519 43.7326 395.374 50.4699 395.29 59.092L409.29 59.228ZM412.05 44.56C412.73 44.56 412.86 44.662 412.692 44.5912C412.442 44.4865 412.146 44.2623 411.953 43.9958C411.811 43.7981 411.907 43.8254 412.027 44.3795C412.149 44.9403 412.25 45.8269 412.25 47.16H426.25C426.25 43.5207 425.785 39.2392 423.307 35.8042C420.424 31.8086 416.093 30.56 412.05 30.56V44.56ZM419.25 47.16C419.25 54.16 419.25 54.16 419.25 54.16C419.251 54.16 419.251 54.16 419.251 54.16C419.252 54.16 419.252 54.16 419.253 54.16C419.253 54.16 419.254 54.16 419.255 54.16C419.256 54.16 419.257 54.16 419.258 54.16C419.259 54.16 419.26 54.16 419.261 54.16C419.262 54.16 419.263 54.16 419.265 54.16C419.266 54.16 419.268 54.16 419.269 54.16C419.271 54.16 419.272 54.16 419.274 54.16C419.276 54.16 419.278 54.16 419.28 54.16C419.282 54.16 419.284 54.16 419.286 54.16C419.288 54.16 419.291 54.16 419.293 54.16C419.295 54.16 419.298 54.16 419.3 54.16C419.303 54.16 419.306 54.16 419.308 54.16C419.311 54.16 419.314 54.16 419.317 54.16C419.32 54.16 419.323 54.16 419.326 54.16C419.329 54.16 419.333 54.16 419.336 54.16C419.339 54.16 419.343 54.16 419.346 54.16C419.35 54.16 419.353 54.16 419.357 54.16C419.361 54.16 419.365 54.16 419.368 54.16C419.372 54.16 419.376 54.16 419.381 54.16C419.385 54.16 419.389 54.16 419.393 54.16C419.397 54.16 419.402 54.16 419.406 54.16C419.411 54.16 419.415 54.16 419.42 54.16C419.425 54.16 419.429 54.16 419.434 54.16C419.439 54.16 419.444 54.16 419.449 54.16C419.454 54.16 419.459 54.16 419.464 54.16C419.47 54.16 419.475 54.16 419.48 54.16C419.486 54.16 419.491 54.16 419.497 54.16C419.503 54.16 419.508 54.16 419.514 54.16C419.52 54.16 419.526 54.16 419.532 54.16C419.538 54.16 419.544 54.16 419.55 54.16C419.556 54.16 419.562 54.16 419.568 54.16C419.575 54.16 419.581 54.16 419.588 54.16C419.594 54.16 419.601 54.16 419.607 54.16C419.614 54.16 419.621 54.16 419.628 54.16C419.635 54.16 419.642 54.16 419.649 54.16C419.656 54.16 419.663 54.16 419.67 54.16C419.677 54.16 419.685 54.16 419.692 54.16C419.699 54.16 419.707 54.16 419.715 54.16C419.722 54.16 419.73 54.16 419.738 54.16C419.745 54.16 419.753 54.16 419.761 54.16C419.769 54.16 419.777 54.16 419.785 54.16C419.793 54.16 419.802 54.16 419.81 54.16C419.818 54.16 419.827 54.16 419.835 54.16C419.843 54.16 419.852 54.16 419.861 54.16C419.869 54.16 419.878 54.16 419.887 54.16C419.896 54.16 419.905 54.16 419.914 54.16C419.923 54.16 419.932 54.16 419.941 54.16C419.95 54.16 419.959 54.16 419.969 54.16C419.978 54.16 419.987 54.16 419.997 54.16C420.006 54.16 420.016 54.16 420.026 54.16C420.035 54.16 420.045 54.16 420.055 54.16C420.065 54.16 420.075 54.16 420.085 54.16C420.095 54.16 420.105 54.16 420.115 54.16C420.125 54.16 420.135 54.16 420.146 54.16C420.156 54.16 420.167 54.16 420.177 54.16C420.188 54.16 420.198 54.16 420.209 54.16C420.22 54.16 420.23 54.16 420.241 54.16C420.252 54.16 420.263 54.16 420.274 54.16C420.285 54.16 420.296 54.16 420.307 54.16C420.319 54.16 420.33 54.16 420.341 54.16C420.353 54.16 420.364 54.16 420.376 54.16C420.387 54.16 420.399 54.16 420.41 54.16C420.422 54.16 420.434 54.16 420.446 54.16C420.457 54.16 420.469 54.16 420.481 54.16C420.493 54.16 420.505 54.16 420.518 54.16C420.53 54.16 420.542 54.16 420.554 54.16C420.567 54.16 420.579 54.16 420.592 54.16C420.604 54.16 420.617 54.16 420.629 54.16C420.642 54.16 420.655 54.16 420.668 54.16C420.68 54.16 420.693 54.16 420.706 54.16C420.719 54.16 420.732 54.16 420.745 54.16C420.759 54.16 420.772 54.16 420.785 54.16C420.798 54.16 420.812 54.16 420.825 54.16C420.839 54.16 420.852 54.16 420.866 54.16C420.879 54.16 420.893 54.16 420.907 54.16C420.921 54.16 420.934 54.16 420.948 54.16C420.962 54.16 420.976 54.16 420.99 54.16C421.004 54.16 421.019 54.16 421.033 54.16C421.047 54.16 421.061 54.16 421.076 54.16C421.09 54.16 421.105 54.16 421.119 54.16C421.134 54.16 421.148 54.16 421.163 54.16C421.178 54.16 421.192 54.16 421.207 54.16C421.222 54.16 421.237 54.16 421.252 54.16C421.267 54.16 421.282 54.16 421.297 54.16C421.312 54.16 421.328 54.16 421.343 54.16C421.358 54.16 421.374 54.16 421.389 54.16C421.404 54.16 421.42 54.16 421.436 54.16C421.451 54.16 421.467 54.16 421.483 54.16C421.498 54.16 421.514 54.16 421.53 54.16C421.546 54.16 421.562 54.16 421.578 54.16C421.594 54.16 421.61 54.16 421.626 54.16C421.642 54.16 421.659 54.16 421.675 54.16C421.691 54.16 421.708 54.16 421.724 54.16C421.741 54.16 421.757 54.16 421.774 54.16C421.79 54.16 421.807 54.16 421.824 54.16C421.841 54.16 421.858 54.16 421.874 54.16C421.891 54.16 421.908 54.16 421.925 54.16C421.942 54.16 421.96 54.16 421.977 54.16C421.994 54.16 422.011 54.16 422.029 54.16C422.046 54.16 422.063 54.16 422.081 54.16C422.098 54.16 422.116 54.16 422.133 54.16C422.151 54.16 422.169 54.16 422.187 54.16C422.204 54.16 422.222 54.16 422.24 54.16C422.258 54.16 422.276 54.16 422.294 54.16C422.312 54.16 422.33 54.16 422.348 54.16C422.366 54.16 422.385 54.16 422.403 54.16C422.421 54.16 422.44 54.16 422.458 54.16C422.477 54.16 422.495 54.16 422.514 54.16C422.532 54.16 422.551 54.16 422.57 54.16C422.589 54.16 422.607 54.16 422.626 54.16C422.645 54.16 422.664 54.16 422.683 54.16C422.702 54.16 422.721 54.16 422.74 54.16C422.759 54.16 422.779 54.16 422.798 54.16C422.817 54.16 422.836 54.16 422.856 54.16C422.875 54.16 422.895 54.16 422.914 54.16C422.934 54.16 422.953 54.16 422.973 54.16C422.993 54.16 423.012 54.16 423.032 54.16C423.052 54.16 423.072 54.16 423.092 54.16C423.112 54.16 423.132 54.16 423.152 54.16C423.172 54.16 423.192 54.16 423.212 54.16C423.232 54.16 423.253 54.16 423.273 54.16C423.293 54.16 423.314 54.16 423.334 54.16C423.355 54.16 423.375 54.16 423.396 54.16C423.416 54.16 423.437 54.16 423.458 54.16C423.478 54.16 423.499 54.16 423.52 54.16C423.541 54.16 423.562 54.16 423.583 54.16C423.603 54.16 423.624 54.16 423.646 54.16C423.667 54.16 423.688 54.16 423.709 54.16C423.73 54.16 423.751 54.16 423.773 54.16C423.794 54.16 423.816 54.16 423.837 54.16C423.858 54.16 423.88 54.16 423.902 54.16C423.923 54.16 423.945 54.16 423.966 54.16C423.988 54.16 424.01 54.16 424.032 54.16C424.054 54.16 424.075 54.16 424.097 54.16C424.119 54.16 424.141 54.16 424.163 54.16C424.186 54.16 424.208 54.16 424.23 54.16C424.252 54.16 424.274 54.16 424.297 54.16C424.319 54.16 424.341 54.16 424.364 54.16C424.386 54.16 424.409 54.16 424.431 54.16C424.454 54.16 424.476 54.16 424.499 54.16C424.522 54.16 424.544 54.16 424.567 54.16C424.59 54.16 424.613 54.16 424.636 54.16C424.659 54.16 424.681 54.16 424.704 54.16C424.728 54.16 424.751 54.16 424.774 54.16C424.797 54.16 424.82 54.16 424.843 54.16C424.867 54.16 424.89 54.16 424.913 54.16C424.937 54.16 424.96 54.16 424.983 54.16C425.007 54.16 425.03 54.16 425.054 54.16C425.078 54.16 425.101 54.16 425.125 54.16C425.149 54.16 425.172 54.16 425.196 54.16C425.22 54.16 425.244 54.16 425.268 54.16C425.292 54.16 425.316 54.16 425.34 54.16C425.364 54.16 425.388 54.16 425.412 54.16C425.436 54.16 425.46 54.16 425.485 54.16C425.509 54.16 425.533 54.16 425.558 54.16C425.582 54.16 425.606 54.16 425.631 54.16C425.655 54.16 425.68 54.16 425.704 54.16C425.729 54.16 425.754 54.16 425.778 54.16C425.803 54.16 425.828 54.16 425.853 54.16C425.877 54.16 425.902 54.16 425.927 54.16C425.952 54.16 425.977 54.16 426.002 54.16C426.027 54.16 426.052 54.16 426.077 54.16C426.102 54.16 426.127 54.16 426.153 54.16C426.178 54.16 426.203 54.16 426.228 54.16C426.254 54.16 426.279 54.16 426.305 54.16C426.33 54.16 426.355 54.16 426.381 54.16C426.407 54.16 426.432 54.16 426.458 54.16C426.483 54.16 426.509 54.16 426.535 54.16C426.561 54.16 426.586 54.16 426.612 54.16C426.638 54.16 426.664 54.16 426.69 54.16C426.716 54.16 426.742 54.16 426.768 54.16C426.794 54.16 426.82 54.16 426.846 54.16C426.872 54.16 426.898 54.16 426.924 54.16C426.951 54.16 426.977 54.16 427.003 54.16C427.03 54.16 427.056 54.16 427.082 54.16C427.109 54.16 427.135 54.16 427.162 54.16C427.188 54.16 427.215 54.16 427.242 54.16C427.268 54.16 427.295 54.16 427.322 54.16C427.348 54.16 427.375 54.16 427.402 54.16C427.429 54.16 427.456 54.16 427.482 54.16C427.509 54.16 427.536 54.16 427.563 54.16C427.59 54.16 427.617 54.16 427.644 54.16C427.672 54.16 427.699 54.16 427.726 54.16C427.753 54.16 427.78 54.16 427.808 54.16C427.835 54.16 427.862 54.16 427.89 54.16C427.917 54.16 427.944 54.16 427.972 54.16C427.999 54.16 428.027 54.16 428.054 54.16C428.082 54.16 428.109 54.16 428.137 54.16C428.165 54.16 428.192 54.16 428.22 54.16C428.248 54.16 428.276 54.16 428.303 54.16C428.331 54.16 428.359 54.16 428.387 54.16C428.415 54.16 428.443 54.16 428.471 54.16C428.499 54.16 428.527 54.16 428.555 54.16C428.583 54.16 428.611 54.16 428.639 54.16C428.668 54.16 428.696 54.16 428.724 54.16C428.752 54.16 428.781 54.16 428.809 54.16C428.837 54.16 428.866 54.16 428.894 54.16C428.922 54.16 428.951 54.16 428.979 54.16C429.008 54.16 429.036 54.16 429.065 54.16C429.094 54.16 429.122 54.16 429.151 54.16C429.18 54.16 429.208 54.16 429.237 54.16C429.266 54.16 429.295 54.16 429.323 54.16C429.352 54.16 429.381 54.16 429.41 54.16C429.439 54.16 429.468 54.16 429.497 54.16C429.526 54.16 429.555 54.16 429.584 54.16C429.613 54.16 429.642 54.16 429.671 54.16C429.701 54.16 429.73 54.16 429.759 54.16C429.788 54.16 429.817 54.16 429.847 54.16C429.876 54.16 429.905 54.16 429.935 54.16C429.964 54.16 429.994 54.16 430.023 54.16C430.053 54.16 430.082 54.16 430.112 54.16C430.141 54.16 430.171 54.16 430.2 54.16C430.23 54.16 430.26 54.16 430.289 54.16C430.319 54.16 430.349 54.16 430.379 54.16C430.408 54.16 430.438 54.16 430.468 54.16C430.498 54.16 430.528 54.16 430.558 54.16C430.588 54.16 430.617 54.16 430.647 54.16C430.677 54.16 430.707 54.16 430.738 54.16C430.768 54.16 430.798 54.16 430.828 54.16C430.858 54.16 430.888 54.16 430.918 54.16C430.949 54.16 430.979 54.16 431.009 54.16C431.039 54.16 431.07 54.16 431.1 54.16C431.13 54.16 431.161 54.16 431.191 54.16C431.221 54.16 431.252 54.16 431.282 54.16C431.313 54.16 431.343 54.16 431.374 54.16C431.405 54.16 431.435 54.16 431.466 54.16C431.496 54.16 431.527 54.16 431.558 54.16C431.588 54.16 431.619 54.16 431.65 54.16C431.681 54.16 431.711 54.16 431.742 54.16C431.773 54.16 431.804 54.16 431.835 54.16C431.866 54.16 431.897 54.16 431.927 54.16C431.958 54.16 431.989 54.16 432.02 54.16C432.051 54.16 432.082 54.16 432.113 54.16C432.145 54.16 432.176 54.16 432.207 54.16C432.238 54.16 432.269 54.16 432.3 54.16C432.332 54.16 432.363 54.16 432.394 54.16C432.425 54.16 432.457 54.16 432.488 54.16C432.519 54.16 432.551 54.16 432.582 54.16C432.613 54.16 432.645 54.16 432.676 54.16C432.708 54.16 432.739 54.16 432.771 54.16C432.802 54.16 432.834 54.16 432.865 54.16C432.897 54.16 432.928 54.16 432.96 54.16C432.992 54.16 433.023 54.16 433.055 54.16C433.086 54.16 433.118 54.16 433.15 54.16C433.182 54.16 433.213 54.16 433.245 54.16C433.277 54.16 433.309 54.16 433.341 54.16C433.372 54.16 433.404 54.16 433.436 54.16C433.468 54.16 433.5 54.16 433.532 54.16C433.564 54.16 433.596 54.16 433.628 54.16C433.66 54.16 433.692 54.16 433.724 54.16C433.756 54.16 433.788 54.16 433.82 54.16C433.852 54.16 433.885 54.16 433.917 54.16C433.949 54.16 433.981 54.16 434.013 54.16C434.046 54.16 434.078 54.16 434.11 54.16C434.142 54.16 434.175 54.16 434.207 54.16C434.239 54.16 434.272 54.16 434.304 54.16C434.336 54.16 434.369 54.16 434.401 54.16C434.433 54.16 434.466 54.16 434.498 54.16C434.531 54.16 434.563 54.16 434.596 54.16C434.628 54.16 434.661 54.16 434.693 54.16C434.726 54.16 434.759 54.16 434.791 54.16C434.824 54.16 434.856 54.16 434.889 54.16C434.922 54.16 434.954 54.16 434.987 54.16C435.02 54.16 435.053 54.16 435.085 54.16C435.118 54.16 435.151 54.16 435.184 54.16C435.216 54.16 435.249 54.16 435.282 54.16C435.315 54.16 435.348 54.16 435.381 54.16C435.413 54.16 435.446 54.16 435.479 54.16C435.512 54.16 435.545 54.16 435.578 54.16C435.611 54.16 435.644 54.16 435.677 54.16C435.71 54.16 435.743 54.16 435.776 54.16C435.809 54.16 435.842 54.16 435.875 54.16C435.908 54.16 435.941 54.16 435.975 54.16C436.008 54.16 436.041 54.16 436.074 54.16C436.107 54.16 436.14 54.16 436.174 54.16C436.207 54.16 436.24 54.16 436.273 54.16C436.306 54.16 436.34 54.16 436.373 54.16C436.406 54.16 436.44 54.16 436.473 54.16C436.506 54.16 436.539 54.16 436.573 54.16C436.606 54.16 436.64 54.16 436.673 54.16C436.706 54.16 436.74 54.16 436.773 54.16C436.807 54.16 436.84 54.16 436.873 54.16C436.907 54.16 436.94 54.16 436.974 54.16C437.007 54.16 437.041 54.16 437.074 54.16C437.108 54.16 437.141 54.16 437.175 54.16C437.209 54.16 437.242 54.16 437.276 54.16C437.309 54.16 437.343 54.16 437.376 54.16C437.41 54.16 437.444 54.16 437.477 54.16C437.511 54.16 437.545 54.16 437.578 54.16C437.612 54.16 437.646 54.16 437.679 54.16C437.713 54.16 437.747 54.16 437.781 54.16C437.814 54.16 437.848 54.16 437.882 54.16C437.916 54.16 437.949 54.16 437.983 54.16C438.017 54.16 438.051 54.16 438.085 54.16C438.118 54.16 438.152 54.16 438.186 54.16C438.22 54.16 438.254 54.16 438.288 54.16C438.322 54.16 438.355 54.16 438.389 54.16C438.423 54.16 438.457 54.16 438.491 54.16C438.525 54.16 438.559 54.16 438.593 54.16C438.627 54.16 438.661 54.16 438.695 54.16C438.729 54.16 438.763 54.16 438.797 54.16C438.831 54.16 438.865 54.16 438.899 54.16C438.933 54.16 438.967 54.16 439.001 54.16C439.035 54.16 439.069 54.16 439.103 54.16C439.137 54.16 439.171 54.16 439.205 54.16C439.239 54.16 439.273 54.16 439.308 54.16C439.342 54.16 439.376 54.16 439.41 54.16C439.444 54.16 439.478 54.16 439.512 54.16C439.546 54.16 439.581 54.16 439.615 54.16C439.649 54.16 439.683 54.16 439.717 54.16C439.751 54.16 439.786 54.16 439.82 54.16C439.854 54.16 439.888 54.16 439.922 54.16C439.957 54.16 439.991 54.16 440.025 54.16C440.059 54.16 440.094 54.16 440.128 54.16C440.162 54.16 440.196 54.16 440.231 54.16C440.265 54.16 440.299 54.16 440.333 54.16C440.368 54.16 440.402 54.16 440.436 54.16C440.47 54.16 440.505 54.16 440.539 54.16C440.573 54.16 440.608 54.16 440.642 54.16C440.676 54.16 440.711 54.16 440.745 54.16C440.779 54.16 440.814 54.16 440.848 54.16C440.882 54.16 440.917 54.16 440.951 54.16C440.985 54.16 441.02 54.16 441.054 54.16C441.088 54.16 441.123 54.16 441.157 54.16C441.191 54.16 441.226 54.16 441.26 54.16C441.295 54.16 441.329 54.16 441.363 54.16C441.398 54.16 441.432 54.16 441.467 54.16C441.501 54.16 441.535 54.16 441.57 54.16C441.604 54.16 441.639 54.16 441.673 54.16C441.707 54.16 441.742 54.16 441.776 54.16C441.811 54.16 441.845 54.16 441.879 54.16C441.914 54.16 441.948 54.16 441.983 54.16C442.017 54.16 442.052 54.16 442.086 54.16C442.12 54.16 442.155 54.16 442.189 54.16C442.224 54.16 442.258 54.16 442.293 54.16C442.327 54.16 442.362 54.16 442.396 54.16C442.43 54.16 442.465 54.16 442.499 54.16C442.534 54.16 442.568 54.16 442.603 54.16C442.637 54.16 442.671 54.16 442.706 54.16C442.74 54.16 442.775 54.16 442.809 54.16C442.844 54.16 442.878 54.16 442.913 54.16C442.947 54.16 442.981 54.16 443.016 54.16C443.05 54.16 443.085 54.16 443.119 54.16C443.154 54.16 443.188 54.16 443.223 54.16C443.257 54.16 443.291 54.16 443.326 54.16C443.36 54.16 443.395 54.16 443.429 54.16C443.464 54.16 443.498 54.16 443.533 54.16C443.567 54.16 443.601 54.16 443.636 54.16C443.67 54.16 443.705 54.16 443.739 54.16C443.773 54.16 443.808 54.16 443.842 54.16C443.877 54.16 443.911 54.16 443.946 54.16C443.98 54.16 444.014 54.16 444.049 54.16C444.083 54.16 444.118 54.16 444.152 54.16C444.186 54.16 444.221 54.16 444.255 54.16C444.29 54.16 444.324 54.16 444.358 54.16C444.393 54.16 444.427 54.16 444.461 54.16C444.496 54.16 444.53 54.16 444.564 54.16C444.599 54.16 444.633 54.16 444.668 54.16C444.702 54.16 444.736 54.16 444.771 54.16C444.805 54.16 444.839 54.16 444.874 54.16C444.908 54.16 444.942 54.16 444.977 54.16C445.011 54.16 445.045 54.16 445.079 54.16C445.114 54.16 445.148 54.16 445.182 54.16C445.217 54.16 445.251 54.16 445.285 54.16C445.319 54.16 445.354 54.16 445.388 54.16C445.422 54.16 445.457 54.16 445.491 54.16C445.525 54.16 445.559 54.16 445.594 54.16C445.628 54.16 445.662 54.16 445.696 54.16C445.73 54.16 445.765 54.16 445.799 54.16C445.833 54.16 445.867 54.16 445.901 54.16C445.936 54.16 445.97 54.16 446.004 54.16C446.038 54.16 446.072 54.16 446.106 54.16C446.14 54.16 446.175 54.16 446.209 54.16C446.243 54.16 446.277 54.16 446.311 54.16C446.345 54.16 446.379 54.16 446.413 54.16C446.447 54.16 446.482 54.16 446.516 54.16C446.55 54.16 446.584 54.16 446.618 54.16C446.652 54.16 446.686 54.16 446.72 54.16C446.754 54.16 446.788 54.16 446.822 54.16C446.856 54.16 446.89 54.16 446.924 54.16C446.958 54.16 446.992 54.16 447.026 54.16C447.06 54.16 447.094 54.16 447.128 54.16C447.161 54.16 447.195 54.16 447.229 54.16C447.263 54.16 447.297 54.16 447.331 54.16C447.365 54.16 447.399 54.16 447.432 54.16C447.466 54.16 447.5 54.16 447.534 54.16C447.568 54.16 447.602 54.16 447.635 54.16C447.669 54.16 447.703 54.16 447.737 54.16C447.771 54.16 447.804 54.16 447.838 54.16C447.872 54.16 447.905 54.16 447.939 54.16C447.973 54.16 448.007 54.16 448.04 54.16C448.074 54.16 448.108 54.16 448.141 54.16C448.175 54.16 448.209 54.16 448.242 54.16C448.276 54.16 448.309 54.16 448.343 54.16C448.377 54.16 448.41 54.16 448.444 54.16C448.477 54.16 448.511 54.16 448.544 54.16C448.578 54.16 448.611 54.16 448.645 54.16C448.678 54.16 448.712 54.16 448.745 54.16C448.779 54.16 448.812 54.16 448.846 54.16C448.879 54.16 448.912 54.16 448.946 54.16C448.979 54.16 449.013 54.16 449.046 54.16C449.079 54.16 449.113 54.16 449.146 54.16C449.179 54.16 449.212 54.16 449.246 54.16C449.279 54.16 449.312 54.16 449.346 54.16C449.379 54.16 449.412 54.16 449.445 54.16C449.478 54.16 449.512 54.16 449.545 54.16C449.578 54.16 449.611 54.16 449.644 54.16C449.677 54.16 449.71 54.16 449.743 54.16C449.777 54.16 449.81 54.16 449.843 54.16C449.876 54.16 449.909 54.16 449.942 54.16C449.975 54.16 450.008 54.16 450.041 54.16C450.074 54.16 450.107 54.16 450.139 54.16C450.172 54.16 450.205 54.16 450.238 54.16C450.271 54.16 450.304 54.16 450.337 54.16C450.37 54.16 450.402 54.16 450.435 54.16C450.468 54.16 450.501 54.16 450.534 54.16C450.566 54.16 450.599 54.16 450.632 54.16C450.664 54.16 450.697 54.16 450.73 54.16C450.762 54.16 450.795 54.16 450.828 54.16C450.86 54.16 450.893 54.16 450.925 54.16C450.958 54.16 450.99 54.16 451.023 54.16C451.055 54.16 451.088 54.16 451.12 54.16C451.153 54.16 451.185 54.16 451.218 54.16C451.25 54.16 451.283 54.16 451.315 54.16C451.347 54.16 451.38 54.16 451.412 54.16C451.444 54.16 451.477 54.16 451.509 54.16C451.541 54.16 451.573 54.16 451.606 54.16C451.638 54.16 451.67 54.16 451.702 54.16C451.734 54.16 451.766 54.16 451.799 54.16C451.831 54.16 451.863 54.16 451.895 54.16C451.927 54.16 451.959 54.16 451.991 54.16C452.023 54.16 452.055 54.16 452.087 54.16C452.119 54.16 452.151 54.16 452.183 54.16C452.215 54.16 452.246 54.16 452.278 54.16C452.31 54.16 452.342 54.16 452.374 54.16C452.405 54.16 452.437 54.16 452.469 54.16C452.501 54.16 452.532 54.16 452.564 54.16C452.596 54.16 452.627 54.16 452.659 54.16C452.691 54.16 452.722 54.16 452.754 54.16C452.785 54.16 452.817 54.16 452.848 54.16C452.88 54.16 452.911 54.16 452.943 54.16C452.974 54.16 453.006 54.16 453.037 54.16C453.068 54.16 453.1 54.16 453.131 54.16C453.162 54.16 453.194 54.16 453.225 54.16C453.256 54.16 453.287 54.16 453.319 54.16C453.35 54.16 453.381 54.16 453.412 54.16C453.443 54.16 453.474 54.16 453.506 54.16C453.537 54.16 453.568 54.16 453.599 54.16C453.63 54.16 453.661 54.16 453.692 54.16C453.723 54.16 453.753 54.16 453.784 54.16C453.815 54.16 453.846 54.16 453.877 54.16C453.908 54.16 453.938 54.16 453.969 54.16C454 54.16 454.031 54.16 454.061 54.16C454.092 54.16 454.123 54.16 454.153 54.16C454.184 54.16 454.215 54.16 454.245 54.16C454.276 54.16 454.306 54.16 454.337 54.16C454.367 54.16 454.398 54.16 454.428 54.16C454.458 54.16 454.489 54.16 454.519 54.16C454.549 54.16 454.58 54.16 454.61 54.16C454.64 54.16 454.671 54.16 454.701 54.16C454.731 54.16 454.761 54.16 454.791 54.16C454.821 54.16 454.852 54.16 454.882 54.16C454.912 54.16 454.942 54.16 454.972 54.16C455.002 54.16 455.032 54.16 455.062 54.16C455.091 54.16 455.121 54.16 455.151 54.16C455.181 54.16 455.211 54.16 455.241 54.16C455.27 54.16 455.3 54.16 455.33 54.16C455.36 54.16 455.389 54.16 455.419 54.16C455.448 54.16 455.478 54.16 455.508 54.16C455.537 54.16 455.567 54.16 455.596 54.16C455.626 54.16 455.655 54.16 455.684 54.16C455.714 54.16 455.743 54.16 455.772 54.16C455.802 54.16 455.831 54.16 455.86 54.16C455.89 54.16 455.919 54.16 455.948 54.16C455.977 54.16 456.006 54.16 456.035 54.16C456.064 54.16 456.093 54.16 456.122 54.16C456.151 54.16 456.18 54.16 456.209 54.16C456.238 54.16 456.267 54.16 456.296 54.16C456.325 54.16 456.354 54.16 456.382 54.16C456.411 54.16 456.44 54.16 456.468 54.16C456.497 54.16 456.526 54.16 456.554 54.16C456.583 54.16 456.611 54.16 456.64 54.16C456.669 54.16 456.697 54.16 456.725 54.16C456.754 54.16 456.782 54.16 456.811 54.16C456.839 54.16 456.867 54.16 456.895 54.16C456.924 54.16 456.952 54.16 456.98 54.16C457.008 54.16 457.036 54.16 457.064 54.16C457.093 54.16 457.121 54.16 457.149 54.16C457.177 54.16 457.205 54.16 457.232 54.16C457.26 54.16 457.288 54.16 457.316 54.16C457.344 54.16 457.372 54.16 457.399 54.16C457.427 54.16 457.455 54.16 457.482 54.16C457.51 54.16 457.538 54.16 457.565 54.16C457.593 54.16 457.62 54.16 457.648 54.16C457.675 54.16 457.703 54.16 457.73 54.16C457.757 54.16 457.785 54.16 457.812 54.16C457.839 54.16 457.867 54.16 457.894 54.16C457.921 54.16 457.948 54.16 457.975 54.16C458.002 54.16 458.029 54.16 458.056 54.16C458.083 54.16 458.11 54.16 458.137 54.16C458.164 54.16 458.191 54.16 458.218 54.16C458.245 54.16 458.271 54.16 458.298 54.16C458.325 54.16 458.351 54.16 458.378 54.16C458.405 54.16 458.431 54.16 458.458 54.16C458.484 54.16 458.511 54.16 458.537 54.16C458.564 54.16 458.59 54.16 458.616 54.16C458.643 54.16 458.669 54.16 458.695 54.16C458.721 54.16 458.748 54.16 458.774 54.16C458.8 54.16 458.826 54.16 458.852 54.16C458.878 54.16 458.904 54.16 458.93 54.16V40.16C458.904 40.16 458.878 40.16 458.852 40.16C458.826 40.16 458.8 40.16 458.774 40.16C458.748 40.16 458.721 40.16 458.695 40.16C458.669 40.16 458.643 40.16 458.616 40.16C458.59 40.16 458.564 40.16 458.537 40.16C458.511 40.16 458.484 40.16 458.458 40.16C458.431 40.16 458.405 40.16 458.378 40.16C458.351 40.16 458.325 40.16 458.298 40.16C458.271 40.16 458.245 40.16 458.218 40.16C458.191 40.16 458.164 40.16 458.137 40.16C458.11 40.16 458.083 40.16 458.056 40.16C458.029 40.16 458.002 40.16 457.975 40.16C457.948 40.16 457.921 40.16 457.894 40.16C457.867 40.16 457.839 40.16 457.812 40.16C457.785 40.16 457.757 40.16 457.73 40.16C457.703 40.16 457.675 40.16 457.648 40.16C457.62 40.16 457.593 40.16 457.565 40.16C457.538 40.16 457.51 40.16 457.482 40.16C457.455 40.16 457.427 40.16 457.399 40.16C457.372 40.16 457.344 40.16 457.316 40.16C457.288 40.16 457.26 40.16 457.232 40.16C457.205 40.16 457.177 40.16 457.149 40.16C457.121 40.16 457.093 40.16 457.064 40.16C457.036 40.16 457.008 40.16 456.98 40.16C456.952 40.16 456.924 40.16 456.895 40.16C456.867 40.16 456.839 40.16 456.811 40.16C456.782 40.16 456.754 40.16 456.725 40.16C456.697 40.16 456.669 40.16 456.64 40.16C456.611 40.16 456.583 40.16 456.554 40.16C456.526 40.16 456.497 40.16 456.468 40.16C456.44 40.16 456.411 40.16 456.382 40.16C456.354 40.16 456.325 40.16 456.296 40.16C456.267 40.16 456.238 40.16 456.209 40.16C456.18 40.16 456.151 40.16 456.122 40.16C456.093 40.16 456.064 40.16 456.035 40.16C456.006 40.16 455.977 40.16 455.948 40.16C455.919 40.16 455.89 40.16 455.86 40.16C455.831 40.16 455.802 40.16 455.772 40.16C455.743 40.16 455.714 40.16 455.684 40.16C455.655 40.16 455.626 40.16 455.596 40.16C455.567 40.16 455.537 40.16 455.508 40.16C455.478 40.16 455.448 40.16 455.419 40.16C455.389 40.16 455.36 40.16 455.33 40.16C455.3 40.16 455.27 40.16 455.241 40.16C455.211 40.16 455.181 40.16 455.151 40.16C455.121 40.16 455.091 40.16 455.062 40.16C455.032 40.16 455.002 40.16 454.972 40.16C454.942 40.16 454.912 40.16 454.882 40.16C454.852 40.16 454.821 40.16 454.791 40.16C454.761 40.16 454.731 40.16 454.701 40.16C454.671 40.16 454.64 40.16 454.61 40.16C454.58 40.16 454.549 40.16 454.519 40.16C454.489 40.16 454.458 40.16 454.428 40.16C454.398 40.16 454.367 40.16 454.337 40.16C454.306 40.16 454.276 40.16 454.245 40.16C454.215 40.16 454.184 40.16 454.153 40.16C454.123 40.16 454.092 40.16 454.061 40.16C454.031 40.16 454 40.16 453.969 40.16C453.938 40.16 453.908 40.16 453.877 40.16C453.846 40.16 453.815 40.16 453.784 40.16C453.753 40.16 453.723 40.16 453.692 40.16C453.661 40.16 453.63 40.16 453.599 40.16C453.568 40.16 453.537 40.16 453.506 40.16C453.474 40.16 453.443 40.16 453.412 40.16C453.381 40.16 453.35 40.16 453.319 40.16C453.287 40.16 453.256 40.16 453.225 40.16C453.194 40.16 453.162 40.16 453.131 40.16C453.1 40.16 453.068 40.16 453.037 40.16C453.006 40.16 452.974 40.16 452.943 40.16C452.911 40.16 452.88 40.16 452.848 40.16C452.817 40.16 452.785 40.16 452.754 40.16C452.722 40.16 452.691 40.16 452.659 40.16C452.627 40.16 452.596 40.16 452.564 40.16C452.532 40.16 452.501 40.16 452.469 40.16C452.437 40.16 452.405 40.16 452.374 40.16C452.342 40.16 452.31 40.16 452.278 40.16C452.246 40.16 452.215 40.16 452.183 40.16C452.151 40.16 452.119 40.16 452.087 40.16C452.055 40.16 452.023 40.16 451.991 40.16C451.959 40.16 451.927 40.16 451.895 40.16C451.863 40.16 451.831 40.16 451.799 40.16C451.766 40.16 451.734 40.16 451.702 40.16C451.67 40.16 451.638 40.16 451.606 40.16C451.573 40.16 451.541 40.16 451.509 40.16C451.477 40.16 451.444 40.16 451.412 40.16C451.38 40.16 451.347 40.16 451.315 40.16C451.283 40.16 451.25 40.16 451.218 40.16C451.185 40.16 451.153 40.16 451.12 40.16C451.088 40.16 451.055 40.16 451.023 40.16C450.99 40.16 450.958 40.16 450.925 40.16C450.893 40.16 450.86 40.16 450.828 40.16C450.795 40.16 450.762 40.16 450.73 40.16C450.697 40.16 450.664 40.16 450.632 40.16C450.599 40.16 450.566 40.16 450.534 40.16C450.501 40.16 450.468 40.16 450.435 40.16C450.402 40.16 450.37 40.16 450.337 40.16C450.304 40.16 450.271 40.16 450.238 40.16C450.205 40.16 450.172 40.16 450.139 40.16C450.107 40.16 450.074 40.16 450.041 40.16C450.008 40.16 449.975 40.16 449.942 40.16C449.909 40.16 449.876 40.16 449.843 40.16C449.81 40.16 449.777 40.16 449.743 40.16C449.71 40.16 449.677 40.16 449.644 40.16C449.611 40.16 449.578 40.16 449.545 40.16C449.512 40.16 449.478 40.16 449.445 40.16C449.412 40.16 449.379 40.16 449.346 40.16C449.312 40.16 449.279 40.16 449.246 40.16C449.212 40.16 449.179 40.16 449.146 40.16C449.113 40.16 449.079 40.16 449.046 40.16C449.013 40.16 448.979 40.16 448.946 40.16C448.912 40.16 448.879 40.16 448.846 40.16C448.812 40.16 448.779 40.16 448.745 40.16C448.712 40.16 448.678 40.16 448.645 40.16C448.611 40.16 448.578 40.16 448.544 40.16C448.511 40.16 448.477 40.16 448.444 40.16C448.41 40.16 448.377 40.16 448.343 40.16C448.309 40.16 448.276 40.16 448.242 40.16C448.209 40.16 448.175 40.16 448.141 40.16C448.108 40.16 448.074 40.16 448.04 40.16C448.007 40.16 447.973 40.16 447.939 40.16C447.905 40.16 447.872 40.16 447.838 40.16C447.804 40.16 447.771 40.16 447.737 40.16C447.703 40.16 447.669 40.16 447.635 40.16C447.602 40.16 447.568 40.16 447.534 40.16C447.5 40.16 447.466 40.16 447.432 40.16C447.399 40.16 447.365 40.16 447.331 40.16C447.297 40.16 447.263 40.16 447.229 40.16C447.195 40.16 447.161 40.16 447.128 40.16C447.094 40.16 447.06 40.16 447.026 40.16C446.992 40.16 446.958 40.16 446.924 40.16C446.89 40.16 446.856 40.16 446.822 40.16C446.788 40.16 446.754 40.16 446.72 40.16C446.686 40.16 446.652 40.16 446.618 40.16C446.584 40.16 446.55 40.16 446.516 40.16C446.482 40.16 446.447 40.16 446.413 40.16C446.379 40.16 446.345 40.16 446.311 40.16C446.277 40.16 446.243 40.16 446.209 40.16C446.175 40.16 446.14 40.16 446.106 40.16C446.072 40.16 446.038 40.16 446.004 40.16C445.97 40.16 445.936 40.16 445.901 40.16C445.867 40.16 445.833 40.16 445.799 40.16C445.765 40.16 445.73 40.16 445.696 40.16C445.662 40.16 445.628 40.16 445.594 40.16C445.559 40.16 445.525 40.16 445.491 40.16C445.457 40.16 445.422 40.16 445.388 40.16C445.354 40.16 445.319 40.16 445.285 40.16C445.251 40.16 445.217 40.16 445.182 40.16C445.148 40.16 445.114 40.16 445.079 40.16C445.045 40.16 445.011 40.16 444.977 40.16C444.942 40.16 444.908 40.16 444.874 40.16C444.839 40.16 444.805 40.16 444.771 40.16C444.736 40.16 444.702 40.16 444.668 40.16C444.633 40.16 444.599 40.16 444.564 40.16C444.53 40.16 444.496 40.16 444.461 40.16C444.427 40.16 444.393 40.16 444.358 40.16C444.324 40.16 444.29 40.16 444.255 40.16C444.221 40.16 444.186 40.16 444.152 40.16C444.118 40.16 444.083 40.16 444.049 40.16C444.014 40.16 443.98 40.16 443.946 40.16C443.911 40.16 443.877 40.16 443.842 40.16C443.808 40.16 443.773 40.16 443.739 40.16C443.705 40.16 443.67 40.16 443.636 40.16C443.601 40.16 443.567 40.16 443.533 40.16C443.498 40.16 443.464 40.16 443.429 40.16C443.395 40.16 443.36 40.16 443.326 40.16C443.291 40.16 443.257 40.16 443.223 40.16C443.188 40.16 443.154 40.16 443.119 40.16C443.085 40.16 443.05 40.16 443.016 40.16C442.981 40.16 442.947 40.16 442.913 40.16C442.878 40.16 442.844 40.16 442.809 40.16C442.775 40.16 442.74 40.16 442.706 40.16C442.671 40.16 442.637 40.16 442.603 40.16C442.568 40.16 442.534 40.16 442.499 40.16C442.465 40.16 442.43 40.16 442.396 40.16C442.362 40.16 442.327 40.16 442.293 40.16C442.258 40.16 442.224 40.16 442.189 40.16C442.155 40.16 442.12 40.16 442.086 40.16C442.052 40.16 442.017 40.16 441.983 40.16C441.948 40.16 441.914 40.16 441.879 40.16C441.845 40.16 441.811 40.16 441.776 40.16C441.742 40.16 441.707 40.16 441.673 40.16C441.639 40.16 441.604 40.16 441.57 40.16C441.535 40.16 441.501 40.16 441.467 40.16C441.432 40.16 441.398 40.16 441.363 40.16C441.329 40.16 441.295 40.16 441.26 40.16C441.226 40.16 441.191 40.16 441.157 40.16C441.123 40.16 441.088 40.16 441.054 40.16C441.02 40.16 440.985 40.16 440.951 40.16C440.917 40.16 440.882 40.16 440.848 40.16C440.814 40.16 440.779 40.16 440.745 40.16C440.711 40.16 440.676 40.16 440.642 40.16C440.608 40.16 440.573 40.16 440.539 40.16C440.505 40.16 440.47 40.16 440.436 40.16C440.402 40.16 440.368 40.16 440.333 40.16C440.299 40.16 440.265 40.16 440.231 40.16C440.196 40.16 440.162 40.16 440.128 40.16C440.094 40.16 440.059 40.16 440.025 40.16C439.991 40.16 439.957 40.16 439.922 40.16C439.888 40.16 439.854 40.16 439.82 40.16C439.786 40.16 439.751 40.16 439.717 40.16C439.683 40.16 439.649 40.16 439.615 40.16C439.581 40.16 439.546 40.16 439.512 40.16C439.478 40.16 439.444 40.16 439.41 40.16C439.376 40.16 439.342 40.16 439.308 40.16C439.273 40.16 439.239 40.16 439.205 40.16C439.171 40.16 439.137 40.16 439.103 40.16C439.069 40.16 439.035 40.16 439.001 40.16C438.967 40.16 438.933 40.16 438.899 40.16C438.865 40.16 438.831 40.16 438.797 40.16C438.763 40.16 438.729 40.16 438.695 40.16C438.661 40.16 438.627 40.16 438.593 40.16C438.559 40.16 438.525 40.16 438.491 40.16C438.457 40.16 438.423 40.16 438.389 40.16C438.355 40.16 438.322 40.16 438.288 40.16C438.254 40.16 438.22 40.16 438.186 40.16C438.152 40.16 438.118 40.16 438.085 40.16C438.051 40.16 438.017 40.16 437.983 40.16C437.949 40.16 437.916 40.16 437.882 40.16C437.848 40.16 437.814 40.16 437.781 40.16C437.747 40.16 437.713 40.16 437.679 40.16C437.646 40.16 437.612 40.16 437.578 40.16C437.545 40.16 437.511 40.16 437.477 40.16C437.444 40.16 437.41 40.16 437.376 40.16C437.343 40.16 437.309 40.16 437.276 40.16C437.242 40.16 437.209 40.16 437.175 40.16C437.141 40.16 437.108 40.16 437.074 40.16C437.041 40.16 437.007 40.16 436.974 40.16C436.94 40.16 436.907 40.16 436.873 40.16C436.84 40.16 436.807 40.16 436.773 40.16C436.74 40.16 436.706 40.16 436.673 40.16C436.64 40.16 436.606 40.16 436.573 40.16C436.539 40.16 436.506 40.16 436.473 40.16C436.44 40.16 436.406 40.16 436.373 40.16C436.34 40.16 436.306 40.16 436.273 40.16C436.24 40.16 436.207 40.16 436.174 40.16C436.14 40.16 436.107 40.16 436.074 40.16C436.041 40.16 436.008 40.16 435.975 40.16C435.941 40.16 435.908 40.16 435.875 40.16C435.842 40.16 435.809 40.16 435.776 40.16C435.743 40.16 435.71 40.16 435.677 40.16C435.644 40.16 435.611 40.16 435.578 40.16C435.545 40.16 435.512 40.16 435.479 40.16C435.446 40.16 435.413 40.16 435.381 40.16C435.348 40.16 435.315 40.16 435.282 40.16C435.249 40.16 435.216 40.16 435.184 40.16C435.151 40.16 435.118 40.16 435.085 40.16C435.053 40.16 435.02 40.16 434.987 40.16C434.954 40.16 434.922 40.16 434.889 40.16C434.856 40.16 434.824 40.16 434.791 40.16C434.759 40.16 434.726 40.16 434.693 40.16C434.661 40.16 434.628 40.16 434.596 40.16C434.563 40.16 434.531 40.16 434.498 40.16C434.466 40.16 434.433 40.16 434.401 40.16C434.369 40.16 434.336 40.16 434.304 40.16C434.272 40.16 434.239 40.16 434.207 40.16C434.175 40.16 434.142 40.16 434.11 40.16C434.078 40.16 434.046 40.16 434.013 40.16C433.981 40.16 433.949 40.16 433.917 40.16C433.885 40.16 433.852 40.16 433.82 40.16C433.788 40.16 433.756 40.16 433.724 40.16C433.692 40.16 433.66 40.16 433.628 40.16C433.596 40.16 433.564 40.16 433.532 40.16C433.5 40.16 433.468 40.16 433.436 40.16C433.404 40.16 433.372 40.16 433.341 40.16C433.309 40.16 433.277 40.16 433.245 40.16C433.213 40.16 433.182 40.16 433.15 40.16C433.118 40.16 433.086 40.16 433.055 40.16C433.023 40.16 432.992 40.16 432.96 40.16C432.928 40.16 432.897 40.16 432.865 40.16C432.834 40.16 432.802 40.16 432.771 40.16C432.739 40.16 432.708 40.16 432.676 40.16C432.645 40.16 432.613 40.16 432.582 40.16C432.551 40.16 432.519 40.16 432.488 40.16C432.457 40.16 432.425 40.16 432.394 40.16C432.363 40.16 432.332 40.16 432.3 40.16C432.269 40.16 432.238 40.16 432.207 40.16C432.176 40.16 432.145 40.16 432.113 40.16C432.082 40.16 432.051 40.16 432.02 40.16C431.989 40.16 431.958 40.16 431.927 40.16C431.897 40.16 431.866 40.16 431.835 40.16C431.804 40.16 431.773 40.16 431.742 40.16C431.711 40.16 431.681 40.16 431.65 40.16C431.619 40.16 431.588 40.16 431.558 40.16C431.527 40.16 431.496 40.16 431.466 40.16C431.435 40.16 431.405 40.16 431.374 40.16C431.343 40.16 431.313 40.16 431.282 40.16C431.252 40.16 431.221 40.16 431.191 40.16C431.161 40.16 431.13 40.16 431.1 40.16C431.07 40.16 431.039 40.16 431.009 40.16C430.979 40.16 430.949 40.16 430.918 40.16C430.888 40.16 430.858 40.16 430.828 40.16C430.798 40.16 430.768 40.16 430.738 40.16C430.707 40.16 430.677 40.16 430.647 40.16C430.617 40.16 430.588 40.16 430.558 40.16C430.528 40.16 430.498 40.16 430.468 40.16C430.438 40.16 430.408 40.16 430.379 40.16C430.349 40.16 430.319 40.16 430.289 40.16C430.26 40.16 430.23 40.16 430.2 40.16C430.171 40.16 430.141 40.16 430.112 40.16C430.082 40.16 430.053 40.16 430.023 40.16C429.994 40.16 429.964 40.16 429.935 40.16C429.905 40.16 429.876 40.16 429.847 40.16C429.817 40.16 429.788 40.16 429.759 40.16C429.73 40.16 429.701 40.16 429.671 40.16C429.642 40.16 429.613 40.16 429.584 40.16C429.555 40.16 429.526 40.16 429.497 40.16C429.468 40.16 429.439 40.16 429.41 40.16C429.381 40.16 429.352 40.16 429.323 40.16C429.295 40.16 429.266 40.16 429.237 40.16C429.208 40.16 429.18 40.16 429.151 40.16C429.122 40.16 429.094 40.16 429.065 40.16C429.036 40.16 429.008 40.16 428.979 40.16C428.951 40.16 428.922 40.16 428.894 40.16C428.866 40.16 428.837 40.16 428.809 40.16C428.781 40.16 428.752 40.16 428.724 40.16C428.696 40.16 428.668 40.16 428.639 40.16C428.611 40.16 428.583 40.16 428.555 40.16C428.527 40.16 428.499 40.16 428.471 40.16C428.443 40.16 428.415 40.16 428.387 40.16C428.359 40.16 428.331 40.16 428.303 40.16C428.276 40.16 428.248 40.16 428.22 40.16C428.192 40.16 428.165 40.16 428.137 40.16C428.109 40.16 428.082 40.16 428.054 40.16C428.027 40.16 427.999 40.16 427.972 40.16C427.944 40.16 427.917 40.16 427.89 40.16C427.862 40.16 427.835 40.16 427.808 40.16C427.78 40.16 427.753 40.16 427.726 40.16C427.699 40.16 427.672 40.16 427.644 40.16C427.617 40.16 427.59 40.16 427.563 40.16C427.536 40.16 427.509 40.16 427.482 40.16C427.456 40.16 427.429 40.16 427.402 40.16C427.375 40.16 427.348 40.16 427.322 40.16C427.295 40.16 427.268 40.16 427.242 40.16C427.215 40.16 427.188 40.16 427.162 40.16C427.135 40.16 427.109 40.16 427.082 40.16C427.056 40.16 427.03 40.16 427.003 40.16C426.977 40.16 426.951 40.16 426.924 40.16C426.898 40.16 426.872 40.16 426.846 40.16C426.82 40.16 426.794 40.16 426.768 40.16C426.742 40.16 426.716 40.16 426.69 40.16C426.664 40.16 426.638 40.16 426.612 40.16C426.586 40.16 426.561 40.16 426.535 40.16C426.509 40.16 426.483 40.16 426.458 40.16C426.432 40.16 426.407 40.16 426.381 40.16C426.355 40.16 426.33 40.16 426.305 40.16C426.279 40.16 426.254 40.16 426.228 40.16C426.203 40.16 426.178 40.16 426.153 40.16C426.127 40.16 426.102 40.16 426.077 40.16C426.052 40.16 426.027 40.16 426.002 40.16C425.977 40.16 425.952 40.16 425.927 40.16C425.902 40.16 425.877 40.16 425.853 40.16C425.828 40.16 425.803 40.16 425.778 40.16C425.754 40.16 425.729 40.16 425.704 40.16C425.68 40.16 425.655 40.16 425.631 40.16C425.606 40.16 425.582 40.16 425.558 40.16C425.533 40.16 425.509 40.16 425.485 40.16C425.46 40.16 425.436 40.16 425.412 40.16C425.388 40.16 425.364 40.16 425.34 40.16C425.316 40.16 425.292 40.16 425.268 40.16C425.244 40.16 425.22 40.16 425.196 40.16C425.172 40.16 425.149 40.16 425.125 40.16C425.101 40.16 425.078 40.16 425.054 40.16C425.03 40.16 425.007 40.16 424.983 40.16C424.96 40.16 424.937 40.16 424.913 40.16C424.89 40.16 424.867 40.16 424.843 40.16C424.82 40.16 424.797 40.16 424.774 40.16C424.751 40.16 424.728 40.16 424.704 40.16C424.681 40.16 424.659 40.16 424.636 40.16C424.613 40.16 424.59 40.16 424.567 40.16C424.544 40.16 424.522 40.16 424.499 40.16C424.476 40.16 424.454 40.16 424.431 40.16C424.409 40.16 424.386 40.16 424.364 40.16C424.341 40.16 424.319 40.16 424.297 40.16C424.274 40.16 424.252 40.16 424.23 40.16C424.208 40.16 424.186 40.16 424.163 40.16C424.141 40.16 424.119 40.16 424.097 40.16C424.075 40.16 424.054 40.16 424.032 40.16C424.01 40.16 423.988 40.16 423.966 40.16C423.945 40.16 423.923 40.16 423.902 40.16C423.88 40.16 423.858 40.16 423.837 40.16C423.816 40.16 423.794 40.16 423.773 40.16C423.751 40.16 423.73 40.16 423.709 40.16C423.688 40.16 423.667 40.16 423.646 40.16C423.624 40.16 423.603 40.16 423.583 40.16C423.562 40.16 423.541 40.16 423.52 40.16C423.499 40.16 423.478 40.16 423.458 40.16C423.437 40.16 423.416 40.16 423.396 40.16C423.375 40.16 423.355 40.16 423.334 40.16C423.314 40.16 423.293 40.16 423.273 40.16C423.253 40.16 423.232 40.16 423.212 40.16C423.192 40.16 423.172 40.16 423.152 40.16C423.132 40.16 423.112 40.16 423.092 40.16C423.072 40.16 423.052 40.16 423.032 40.16C423.012 40.16 422.993 40.16 422.973 40.16C422.953 40.16 422.934 40.16 422.914 40.16C422.895 40.16 422.875 40.16 422.856 40.16C422.836 40.16 422.817 40.16 422.798 40.16C422.779 40.16 422.759 40.16 422.74 40.16C422.721 40.16 422.702 40.16 422.683 40.16C422.664 40.16 422.645 40.16 422.626 40.16C422.607 40.16 422.589 40.16 422.57 40.16C422.551 40.16 422.532 40.16 422.514 40.16C422.495 40.16 422.477 40.16 422.458 40.16C422.44 40.16 422.421 40.16 422.403 40.16C422.385 40.16 422.366 40.16 422.348 40.16C422.33 40.16 422.312 40.16 422.294 40.16C422.276 40.16 422.258 40.16 422.24 40.16C422.222 40.16 422.204 40.16 422.187 40.16C422.169 40.16 422.151 40.16 422.133 40.16C422.116 40.16 422.098 40.16 422.081 40.16C422.063 40.16 422.046 40.16 422.029 40.16C422.011 40.16 421.994 40.16 421.977 40.16C421.96 40.16 421.942 40.16 421.925 40.16C421.908 40.16 421.891 40.16 421.874 40.16C421.858 40.16 421.841 40.16 421.824 40.16C421.807 40.16 421.79 40.16 421.774 40.16C421.757 40.16 421.741 40.16 421.724 40.16C421.708 40.16 421.691 40.16 421.675 40.16C421.659 40.16 421.642 40.16 421.626 40.16C421.61 40.16 421.594 40.16 421.578 40.16C421.562 40.16 421.546 40.16 421.53 40.16C421.514 40.16 421.498 40.16 421.483 40.16C421.467 40.16 421.451 40.16 421.436 40.16C421.42 40.16 421.404 40.16 421.389 40.16C421.374 40.16 421.358 40.16 421.343 40.16C421.328 40.16 421.312 40.16 421.297 40.16C421.282 40.16 421.267 40.16 421.252 40.16C421.237 40.16 421.222 40.16 421.207 40.16C421.192 40.16 421.178 40.16 421.163 40.16C421.148 40.16 421.134 40.16 421.119 40.16C421.105 40.16 421.09 40.16 421.076 40.16C421.061 40.16 421.047 40.16 421.033 40.16C421.019 40.16 421.004 40.16 420.99 40.16C420.976 40.16 420.962 40.16 420.948 40.16C420.934 40.16 420.921 40.16 420.907 40.16C420.893 40.16 420.879 40.16 420.866 40.16C420.852 40.16 420.839 40.16 420.825 40.16C420.812 40.16 420.798 40.16 420.785 40.16C420.772 40.16 420.759 40.16 420.745 40.16C420.732 40.16 420.719 40.16 420.706 40.16C420.693 40.16 420.68 40.16 420.668 40.16C420.655 40.16 420.642 40.16 420.629 40.16C420.617 40.16 420.604 40.16 420.592 40.16C420.579 40.16 420.567 40.16 420.554 40.16C420.542 40.16 420.53 40.16 420.518 40.16C420.505 40.16 420.493 40.16 420.481 40.16C420.469 40.16 420.457 40.16 420.446 40.16C420.434 40.16 420.422 40.16 420.41 40.16C420.399 40.16 420.387 40.16 420.376 40.16C420.364 40.16 420.353 40.16 420.341 40.16C420.33 40.16 420.319 40.16 420.307 40.16C420.296 40.16 420.285 40.16 420.274 40.16C420.263 40.16 420.252 40.16 420.241 40.16C420.23 40.16 420.22 40.16 420.209 40.16C420.198 40.16 420.188 40.16 420.177 40.16C420.167 40.16 420.156 40.16 420.146 40.16C420.135 40.16 420.125 40.16 420.115 40.16C420.105 40.16 420.095 40.16 420.085 40.16C420.075 40.16 420.065 40.16 420.055 40.16C420.045 40.16 420.035 40.16 420.026 40.16C420.016 40.16 420.006 40.16 419.997 40.16C419.987 40.16 419.978 40.16 419.969 40.16C419.959 40.16 419.95 40.16 419.941 40.16C419.932 40.16 419.923 40.16 419.914 40.16C419.905 40.16 419.896 40.16 419.887 40.16C419.878 40.16 419.869 40.16 419.861 40.16C419.852 40.16 419.843 40.16 419.835 40.16C419.827 40.16 419.818 40.16 419.81 40.16C419.802 40.16 419.793 40.16 419.785 40.16C419.777 40.16 419.769 40.16 419.761 40.16C419.753 40.16 419.745 40.16 419.738 40.16C419.73 40.16 419.722 40.16 419.715 40.16C419.707 40.16 419.699 40.16 419.692 40.16C419.685 40.16 419.677 40.16 419.67 40.16C419.663 40.16 419.656 40.16 419.649 40.16C419.642 40.16 419.635 40.16 419.628 40.16C419.621 40.16 419.614 40.16 419.607 40.16C419.601 40.16 419.594 40.16 419.588 40.16C419.581 40.16 419.575 40.16 419.568 40.16C419.562 40.16 419.556 40.16 419.55 40.16C419.544 40.16 419.538 40.16 419.532 40.16C419.526 40.16 419.52 40.16 419.514 40.16C419.508 40.16 419.503 40.16 419.497 40.16C419.491 40.16 419.486 40.16 419.48 40.16C419.475 40.16 419.47 40.16 419.464 40.16C419.459 40.16 419.454 40.16 419.449 40.16C419.444 40.16 419.439 40.16 419.434 40.16C419.429 40.16 419.425 40.16 419.42 40.16C419.415 40.16 419.411 40.16 419.406 40.16C419.402 40.16 419.397 40.16 419.393 40.16C419.389 40.16 419.385 40.16 419.381 40.16C419.376 40.16 419.372 40.16 419.368 40.16C419.365 40.16 419.361 40.16 419.357 40.16C419.353 40.16 419.35 40.16 419.346 40.16C419.343 40.16 419.339 40.16 419.336 40.16C419.333 40.16 419.329 40.16 419.326 40.16C419.323 40.16 419.32 40.16 419.317 40.16C419.314 40.16 419.311 40.16 419.308 40.16C419.306 40.16 419.303 40.16 419.3 40.16C419.298 40.16 419.295 40.16 419.293 40.16C419.291 40.16 419.288 40.16 419.286 40.16C419.284 40.16 419.282 40.16 419.28 40.16C419.278 40.16 419.276 40.16 419.274 40.16C419.272 40.16 419.271 40.16 419.269 40.16C419.268 40.16 419.266 40.16 419.265 40.16C419.263 40.16 419.262 40.16 419.261 40.16C419.26 40.16 419.259 40.16 419.258 40.16C419.257 40.16 419.256 40.16 419.255 40.16C419.254 40.16 419.253 40.16 419.253 40.16C419.252 40.16 419.252 40.16 419.251 40.16C419.251 40.16 419.251 40.16 419.25 40.16C419.25 40.16 419.25 40.16 419.25 47.16ZM465.93 47.16C465.93 30.0177 458.707 18.0161 447.729 10.5995C437.148 3.45176 423.709 0.959991 411.41 0.959991V14.96C422.151 14.96 432.472 17.1882 439.891 22.2004C446.913 26.9439 451.93 34.5423 451.93 47.16H465.93ZM411.41 0.959991C401.882 0.959991 386.99 2.21286 375.095 14.0352C363.218 25.8404 355.9 46.5842 357.376 81.6941L371.364 81.1059C369.96 47.7358 377.122 31.7596 384.965 23.9648C392.79 16.1871 402.858 14.96 411.41 14.96V0.959991ZM357.377 81.7178C358.098 97.5747 364.434 110.601 374.936 119.596C385.355 128.52 399.351 133.04 414.77 133.04V119.04C402.029 119.04 391.465 115.32 384.044 108.964C376.706 102.679 371.922 93.3853 371.363 81.0821L357.377 81.7178ZM414.77 133.04C429.656 133.04 442.936 130.17 452.702 122.122C462.686 113.894 467.718 101.338 468.325 84.8577L454.335 84.3423C453.822 98.2619 449.734 106.426 443.798 111.318C437.644 116.39 428.204 119.04 414.77 119.04V133.04ZM468.327 84.7999C468.901 64.725 456.381 48.2136 436.059 44.8917L433.801 58.7083C446.759 60.8264 454.719 70.875 454.333 84.4001L468.327 84.7999ZM413.65 91.04C412.291 91.04 410.73 89.7521 410.73 87.8H396.73C396.73 97.0479 404.129 105.04 413.65 105.04V91.04ZM410.73 87.8C410.73 86.5893 411.138 85.7776 411.549 85.3326C411.902 84.9507 412.499 84.56 413.65 84.56V70.56C403.198 70.56 396.73 78.8599 396.73 87.8H410.73ZM413.65 84.56C414.801 84.56 415.398 84.9507 415.751 85.3326C416.162 85.7776 416.57 86.5893 416.57 87.8H430.57C430.57 78.8599 424.102 70.56 413.65 70.56V84.56ZM416.57 87.8C416.57 89.7521 415.009 91.04 413.65 91.04V105.04C423.171 105.04 430.57 97.0479 430.57 87.8H416.57Z" fill="white"/>
</svg>
