<svg width="469" height="134" viewBox="0 0 469 134" fill="none" xmlns="http://www.w3.org/2000/svg">
<path opacity="0.3" d="M103.4 40.92L110.397 40.7043L110.396 40.6906L103.4 40.92ZM9 47.64H2V54.64H9V47.64ZM47.72 47.64V54.64H54.72V47.64H47.72ZM60.36 44.12L67.3592 44.2229L67.36 44.1715V44.12H60.36ZM32.36 62.04L29.1155 55.8373L29.0861 55.8527L29.0569 55.8683L32.36 62.04ZM7.4 123H0.4L0.4 130H7.4V123ZM103.4 123V130H110.4V123H103.4ZM103.4 91H110.4V84H103.4V91ZM51.08 91L44.3684 89.0114L41.7051 98H51.08V91ZM110.396 40.6906C110.116 32.1443 107.724 25.0602 103.673 19.3615C99.6532 13.7077 94.2805 9.80811 88.6087 7.13012C77.4665 1.86915 64.386 0.959991 55.24 0.959991V14.96C63.854 14.96 74.3735 15.8908 82.6313 19.7899C86.6595 21.6919 89.9368 24.2023 92.2623 27.4735C94.556 30.6998 96.204 35.0557 96.4038 41.1494L110.396 40.6906ZM55.24 0.959991C43.0917 0.959991 29.9499 3.80083 19.6415 11.1909C9.01286 18.8105 2 30.8668 2 47.64H16C16 35.2932 20.9071 27.5095 27.7985 22.5691C35.0101 17.3992 44.9883 14.96 55.24 14.96V0.959991ZM9 54.64C9.02531 54.64 9.05067 54.64 9.07608 54.64C9.10149 54.64 9.12695 54.64 9.15246 54.64C9.17797 54.64 9.20352 54.64 9.22912 54.64C9.25473 54.64 9.28038 54.64 9.30608 54.64C9.33177 54.64 9.35752 54.64 9.38331 54.64C9.40911 54.64 9.43495 54.64 9.46084 54.64C9.48672 54.64 9.51266 54.64 9.53864 54.64C9.56462 54.64 9.59065 54.64 9.61673 54.64C9.6428 54.64 9.66893 54.64 9.69509 54.64C9.72126 54.64 9.74748 54.64 9.77374 54.64C9.8 54.64 9.8263 54.64 9.85266 54.64C9.87901 54.64 9.9054 54.64 9.93185 54.64C9.95829 54.64 9.98478 54.64 10.0113 54.64C10.0378 54.64 10.0644 54.64 10.091 54.64C10.1177 54.64 10.1443 54.64 10.1711 54.64C10.1978 54.64 10.2245 54.64 10.2513 54.64C10.2781 54.64 10.305 54.64 10.3319 54.64C10.3588 54.64 10.3857 54.64 10.4127 54.64C10.4396 54.64 10.4667 54.64 10.4937 54.64C10.5208 54.64 10.5479 54.64 10.575 54.64C10.6022 54.64 10.6294 54.64 10.6566 54.64C10.6839 54.64 10.7111 54.64 10.7385 54.64C10.7658 54.64 10.7932 54.64 10.8206 54.64C10.848 54.64 10.8754 54.64 10.9029 54.64C10.9304 54.64 10.9579 54.64 10.9855 54.64C11.0131 54.64 11.0407 54.64 11.0683 54.64C11.096 54.64 11.1237 54.64 11.1514 54.64C11.1792 54.64 11.207 54.64 11.2348 54.64C11.2626 54.64 11.2905 54.64 11.3184 54.64C11.3463 54.64 11.3742 54.64 11.4022 54.64C11.4302 54.64 11.4582 54.64 11.4863 54.64C11.5143 54.64 11.5424 54.64 11.5706 54.64C11.5987 54.64 11.6269 54.64 11.6551 54.64C11.6834 54.64 11.7116 54.64 11.7399 54.64C11.7682 54.64 11.7966 54.64 11.8249 54.64C11.8533 54.64 11.8817 54.64 11.9102 54.64C11.9386 54.64 11.9671 54.64 11.9957 54.64C12.0242 54.64 12.0528 54.64 12.0814 54.64C12.11 54.64 12.1386 54.64 12.1673 54.64C12.196 54.64 12.2247 54.64 12.2535 54.64C12.2822 54.64 12.311 54.64 12.3399 54.64C12.3687 54.64 12.3976 54.64 12.4265 54.64C12.4554 54.64 12.4843 54.64 12.5133 54.64C12.5423 54.64 12.5713 54.64 12.6004 54.64C12.6294 54.64 12.6585 54.64 12.6876 54.64C12.7168 54.64 12.7459 54.64 12.7751 54.64C12.8043 54.64 12.8336 54.64 12.8628 54.64C12.8921 54.64 12.9214 54.64 12.9507 54.64C12.9801 54.64 13.0094 54.64 13.0388 54.64C13.0683 54.64 13.0977 54.64 13.1272 54.64C13.1567 54.64 13.1862 54.64 13.2157 54.64C13.2453 54.64 13.2748 54.64 13.3044 54.64C13.3341 54.64 13.3637 54.64 13.3934 54.64C13.4231 54.64 13.4528 54.64 13.4825 54.64C13.5123 54.64 13.5421 54.64 13.5719 54.64C13.6017 54.64 13.6315 54.64 13.6614 54.64C13.6913 54.64 13.7212 54.64 13.7512 54.64C13.7811 54.64 13.8111 54.64 13.8411 54.64C13.8711 54.64 13.9011 54.64 13.9312 54.64C13.9613 54.64 13.9914 54.64 14.0215 54.64C14.0517 54.64 14.0818 54.64 14.112 54.64C14.1422 54.64 14.1725 54.64 14.2027 54.64C14.233 54.64 14.2633 54.64 14.2936 54.64C14.3239 54.64 14.3543 54.64 14.3847 54.64C14.4151 54.64 14.4455 54.64 14.4759 54.64C14.5064 54.64 14.5369 54.64 14.5674 54.64C14.5979 54.64 14.6284 54.64 14.659 54.64C14.6895 54.64 14.7201 54.64 14.7508 54.64C14.7814 54.64 14.812 54.64 14.8427 54.64C14.8734 54.64 14.9041 54.64 14.9349 54.64C14.9656 54.64 14.9964 54.64 15.0272 54.64C15.058 54.64 15.0888 54.64 15.1196 54.64C15.1505 54.64 15.1814 54.64 15.2123 54.64C15.2432 54.64 15.2741 54.64 15.3051 54.64C15.3361 54.64 15.3671 54.64 15.3981 54.64C15.4291 54.64 15.4602 54.64 15.4912 54.64C15.5223 54.64 15.5534 54.64 15.5845 54.64C15.6157 54.64 15.6468 54.64 15.678 54.64C15.7092 54.64 15.7404 54.64 15.7716 54.64C15.8029 54.64 15.8341 54.64 15.8654 54.64C15.8967 54.64 15.928 54.64 15.9593 54.64C15.9907 54.64 16.022 54.64 16.0534 54.64C16.0848 54.64 16.1162 54.64 16.1477 54.64C16.1791 54.64 16.2106 54.64 16.2421 54.64C16.2736 54.64 16.3051 54.64 16.3366 54.64C16.3681 54.64 16.3997 54.64 16.4313 54.64C16.4629 54.64 16.4945 54.64 16.5261 54.64C16.5578 54.64 16.5894 54.64 16.6211 54.64C16.6528 54.64 16.6845 54.64 16.7162 54.64C16.7479 54.64 16.7797 54.64 16.8115 54.64C16.8432 54.64 16.875 54.64 16.9069 54.64C16.9387 54.64 16.9705 54.64 17.0024 54.64C17.0342 54.64 17.0661 54.64 17.098 54.64C17.13 54.64 17.1619 54.64 17.1938 54.64C17.2258 54.64 17.2578 54.64 17.2898 54.64C17.3218 54.64 17.3538 54.64 17.3858 54.64C17.4179 54.64 17.4499 54.64 17.482 54.64C17.5141 54.64 17.5462 54.64 17.5783 54.64C17.6104 54.64 17.6426 54.64 17.6747 54.64C17.7069 54.64 17.7391 54.64 17.7713 54.64C17.8035 54.64 17.8357 54.64 17.868 54.64C17.9002 54.64 17.9325 54.64 17.9648 54.64C17.9971 54.64 18.0294 54.64 18.0617 54.64C18.094 54.64 18.1263 54.64 18.1587 54.64C18.1911 54.64 18.2235 54.64 18.2558 54.64C18.2882 54.64 18.3207 54.64 18.3531 54.64C18.3855 54.64 18.418 54.64 18.4505 54.64C18.4829 54.64 18.5154 54.64 18.5479 54.64C18.5804 54.64 18.613 54.64 18.6455 54.64C18.6781 54.64 18.7106 54.64 18.7432 54.64C18.7758 54.64 18.8084 54.64 18.841 54.64C18.8736 54.64 18.9062 54.64 18.9389 54.64C18.9715 54.64 19.0042 54.64 19.0369 54.64C19.0695 54.64 19.1022 54.64 19.1349 54.64C19.1677 54.64 19.2004 54.64 19.2331 54.64C19.2659 54.64 19.2986 54.64 19.3314 54.64C19.3642 54.64 19.397 54.64 19.4298 54.64C19.4626 54.64 19.4954 54.64 19.5282 54.64C19.5611 54.64 19.5939 54.64 19.6268 54.64C19.6597 54.64 19.6925 54.64 19.7254 54.64C19.7583 54.64 19.7912 54.64 19.8242 54.64C19.8571 54.64 19.89 54.64 19.923 54.64C19.9559 54.64 19.9889 54.64 20.0219 54.64C20.0548 54.64 20.0878 54.64 20.1208 54.64C20.1538 54.64 20.1869 54.64 20.2199 54.64C20.2529 54.64 20.286 54.64 20.319 54.64C20.3521 54.64 20.3851 54.64 20.4182 54.64C20.4513 54.64 20.4844 54.64 20.5175 54.64C20.5506 54.64 20.5837 54.64 20.6169 54.64C20.65 54.64 20.6831 54.64 20.7163 54.64C20.7494 54.64 20.7826 54.64 20.8158 54.64C20.8489 54.64 20.8821 54.64 20.9153 54.64C20.9485 54.64 20.9817 54.64 21.015 54.64C21.0482 54.64 21.0814 54.64 21.1146 54.64C21.1479 54.64 21.1811 54.64 21.2144 54.64C21.2477 54.64 21.2809 54.64 21.3142 54.64C21.3475 54.64 21.3808 54.64 21.4141 54.64C21.4474 54.64 21.4807 54.64 21.514 54.64C21.5473 54.64 21.5806 54.64 21.614 54.64C21.6473 54.64 21.6807 54.64 21.714 54.64C21.7474 54.64 21.7807 54.64 21.8141 54.64C21.8475 54.64 21.8808 54.64 21.9142 54.64C21.9476 54.64 21.981 54.64 22.0144 54.64C22.0478 54.64 22.0812 54.64 22.1146 54.64C22.1481 54.64 22.1815 54.64 22.2149 54.64C22.2484 54.64 22.2818 54.64 22.3152 54.64C22.3487 54.64 22.3821 54.64 22.4156 54.64C22.4491 54.64 22.4825 54.64 22.516 54.64C22.5495 54.64 22.5829 54.64 22.6164 54.64C22.6499 54.64 22.6834 54.64 22.7169 54.64C22.7504 54.64 22.7839 54.64 22.8174 54.64C22.8509 54.64 22.8844 54.64 22.918 54.64C22.9515 54.64 22.985 54.64 23.0185 54.64C23.0521 54.64 23.0856 54.64 23.1191 54.64C23.1527 54.64 23.1862 54.64 23.2198 54.64C23.2533 54.64 23.2869 54.64 23.3204 54.64C23.354 54.64 23.3875 54.64 23.4211 54.64C23.4546 54.64 23.4882 54.64 23.5218 54.64C23.5554 54.64 23.5889 54.64 23.6225 54.64C23.6561 54.64 23.6897 54.64 23.7232 54.64C23.7568 54.64 23.7904 54.64 23.824 54.64C23.8576 54.64 23.8912 54.64 23.9248 54.64C23.9584 54.64 23.992 54.64 24.0256 54.64C24.0592 54.64 24.0928 54.64 24.1264 54.64C24.16 54.64 24.1936 54.64 24.2272 54.64C24.2608 54.64 24.2944 54.64 24.328 54.64C24.3616 54.64 24.3952 54.64 24.4288 54.64C24.4624 54.64 24.496 54.64 24.5296 54.64C24.5632 54.64 24.5969 54.64 24.6305 54.64C24.6641 54.64 24.6977 54.64 24.7313 54.64C24.7649 54.64 24.7985 54.64 24.8321 54.64C24.8657 54.64 24.8994 54.64 24.933 54.64C24.9666 54.64 25.0002 54.64 25.0338 54.64C25.0674 54.64 25.101 54.64 25.1346 54.64C25.1682 54.64 25.2018 54.64 25.2354 54.64C25.269 54.64 25.3026 54.64 25.3362 54.64C25.3698 54.64 25.4034 54.64 25.437 54.64C25.4706 54.64 25.5042 54.64 25.5378 54.64C25.5714 54.64 25.605 54.64 25.6386 54.64C25.6722 54.64 25.7058 54.64 25.7393 54.64C25.7729 54.64 25.8065 54.64 25.8401 54.64C25.8737 54.64 25.9072 54.64 25.9408 54.64C25.9744 54.64 26.0079 54.64 26.0415 54.64C26.0751 54.64 26.1086 54.64 26.1422 54.64C26.1757 54.64 26.2093 54.64 26.2428 54.64C26.2764 54.64 26.3099 54.64 26.3435 54.64C26.377 54.64 26.4105 54.64 26.444 54.64C26.4776 54.64 26.5111 54.64 26.5446 54.64C26.5781 54.64 26.6116 54.64 26.6452 54.64C26.6787 54.64 26.7122 54.64 26.7457 54.64C26.7792 54.64 26.8126 54.64 26.8461 54.64C26.8796 54.64 26.9131 54.64 26.9466 54.64C26.98 54.64 27.0135 54.64 27.047 54.64C27.0804 54.64 27.1139 54.64 27.1473 54.64C27.1808 54.64 27.2142 54.64 27.2476 54.64C27.2811 54.64 27.3145 54.64 27.3479 54.64C27.3813 54.64 27.4147 54.64 27.4481 54.64C27.4815 54.64 27.5149 54.64 27.5483 54.64C27.5817 54.64 27.6151 54.64 27.6484 54.64C27.6818 54.64 27.7152 54.64 27.7485 54.64C27.7819 54.64 27.8152 54.64 27.8486 54.64C27.8819 54.64 27.9152 54.64 27.9485 54.64C27.9818 54.64 28.0152 54.64 28.0484 54.64C28.0817 54.64 28.115 54.64 28.1483 54.64C28.1816 54.64 28.2149 54.64 28.2481 54.64C28.2814 54.64 28.3146 54.64 28.3479 54.64C28.3811 54.64 28.4143 54.64 28.4475 54.64C28.4808 54.64 28.514 54.64 28.5472 54.64C28.5804 54.64 28.6135 54.64 28.6467 54.64C28.6799 54.64 28.7131 54.64 28.7462 54.64C28.7794 54.64 28.8125 54.64 28.8456 54.64C28.8787 54.64 28.9119 54.64 28.945 54.64C28.9781 54.64 29.0112 54.64 29.0442 54.64C29.0773 54.64 29.1104 54.64 29.1434 54.64C29.1765 54.64 29.2095 54.64 29.2426 54.64C29.2756 54.64 29.3086 54.64 29.3416 54.64C29.3746 54.64 29.4076 54.64 29.4406 54.64C29.4736 54.64 29.5065 54.64 29.5395 54.64C29.5724 54.64 29.6053 54.64 29.6383 54.64C29.6712 54.64 29.7041 54.64 29.737 54.64C29.7699 54.64 29.8028 54.64 29.8356 54.64C29.8685 54.64 29.9013 54.64 29.9342 54.64C29.967 54.64 29.9998 54.64 30.0326 54.64C30.0654 54.64 30.0982 54.64 30.131 54.64C30.1638 54.64 30.1965 54.64 30.2292 54.64C30.262 54.64 30.2947 54.64 30.3274 54.64C30.3601 54.64 30.3928 54.64 30.4255 54.64C30.4582 54.64 30.4908 54.64 30.5235 54.64C30.5561 54.64 30.5888 54.64 30.6214 54.64C30.654 54.64 30.6866 54.64 30.7191 54.64C30.7517 54.64 30.7843 54.64 30.8168 54.64C30.8494 54.64 30.8819 54.64 30.9144 54.64C30.9469 54.64 30.9794 54.64 31.0118 54.64C31.0443 54.64 31.0768 54.64 31.1092 54.64C31.1416 54.64 31.174 54.64 31.2064 54.64C31.2388 54.64 31.2712 54.64 31.3036 54.64C31.3359 54.64 31.3683 54.64 31.4006 54.64C31.4329 54.64 31.4652 54.64 31.4975 54.64C31.5298 54.64 31.562 54.64 31.5943 54.64C31.6265 54.64 31.6587 54.64 31.6909 54.64C31.7231 54.64 31.7553 54.64 31.7875 54.64C31.8197 54.64 31.8518 54.64 31.8839 54.64C31.916 54.64 31.9481 54.64 31.9802 54.64C32.0123 54.64 32.0443 54.64 32.0764 54.64C32.1084 54.64 32.1404 54.64 32.1724 54.64C32.2044 54.64 32.2364 54.64 32.2683 54.64C32.3003 54.64 32.3322 54.64 32.3641 54.64C32.396 54.64 32.4279 54.64 32.4598 54.64C32.4916 54.64 32.5235 54.64 32.5553 54.64C32.5871 54.64 32.6189 54.64 32.6507 54.64C32.6824 54.64 32.7142 54.64 32.7459 54.64C32.7776 54.64 32.8093 54.64 32.841 54.64C32.8727 54.64 32.9044 54.64 32.936 54.64C32.9676 54.64 32.9992 54.64 33.0308 54.64C33.0624 54.64 33.0939 54.64 33.1255 54.64C33.157 54.64 33.1885 54.64 33.22 54.64C33.2515 54.64 33.2829 54.64 33.3144 54.64C33.3458 54.64 33.3772 54.64 33.4086 54.64C33.44 54.64 33.4714 54.64 33.5027 54.64C33.534 54.64 33.5653 54.64 33.5966 54.64C33.6279 54.64 33.6591 54.64 33.6904 54.64C33.7216 54.64 33.7528 54.64 33.784 54.64C33.8152 54.64 33.8463 54.64 33.8774 54.64C33.9086 54.64 33.9397 54.64 33.9707 54.64C34.0018 54.64 34.0328 54.64 34.0639 54.64C34.0949 54.64 34.1259 54.64 34.1568 54.64C34.1878 54.64 34.2187 54.64 34.2496 54.64C34.2805 54.64 34.3114 54.64 34.3423 54.64C34.3731 54.64 34.4039 54.64 34.4347 54.64C34.4655 54.64 34.4963 54.64 34.527 54.64C34.5578 54.64 34.5885 54.64 34.6191 54.64C34.6498 54.64 34.6805 54.64 34.7111 54.64C34.7417 54.64 34.7723 54.64 34.8029 54.64C34.8334 54.64 34.864 54.64 34.8945 54.64C34.925 54.64 34.9554 54.64 34.9859 54.64C35.0163 54.64 35.0467 54.64 35.0771 54.64C35.1075 54.64 35.1378 54.64 35.1682 54.64C35.1985 54.64 35.2288 54.64 35.259 54.64C35.2893 54.64 35.3195 54.64 35.3497 54.64C35.3799 54.64 35.4101 54.64 35.4402 54.64C35.4703 54.64 35.5004 54.64 35.5305 54.64C35.5606 54.64 35.5906 54.64 35.6206 54.64C35.6506 54.64 35.6806 54.64 35.7105 54.64C35.7405 54.64 35.7704 54.64 35.8002 54.64C35.8301 54.64 35.86 54.64 35.8898 54.64C35.9196 54.64 35.9494 54.64 35.9791 54.64C36.0088 54.64 36.0386 54.64 36.0682 54.64C36.0979 54.64 36.1275 54.64 36.1572 54.64C36.1868 54.64 36.2163 54.64 36.2459 54.64C36.2754 54.64 36.3049 54.64 36.3344 54.64C36.3639 54.64 36.3933 54.64 36.4227 54.64C36.4521 54.64 36.4815 54.64 36.5108 54.64C36.5401 54.64 36.5694 54.64 36.5987 54.64C36.628 54.64 36.6572 54.64 36.6864 54.64C36.7156 54.64 36.7447 54.64 36.7738 54.64C36.803 54.64 36.832 54.64 36.8611 54.64C36.8901 54.64 36.9191 54.64 36.9481 54.64C36.9771 54.64 37.006 54.64 37.0349 54.64C37.0638 54.64 37.0927 54.64 37.1215 54.64C37.1504 54.64 37.1791 54.64 37.2079 54.64C37.2367 54.64 37.2654 54.64 37.294 54.64C37.3227 54.64 37.3514 54.64 37.38 54.64C37.4086 54.64 37.4371 54.64 37.4657 54.64C37.4942 54.64 37.5227 54.64 37.5511 54.64C37.5796 54.64 37.608 54.64 37.6364 54.64C37.6647 54.64 37.6931 54.64 37.7214 54.64C37.7496 54.64 37.7779 54.64 37.8061 54.64C37.8343 54.64 37.8625 54.64 37.8906 54.64C37.9188 54.64 37.9469 54.64 37.9749 54.64C38.003 54.64 38.031 54.64 38.059 54.64C38.087 54.64 38.1149 54.64 38.1428 54.64C38.1707 54.64 38.1986 54.64 38.2264 54.64C38.2542 54.64 38.282 54.64 38.3097 54.64C38.3374 54.64 38.3651 54.64 38.3928 54.64C38.4204 54.64 38.448 54.64 38.4756 54.64C38.5032 54.64 38.5307 54.64 38.5582 54.64C38.5857 54.64 38.6131 54.64 38.6405 54.64C38.6679 54.64 38.6953 54.64 38.7226 54.64C38.7499 54.64 38.7772 54.64 38.8044 54.64C38.8316 54.64 38.8588 54.64 38.8859 54.64C38.9131 54.64 38.9402 54.64 38.9672 54.64C38.9943 54.64 39.0213 54.64 39.0483 54.64C39.0753 54.64 39.1022 54.64 39.1291 54.64C39.1559 54.64 39.1828 54.64 39.2096 54.64C39.2364 54.64 39.2631 54.64 39.2898 54.64C39.3165 54.64 39.3432 54.64 39.3698 54.64C39.3964 54.64 39.423 54.64 39.4495 54.64C39.476 54.64 39.5025 54.64 39.529 54.64C39.5554 54.64 39.5818 54.64 39.6081 54.64C39.6345 54.64 39.6608 54.64 39.687 54.64C39.7133 54.64 39.7395 54.64 39.7656 54.64C39.7918 54.64 39.8179 54.64 39.844 54.64C39.8701 54.64 39.8961 54.64 39.9221 54.64C39.948 54.64 39.974 54.64 39.9998 54.64C40.0257 54.64 40.0515 54.64 40.0773 54.64C40.1031 54.64 40.1289 54.64 40.1545 54.64C40.1802 54.64 40.2059 54.64 40.2315 54.64C40.2571 54.64 40.2826 54.64 40.3081 54.64C40.3336 54.64 40.3591 54.64 40.3845 54.64C40.4099 54.64 40.4352 54.64 40.4605 54.64C40.4858 54.64 40.5111 54.64 40.5363 54.64C40.5615 54.64 40.5867 54.64 40.6118 54.64C40.6369 54.64 40.6619 54.64 40.6869 54.64C40.7119 54.64 40.7369 54.64 40.7618 54.64C40.7867 54.64 40.8116 54.64 40.8364 54.64C40.8612 54.64 40.886 54.64 40.9107 54.64C40.9354 54.64 40.96 54.64 40.9846 54.64C41.0092 54.64 41.0338 54.64 41.0583 54.64C41.0828 54.64 41.1073 54.64 41.1317 54.64C41.1561 54.64 41.1804 54.64 41.2047 54.64C41.229 54.64 41.2533 54.64 41.2775 54.64C41.3017 54.64 41.3258 54.64 41.3499 54.64C41.374 54.64 41.398 54.64 41.422 54.64C41.446 54.64 41.4699 54.64 41.4938 54.64C41.5177 54.64 41.5415 54.64 41.5653 54.64C41.5891 54.64 41.6128 54.64 41.6364 54.64C41.6601 54.64 41.6837 54.64 41.7073 54.64C41.7308 54.64 41.7544 54.64 41.7778 54.64C41.8013 54.64 41.8247 54.64 41.848 54.64C41.8713 54.64 41.8946 54.64 41.9179 54.64C41.9411 54.64 41.9643 54.64 41.9874 54.64C42.0105 54.64 42.0336 54.64 42.0566 54.64C42.0796 54.64 42.1026 54.64 42.1255 54.64C42.1484 54.64 42.1713 54.64 42.1941 54.64C42.2169 54.64 42.2396 54.64 42.2623 54.64C42.285 54.64 42.3076 54.64 42.3302 54.64C42.3527 54.64 42.3752 54.64 42.3977 54.64C42.4201 54.64 42.4425 54.64 42.4649 54.64C42.4872 54.64 42.5095 54.64 42.5317 54.64C42.554 54.64 42.5762 54.64 42.5983 54.64C42.6204 54.64 42.6424 54.64 42.6644 54.64C42.6864 54.64 42.7084 54.64 42.7303 54.64C42.7521 54.64 42.774 54.64 42.7957 54.64C42.8175 54.64 42.8392 54.64 42.8609 54.64C42.8825 54.64 42.9041 54.64 42.9256 54.64C42.9472 54.64 42.9686 54.64 42.9901 54.64C43.0115 54.64 43.0328 54.64 43.0541 54.64C43.0754 54.64 43.0967 54.64 43.1178 54.64C43.139 54.64 43.1601 54.64 43.1812 54.64C43.2022 54.64 43.2232 54.64 43.2442 54.64C43.2651 54.64 43.286 54.64 43.3068 54.64C43.3276 54.64 43.3484 54.64 43.3691 54.64C43.3898 54.64 43.4104 54.64 43.431 54.64C43.4515 54.64 43.4721 54.64 43.4925 54.64C43.513 54.64 43.5333 54.64 43.5537 54.64C43.574 54.64 43.5943 54.64 43.6145 54.64C43.6347 54.64 43.6548 54.64 43.6749 54.64C43.695 54.64 43.715 54.64 43.7349 54.64C43.7549 54.64 43.7748 54.64 43.7946 54.64C43.8144 54.64 43.8342 54.64 43.8539 54.64C43.8736 54.64 43.8932 54.64 43.9128 54.64C43.9324 54.64 43.9519 54.64 43.9713 54.64C43.9908 54.64 44.0102 54.64 44.0295 54.64C44.0488 54.64 44.0681 54.64 44.0872 54.64C44.1064 54.64 44.1256 54.64 44.1446 54.64C44.1637 54.64 44.1827 54.64 44.2016 54.64C44.2205 54.64 44.2394 54.64 44.2582 54.64C44.277 54.64 44.2958 54.64 44.3144 54.64C44.3331 54.64 44.3517 54.64 44.3702 54.64C44.3888 54.64 44.4073 54.64 44.4257 54.64C44.4441 54.64 44.4624 54.64 44.4807 54.64C44.499 54.64 44.5172 54.64 44.5353 54.64C44.5535 54.64 44.5715 54.64 44.5895 54.64C44.6076 54.64 44.6255 54.64 44.6434 54.64C44.6612 54.64 44.6791 54.64 44.6968 54.64C44.7145 54.64 44.7322 54.64 44.7498 54.64C44.7674 54.64 44.7849 54.64 44.8024 54.64C44.8199 54.64 44.8373 54.64 44.8546 54.64C44.8719 54.64 44.8892 54.64 44.9064 54.64C44.9236 54.64 44.9407 54.64 44.9578 54.64C44.9748 54.64 44.9918 54.64 45.0088 54.64C45.0257 54.64 45.0425 54.64 45.0593 54.64C45.0761 54.64 45.0928 54.64 45.1094 54.64C45.1261 54.64 45.1426 54.64 45.1591 54.64C45.1756 54.64 45.1921 54.64 45.2084 54.64C45.2248 54.64 45.2411 54.64 45.2573 54.64C45.2735 54.64 45.2897 54.64 45.3058 54.64C45.3218 54.64 45.3378 54.64 45.3538 54.64C45.3697 54.64 45.3856 54.64 45.4014 54.64C45.4172 54.64 45.4329 54.64 45.4485 54.64C45.4642 54.64 45.4798 54.64 45.4953 54.64C45.5108 54.64 45.5262 54.64 45.5416 54.64C45.5569 54.64 45.5722 54.64 45.5874 54.64C45.6026 54.64 45.6178 54.64 45.6329 54.64C45.6479 54.64 45.6629 54.64 45.6778 54.64C45.6928 54.64 45.7076 54.64 45.7224 54.64C45.7372 54.64 45.7519 54.64 45.7665 54.64C45.7811 54.64 45.7957 54.64 45.8102 54.64C45.8247 54.64 45.8391 54.64 45.8534 54.64C45.8677 54.64 45.882 54.64 45.8962 54.64C45.9104 54.64 45.9245 54.64 45.9385 54.64C45.9525 54.64 45.9665 54.64 45.9804 54.64C45.9943 54.64 46.0081 54.64 46.0218 54.64C46.0355 54.64 46.0492 54.64 46.0628 54.64C46.0764 54.64 46.0899 54.64 46.1033 54.64C46.1167 54.64 46.1301 54.64 46.1434 54.64C46.1566 54.64 46.1698 54.64 46.183 54.64C46.1961 54.64 46.2091 54.64 46.2221 54.64C46.2351 54.64 46.248 54.64 46.2608 54.64C46.2736 54.64 46.2863 54.64 46.299 54.64C46.3117 54.64 46.3242 54.64 46.3367 54.64C46.3493 54.64 46.3617 54.64 46.374 54.64C46.3864 54.64 46.3986 54.64 46.4108 54.64C46.423 54.64 46.4352 54.64 46.4472 54.64C46.4592 54.64 46.4712 54.64 46.4831 54.64C46.4949 54.64 46.5067 54.64 46.5185 54.64C46.5302 54.64 46.5418 54.64 46.5534 54.64C46.5649 54.64 46.5764 54.64 46.5878 54.64C46.5992 54.64 46.6105 54.64 46.6218 54.64C46.633 54.64 46.6442 54.64 46.6553 54.64C46.6663 54.64 46.6773 54.64 46.6883 54.64C46.6992 54.64 46.71 54.64 46.7208 54.64C46.7315 54.64 46.7422 54.64 46.7528 54.64C46.7634 54.64 46.7739 54.64 46.7844 54.64C46.7948 54.64 46.8051 54.64 46.8154 54.64C46.8257 54.64 46.8359 54.64 46.846 54.64C46.8561 54.64 46.8661 54.64 46.876 54.64C46.886 54.64 46.8958 54.64 46.9056 54.64C46.9154 54.64 46.9251 54.64 46.9347 54.64C46.9443 54.64 46.9538 54.64 46.9633 54.64C46.9727 54.64 46.9821 54.64 46.9913 54.64C47.0006 54.64 47.0098 54.64 47.0189 54.64C47.028 54.64 47.037 54.64 47.046 54.64C47.0549 54.64 47.0638 54.64 47.0726 54.64C47.0813 54.64 47.09 54.64 47.0986 54.64C47.1072 54.64 47.1157 54.64 47.1242 54.64C47.1326 54.64 47.141 54.64 47.1492 54.64C47.1575 54.64 47.1657 54.64 47.1737 54.64C47.1818 54.64 47.1898 54.64 47.1978 54.64C47.2057 54.64 47.2135 54.64 47.2213 54.64C47.229 54.64 47.2367 54.64 47.2442 54.64C47.2518 54.64 47.2593 54.64 47.2667 54.64C47.2741 54.64 47.2814 54.64 47.2887 54.64C47.2959 54.64 47.303 54.64 47.3101 54.64C47.3171 54.64 47.3241 54.64 47.331 54.64C47.3379 54.64 47.3446 54.64 47.3513 54.64C47.3581 54.64 47.3647 54.64 47.3712 54.64C47.3777 54.64 47.3842 54.64 47.3905 54.64C47.3969 54.64 47.4031 54.64 47.4093 54.64C47.4155 54.64 47.4215 54.64 47.4275 54.64C47.4335 54.64 47.4394 54.64 47.4453 54.64C47.4511 54.64 47.4568 54.64 47.4624 54.64C47.4681 54.64 47.4736 54.64 47.4791 54.64C47.4845 54.64 47.4899 54.64 47.4952 54.64C47.5005 54.64 47.5057 54.64 47.5107 54.64C47.5158 54.64 47.5209 54.64 47.5258 54.64C47.5307 54.64 47.5355 54.64 47.5402 54.64C47.545 54.64 47.5496 54.64 47.5542 54.64C47.5587 54.64 47.5632 54.64 47.5676 54.64C47.5719 54.64 47.5762 54.64 47.5804 54.64C47.5846 54.64 47.5887 54.64 47.5927 54.64C47.5967 54.64 47.6006 54.64 47.6044 54.64C47.6082 54.64 47.6119 54.64 47.6156 54.64C47.6192 54.64 47.6227 54.64 47.6262 54.64C47.6296 54.64 47.633 54.64 47.6362 54.64C47.6395 54.64 47.6426 54.64 47.6457 54.64C47.6488 54.64 47.6518 54.64 47.6546 54.64C47.6575 54.64 47.6603 54.64 47.663 54.64C47.6657 54.64 47.6683 54.64 47.6708 54.64C47.6733 54.64 47.6757 54.64 47.6781 54.64C47.6804 54.64 47.6826 54.64 47.6847 54.64C47.6868 54.64 47.6889 54.64 47.6908 54.64C47.6927 54.64 47.6946 54.64 47.6963 54.64C47.6981 54.64 47.6997 54.64 47.7013 54.64C47.7028 54.64 47.7043 54.64 47.7057 54.64C47.707 54.64 47.7083 54.64 47.7095 54.64C47.7106 54.64 47.7117 54.64 47.7127 54.64C47.7136 54.64 47.7145 54.64 47.7153 54.64C47.7161 54.64 47.7168 54.64 47.7174 54.64C47.7179 54.64 47.7184 54.64 47.7188 54.64C47.7192 54.64 47.7195 54.64 47.7197 54.64C47.7199 54.64 47.72 54.64 47.72 47.64C47.72 40.64 47.7199 40.64 47.7197 40.64C47.7195 40.64 47.7192 40.64 47.7188 40.64C47.7184 40.64 47.7179 40.64 47.7174 40.64C47.7168 40.64 47.7161 40.64 47.7153 40.64C47.7145 40.64 47.7136 40.64 47.7127 40.64C47.7117 40.64 47.7106 40.64 47.7095 40.64C47.7083 40.64 47.707 40.64 47.7057 40.64C47.7043 40.64 47.7028 40.64 47.7013 40.64C47.6997 40.64 47.6981 40.64 47.6963 40.64C47.6946 40.64 47.6927 40.64 47.6908 40.64C47.6889 40.64 47.6868 40.64 47.6847 40.64C47.6826 40.64 47.6804 40.64 47.6781 40.64C47.6757 40.64 47.6733 40.64 47.6708 40.64C47.6683 40.64 47.6657 40.64 47.663 40.64C47.6603 40.64 47.6575 40.64 47.6546 40.64C47.6518 40.64 47.6488 40.64 47.6457 40.64C47.6426 40.64 47.6395 40.64 47.6362 40.64C47.633 40.64 47.6296 40.64 47.6262 40.64C47.6227 40.64 47.6192 40.64 47.6156 40.64C47.6119 40.64 47.6082 40.64 47.6044 40.64C47.6006 40.64 47.5967 40.64 47.5927 40.64C47.5887 40.64 47.5846 40.64 47.5804 40.64C47.5762 40.64 47.5719 40.64 47.5676 40.64C47.5632 40.64 47.5587 40.64 47.5542 40.64C47.5496 40.64 47.545 40.64 47.5402 40.64C47.5355 40.64 47.5307 40.64 47.5258 40.64C47.5209 40.64 47.5158 40.64 47.5107 40.64C47.5057 40.64 47.5005 40.64 47.4952 40.64C47.4899 40.64 47.4845 40.64 47.4791 40.64C47.4736 40.64 47.4681 40.64 47.4624 40.64C47.4568 40.64 47.4511 40.64 47.4453 40.64C47.4394 40.64 47.4335 40.64 47.4275 40.64C47.4215 40.64 47.4155 40.64 47.4093 40.64C47.4031 40.64 47.3969 40.64 47.3905 40.64C47.3842 40.64 47.3777 40.64 47.3712 40.64C47.3647 40.64 47.3581 40.64 47.3513 40.64C47.3446 40.64 47.3379 40.64 47.331 40.64C47.3241 40.64 47.3171 40.64 47.3101 40.64C47.303 40.64 47.2959 40.64 47.2887 40.64C47.2814 40.64 47.2741 40.64 47.2667 40.64C47.2593 40.64 47.2518 40.64 47.2442 40.64C47.2367 40.64 47.229 40.64 47.2213 40.64C47.2135 40.64 47.2057 40.64 47.1978 40.64C47.1898 40.64 47.1818 40.64 47.1737 40.64C47.1657 40.64 47.1575 40.64 47.1492 40.64C47.141 40.64 47.1326 40.64 47.1242 40.64C47.1157 40.64 47.1072 40.64 47.0986 40.64C47.09 40.64 47.0813 40.64 47.0726 40.64C47.0638 40.64 47.0549 40.64 47.046 40.64C47.037 40.64 47.028 40.64 47.0189 40.64C47.0098 40.64 47.0006 40.64 46.9913 40.64C46.9821 40.64 46.9727 40.64 46.9633 40.64C46.9538 40.64 46.9443 40.64 46.9347 40.64C46.9251 40.64 46.9154 40.64 46.9056 40.64C46.8958 40.64 46.886 40.64 46.876 40.64C46.8661 40.64 46.8561 40.64 46.846 40.64C46.8359 40.64 46.8257 40.64 46.8154 40.64C46.8051 40.64 46.7948 40.64 46.7844 40.64C46.7739 40.64 46.7634 40.64 46.7528 40.64C46.7422 40.64 46.7315 40.64 46.7208 40.64C46.71 40.64 46.6992 40.64 46.6883 40.64C46.6773 40.64 46.6663 40.64 46.6553 40.64C46.6442 40.64 46.633 40.64 46.6218 40.64C46.6105 40.64 46.5992 40.64 46.5878 40.64C46.5764 40.64 46.5649 40.64 46.5534 40.64C46.5418 40.64 46.5302 40.64 46.5185 40.64C46.5067 40.64 46.4949 40.64 46.4831 40.64C46.4712 40.64 46.4592 40.64 46.4472 40.64C46.4352 40.64 46.423 40.64 46.4108 40.64C46.3986 40.64 46.3864 40.64 46.374 40.64C46.3617 40.64 46.3493 40.64 46.3367 40.64C46.3242 40.64 46.3117 40.64 46.299 40.64C46.2863 40.64 46.2736 40.64 46.2608 40.64C46.248 40.64 46.2351 40.64 46.2221 40.64C46.2091 40.64 46.1961 40.64 46.183 40.64C46.1698 40.64 46.1566 40.64 46.1434 40.64C46.1301 40.64 46.1167 40.64 46.1033 40.64C46.0899 40.64 46.0764 40.64 46.0628 40.64C46.0492 40.64 46.0355 40.64 46.0218 40.64C46.0081 40.64 45.9943 40.64 45.9804 40.64C45.9665 40.64 45.9525 40.64 45.9385 40.64C45.9245 40.64 45.9104 40.64 45.8962 40.64C45.882 40.64 45.8677 40.64 45.8534 40.64C45.8391 40.64 45.8247 40.64 45.8102 40.64C45.7957 40.64 45.7811 40.64 45.7665 40.64C45.7519 40.64 45.7372 40.64 45.7224 40.64C45.7076 40.64 45.6928 40.64 45.6778 40.64C45.6629 40.64 45.6479 40.64 45.6329 40.64C45.6178 40.64 45.6026 40.64 45.5874 40.64C45.5722 40.64 45.5569 40.64 45.5416 40.64C45.5262 40.64 45.5108 40.64 45.4953 40.64C45.4798 40.64 45.4642 40.64 45.4485 40.64C45.4329 40.64 45.4172 40.64 45.4014 40.64C45.3856 40.64 45.3697 40.64 45.3538 40.64C45.3378 40.64 45.3218 40.64 45.3058 40.64C45.2897 40.64 45.2735 40.64 45.2573 40.64C45.2411 40.64 45.2248 40.64 45.2084 40.64C45.1921 40.64 45.1756 40.64 45.1591 40.64C45.1426 40.64 45.1261 40.64 45.1094 40.64C45.0928 40.64 45.0761 40.64 45.0593 40.64C45.0425 40.64 45.0257 40.64 45.0088 40.64C44.9918 40.64 44.9748 40.64 44.9578 40.64C44.9407 40.64 44.9236 40.64 44.9064 40.64C44.8892 40.64 44.8719 40.64 44.8546 40.64C44.8373 40.64 44.8199 40.64 44.8024 40.64C44.7849 40.64 44.7674 40.64 44.7498 40.64C44.7322 40.64 44.7145 40.64 44.6968 40.64C44.6791 40.64 44.6612 40.64 44.6434 40.64C44.6255 40.64 44.6076 40.64 44.5895 40.64C44.5715 40.64 44.5535 40.64 44.5353 40.64C44.5172 40.64 44.499 40.64 44.4807 40.64C44.4624 40.64 44.4441 40.64 44.4257 40.64C44.4073 40.64 44.3888 40.64 44.3702 40.64C44.3517 40.64 44.3331 40.64 44.3144 40.64C44.2958 40.64 44.277 40.64 44.2582 40.64C44.2394 40.64 44.2205 40.64 44.2016 40.64C44.1827 40.64 44.1637 40.64 44.1446 40.64C44.1256 40.64 44.1064 40.64 44.0872 40.64C44.0681 40.64 44.0488 40.64 44.0295 40.64C44.0102 40.64 43.9908 40.64 43.9713 40.64C43.9519 40.64 43.9324 40.64 43.9128 40.64C43.8932 40.64 43.8736 40.64 43.8539 40.64C43.8342 40.64 43.8144 40.64 43.7946 40.64C43.7748 40.64 43.7549 40.64 43.7349 40.64C43.715 40.64 43.695 40.64 43.6749 40.64C43.6548 40.64 43.6347 40.64 43.6145 40.64C43.5943 40.64 43.574 40.64 43.5537 40.64C43.5333 40.64 43.513 40.64 43.4925 40.64C43.4721 40.64 43.4515 40.64 43.431 40.64C43.4104 40.64 43.3898 40.64 43.3691 40.64C43.3484 40.64 43.3276 40.64 43.3068 40.64C43.286 40.64 43.2651 40.64 43.2442 40.64C43.2232 40.64 43.2022 40.64 43.1812 40.64C43.1601 40.64 43.139 40.64 43.1178 40.64C43.0967 40.64 43.0754 40.64 43.0541 40.64C43.0328 40.64 43.0115 40.64 42.9901 40.64C42.9686 40.64 42.9472 40.64 42.9256 40.64C42.9041 40.64 42.8825 40.64 42.8609 40.64C42.8392 40.64 42.8175 40.64 42.7957 40.64C42.774 40.64 42.7521 40.64 42.7303 40.64C42.7084 40.64 42.6864 40.64 42.6644 40.64C42.6424 40.64 42.6204 40.64 42.5983 40.64C42.5762 40.64 42.554 40.64 42.5317 40.64C42.5095 40.64 42.4872 40.64 42.4649 40.64C42.4425 40.64 42.4201 40.64 42.3977 40.64C42.3752 40.64 42.3527 40.64 42.3302 40.64C42.3076 40.64 42.285 40.64 42.2623 40.64C42.2396 40.64 42.2169 40.64 42.1941 40.64C42.1713 40.64 42.1484 40.64 42.1255 40.64C42.1026 40.64 42.0796 40.64 42.0566 40.64C42.0336 40.64 42.0105 40.64 41.9874 40.64C41.9643 40.64 41.9411 40.64 41.9179 40.64C41.8946 40.64 41.8713 40.64 41.848 40.64C41.8247 40.64 41.8013 40.64 41.7778 40.64C41.7544 40.64 41.7308 40.64 41.7073 40.64C41.6837 40.64 41.6601 40.64 41.6364 40.64C41.6128 40.64 41.5891 40.64 41.5653 40.64C41.5415 40.64 41.5177 40.64 41.4938 40.64C41.4699 40.64 41.446 40.64 41.422 40.64C41.398 40.64 41.374 40.64 41.3499 40.64C41.3258 40.64 41.3017 40.64 41.2775 40.64C41.2533 40.64 41.229 40.64 41.2047 40.64C41.1804 40.64 41.1561 40.64 41.1317 40.64C41.1073 40.64 41.0828 40.64 41.0583 40.64C41.0338 40.64 41.0092 40.64 40.9846 40.64C40.96 40.64 40.9354 40.64 40.9107 40.64C40.886 40.64 40.8612 40.64 40.8364 40.64C40.8116 40.64 40.7867 40.64 40.7618 40.64C40.7369 40.64 40.7119 40.64 40.6869 40.64C40.6619 40.64 40.6369 40.64 40.6118 40.64C40.5867 40.64 40.5615 40.64 40.5363 40.64C40.5111 40.64 40.4858 40.64 40.4605 40.64C40.4352 40.64 40.4099 40.64 40.3845 40.64C40.3591 40.64 40.3336 40.64 40.3081 40.64C40.2826 40.64 40.2571 40.64 40.2315 40.64C40.2059 40.64 40.1802 40.64 40.1545 40.64C40.1289 40.64 40.1031 40.64 40.0773 40.64C40.0515 40.64 40.0257 40.64 39.9998 40.64C39.974 40.64 39.948 40.64 39.9221 40.64C39.8961 40.64 39.8701 40.64 39.844 40.64C39.8179 40.64 39.7918 40.64 39.7656 40.64C39.7395 40.64 39.7133 40.64 39.687 40.64C39.6608 40.64 39.6345 40.64 39.6081 40.64C39.5818 40.64 39.5554 40.64 39.529 40.64C39.5025 40.64 39.476 40.64 39.4495 40.64C39.423 40.64 39.3964 40.64 39.3698 40.64C39.3432 40.64 39.3165 40.64 39.2898 40.64C39.2631 40.64 39.2364 40.64 39.2096 40.64C39.1828 40.64 39.1559 40.64 39.1291 40.64C39.1022 40.64 39.0753 40.64 39.0483 40.64C39.0213 40.64 38.9943 40.64 38.9672 40.64C38.9402 40.64 38.9131 40.64 38.8859 40.64C38.8588 40.64 38.8316 40.64 38.8044 40.64C38.7772 40.64 38.7499 40.64 38.7226 40.64C38.6953 40.64 38.6679 40.64 38.6405 40.64C38.6131 40.64 38.5857 40.64 38.5582 40.64C38.5307 40.64 38.5032 40.64 38.4756 40.64C38.448 40.64 38.4204 40.64 38.3928 40.64C38.3651 40.64 38.3374 40.64 38.3097 40.64C38.282 40.64 38.2542 40.64 38.2264 40.64C38.1986 40.64 38.1707 40.64 38.1428 40.64C38.1149 40.64 38.087 40.64 38.059 40.64C38.031 40.64 38.003 40.64 37.9749 40.64C37.9469 40.64 37.9188 40.64 37.8906 40.64C37.8625 40.64 37.8343 40.64 37.8061 40.64C37.7779 40.64 37.7496 40.64 37.7214 40.64C37.6931 40.64 37.6647 40.64 37.6364 40.64C37.608 40.64 37.5796 40.64 37.5511 40.64C37.5227 40.64 37.4942 40.64 37.4657 40.64C37.4371 40.64 37.4086 40.64 37.38 40.64C37.3514 40.64 37.3227 40.64 37.294 40.64C37.2654 40.64 37.2367 40.64 37.2079 40.64C37.1791 40.64 37.1504 40.64 37.1215 40.64C37.0927 40.64 37.0638 40.64 37.0349 40.64C37.006 40.64 36.9771 40.64 36.9481 40.64C36.9191 40.64 36.8901 40.64 36.8611 40.64C36.832 40.64 36.803 40.64 36.7738 40.64C36.7447 40.64 36.7156 40.64 36.6864 40.64C36.6572 40.64 36.628 40.64 36.5987 40.64C36.5694 40.64 36.5401 40.64 36.5108 40.64C36.4815 40.64 36.4521 40.64 36.4227 40.64C36.3933 40.64 36.3639 40.64 36.3344 40.64C36.3049 40.64 36.2754 40.64 36.2459 40.64C36.2163 40.64 36.1868 40.64 36.1572 40.64C36.1275 40.64 36.0979 40.64 36.0682 40.64C36.0386 40.64 36.0088 40.64 35.9791 40.64C35.9494 40.64 35.9196 40.64 35.8898 40.64C35.86 40.64 35.8301 40.64 35.8002 40.64C35.7704 40.64 35.7405 40.64 35.7105 40.64C35.6806 40.64 35.6506 40.64 35.6206 40.64C35.5906 40.64 35.5606 40.64 35.5305 40.64C35.5004 40.64 35.4703 40.64 35.4402 40.64C35.4101 40.64 35.3799 40.64 35.3497 40.64C35.3195 40.64 35.2893 40.64 35.259 40.64C35.2288 40.64 35.1985 40.64 35.1682 40.64C35.1378 40.64 35.1075 40.64 35.0771 40.64C35.0467 40.64 35.0163 40.64 34.9859 40.64C34.9554 40.64 34.925 40.64 34.8945 40.64C34.864 40.64 34.8334 40.64 34.8029 40.64C34.7723 40.64 34.7417 40.64 34.7111 40.64C34.6805 40.64 34.6498 40.64 34.6191 40.64C34.5885 40.64 34.5578 40.64 34.527 40.64C34.4963 40.64 34.4655 40.64 34.4347 40.64C34.4039 40.64 34.3731 40.64 34.3423 40.64C34.3114 40.64 34.2805 40.64 34.2496 40.64C34.2187 40.64 34.1878 40.64 34.1568 40.64C34.1259 40.64 34.0949 40.64 34.0639 40.64C34.0328 40.64 34.0018 40.64 33.9707 40.64C33.9397 40.64 33.9086 40.64 33.8774 40.64C33.8463 40.64 33.8152 40.64 33.784 40.64C33.7528 40.64 33.7216 40.64 33.6904 40.64C33.6591 40.64 33.6279 40.64 33.5966 40.64C33.5653 40.64 33.534 40.64 33.5027 40.64C33.4714 40.64 33.44 40.64 33.4086 40.64C33.3772 40.64 33.3458 40.64 33.3144 40.64C33.2829 40.64 33.2515 40.64 33.22 40.64C33.1885 40.64 33.157 40.64 33.1255 40.64C33.0939 40.64 33.0624 40.64 33.0308 40.64C32.9992 40.64 32.9676 40.64 32.936 40.64C32.9044 40.64 32.8727 40.64 32.841 40.64C32.8093 40.64 32.7776 40.64 32.7459 40.64C32.7142 40.64 32.6824 40.64 32.6507 40.64C32.6189 40.64 32.5871 40.64 32.5553 40.64C32.5235 40.64 32.4916 40.64 32.4598 40.64C32.4279 40.64 32.396 40.64 32.3641 40.64C32.3322 40.64 32.3003 40.64 32.2683 40.64C32.2364 40.64 32.2044 40.64 32.1724 40.64C32.1404 40.64 32.1084 40.64 32.0764 40.64C32.0443 40.64 32.0123 40.64 31.9802 40.64C31.9481 40.64 31.916 40.64 31.8839 40.64C31.8518 40.64 31.8197 40.64 31.7875 40.64C31.7553 40.64 31.7231 40.64 31.6909 40.64C31.6587 40.64 31.6265 40.64 31.5943 40.64C31.562 40.64 31.5298 40.64 31.4975 40.64C31.4652 40.64 31.4329 40.64 31.4006 40.64C31.3683 40.64 31.3359 40.64 31.3036 40.64C31.2712 40.64 31.2388 40.64 31.2064 40.64C31.174 40.64 31.1416 40.64 31.1092 40.64C31.0768 40.64 31.0443 40.64 31.0118 40.64C30.9794 40.64 30.9469 40.64 30.9144 40.64C30.8819 40.64 30.8494 40.64 30.8168 40.64C30.7843 40.64 30.7517 40.64 30.7191 40.64C30.6866 40.64 30.654 40.64 30.6214 40.64C30.5888 40.64 30.5561 40.64 30.5235 40.64C30.4908 40.64 30.4582 40.64 30.4255 40.64C30.3928 40.64 30.3601 40.64 30.3274 40.64C30.2947 40.64 30.262 40.64 30.2292 40.64C30.1965 40.64 30.1638 40.64 30.131 40.64C30.0982 40.64 30.0654 40.64 30.0326 40.64C29.9998 40.64 29.967 40.64 29.9342 40.64C29.9013 40.64 29.8685 40.64 29.8356 40.64C29.8028 40.64 29.7699 40.64 29.737 40.64C29.7041 40.64 29.6712 40.64 29.6383 40.64C29.6053 40.64 29.5724 40.64 29.5395 40.64C29.5065 40.64 29.4736 40.64 29.4406 40.64C29.4076 40.64 29.3746 40.64 29.3416 40.64C29.3086 40.64 29.2756 40.64 29.2426 40.64C29.2095 40.64 29.1765 40.64 29.1434 40.64C29.1104 40.64 29.0773 40.64 29.0442 40.64C29.0112 40.64 28.9781 40.64 28.945 40.64C28.9119 40.64 28.8787 40.64 28.8456 40.64C28.8125 40.64 28.7794 40.64 28.7462 40.64C28.7131 40.64 28.6799 40.64 28.6467 40.64C28.6135 40.64 28.5804 40.64 28.5472 40.64C28.514 40.64 28.4808 40.64 28.4475 40.64C28.4143 40.64 28.3811 40.64 28.3479 40.64C28.3146 40.64 28.2814 40.64 28.2481 40.64C28.2149 40.64 28.1816 40.64 28.1483 40.64C28.115 40.64 28.0817 40.64 28.0484 40.64C28.0152 40.64 27.9818 40.64 27.9485 40.64C27.9152 40.64 27.8819 40.64 27.8486 40.64C27.8152 40.64 27.7819 40.64 27.7485 40.64C27.7152 40.64 27.6818 40.64 27.6484 40.64C27.6151 40.64 27.5817 40.64 27.5483 40.64C27.5149 40.64 27.4815 40.64 27.4481 40.64C27.4147 40.64 27.3813 40.64 27.3479 40.64C27.3145 40.64 27.2811 40.64 27.2476 40.64C27.2142 40.64 27.1808 40.64 27.1473 40.64C27.1139 40.64 27.0804 40.64 27.047 40.64C27.0135 40.64 26.98 40.64 26.9466 40.64C26.9131 40.64 26.8796 40.64 26.8461 40.64C26.8126 40.64 26.7792 40.64 26.7457 40.64C26.7122 40.64 26.6787 40.64 26.6452 40.64C26.6116 40.64 26.5781 40.64 26.5446 40.64C26.5111 40.64 26.4776 40.64 26.444 40.64C26.4105 40.64 26.377 40.64 26.3435 40.64C26.3099 40.64 26.2764 40.64 26.2428 40.64C26.2093 40.64 26.1757 40.64 26.1422 40.64C26.1086 40.64 26.0751 40.64 26.0415 40.64C26.0079 40.64 25.9744 40.64 25.9408 40.64C25.9072 40.64 25.8737 40.64 25.8401 40.64C25.8065 40.64 25.7729 40.64 25.7393 40.64C25.7058 40.64 25.6722 40.64 25.6386 40.64C25.605 40.64 25.5714 40.64 25.5378 40.64C25.5042 40.64 25.4706 40.64 25.437 40.64C25.4034 40.64 25.3698 40.64 25.3362 40.64C25.3026 40.64 25.269 40.64 25.2354 40.64C25.2018 40.64 25.1682 40.64 25.1346 40.64C25.101 40.64 25.0674 40.64 25.0338 40.64C25.0002 40.64 24.9666 40.64 24.933 40.64C24.8994 40.64 24.8657 40.64 24.8321 40.64C24.7985 40.64 24.7649 40.64 24.7313 40.64C24.6977 40.64 24.6641 40.64 24.6305 40.64C24.5969 40.64 24.5632 40.64 24.5296 40.64C24.496 40.64 24.4624 40.64 24.4288 40.64C24.3952 40.64 24.3616 40.64 24.328 40.64C24.2944 40.64 24.2608 40.64 24.2272 40.64C24.1936 40.64 24.16 40.64 24.1264 40.64C24.0928 40.64 24.0592 40.64 24.0256 40.64C23.992 40.64 23.9584 40.64 23.9248 40.64C23.8912 40.64 23.8576 40.64 23.824 40.64C23.7904 40.64 23.7568 40.64 23.7232 40.64C23.6897 40.64 23.6561 40.64 23.6225 40.64C23.5889 40.64 23.5554 40.64 23.5218 40.64C23.4882 40.64 23.4546 40.64 23.4211 40.64C23.3875 40.64 23.354 40.64 23.3204 40.64C23.2869 40.64 23.2533 40.64 23.2198 40.64C23.1862 40.64 23.1527 40.64 23.1191 40.64C23.0856 40.64 23.0521 40.64 23.0185 40.64C22.985 40.64 22.9515 40.64 22.918 40.64C22.8844 40.64 22.8509 40.64 22.8174 40.64C22.7839 40.64 22.7504 40.64 22.7169 40.64C22.6834 40.64 22.6499 40.64 22.6164 40.64C22.5829 40.64 22.5495 40.64 22.516 40.64C22.4825 40.64 22.4491 40.64 22.4156 40.64C22.3821 40.64 22.3487 40.64 22.3152 40.64C22.2818 40.64 22.2484 40.64 22.2149 40.64C22.1815 40.64 22.1481 40.64 22.1146 40.64C22.0812 40.64 22.0478 40.64 22.0144 40.64C21.981 40.64 21.9476 40.64 21.9142 40.64C21.8808 40.64 21.8475 40.64 21.8141 40.64C21.7807 40.64 21.7474 40.64 21.714 40.64C21.6807 40.64 21.6473 40.64 21.614 40.64C21.5806 40.64 21.5473 40.64 21.514 40.64C21.4807 40.64 21.4474 40.64 21.4141 40.64C21.3808 40.64 21.3475 40.64 21.3142 40.64C21.2809 40.64 21.2477 40.64 21.2144 40.64C21.1811 40.64 21.1479 40.64 21.1146 40.64C21.0814 40.64 21.0482 40.64 21.015 40.64C20.9817 40.64 20.9485 40.64 20.9153 40.64C20.8821 40.64 20.8489 40.64 20.8158 40.64C20.7826 40.64 20.7494 40.64 20.7163 40.64C20.6831 40.64 20.65 40.64 20.6169 40.64C20.5837 40.64 20.5506 40.64 20.5175 40.64C20.4844 40.64 20.4513 40.64 20.4182 40.64C20.3851 40.64 20.3521 40.64 20.319 40.64C20.286 40.64 20.2529 40.64 20.2199 40.64C20.1869 40.64 20.1538 40.64 20.1208 40.64C20.0878 40.64 20.0548 40.64 20.0219 40.64C19.9889 40.64 19.9559 40.64 19.923 40.64C19.89 40.64 19.8571 40.64 19.8242 40.64C19.7912 40.64 19.7583 40.64 19.7254 40.64C19.6925 40.64 19.6597 40.64 19.6268 40.64C19.5939 40.64 19.5611 40.64 19.5282 40.64C19.4954 40.64 19.4626 40.64 19.4298 40.64C19.397 40.64 19.3642 40.64 19.3314 40.64C19.2986 40.64 19.2659 40.64 19.2331 40.64C19.2004 40.64 19.1677 40.64 19.1349 40.64C19.1022 40.64 19.0695 40.64 19.0369 40.64C19.0042 40.64 18.9715 40.64 18.9389 40.64C18.9062 40.64 18.8736 40.64 18.841 40.64C18.8084 40.64 18.7758 40.64 18.7432 40.64C18.7106 40.64 18.6781 40.64 18.6455 40.64C18.613 40.64 18.5804 40.64 18.5479 40.64C18.5154 40.64 18.4829 40.64 18.4505 40.64C18.418 40.64 18.3855 40.64 18.3531 40.64C18.3207 40.64 18.2882 40.64 18.2558 40.64C18.2235 40.64 18.1911 40.64 18.1587 40.64C18.1263 40.64 18.094 40.64 18.0617 40.64C18.0294 40.64 17.9971 40.64 17.9648 40.64C17.9325 40.64 17.9002 40.64 17.868 40.64C17.8357 40.64 17.8035 40.64 17.7713 40.64C17.7391 40.64 17.7069 40.64 17.6747 40.64C17.6426 40.64 17.6104 40.64 17.5783 40.64C17.5462 40.64 17.5141 40.64 17.482 40.64C17.4499 40.64 17.4179 40.64 17.3858 40.64C17.3538 40.64 17.3218 40.64 17.2898 40.64C17.2578 40.64 17.2258 40.64 17.1938 40.64C17.1619 40.64 17.13 40.64 17.098 40.64C17.0661 40.64 17.0342 40.64 17.0024 40.64C16.9705 40.64 16.9387 40.64 16.9069 40.64C16.875 40.64 16.8432 40.64 16.8115 40.64C16.7797 40.64 16.7479 40.64 16.7162 40.64C16.6845 40.64 16.6528 40.64 16.6211 40.64C16.5894 40.64 16.5578 40.64 16.5261 40.64C16.4945 40.64 16.4629 40.64 16.4313 40.64C16.3997 40.64 16.3681 40.64 16.3366 40.64C16.3051 40.64 16.2736 40.64 16.2421 40.64C16.2106 40.64 16.1791 40.64 16.1477 40.64C16.1162 40.64 16.0848 40.64 16.0534 40.64C16.022 40.64 15.9907 40.64 15.9593 40.64C15.928 40.64 15.8967 40.64 15.8654 40.64C15.8341 40.64 15.8029 40.64 15.7716 40.64C15.7404 40.64 15.7092 40.64 15.678 40.64C15.6468 40.64 15.6157 40.64 15.5845 40.64C15.5534 40.64 15.5223 40.64 15.4912 40.64C15.4602 40.64 15.4291 40.64 15.3981 40.64C15.3671 40.64 15.3361 40.64 15.3051 40.64C15.2741 40.64 15.2432 40.64 15.2123 40.64C15.1814 40.64 15.1505 40.64 15.1196 40.64C15.0888 40.64 15.058 40.64 15.0272 40.64C14.9964 40.64 14.9656 40.64 14.9349 40.64C14.9041 40.64 14.8734 40.64 14.8427 40.64C14.812 40.64 14.7814 40.64 14.7508 40.64C14.7201 40.64 14.6895 40.64 14.659 40.64C14.6284 40.64 14.5979 40.64 14.5674 40.64C14.5369 40.64 14.5064 40.64 14.4759 40.64C14.4455 40.64 14.4151 40.64 14.3847 40.64C14.3543 40.64 14.3239 40.64 14.2936 40.64C14.2633 40.64 14.233 40.64 14.2027 40.64C14.1725 40.64 14.1422 40.64 14.112 40.64C14.0818 40.64 14.0517 40.64 14.0215 40.64C13.9914 40.64 13.9613 40.64 13.9312 40.64C13.9011 40.64 13.8711 40.64 13.8411 40.64C13.8111 40.64 13.7811 40.64 13.7512 40.64C13.7212 40.64 13.6913 40.64 13.6614 40.64C13.6315 40.64 13.6017 40.64 13.5719 40.64C13.5421 40.64 13.5123 40.64 13.4825 40.64C13.4528 40.64 13.4231 40.64 13.3934 40.64C13.3637 40.64 13.3341 40.64 13.3044 40.64C13.2748 40.64 13.2453 40.64 13.2157 40.64C13.1862 40.64 13.1567 40.64 13.1272 40.64C13.0977 40.64 13.0683 40.64 13.0388 40.64C13.0094 40.64 12.9801 40.64 12.9507 40.64C12.9214 40.64 12.8921 40.64 12.8628 40.64C12.8336 40.64 12.8043 40.64 12.7751 40.64C12.7459 40.64 12.7168 40.64 12.6876 40.64C12.6585 40.64 12.6294 40.64 12.6004 40.64C12.5713 40.64 12.5423 40.64 12.5133 40.64C12.4843 40.64 12.4554 40.64 12.4265 40.64C12.3976 40.64 12.3687 40.64 12.3399 40.64C12.311 40.64 12.2822 40.64 12.2535 40.64C12.2247 40.64 12.196 40.64 12.1673 40.64C12.1386 40.64 12.11 40.64 12.0814 40.64C12.0528 40.64 12.0242 40.64 11.9957 40.64C11.9671 40.64 11.9386 40.64 11.9102 40.64C11.8817 40.64 11.8533 40.64 11.8249 40.64C11.7966 40.64 11.7682 40.64 11.7399 40.64C11.7116 40.64 11.6834 40.64 11.6551 40.64C11.6269 40.64 11.5987 40.64 11.5706 40.64C11.5424 40.64 11.5143 40.64 11.4863 40.64C11.4582 40.64 11.4302 40.64 11.4022 40.64C11.3742 40.64 11.3463 40.64 11.3184 40.64C11.2905 40.64 11.2626 40.64 11.2348 40.64C11.207 40.64 11.1792 40.64 11.1514 40.64C11.1237 40.64 11.096 40.64 11.0683 40.64C11.0407 40.64 11.0131 40.64 10.9855 40.64C10.9579 40.64 10.9304 40.64 10.9029 40.64C10.8754 40.64 10.848 40.64 10.8206 40.64C10.7932 40.64 10.7658 40.64 10.7385 40.64C10.7111 40.64 10.6839 40.64 10.6566 40.64C10.6294 40.64 10.6022 40.64 10.575 40.64C10.5479 40.64 10.5208 40.64 10.4937 40.64C10.4667 40.64 10.4396 40.64 10.4127 40.64C10.3857 40.64 10.3588 40.64 10.3319 40.64C10.305 40.64 10.2781 40.64 10.2513 40.64C10.2245 40.64 10.1978 40.64 10.1711 40.64C10.1443 40.64 10.1177 40.64 10.091 40.64C10.0644 40.64 10.0378 40.64 10.0113 40.64C9.98478 40.64 9.95829 40.64 9.93185 40.64C9.9054 40.64 9.87901 40.64 9.85266 40.64C9.8263 40.64 9.8 40.64 9.77374 40.64C9.74748 40.64 9.72126 40.64 9.69509 40.64C9.66893 40.64 9.6428 40.64 9.61673 40.64C9.59065 40.64 9.56462 40.64 9.53864 40.64C9.51266 40.64 9.48672 40.64 9.46084 40.64C9.43495 40.64 9.40911 40.64 9.38331 40.64C9.35752 40.64 9.33177 40.64 9.30608 40.64C9.28038 40.64 9.25473 40.64 9.22912 40.64C9.20352 40.64 9.17797 40.64 9.15246 40.64C9.12695 40.64 9.10149 40.64 9.07608 40.64C9.05067 40.64 9.02531 40.64 9 40.64V54.64ZM54.72 47.64C54.72 46.2948 54.8073 45.3886 54.9218 44.7988C55.0366 44.207 55.1322 44.1811 54.9844 44.4029C54.9023 44.526 54.7705 44.6866 54.5832 44.8449C54.3952 45.0038 54.2097 45.1112 54.0627 45.1762C53.7897 45.297 53.8179 45.2 54.44 45.2V31.2C50.3856 31.2 46.0819 32.5177 43.3357 36.6371C41.0701 40.0354 40.72 44.2222 40.72 47.64H54.72ZM54.44 45.2C54.8363 45.2 54.9183 45.2518 54.7918 45.21C54.6349 45.1583 54.2931 45.005 53.9405 44.6595C53.585 44.3111 53.4163 43.9609 53.3546 43.7812C53.3043 43.6349 53.36 43.708 53.36 44.12H67.36C67.36 40.97 66.528 37.3933 63.7395 34.6605C60.9768 31.9531 57.4387 31.2 54.44 31.2V45.2ZM53.3608 44.0171C53.35 44.7488 53.0688 46.2691 47.4371 48.6883C44.8849 49.7847 42.055 50.7244 38.7875 51.868C35.6968 52.9498 32.2172 54.2149 29.1155 55.8373L35.6045 68.2427C37.7028 67.1451 40.3032 66.1702 43.4125 65.082C46.345 64.0556 49.8351 62.8953 52.9629 61.5517C58.6912 59.0909 67.21 54.3711 67.3592 44.2229L53.3608 44.0171ZM29.0569 55.8683C23.1622 59.0232 15.8832 63.4078 10.1486 70.5938C4.27427 77.955 0.4 87.7604 0.4 101.08H14.4C14.4 90.7196 17.3257 84.045 21.0914 79.3262C24.9968 74.4322 30.1978 71.1368 35.6631 68.2116L29.0569 55.8683ZM0.4 101.08L0.4 123H14.4L14.4 101.08H0.4ZM7.4 130H103.4V116H7.4V130ZM110.4 123V91H96.4V123H110.4ZM103.4 84H51.08L51.08 98H103.4V84ZM57.7916 92.9886C57.6017 93.6296 57.2511 93.5658 58.17 92.9979C59.1392 92.3988 60.7218 91.7359 63.1985 90.9484C67.5221 89.5738 75.1961 87.7419 81.7969 85.1284C88.7871 82.3608 96.3012 78.1735 101.912 70.9124C107.614 63.5318 110.797 53.6992 110.397 40.7043L96.4033 41.1357C96.7228 51.5008 94.2055 57.9882 90.8334 62.3526C87.3688 66.8365 82.4329 69.8192 76.6431 72.1116C70.4639 74.5581 65.0279 75.6762 58.9565 77.6066C56.2357 78.4716 53.2995 79.5499 50.8094 81.089C48.2689 82.6592 45.5183 85.1304 44.3684 89.0114L57.7916 92.9886ZM185.784 0.959991C168.996 0.959991 154.769 7.1405 144.867 19.0177C135.096 30.7388 130.144 47.2666 130.144 67H144.144C144.144 49.4534 148.552 36.4612 155.62 27.9823C162.559 19.6595 172.652 14.96 185.784 14.96V0.959991ZM130.144 67C130.144 86.7334 135.096 103.261 144.867 114.982C154.769 126.859 168.996 133.04 185.784 133.04V119.04C172.652 119.04 162.559 114.341 155.62 106.018C148.552 97.5388 144.144 84.5466 144.144 67H130.144ZM185.784 133.04C202.643 133.04 216.878 126.865 226.766 114.976C236.519 103.249 241.424 86.7195 241.424 67H227.424C227.424 84.5605 223.049 97.5509 216.002 106.024C209.09 114.335 199.004 119.04 185.784 119.04V133.04ZM241.424 67C241.424 47.2805 236.519 30.7509 226.766 19.0239C216.878 7.13493 202.643 0.959991 185.784 0.959991V14.96C199.004 14.96 209.09 19.6651 216.002 27.976C223.049 36.4491 227.424 49.4395 227.424 67H241.424ZM185.784 84.64C185.197 84.64 184.975 84.5066 184.803 84.3745C184.537 84.1698 183.985 83.606 183.379 82.219C182.102 79.294 181.264 74.2957 181.264 67H167.264C167.264 74.9043 168.106 82.226 170.549 87.821C171.803 90.694 173.621 93.4402 176.279 95.4805C179.032 97.5934 182.29 98.64 185.784 98.64V84.64ZM181.264 67C181.264 59.7043 182.102 54.706 183.379 51.781C183.985 50.394 184.537 49.8302 184.803 49.6255C184.975 49.4934 185.197 49.36 185.784 49.36V35.36C182.29 35.36 179.032 36.4066 176.279 38.5195C173.621 40.5598 171.803 43.306 170.549 46.179C168.106 51.774 167.264 59.0956 167.264 67H181.264ZM185.784 49.36C186.441 49.36 186.682 49.5113 186.845 49.636C187.102 49.8315 187.643 50.3787 188.238 51.7556C189.499 54.6751 190.304 59.6688 190.304 67H204.304C204.304 59.1312 203.509 51.8049 201.09 46.2044C199.845 43.3213 198.026 40.5585 195.342 38.509C192.565 36.3887 189.287 35.36 185.784 35.36V49.36ZM190.304 67C190.304 74.3312 189.499 79.3249 188.238 82.2444C187.643 83.6213 187.102 84.1685 186.845 84.364C186.682 84.4887 186.441 84.64 185.784 84.64V98.64C189.287 98.64 192.565 97.6113 195.342 95.491C198.026 93.4415 199.845 90.6787 201.09 87.7956C203.509 82.1951 204.304 74.8688 204.304 67H190.304ZM291.539 11V3.99999H290.108L288.791 4.56174L291.539 11ZM266.419 21.72L263.671 15.2817L259.419 17.0965V21.72H266.419ZM266.419 44.6H259.419V51.6H266.419V44.6ZM289.939 44.6H296.939V37.6H289.939V44.6ZM289.939 123H282.939V130H289.939V123ZM328.019 123V130H335.019V123H328.019ZM328.019 11H335.019V3.99999H328.019V11ZM288.791 4.56174L263.671 15.2817L269.166 28.1582L294.286 17.4382L288.791 4.56174ZM259.419 21.72V44.6H273.419V21.72H259.419ZM266.419 51.6H289.939V37.6H266.419V51.6ZM282.939 44.6V123H296.939V44.6H282.939ZM289.939 130H328.019V116H289.939V130ZM335.019 123V11H321.019V123H335.019ZM328.019 3.99999H291.539V18H328.019V3.99999ZM460.85 52.6L453.856 52.8798L453.856 52.8947L453.857 52.9097L460.85 52.6ZM390.45 82.2L389.185 89.0848L389.195 89.0866L389.205 89.0884L390.45 82.2ZM422.13 74.84V67.84H419.381L417.367 69.7104L422.13 74.84ZM422.93 74.84L429.93 74.908L429.998 67.84H422.93V74.84ZM405.97 86.84H412.97V79.84H405.97V86.84ZM366.45 86.84V79.84H359.45V86.84H366.45ZM467.844 52.3202C467.213 36.5234 460.912 23.4874 450.41 14.4694C439.992 5.52295 425.955 0.959991 410.45 0.959991V14.96C423.265 14.96 433.868 18.717 441.29 25.0906C448.628 31.3926 453.367 40.6766 453.856 52.8798L467.844 52.3202ZM410.45 0.959991C395.581 0.959991 382.074 3.82348 372.211 11.8509C362.06 20.1131 357.05 32.766 357.05 49.4H371.05C371.05 35.6339 375.08 27.5669 381.049 22.7091C387.306 17.6165 396.999 14.96 410.45 14.96V0.959991ZM357.05 49.4C357.05 69.3974 370.008 85.5625 389.185 89.0848L391.715 75.3152C379.532 73.0775 371.05 63.0025 371.05 49.4H357.05ZM389.205 89.0884C404.238 91.8051 418.273 87.9743 426.893 79.9696L417.367 69.7104C412.547 74.1857 403.222 77.3949 391.695 75.3116L389.205 89.0884ZM422.13 81.84H422.93V67.84H422.13V81.84ZM415.93 74.772C415.854 82.6659 414.791 86.7265 413.822 88.5858C413.394 89.4072 413.121 89.533 413.206 89.479C413.321 89.4057 413.385 89.44 413.17 89.44V103.44C415.675 103.44 418.299 102.834 420.729 101.286C423.129 99.757 424.926 97.5728 426.238 95.0542C428.749 90.2335 429.846 83.4941 429.93 74.908L415.93 74.772ZM413.17 89.44C412.558 89.44 412.448 89.346 412.615 89.4167C412.851 89.5169 413.121 89.7236 413.293 89.9574C413.421 90.1318 413.322 90.0898 413.2 89.5531C413.076 89.0085 412.97 88.1414 412.97 86.84H398.97C398.97 90.572 399.504 94.8322 402.007 98.2426C404.879 102.155 409.142 103.44 413.17 103.44V89.44ZM405.97 86.84C405.97 79.84 405.97 79.84 405.97 79.84C405.97 79.84 405.969 79.84 405.969 79.84C405.968 79.84 405.968 79.84 405.967 79.84C405.967 79.84 405.966 79.84 405.965 79.84C405.964 79.84 405.964 79.84 405.962 79.84C405.961 79.84 405.96 79.84 405.959 79.84C405.958 79.84 405.957 79.84 405.955 79.84C405.954 79.84 405.952 79.84 405.951 79.84C405.949 79.84 405.948 79.84 405.946 79.84C405.944 79.84 405.942 79.84 405.94 79.84C405.938 79.84 405.936 79.84 405.934 79.84C405.932 79.84 405.929 79.84 405.927 79.84C405.925 79.84 405.922 79.84 405.92 79.84C405.917 79.84 405.914 79.84 405.912 79.84C405.909 79.84 405.906 79.84 405.903 79.84C405.9 79.84 405.897 79.84 405.894 79.84C405.891 79.84 405.887 79.84 405.884 79.84C405.881 79.84 405.877 79.84 405.874 79.84C405.87 79.84 405.867 79.84 405.863 79.84C405.859 79.84 405.855 79.84 405.852 79.84C405.848 79.84 405.844 79.84 405.84 79.84C405.835 79.84 405.831 79.84 405.827 79.84C405.823 79.84 405.818 79.84 405.814 79.84C405.809 79.84 405.805 79.84 405.8 79.84C405.795 79.84 405.791 79.84 405.786 79.84C405.781 79.84 405.776 79.84 405.771 79.84C405.766 79.84 405.761 79.84 405.756 79.84C405.75 79.84 405.745 79.84 405.74 79.84C405.734 79.84 405.729 79.84 405.723 79.84C405.718 79.84 405.712 79.84 405.706 79.84C405.7 79.84 405.694 79.84 405.688 79.84C405.683 79.84 405.676 79.84 405.67 79.84C405.664 79.84 405.658 79.84 405.652 79.84C405.645 79.84 405.639 79.84 405.632 79.84C405.626 79.84 405.619 79.84 405.613 79.84C405.606 79.84 405.599 79.84 405.592 79.84C405.585 79.84 405.578 79.84 405.571 79.84C405.564 79.84 405.557 79.84 405.55 79.84C405.543 79.84 405.535 79.84 405.528 79.84C405.521 79.84 405.513 79.84 405.506 79.84C405.498 79.84 405.49 79.84 405.483 79.84C405.475 79.84 405.467 79.84 405.459 79.84C405.451 79.84 405.443 79.84 405.435 79.84C405.427 79.84 405.419 79.84 405.41 79.84C405.402 79.84 405.394 79.84 405.385 79.84C405.377 79.84 405.368 79.84 405.359 79.84C405.351 79.84 405.342 79.84 405.333 79.84C405.324 79.84 405.316 79.84 405.307 79.84C405.298 79.84 405.289 79.84 405.279 79.84C405.27 79.84 405.261 79.84 405.252 79.84C405.242 79.84 405.233 79.84 405.223 79.84C405.214 79.84 405.204 79.84 405.195 79.84C405.185 79.84 405.175 79.84 405.165 79.84C405.156 79.84 405.146 79.84 405.136 79.84C405.126 79.84 405.115 79.84 405.105 79.84C405.095 79.84 405.085 79.84 405.074 79.84C405.064 79.84 405.054 79.84 405.043 79.84C405.033 79.84 405.022 79.84 405.011 79.84C405.001 79.84 404.99 79.84 404.979 79.84C404.968 79.84 404.957 79.84 404.946 79.84C404.935 79.84 404.924 79.84 404.913 79.84C404.902 79.84 404.89 79.84 404.879 79.84C404.868 79.84 404.856 79.84 404.845 79.84C404.833 79.84 404.822 79.84 404.81 79.84C404.798 79.84 404.787 79.84 404.775 79.84C404.763 79.84 404.751 79.84 404.739 79.84C404.727 79.84 404.715 79.84 404.703 79.84C404.691 79.84 404.678 79.84 404.666 79.84C404.654 79.84 404.641 79.84 404.629 79.84C404.616 79.84 404.604 79.84 404.591 79.84C404.578 79.84 404.566 79.84 404.553 79.84C404.54 79.84 404.527 79.84 404.514 79.84C404.501 79.84 404.488 79.84 404.475 79.84C404.462 79.84 404.449 79.84 404.435 79.84C404.422 79.84 404.409 79.84 404.395 79.84C404.382 79.84 404.368 79.84 404.355 79.84C404.341 79.84 404.327 79.84 404.314 79.84C404.3 79.84 404.286 79.84 404.272 79.84C404.258 79.84 404.244 79.84 404.23 79.84C404.216 79.84 404.202 79.84 404.188 79.84C404.174 79.84 404.159 79.84 404.145 79.84C404.13 79.84 404.116 79.84 404.102 79.84C404.087 79.84 404.072 79.84 404.058 79.84C404.043 79.84 404.028 79.84 404.013 79.84C403.999 79.84 403.984 79.84 403.969 79.84C403.954 79.84 403.939 79.84 403.924 79.84C403.908 79.84 403.893 79.84 403.878 79.84C403.863 79.84 403.847 79.84 403.832 79.84C403.816 79.84 403.801 79.84 403.785 79.84C403.77 79.84 403.754 79.84 403.738 79.84C403.723 79.84 403.707 79.84 403.691 79.84C403.675 79.84 403.659 79.84 403.643 79.84C403.627 79.84 403.611 79.84 403.595 79.84C403.579 79.84 403.562 79.84 403.546 79.84C403.53 79.84 403.513 79.84 403.497 79.84C403.48 79.84 403.464 79.84 403.447 79.84C403.431 79.84 403.414 79.84 403.397 79.84C403.38 79.84 403.364 79.84 403.347 79.84C403.33 79.84 403.313 79.84 403.296 79.84C403.279 79.84 403.262 79.84 403.244 79.84C403.227 79.84 403.21 79.84 403.193 79.84C403.175 79.84 403.158 79.84 403.14 79.84C403.123 79.84 403.105 79.84 403.088 79.84C403.07 79.84 403.053 79.84 403.035 79.84C403.017 79.84 402.999 79.84 402.981 79.84C402.963 79.84 402.945 79.84 402.927 79.84C402.909 79.84 402.891 79.84 402.873 79.84C402.855 79.84 402.837 79.84 402.818 79.84C402.8 79.84 402.782 79.84 402.763 79.84C402.745 79.84 402.726 79.84 402.708 79.84C402.689 79.84 402.671 79.84 402.652 79.84C402.633 79.84 402.614 79.84 402.596 79.84C402.577 79.84 402.558 79.84 402.539 79.84C402.52 79.84 402.501 79.84 402.482 79.84C402.462 79.84 402.443 79.84 402.424 79.84C402.405 79.84 402.385 79.84 402.366 79.84C402.347 79.84 402.327 79.84 402.308 79.84C402.288 79.84 402.269 79.84 402.249 79.84C402.229 79.84 402.21 79.84 402.19 79.84C402.17 79.84 402.15 79.84 402.13 79.84C402.11 79.84 402.09 79.84 402.07 79.84C402.05 79.84 402.03 79.84 402.01 79.84C401.99 79.84 401.97 79.84 401.949 79.84C401.929 79.84 401.909 79.84 401.888 79.84C401.868 79.84 401.847 79.84 401.827 79.84C401.806 79.84 401.786 79.84 401.765 79.84C401.744 79.84 401.723 79.84 401.703 79.84C401.682 79.84 401.661 79.84 401.64 79.84C401.619 79.84 401.598 79.84 401.577 79.84C401.556 79.84 401.535 79.84 401.514 79.84C401.492 79.84 401.471 79.84 401.45 79.84C401.429 79.84 401.407 79.84 401.386 79.84C401.364 79.84 401.343 79.84 401.321 79.84C401.3 79.84 401.278 79.84 401.256 79.84C401.235 79.84 401.213 79.84 401.191 79.84C401.169 79.84 401.148 79.84 401.126 79.84C401.104 79.84 401.082 79.84 401.06 79.84C401.038 79.84 401.015 79.84 400.993 79.84C400.971 79.84 400.949 79.84 400.927 79.84C400.904 79.84 400.882 79.84 400.86 79.84C400.837 79.84 400.815 79.84 400.792 79.84C400.77 79.84 400.747 79.84 400.724 79.84C400.702 79.84 400.679 79.84 400.656 79.84C400.634 79.84 400.611 79.84 400.588 79.84C400.565 79.84 400.542 79.84 400.519 79.84C400.496 79.84 400.473 79.84 400.45 79.84C400.427 79.84 400.404 79.84 400.381 79.84C400.357 79.84 400.334 79.84 400.311 79.84C400.287 79.84 400.264 79.84 400.241 79.84C400.217 79.84 400.194 79.84 400.17 79.84C400.146 79.84 400.123 79.84 400.099 79.84C400.075 79.84 400.052 79.84 400.028 79.84C400.004 79.84 399.98 79.84 399.956 79.84C399.933 79.84 399.909 79.84 399.885 79.84C399.861 79.84 399.837 79.84 399.812 79.84C399.788 79.84 399.764 79.84 399.74 79.84C399.716 79.84 399.691 79.84 399.667 79.84C399.643 79.84 399.618 79.84 399.594 79.84C399.569 79.84 399.545 79.84 399.52 79.84C399.496 79.84 399.471 79.84 399.447 79.84C399.422 79.84 399.397 79.84 399.372 79.84C399.348 79.84 399.323 79.84 399.298 79.84C399.273 79.84 399.248 79.84 399.223 79.84C399.198 79.84 399.173 79.84 399.148 79.84C399.123 79.84 399.098 79.84 399.073 79.84C399.048 79.84 399.022 79.84 398.997 79.84C398.972 79.84 398.946 79.84 398.921 79.84C398.896 79.84 398.87 79.84 398.845 79.84C398.819 79.84 398.794 79.84 398.768 79.84C398.742 79.84 398.717 79.84 398.691 79.84C398.665 79.84 398.64 79.84 398.614 79.84C398.588 79.84 398.562 79.84 398.536 79.84C398.51 79.84 398.484 79.84 398.458 79.84C398.432 79.84 398.406 79.84 398.38 79.84C398.354 79.84 398.328 79.84 398.302 79.84C398.276 79.84 398.249 79.84 398.223 79.84C398.197 79.84 398.171 79.84 398.144 79.84C398.118 79.84 398.091 79.84 398.065 79.84C398.038 79.84 398.012 79.84 397.985 79.84C397.959 79.84 397.932 79.84 397.905 79.84C397.879 79.84 397.852 79.84 397.825 79.84C397.798 79.84 397.772 79.84 397.745 79.84C397.718 79.84 397.691 79.84 397.664 79.84C397.637 79.84 397.61 79.84 397.583 79.84C397.556 79.84 397.529 79.84 397.502 79.84C397.475 79.84 397.447 79.84 397.42 79.84C397.393 79.84 397.366 79.84 397.338 79.84C397.311 79.84 397.284 79.84 397.256 79.84C397.229 79.84 397.201 79.84 397.174 79.84C397.146 79.84 397.119 79.84 397.091 79.84C397.064 79.84 397.036 79.84 397.008 79.84C396.98 79.84 396.953 79.84 396.925 79.84C396.897 79.84 396.869 79.84 396.842 79.84C396.814 79.84 396.786 79.84 396.758 79.84C396.73 79.84 396.702 79.84 396.674 79.84C396.646 79.84 396.618 79.84 396.59 79.84C396.562 79.84 396.533 79.84 396.505 79.84C396.477 79.84 396.449 79.84 396.42 79.84C396.392 79.84 396.364 79.84 396.335 79.84C396.307 79.84 396.279 79.84 396.25 79.84C396.222 79.84 396.193 79.84 396.165 79.84C396.136 79.84 396.108 79.84 396.079 79.84C396.05 79.84 396.022 79.84 395.993 79.84C395.964 79.84 395.935 79.84 395.907 79.84C395.878 79.84 395.849 79.84 395.82 79.84C395.791 79.84 395.762 79.84 395.733 79.84C395.705 79.84 395.676 79.84 395.647 79.84C395.617 79.84 395.588 79.84 395.559 79.84C395.53 79.84 395.501 79.84 395.472 79.84C395.443 79.84 395.414 79.84 395.384 79.84C395.355 79.84 395.326 79.84 395.296 79.84C395.267 79.84 395.238 79.84 395.208 79.84C395.179 79.84 395.149 79.84 395.12 79.84C395.09 79.84 395.061 79.84 395.031 79.84C395.002 79.84 394.972 79.84 394.943 79.84C394.913 79.84 394.883 79.84 394.853 79.84C394.824 79.84 394.794 79.84 394.764 79.84C394.734 79.84 394.705 79.84 394.675 79.84C394.645 79.84 394.615 79.84 394.585 79.84C394.555 79.84 394.525 79.84 394.495 79.84C394.465 79.84 394.435 79.84 394.405 79.84C394.375 79.84 394.345 79.84 394.315 79.84C394.285 79.84 394.254 79.84 394.224 79.84C394.194 79.84 394.164 79.84 394.133 79.84C394.103 79.84 394.073 79.84 394.042 79.84C394.012 79.84 393.982 79.84 393.951 79.84C393.921 79.84 393.89 79.84 393.86 79.84C393.829 79.84 393.799 79.84 393.768 79.84C393.738 79.84 393.707 79.84 393.677 79.84C393.646 79.84 393.615 79.84 393.585 79.84C393.554 79.84 393.523 79.84 393.493 79.84C393.462 79.84 393.431 79.84 393.4 79.84C393.369 79.84 393.339 79.84 393.308 79.84C393.277 79.84 393.246 79.84 393.215 79.84C393.184 79.84 393.153 79.84 393.122 79.84C393.091 79.84 393.06 79.84 393.029 79.84C392.998 79.84 392.967 79.84 392.936 79.84C392.904 79.84 392.873 79.84 392.842 79.84C392.811 79.84 392.78 79.84 392.748 79.84C392.717 79.84 392.686 79.84 392.655 79.84C392.623 79.84 392.592 79.84 392.561 79.84C392.529 79.84 392.498 79.84 392.466 79.84C392.435 79.84 392.403 79.84 392.372 79.84C392.34 79.84 392.309 79.84 392.277 79.84C392.246 79.84 392.214 79.84 392.183 79.84C392.151 79.84 392.119 79.84 392.088 79.84C392.056 79.84 392.024 79.84 391.993 79.84C391.961 79.84 391.929 79.84 391.898 79.84C391.866 79.84 391.834 79.84 391.802 79.84C391.77 79.84 391.738 79.84 391.707 79.84C391.675 79.84 391.643 79.84 391.611 79.84C391.579 79.84 391.547 79.84 391.515 79.84C391.483 79.84 391.451 79.84 391.419 79.84C391.387 79.84 391.355 79.84 391.323 79.84C391.291 79.84 391.259 79.84 391.227 79.84C391.194 79.84 391.162 79.84 391.13 79.84C391.098 79.84 391.066 79.84 391.033 79.84C391.001 79.84 390.969 79.84 390.937 79.84C390.904 79.84 390.872 79.84 390.84 79.84C390.807 79.84 390.775 79.84 390.743 79.84C390.71 79.84 390.678 79.84 390.645 79.84C390.613 79.84 390.58 79.84 390.548 79.84C390.516 79.84 390.483 79.84 390.451 79.84C390.418 79.84 390.385 79.84 390.353 79.84C390.32 79.84 390.288 79.84 390.255 79.84C390.222 79.84 390.19 79.84 390.157 79.84C390.125 79.84 390.092 79.84 390.059 79.84C390.026 79.84 389.994 79.84 389.961 79.84C389.928 79.84 389.895 79.84 389.863 79.84C389.83 79.84 389.797 79.84 389.764 79.84C389.731 79.84 389.699 79.84 389.666 79.84C389.633 79.84 389.6 79.84 389.567 79.84C389.534 79.84 389.501 79.84 389.468 79.84C389.435 79.84 389.402 79.84 389.369 79.84C389.336 79.84 389.303 79.84 389.27 79.84C389.237 79.84 389.204 79.84 389.171 79.84C389.138 79.84 389.105 79.84 389.072 79.84C389.039 79.84 389.006 79.84 388.972 79.84C388.939 79.84 388.906 79.84 388.873 79.84C388.84 79.84 388.807 79.84 388.773 79.84C388.74 79.84 388.707 79.84 388.674 79.84C388.64 79.84 388.607 79.84 388.574 79.84C388.541 79.84 388.507 79.84 388.474 79.84C388.441 79.84 388.407 79.84 388.374 79.84C388.341 79.84 388.307 79.84 388.274 79.84C388.24 79.84 388.207 79.84 388.174 79.84C388.14 79.84 388.107 79.84 388.073 79.84C388.04 79.84 388.006 79.84 387.973 79.84C387.939 79.84 387.906 79.84 387.872 79.84C387.839 79.84 387.805 79.84 387.772 79.84C387.738 79.84 387.705 79.84 387.671 79.84C387.637 79.84 387.604 79.84 387.57 79.84C387.537 79.84 387.503 79.84 387.469 79.84C387.436 79.84 387.402 79.84 387.368 79.84C387.335 79.84 387.301 79.84 387.267 79.84C387.234 79.84 387.2 79.84 387.166 79.84C387.133 79.84 387.099 79.84 387.065 79.84C387.031 79.84 386.998 79.84 386.964 79.84C386.93 79.84 386.896 79.84 386.863 79.84C386.829 79.84 386.795 79.84 386.761 79.84C386.727 79.84 386.693 79.84 386.66 79.84C386.626 79.84 386.592 79.84 386.558 79.84C386.524 79.84 386.49 79.84 386.456 79.84C386.423 79.84 386.389 79.84 386.355 79.84C386.321 79.84 386.287 79.84 386.253 79.84C386.219 79.84 386.185 79.84 386.151 79.84C386.117 79.84 386.083 79.84 386.049 79.84C386.015 79.84 385.981 79.84 385.947 79.84C385.913 79.84 385.879 79.84 385.845 79.84C385.811 79.84 385.777 79.84 385.743 79.84C385.709 79.84 385.675 79.84 385.641 79.84C385.607 79.84 385.573 79.84 385.539 79.84C385.505 79.84 385.471 79.84 385.437 79.84C385.403 79.84 385.369 79.84 385.335 79.84C385.3 79.84 385.266 79.84 385.232 79.84C385.198 79.84 385.164 79.84 385.13 79.84C385.096 79.84 385.062 79.84 385.027 79.84C384.993 79.84 384.959 79.84 384.925 79.84C384.891 79.84 384.857 79.84 384.823 79.84C384.788 79.84 384.754 79.84 384.72 79.84C384.686 79.84 384.652 79.84 384.617 79.84C384.583 79.84 384.549 79.84 384.515 79.84C384.481 79.84 384.446 79.84 384.412 79.84C384.378 79.84 384.344 79.84 384.31 79.84C384.275 79.84 384.241 79.84 384.207 79.84C384.173 79.84 384.138 79.84 384.104 79.84C384.07 79.84 384.036 79.84 384.001 79.84C383.967 79.84 383.933 79.84 383.899 79.84C383.864 79.84 383.83 79.84 383.796 79.84C383.762 79.84 383.727 79.84 383.693 79.84C383.659 79.84 383.625 79.84 383.59 79.84C383.556 79.84 383.522 79.84 383.487 79.84C383.453 79.84 383.419 79.84 383.385 79.84C383.35 79.84 383.316 79.84 383.282 79.84C383.247 79.84 383.213 79.84 383.179 79.84C383.145 79.84 383.11 79.84 383.076 79.84C383.042 79.84 383.007 79.84 382.973 79.84C382.939 79.84 382.904 79.84 382.87 79.84C382.836 79.84 382.801 79.84 382.767 79.84C382.733 79.84 382.699 79.84 382.664 79.84C382.63 79.84 382.596 79.84 382.561 79.84C382.527 79.84 382.493 79.84 382.458 79.84C382.424 79.84 382.39 79.84 382.355 79.84C382.321 79.84 382.287 79.84 382.253 79.84C382.218 79.84 382.184 79.84 382.15 79.84C382.115 79.84 382.081 79.84 382.047 79.84C382.013 79.84 381.978 79.84 381.944 79.84C381.91 79.84 381.875 79.84 381.841 79.84C381.807 79.84 381.772 79.84 381.738 79.84C381.704 79.84 381.67 79.84 381.635 79.84C381.601 79.84 381.567 79.84 381.533 79.84C381.498 79.84 381.464 79.84 381.43 79.84C381.395 79.84 381.361 79.84 381.327 79.84C381.293 79.84 381.258 79.84 381.224 79.84C381.19 79.84 381.156 79.84 381.121 79.84C381.087 79.84 381.053 79.84 381.019 79.84C380.984 79.84 380.95 79.84 380.916 79.84C380.882 79.84 380.848 79.84 380.813 79.84C380.779 79.84 380.745 79.84 380.711 79.84C380.676 79.84 380.642 79.84 380.608 79.84C380.574 79.84 380.54 79.84 380.505 79.84C380.471 79.84 380.437 79.84 380.403 79.84C380.369 79.84 380.335 79.84 380.3 79.84C380.266 79.84 380.232 79.84 380.198 79.84C380.164 79.84 380.13 79.84 380.096 79.84C380.061 79.84 380.027 79.84 379.993 79.84C379.959 79.84 379.925 79.84 379.891 79.84C379.857 79.84 379.823 79.84 379.789 79.84C379.755 79.84 379.72 79.84 379.686 79.84C379.652 79.84 379.618 79.84 379.584 79.84C379.55 79.84 379.516 79.84 379.482 79.84C379.448 79.84 379.414 79.84 379.38 79.84C379.346 79.84 379.312 79.84 379.278 79.84C379.244 79.84 379.21 79.84 379.176 79.84C379.142 79.84 379.108 79.84 379.074 79.84C379.04 79.84 379.006 79.84 378.972 79.84C378.938 79.84 378.904 79.84 378.871 79.84C378.837 79.84 378.803 79.84 378.769 79.84C378.735 79.84 378.701 79.84 378.667 79.84C378.633 79.84 378.599 79.84 378.566 79.84C378.532 79.84 378.498 79.84 378.464 79.84C378.43 79.84 378.396 79.84 378.363 79.84C378.329 79.84 378.295 79.84 378.261 79.84C378.228 79.84 378.194 79.84 378.16 79.84C378.126 79.84 378.092 79.84 378.059 79.84C378.025 79.84 377.991 79.84 377.958 79.84C377.924 79.84 377.89 79.84 377.857 79.84C377.823 79.84 377.789 79.84 377.756 79.84C377.722 79.84 377.688 79.84 377.655 79.84C377.621 79.84 377.588 79.84 377.554 79.84C377.52 79.84 377.487 79.84 377.453 79.84C377.42 79.84 377.386 79.84 377.353 79.84C377.319 79.84 377.286 79.84 377.252 79.84C377.219 79.84 377.185 79.84 377.152 79.84C377.118 79.84 377.085 79.84 377.051 79.84C377.018 79.84 376.984 79.84 376.951 79.84C376.918 79.84 376.884 79.84 376.851 79.84C376.818 79.84 376.784 79.84 376.751 79.84C376.718 79.84 376.684 79.84 376.651 79.84C376.618 79.84 376.584 79.84 376.551 79.84C376.518 79.84 376.485 79.84 376.451 79.84C376.418 79.84 376.385 79.84 376.352 79.84C376.318 79.84 376.285 79.84 376.252 79.84C376.219 79.84 376.186 79.84 376.153 79.84C376.12 79.84 376.087 79.84 376.053 79.84C376.02 79.84 375.987 79.84 375.954 79.84C375.921 79.84 375.888 79.84 375.855 79.84C375.822 79.84 375.789 79.84 375.756 79.84C375.723 79.84 375.69 79.84 375.657 79.84C375.624 79.84 375.592 79.84 375.559 79.84C375.526 79.84 375.493 79.84 375.46 79.84C375.427 79.84 375.394 79.84 375.362 79.84C375.329 79.84 375.296 79.84 375.263 79.84C375.231 79.84 375.198 79.84 375.165 79.84C375.132 79.84 375.1 79.84 375.067 79.84C375.034 79.84 375.002 79.84 374.969 79.84C374.936 79.84 374.904 79.84 374.871 79.84C374.839 79.84 374.806 79.84 374.774 79.84C374.741 79.84 374.709 79.84 374.676 79.84C374.644 79.84 374.611 79.84 374.579 79.84C374.546 79.84 374.514 79.84 374.481 79.84C374.449 79.84 374.417 79.84 374.384 79.84C374.352 79.84 374.32 79.84 374.287 79.84C374.255 79.84 374.223 79.84 374.19 79.84C374.158 79.84 374.126 79.84 374.094 79.84C374.062 79.84 374.029 79.84 373.997 79.84C373.965 79.84 373.933 79.84 373.901 79.84C373.869 79.84 373.837 79.84 373.805 79.84C373.773 79.84 373.741 79.84 373.709 79.84C373.677 79.84 373.645 79.84 373.613 79.84C373.581 79.84 373.549 79.84 373.517 79.84C373.485 79.84 373.453 79.84 373.421 79.84C373.389 79.84 373.358 79.84 373.326 79.84C373.294 79.84 373.262 79.84 373.231 79.84C373.199 79.84 373.167 79.84 373.135 79.84C373.104 79.84 373.072 79.84 373.041 79.84C373.009 79.84 372.977 79.84 372.946 79.84C372.914 79.84 372.883 79.84 372.851 79.84C372.82 79.84 372.788 79.84 372.757 79.84C372.725 79.84 372.694 79.84 372.663 79.84C372.631 79.84 372.6 79.84 372.568 79.84C372.537 79.84 372.506 79.84 372.475 79.84C372.443 79.84 372.412 79.84 372.381 79.84C372.35 79.84 372.318 79.84 372.287 79.84C372.256 79.84 372.225 79.84 372.194 79.84C372.163 79.84 372.132 79.84 372.101 79.84C372.07 79.84 372.039 79.84 372.008 79.84C371.977 79.84 371.946 79.84 371.915 79.84C371.884 79.84 371.853 79.84 371.822 79.84C371.792 79.84 371.761 79.84 371.73 79.84C371.699 79.84 371.668 79.84 371.638 79.84C371.607 79.84 371.576 79.84 371.546 79.84C371.515 79.84 371.485 79.84 371.454 79.84C371.423 79.84 371.393 79.84 371.362 79.84C371.332 79.84 371.301 79.84 371.271 79.84C371.24 79.84 371.21 79.84 371.18 79.84C371.149 79.84 371.119 79.84 371.089 79.84C371.058 79.84 371.028 79.84 370.998 79.84C370.968 79.84 370.937 79.84 370.907 79.84C370.877 79.84 370.847 79.84 370.817 79.84C370.787 79.84 370.757 79.84 370.727 79.84C370.697 79.84 370.667 79.84 370.637 79.84C370.607 79.84 370.577 79.84 370.547 79.84C370.517 79.84 370.487 79.84 370.457 79.84C370.428 79.84 370.398 79.84 370.368 79.84C370.338 79.84 370.309 79.84 370.279 79.84C370.249 79.84 370.22 79.84 370.19 79.84C370.161 79.84 370.131 79.84 370.102 79.84C370.072 79.84 370.043 79.84 370.013 79.84C369.984 79.84 369.954 79.84 369.925 79.84C369.896 79.84 369.866 79.84 369.837 79.84C369.808 79.84 369.778 79.84 369.749 79.84C369.72 79.84 369.691 79.84 369.662 79.84C369.633 79.84 369.604 79.84 369.574 79.84C369.545 79.84 369.516 79.84 369.487 79.84C369.458 79.84 369.43 79.84 369.401 79.84C369.372 79.84 369.343 79.84 369.314 79.84C369.285 79.84 369.257 79.84 369.228 79.84C369.199 79.84 369.17 79.84 369.142 79.84C369.113 79.84 369.085 79.84 369.056 79.84C369.027 79.84 368.999 79.84 368.97 79.84C368.942 79.84 368.913 79.84 368.885 79.84C368.857 79.84 368.828 79.84 368.8 79.84C368.772 79.84 368.743 79.84 368.715 79.84C368.687 79.84 368.659 79.84 368.631 79.84C368.602 79.84 368.574 79.84 368.546 79.84C368.518 79.84 368.49 79.84 368.462 79.84C368.434 79.84 368.406 79.84 368.378 79.84C368.351 79.84 368.323 79.84 368.295 79.84C368.267 79.84 368.239 79.84 368.212 79.84C368.184 79.84 368.156 79.84 368.129 79.84C368.101 79.84 368.073 79.84 368.046 79.84C368.018 79.84 367.991 79.84 367.963 79.84C367.936 79.84 367.909 79.84 367.881 79.84C367.854 79.84 367.827 79.84 367.799 79.84C367.772 79.84 367.745 79.84 367.718 79.84C367.691 79.84 367.663 79.84 367.636 79.84C367.609 79.84 367.582 79.84 367.555 79.84C367.528 79.84 367.501 79.84 367.474 79.84C367.448 79.84 367.421 79.84 367.394 79.84C367.367 79.84 367.34 79.84 367.314 79.84C367.287 79.84 367.26 79.84 367.234 79.84C367.207 79.84 367.18 79.84 367.154 79.84C367.127 79.84 367.101 79.84 367.075 79.84C367.048 79.84 367.022 79.84 366.995 79.84C366.969 79.84 366.943 79.84 366.917 79.84C366.89 79.84 366.864 79.84 366.838 79.84C366.812 79.84 366.786 79.84 366.76 79.84C366.734 79.84 366.708 79.84 366.682 79.84C366.656 79.84 366.63 79.84 366.604 79.84C366.579 79.84 366.553 79.84 366.527 79.84C366.501 79.84 366.476 79.84 366.45 79.84V93.84C366.476 93.84 366.501 93.84 366.527 93.84C366.553 93.84 366.579 93.84 366.604 93.84C366.63 93.84 366.656 93.84 366.682 93.84C366.708 93.84 366.734 93.84 366.76 93.84C366.786 93.84 366.812 93.84 366.838 93.84C366.864 93.84 366.89 93.84 366.917 93.84C366.943 93.84 366.969 93.84 366.995 93.84C367.022 93.84 367.048 93.84 367.075 93.84C367.101 93.84 367.127 93.84 367.154 93.84C367.18 93.84 367.207 93.84 367.234 93.84C367.26 93.84 367.287 93.84 367.314 93.84C367.34 93.84 367.367 93.84 367.394 93.84C367.421 93.84 367.448 93.84 367.474 93.84C367.501 93.84 367.528 93.84 367.555 93.84C367.582 93.84 367.609 93.84 367.636 93.84C367.663 93.84 367.691 93.84 367.718 93.84C367.745 93.84 367.772 93.84 367.799 93.84C367.827 93.84 367.854 93.84 367.881 93.84C367.909 93.84 367.936 93.84 367.963 93.84C367.991 93.84 368.018 93.84 368.046 93.84C368.073 93.84 368.101 93.84 368.129 93.84C368.156 93.84 368.184 93.84 368.212 93.84C368.239 93.84 368.267 93.84 368.295 93.84C368.323 93.84 368.351 93.84 368.378 93.84C368.406 93.84 368.434 93.84 368.462 93.84C368.49 93.84 368.518 93.84 368.546 93.84C368.574 93.84 368.602 93.84 368.631 93.84C368.659 93.84 368.687 93.84 368.715 93.84C368.743 93.84 368.772 93.84 368.8 93.84C368.828 93.84 368.857 93.84 368.885 93.84C368.913 93.84 368.942 93.84 368.97 93.84C368.999 93.84 369.027 93.84 369.056 93.84C369.085 93.84 369.113 93.84 369.142 93.84C369.17 93.84 369.199 93.84 369.228 93.84C369.257 93.84 369.285 93.84 369.314 93.84C369.343 93.84 369.372 93.84 369.401 93.84C369.43 93.84 369.458 93.84 369.487 93.84C369.516 93.84 369.545 93.84 369.574 93.84C369.604 93.84 369.633 93.84 369.662 93.84C369.691 93.84 369.72 93.84 369.749 93.84C369.778 93.84 369.808 93.84 369.837 93.84C369.866 93.84 369.896 93.84 369.925 93.84C369.954 93.84 369.984 93.84 370.013 93.84C370.043 93.84 370.072 93.84 370.102 93.84C370.131 93.84 370.161 93.84 370.19 93.84C370.22 93.84 370.249 93.84 370.279 93.84C370.309 93.84 370.338 93.84 370.368 93.84C370.398 93.84 370.428 93.84 370.457 93.84C370.487 93.84 370.517 93.84 370.547 93.84C370.577 93.84 370.607 93.84 370.637 93.84C370.667 93.84 370.697 93.84 370.727 93.84C370.757 93.84 370.787 93.84 370.817 93.84C370.847 93.84 370.877 93.84 370.907 93.84C370.937 93.84 370.968 93.84 370.998 93.84C371.028 93.84 371.058 93.84 371.089 93.84C371.119 93.84 371.149 93.84 371.18 93.84C371.21 93.84 371.24 93.84 371.271 93.84C371.301 93.84 371.332 93.84 371.362 93.84C371.393 93.84 371.423 93.84 371.454 93.84C371.485 93.84 371.515 93.84 371.546 93.84C371.576 93.84 371.607 93.84 371.638 93.84C371.668 93.84 371.699 93.84 371.73 93.84C371.761 93.84 371.792 93.84 371.822 93.84C371.853 93.84 371.884 93.84 371.915 93.84C371.946 93.84 371.977 93.84 372.008 93.84C372.039 93.84 372.07 93.84 372.101 93.84C372.132 93.84 372.163 93.84 372.194 93.84C372.225 93.84 372.256 93.84 372.287 93.84C372.318 93.84 372.35 93.84 372.381 93.84C372.412 93.84 372.443 93.84 372.475 93.84C372.506 93.84 372.537 93.84 372.568 93.84C372.6 93.84 372.631 93.84 372.663 93.84C372.694 93.84 372.725 93.84 372.757 93.84C372.788 93.84 372.82 93.84 372.851 93.84C372.883 93.84 372.914 93.84 372.946 93.84C372.977 93.84 373.009 93.84 373.041 93.84C373.072 93.84 373.104 93.84 373.135 93.84C373.167 93.84 373.199 93.84 373.231 93.84C373.262 93.84 373.294 93.84 373.326 93.84C373.358 93.84 373.389 93.84 373.421 93.84C373.453 93.84 373.485 93.84 373.517 93.84C373.549 93.84 373.581 93.84 373.613 93.84C373.645 93.84 373.677 93.84 373.709 93.84C373.741 93.84 373.773 93.84 373.805 93.84C373.837 93.84 373.869 93.84 373.901 93.84C373.933 93.84 373.965 93.84 373.997 93.84C374.029 93.84 374.062 93.84 374.094 93.84C374.126 93.84 374.158 93.84 374.19 93.84C374.223 93.84 374.255 93.84 374.287 93.84C374.32 93.84 374.352 93.84 374.384 93.84C374.417 93.84 374.449 93.84 374.481 93.84C374.514 93.84 374.546 93.84 374.579 93.84C374.611 93.84 374.644 93.84 374.676 93.84C374.709 93.84 374.741 93.84 374.774 93.84C374.806 93.84 374.839 93.84 374.871 93.84C374.904 93.84 374.936 93.84 374.969 93.84C375.002 93.84 375.034 93.84 375.067 93.84C375.1 93.84 375.132 93.84 375.165 93.84C375.198 93.84 375.231 93.84 375.263 93.84C375.296 93.84 375.329 93.84 375.362 93.84C375.394 93.84 375.427 93.84 375.46 93.84C375.493 93.84 375.526 93.84 375.559 93.84C375.592 93.84 375.624 93.84 375.657 93.84C375.69 93.84 375.723 93.84 375.756 93.84C375.789 93.84 375.822 93.84 375.855 93.84C375.888 93.84 375.921 93.84 375.954 93.84C375.987 93.84 376.02 93.84 376.053 93.84C376.087 93.84 376.12 93.84 376.153 93.84C376.186 93.84 376.219 93.84 376.252 93.84C376.285 93.84 376.318 93.84 376.352 93.84C376.385 93.84 376.418 93.84 376.451 93.84C376.485 93.84 376.518 93.84 376.551 93.84C376.584 93.84 376.618 93.84 376.651 93.84C376.684 93.84 376.718 93.84 376.751 93.84C376.784 93.84 376.818 93.84 376.851 93.84C376.884 93.84 376.918 93.84 376.951 93.84C376.984 93.84 377.018 93.84 377.051 93.84C377.085 93.84 377.118 93.84 377.152 93.84C377.185 93.84 377.219 93.84 377.252 93.84C377.286 93.84 377.319 93.84 377.353 93.84C377.386 93.84 377.42 93.84 377.453 93.84C377.487 93.84 377.52 93.84 377.554 93.84C377.588 93.84 377.621 93.84 377.655 93.84C377.688 93.84 377.722 93.84 377.756 93.84C377.789 93.84 377.823 93.84 377.857 93.84C377.89 93.84 377.924 93.84 377.958 93.84C377.991 93.84 378.025 93.84 378.059 93.84C378.092 93.84 378.126 93.84 378.16 93.84C378.194 93.84 378.228 93.84 378.261 93.84C378.295 93.84 378.329 93.84 378.363 93.84C378.396 93.84 378.43 93.84 378.464 93.84C378.498 93.84 378.532 93.84 378.566 93.84C378.599 93.84 378.633 93.84 378.667 93.84C378.701 93.84 378.735 93.84 378.769 93.84C378.803 93.84 378.837 93.84 378.871 93.84C378.904 93.84 378.938 93.84 378.972 93.84C379.006 93.84 379.04 93.84 379.074 93.84C379.108 93.84 379.142 93.84 379.176 93.84C379.21 93.84 379.244 93.84 379.278 93.84C379.312 93.84 379.346 93.84 379.38 93.84C379.414 93.84 379.448 93.84 379.482 93.84C379.516 93.84 379.55 93.84 379.584 93.84C379.618 93.84 379.652 93.84 379.686 93.84C379.72 93.84 379.755 93.84 379.789 93.84C379.823 93.84 379.857 93.84 379.891 93.84C379.925 93.84 379.959 93.84 379.993 93.84C380.027 93.84 380.061 93.84 380.096 93.84C380.13 93.84 380.164 93.84 380.198 93.84C380.232 93.84 380.266 93.84 380.3 93.84C380.335 93.84 380.369 93.84 380.403 93.84C380.437 93.84 380.471 93.84 380.505 93.84C380.54 93.84 380.574 93.84 380.608 93.84C380.642 93.84 380.676 93.84 380.711 93.84C380.745 93.84 380.779 93.84 380.813 93.84C380.848 93.84 380.882 93.84 380.916 93.84C380.95 93.84 380.984 93.84 381.019 93.84C381.053 93.84 381.087 93.84 381.121 93.84C381.156 93.84 381.19 93.84 381.224 93.84C381.258 93.84 381.293 93.84 381.327 93.84C381.361 93.84 381.395 93.84 381.43 93.84C381.464 93.84 381.498 93.84 381.533 93.84C381.567 93.84 381.601 93.84 381.635 93.84C381.67 93.84 381.704 93.84 381.738 93.84C381.772 93.84 381.807 93.84 381.841 93.84C381.875 93.84 381.91 93.84 381.944 93.84C381.978 93.84 382.013 93.84 382.047 93.84C382.081 93.84 382.115 93.84 382.15 93.84C382.184 93.84 382.218 93.84 382.253 93.84C382.287 93.84 382.321 93.84 382.355 93.84C382.39 93.84 382.424 93.84 382.458 93.84C382.493 93.84 382.527 93.84 382.561 93.84C382.596 93.84 382.63 93.84 382.664 93.84C382.699 93.84 382.733 93.84 382.767 93.84C382.801 93.84 382.836 93.84 382.87 93.84C382.904 93.84 382.939 93.84 382.973 93.84C383.007 93.84 383.042 93.84 383.076 93.84C383.11 93.84 383.145 93.84 383.179 93.84C383.213 93.84 383.247 93.84 383.282 93.84C383.316 93.84 383.35 93.84 383.385 93.84C383.419 93.84 383.453 93.84 383.487 93.84C383.522 93.84 383.556 93.84 383.59 93.84C383.625 93.84 383.659 93.84 383.693 93.84C383.727 93.84 383.762 93.84 383.796 93.84C383.83 93.84 383.864 93.84 383.899 93.84C383.933 93.84 383.967 93.84 384.001 93.84C384.036 93.84 384.07 93.84 384.104 93.84C384.138 93.84 384.173 93.84 384.207 93.84C384.241 93.84 384.275 93.84 384.31 93.84C384.344 93.84 384.378 93.84 384.412 93.84C384.446 93.84 384.481 93.84 384.515 93.84C384.549 93.84 384.583 93.84 384.617 93.84C384.652 93.84 384.686 93.84 384.72 93.84C384.754 93.84 384.788 93.84 384.823 93.84C384.857 93.84 384.891 93.84 384.925 93.84C384.959 93.84 384.993 93.84 385.027 93.84C385.062 93.84 385.096 93.84 385.13 93.84C385.164 93.84 385.198 93.84 385.232 93.84C385.266 93.84 385.3 93.84 385.335 93.84C385.369 93.84 385.403 93.84 385.437 93.84C385.471 93.84 385.505 93.84 385.539 93.84C385.573 93.84 385.607 93.84 385.641 93.84C385.675 93.84 385.709 93.84 385.743 93.84C385.777 93.84 385.811 93.84 385.845 93.84C385.879 93.84 385.913 93.84 385.947 93.84C385.981 93.84 386.015 93.84 386.049 93.84C386.083 93.84 386.117 93.84 386.151 93.84C386.185 93.84 386.219 93.84 386.253 93.84C386.287 93.84 386.321 93.84 386.355 93.84C386.389 93.84 386.423 93.84 386.456 93.84C386.49 93.84 386.524 93.84 386.558 93.84C386.592 93.84 386.626 93.84 386.66 93.84C386.693 93.84 386.727 93.84 386.761 93.84C386.795 93.84 386.829 93.84 386.863 93.84C386.896 93.84 386.93 93.84 386.964 93.84C386.998 93.84 387.031 93.84 387.065 93.84C387.099 93.84 387.133 93.84 387.166 93.84C387.2 93.84 387.234 93.84 387.267 93.84C387.301 93.84 387.335 93.84 387.368 93.84C387.402 93.84 387.436 93.84 387.469 93.84C387.503 93.84 387.537 93.84 387.57 93.84C387.604 93.84 387.637 93.84 387.671 93.84C387.705 93.84 387.738 93.84 387.772 93.84C387.805 93.84 387.839 93.84 387.872 93.84C387.906 93.84 387.939 93.84 387.973 93.84C388.006 93.84 388.04 93.84 388.073 93.84C388.107 93.84 388.14 93.84 388.174 93.84C388.207 93.84 388.24 93.84 388.274 93.84C388.307 93.84 388.341 93.84 388.374 93.84C388.407 93.84 388.441 93.84 388.474 93.84C388.507 93.84 388.541 93.84 388.574 93.84C388.607 93.84 388.64 93.84 388.674 93.84C388.707 93.84 388.74 93.84 388.773 93.84C388.807 93.84 388.84 93.84 388.873 93.84C388.906 93.84 388.939 93.84 388.972 93.84C389.006 93.84 389.039 93.84 389.072 93.84C389.105 93.84 389.138 93.84 389.171 93.84C389.204 93.84 389.237 93.84 389.27 93.84C389.303 93.84 389.336 93.84 389.369 93.84C389.402 93.84 389.435 93.84 389.468 93.84C389.501 93.84 389.534 93.84 389.567 93.84C389.6 93.84 389.633 93.84 389.666 93.84C389.699 93.84 389.731 93.84 389.764 93.84C389.797 93.84 389.83 93.84 389.863 93.84C389.895 93.84 389.928 93.84 389.961 93.84C389.994 93.84 390.026 93.84 390.059 93.84C390.092 93.84 390.125 93.84 390.157 93.84C390.19 93.84 390.222 93.84 390.255 93.84C390.288 93.84 390.32 93.84 390.353 93.84C390.385 93.84 390.418 93.84 390.451 93.84C390.483 93.84 390.516 93.84 390.548 93.84C390.58 93.84 390.613 93.84 390.645 93.84C390.678 93.84 390.71 93.84 390.743 93.84C390.775 93.84 390.807 93.84 390.84 93.84C390.872 93.84 390.904 93.84 390.937 93.84C390.969 93.84 391.001 93.84 391.033 93.84C391.066 93.84 391.098 93.84 391.13 93.84C391.162 93.84 391.194 93.84 391.227 93.84C391.259 93.84 391.291 93.84 391.323 93.84C391.355 93.84 391.387 93.84 391.419 93.84C391.451 93.84 391.483 93.84 391.515 93.84C391.547 93.84 391.579 93.84 391.611 93.84C391.643 93.84 391.675 93.84 391.707 93.84C391.738 93.84 391.77 93.84 391.802 93.84C391.834 93.84 391.866 93.84 391.898 93.84C391.929 93.84 391.961 93.84 391.993 93.84C392.024 93.84 392.056 93.84 392.088 93.84C392.119 93.84 392.151 93.84 392.183 93.84C392.214 93.84 392.246 93.84 392.277 93.84C392.309 93.84 392.34 93.84 392.372 93.84C392.403 93.84 392.435 93.84 392.466 93.84C392.498 93.84 392.529 93.84 392.561 93.84C392.592 93.84 392.623 93.84 392.655 93.84C392.686 93.84 392.717 93.84 392.748 93.84C392.78 93.84 392.811 93.84 392.842 93.84C392.873 93.84 392.904 93.84 392.936 93.84C392.967 93.84 392.998 93.84 393.029 93.84C393.06 93.84 393.091 93.84 393.122 93.84C393.153 93.84 393.184 93.84 393.215 93.84C393.246 93.84 393.277 93.84 393.308 93.84C393.339 93.84 393.369 93.84 393.4 93.84C393.431 93.84 393.462 93.84 393.493 93.84C393.523 93.84 393.554 93.84 393.585 93.84C393.615 93.84 393.646 93.84 393.677 93.84C393.707 93.84 393.738 93.84 393.768 93.84C393.799 93.84 393.829 93.84 393.86 93.84C393.89 93.84 393.921 93.84 393.951 93.84C393.982 93.84 394.012 93.84 394.042 93.84C394.073 93.84 394.103 93.84 394.133 93.84C394.164 93.84 394.194 93.84 394.224 93.84C394.254 93.84 394.285 93.84 394.315 93.84C394.345 93.84 394.375 93.84 394.405 93.84C394.435 93.84 394.465 93.84 394.495 93.84C394.525 93.84 394.555 93.84 394.585 93.84C394.615 93.84 394.645 93.84 394.675 93.84C394.705 93.84 394.734 93.84 394.764 93.84C394.794 93.84 394.824 93.84 394.853 93.84C394.883 93.84 394.913 93.84 394.943 93.84C394.972 93.84 395.002 93.84 395.031 93.84C395.061 93.84 395.09 93.84 395.12 93.84C395.149 93.84 395.179 93.84 395.208 93.84C395.238 93.84 395.267 93.84 395.296 93.84C395.326 93.84 395.355 93.84 395.384 93.84C395.414 93.84 395.443 93.84 395.472 93.84C395.501 93.84 395.53 93.84 395.559 93.84C395.588 93.84 395.617 93.84 395.647 93.84C395.676 93.84 395.705 93.84 395.733 93.84C395.762 93.84 395.791 93.84 395.82 93.84C395.849 93.84 395.878 93.84 395.907 93.84C395.935 93.84 395.964 93.84 395.993 93.84C396.022 93.84 396.05 93.84 396.079 93.84C396.108 93.84 396.136 93.84 396.165 93.84C396.193 93.84 396.222 93.84 396.25 93.84C396.279 93.84 396.307 93.84 396.335 93.84C396.364 93.84 396.392 93.84 396.42 93.84C396.449 93.84 396.477 93.84 396.505 93.84C396.533 93.84 396.562 93.84 396.59 93.84C396.618 93.84 396.646 93.84 396.674 93.84C396.702 93.84 396.73 93.84 396.758 93.84C396.786 93.84 396.814 93.84 396.842 93.84C396.869 93.84 396.897 93.84 396.925 93.84C396.953 93.84 396.98 93.84 397.008 93.84C397.036 93.84 397.064 93.84 397.091 93.84C397.119 93.84 397.146 93.84 397.174 93.84C397.201 93.84 397.229 93.84 397.256 93.84C397.284 93.84 397.311 93.84 397.338 93.84C397.366 93.84 397.393 93.84 397.42 93.84C397.447 93.84 397.475 93.84 397.502 93.84C397.529 93.84 397.556 93.84 397.583 93.84C397.61 93.84 397.637 93.84 397.664 93.84C397.691 93.84 397.718 93.84 397.745 93.84C397.772 93.84 397.798 93.84 397.825 93.84C397.852 93.84 397.879 93.84 397.905 93.84C397.932 93.84 397.959 93.84 397.985 93.84C398.012 93.84 398.038 93.84 398.065 93.84C398.091 93.84 398.118 93.84 398.144 93.84C398.171 93.84 398.197 93.84 398.223 93.84C398.249 93.84 398.276 93.84 398.302 93.84C398.328 93.84 398.354 93.84 398.38 93.84C398.406 93.84 398.432 93.84 398.458 93.84C398.484 93.84 398.51 93.84 398.536 93.84C398.562 93.84 398.588 93.84 398.614 93.84C398.64 93.84 398.665 93.84 398.691 93.84C398.717 93.84 398.742 93.84 398.768 93.84C398.794 93.84 398.819 93.84 398.845 93.84C398.87 93.84 398.896 93.84 398.921 93.84C398.946 93.84 398.972 93.84 398.997 93.84C399.022 93.84 399.048 93.84 399.073 93.84C399.098 93.84 399.123 93.84 399.148 93.84C399.173 93.84 399.198 93.84 399.223 93.84C399.248 93.84 399.273 93.84 399.298 93.84C399.323 93.84 399.348 93.84 399.372 93.84C399.397 93.84 399.422 93.84 399.447 93.84C399.471 93.84 399.496 93.84 399.52 93.84C399.545 93.84 399.569 93.84 399.594 93.84C399.618 93.84 399.643 93.84 399.667 93.84C399.691 93.84 399.716 93.84 399.74 93.84C399.764 93.84 399.788 93.84 399.812 93.84C399.837 93.84 399.861 93.84 399.885 93.84C399.909 93.84 399.933 93.84 399.956 93.84C399.98 93.84 400.004 93.84 400.028 93.84C400.052 93.84 400.075 93.84 400.099 93.84C400.123 93.84 400.146 93.84 400.17 93.84C400.194 93.84 400.217 93.84 400.241 93.84C400.264 93.84 400.287 93.84 400.311 93.84C400.334 93.84 400.357 93.84 400.381 93.84C400.404 93.84 400.427 93.84 400.45 93.84C400.473 93.84 400.496 93.84 400.519 93.84C400.542 93.84 400.565 93.84 400.588 93.84C400.611 93.84 400.634 93.84 400.656 93.84C400.679 93.84 400.702 93.84 400.724 93.84C400.747 93.84 400.77 93.84 400.792 93.84C400.815 93.84 400.837 93.84 400.86 93.84C400.882 93.84 400.904 93.84 400.927 93.84C400.949 93.84 400.971 93.84 400.993 93.84C401.015 93.84 401.038 93.84 401.06 93.84C401.082 93.84 401.104 93.84 401.126 93.84C401.148 93.84 401.169 93.84 401.191 93.84C401.213 93.84 401.235 93.84 401.256 93.84C401.278 93.84 401.3 93.84 401.321 93.84C401.343 93.84 401.364 93.84 401.386 93.84C401.407 93.84 401.429 93.84 401.45 93.84C401.471 93.84 401.492 93.84 401.514 93.84C401.535 93.84 401.556 93.84 401.577 93.84C401.598 93.84 401.619 93.84 401.64 93.84C401.661 93.84 401.682 93.84 401.703 93.84C401.723 93.84 401.744 93.84 401.765 93.84C401.786 93.84 401.806 93.84 401.827 93.84C401.847 93.84 401.868 93.84 401.888 93.84C401.909 93.84 401.929 93.84 401.949 93.84C401.97 93.84 401.99 93.84 402.01 93.84C402.03 93.84 402.05 93.84 402.07 93.84C402.09 93.84 402.11 93.84 402.13 93.84C402.15 93.84 402.17 93.84 402.19 93.84C402.21 93.84 402.229 93.84 402.249 93.84C402.269 93.84 402.288 93.84 402.308 93.84C402.327 93.84 402.347 93.84 402.366 93.84C402.385 93.84 402.405 93.84 402.424 93.84C402.443 93.84 402.462 93.84 402.482 93.84C402.501 93.84 402.52 93.84 402.539 93.84C402.558 93.84 402.577 93.84 402.596 93.84C402.614 93.84 402.633 93.84 402.652 93.84C402.671 93.84 402.689 93.84 402.708 93.84C402.726 93.84 402.745 93.84 402.763 93.84C402.782 93.84 402.8 93.84 402.818 93.84C402.837 93.84 402.855 93.84 402.873 93.84C402.891 93.84 402.909 93.84 402.927 93.84C402.945 93.84 402.963 93.84 402.981 93.84C402.999 93.84 403.017 93.84 403.035 93.84C403.053 93.84 403.07 93.84 403.088 93.84C403.105 93.84 403.123 93.84 403.14 93.84C403.158 93.84 403.175 93.84 403.193 93.84C403.21 93.84 403.227 93.84 403.244 93.84C403.262 93.84 403.279 93.84 403.296 93.84C403.313 93.84 403.33 93.84 403.347 93.84C403.364 93.84 403.38 93.84 403.397 93.84C403.414 93.84 403.431 93.84 403.447 93.84C403.464 93.84 403.48 93.84 403.497 93.84C403.513 93.84 403.53 93.84 403.546 93.84C403.562 93.84 403.579 93.84 403.595 93.84C403.611 93.84 403.627 93.84 403.643 93.84C403.659 93.84 403.675 93.84 403.691 93.84C403.707 93.84 403.723 93.84 403.738 93.84C403.754 93.84 403.77 93.84 403.785 93.84C403.801 93.84 403.816 93.84 403.832 93.84C403.847 93.84 403.863 93.84 403.878 93.84C403.893 93.84 403.908 93.84 403.924 93.84C403.939 93.84 403.954 93.84 403.969 93.84C403.984 93.84 403.999 93.84 404.013 93.84C404.028 93.84 404.043 93.84 404.058 93.84C404.072 93.84 404.087 93.84 404.102 93.84C404.116 93.84 404.13 93.84 404.145 93.84C404.159 93.84 404.174 93.84 404.188 93.84C404.202 93.84 404.216 93.84 404.23 93.84C404.244 93.84 404.258 93.84 404.272 93.84C404.286 93.84 404.3 93.84 404.314 93.84C404.327 93.84 404.341 93.84 404.355 93.84C404.368 93.84 404.382 93.84 404.395 93.84C404.409 93.84 404.422 93.84 404.435 93.84C404.449 93.84 404.462 93.84 404.475 93.84C404.488 93.84 404.501 93.84 404.514 93.84C404.527 93.84 404.54 93.84 404.553 93.84C404.566 93.84 404.578 93.84 404.591 93.84C404.604 93.84 404.616 93.84 404.629 93.84C404.641 93.84 404.654 93.84 404.666 93.84C404.678 93.84 404.691 93.84 404.703 93.84C404.715 93.84 404.727 93.84 404.739 93.84C404.751 93.84 404.763 93.84 404.775 93.84C404.787 93.84 404.798 93.84 404.81 93.84C404.822 93.84 404.833 93.84 404.845 93.84C404.856 93.84 404.868 93.84 404.879 93.84C404.89 93.84 404.902 93.84 404.913 93.84C404.924 93.84 404.935 93.84 404.946 93.84C404.957 93.84 404.968 93.84 404.979 93.84C404.99 93.84 405.001 93.84 405.011 93.84C405.022 93.84 405.033 93.84 405.043 93.84C405.054 93.84 405.064 93.84 405.074 93.84C405.085 93.84 405.095 93.84 405.105 93.84C405.115 93.84 405.126 93.84 405.136 93.84C405.146 93.84 405.156 93.84 405.165 93.84C405.175 93.84 405.185 93.84 405.195 93.84C405.204 93.84 405.214 93.84 405.223 93.84C405.233 93.84 405.242 93.84 405.252 93.84C405.261 93.84 405.27 93.84 405.279 93.84C405.289 93.84 405.298 93.84 405.307 93.84C405.316 93.84 405.324 93.84 405.333 93.84C405.342 93.84 405.351 93.84 405.359 93.84C405.368 93.84 405.377 93.84 405.385 93.84C405.394 93.84 405.402 93.84 405.41 93.84C405.419 93.84 405.427 93.84 405.435 93.84C405.443 93.84 405.451 93.84 405.459 93.84C405.467 93.84 405.475 93.84 405.483 93.84C405.49 93.84 405.498 93.84 405.506 93.84C405.513 93.84 405.521 93.84 405.528 93.84C405.535 93.84 405.543 93.84 405.55 93.84C405.557 93.84 405.564 93.84 405.571 93.84C405.578 93.84 405.585 93.84 405.592 93.84C405.599 93.84 405.606 93.84 405.613 93.84C405.619 93.84 405.626 93.84 405.632 93.84C405.639 93.84 405.645 93.84 405.652 93.84C405.658 93.84 405.664 93.84 405.67 93.84C405.676 93.84 405.683 93.84 405.688 93.84C405.694 93.84 405.7 93.84 405.706 93.84C405.712 93.84 405.718 93.84 405.723 93.84C405.729 93.84 405.734 93.84 405.74 93.84C405.745 93.84 405.75 93.84 405.756 93.84C405.761 93.84 405.766 93.84 405.771 93.84C405.776 93.84 405.781 93.84 405.786 93.84C405.791 93.84 405.795 93.84 405.8 93.84C405.805 93.84 405.809 93.84 405.814 93.84C405.818 93.84 405.823 93.84 405.827 93.84C405.831 93.84 405.835 93.84 405.84 93.84C405.844 93.84 405.848 93.84 405.852 93.84C405.855 93.84 405.859 93.84 405.863 93.84C405.867 93.84 405.87 93.84 405.874 93.84C405.877 93.84 405.881 93.84 405.884 93.84C405.887 93.84 405.891 93.84 405.894 93.84C405.897 93.84 405.9 93.84 405.903 93.84C405.906 93.84 405.909 93.84 405.912 93.84C405.914 93.84 405.917 93.84 405.92 93.84C405.922 93.84 405.925 93.84 405.927 93.84C405.929 93.84 405.932 93.84 405.934 93.84C405.936 93.84 405.938 93.84 405.94 93.84C405.942 93.84 405.944 93.84 405.946 93.84C405.948 93.84 405.949 93.84 405.951 93.84C405.952 93.84 405.954 93.84 405.955 93.84C405.957 93.84 405.958 93.84 405.959 93.84C405.96 93.84 405.961 93.84 405.962 93.84C405.964 93.84 405.964 93.84 405.965 93.84C405.966 93.84 405.967 93.84 405.967 93.84C405.968 93.84 405.968 93.84 405.969 93.84C405.969 93.84 405.97 93.84 405.97 93.84C405.97 93.84 405.97 93.84 405.97 86.84ZM359.45 86.84C359.45 103.963 366.617 115.967 377.559 123.392C388.105 130.548 401.511 133.04 413.81 133.04V119.04C403.069 119.04 392.795 116.812 385.421 111.808C378.443 107.073 373.45 99.4766 373.45 86.84H359.45ZM413.81 133.04C423.383 133.04 438.332 131.841 450.24 120.03C462.133 108.232 469.401 87.47 467.843 52.2903L453.857 52.9097C455.339 86.37 448.207 102.328 440.38 110.09C432.568 117.839 422.477 119.04 413.81 119.04V133.04ZM411.57 49.44C410.419 49.44 409.822 49.0493 409.469 48.6674C409.058 48.2224 408.65 47.4107 408.65 46.2H394.65C394.65 55.1401 401.118 63.44 411.57 63.44V49.44ZM408.65 46.2C408.65 44.2479 410.211 42.96 411.57 42.96V28.96C402.049 28.96 394.65 36.9521 394.65 46.2H408.65ZM411.57 42.96C413.017 42.96 414.49 44.1728 414.49 46.2H428.49C428.49 37.0272 421.323 28.96 411.57 28.96V42.96ZM414.49 46.2C414.49 47.4107 414.082 48.2224 413.671 48.6674C413.318 49.0493 412.721 49.44 411.57 49.44V63.44C422.022 63.44 428.49 55.1401 428.49 46.2H414.49Z" fill="white"/>
</svg>
