<svg width="468" height="134" viewBox="0 0 468 134" fill="none" xmlns="http://www.w3.org/2000/svg">
<path opacity="0.3" d="M103.4 40.92L110.397 40.7043L110.396 40.6906L103.4 40.92ZM9 47.64H2V54.64H9V47.64ZM47.72 47.64V54.64H54.72V47.64H47.72ZM60.36 44.12L67.3592 44.2229L67.36 44.1715V44.12H60.36ZM32.36 62.04L29.1155 55.8373L29.0861 55.8527L29.0569 55.8683L32.36 62.04ZM7.4 123H0.4L0.4 130H7.4V123ZM103.4 123V130H110.4V123H103.4ZM103.4 91H110.4V84H103.4V91ZM51.08 91L44.3684 89.0114L41.7051 98H51.08V91ZM110.396 40.6906C110.116 32.1443 107.724 25.0602 103.673 19.3615C99.6532 13.7077 94.2805 9.80811 88.6087 7.13012C77.4665 1.86915 64.386 0.959991 55.24 0.959991V14.96C63.854 14.96 74.3735 15.8908 82.6313 19.7899C86.6595 21.6919 89.9368 24.2023 92.2623 27.4735C94.556 30.6998 96.204 35.0557 96.4038 41.1494L110.396 40.6906ZM55.24 0.959991C43.0917 0.959991 29.9499 3.80083 19.6415 11.1909C9.01286 18.8105 2 30.8668 2 47.64H16C16 35.2932 20.9071 27.5095 27.7985 22.5691C35.0101 17.3992 44.9883 14.96 55.24 14.96V0.959991ZM9 54.64C9.02531 54.64 9.05067 54.64 9.07608 54.64C9.10149 54.64 9.12695 54.64 9.15246 54.64C9.17797 54.64 9.20352 54.64 9.22912 54.64C9.25473 54.64 9.28038 54.64 9.30608 54.64C9.33177 54.64 9.35752 54.64 9.38331 54.64C9.40911 54.64 9.43495 54.64 9.46084 54.64C9.48672 54.64 9.51266 54.64 9.53864 54.64C9.56462 54.64 9.59065 54.64 9.61673 54.64C9.6428 54.64 9.66893 54.64 9.69509 54.64C9.72126 54.64 9.74748 54.64 9.77374 54.64C9.8 54.64 9.8263 54.64 9.85266 54.64C9.87901 54.64 9.9054 54.64 9.93185 54.64C9.95829 54.64 9.98478 54.64 10.0113 54.64C10.0378 54.64 10.0644 54.64 10.091 54.64C10.1177 54.64 10.1443 54.64 10.1711 54.64C10.1978 54.64 10.2245 54.64 10.2513 54.64C10.2781 54.64 10.305 54.64 10.3319 54.64C10.3588 54.64 10.3857 54.64 10.4127 54.64C10.4396 54.64 10.4667 54.64 10.4937 54.64C10.5208 54.64 10.5479 54.64 10.575 54.64C10.6022 54.64 10.6294 54.64 10.6566 54.64C10.6839 54.64 10.7111 54.64 10.7385 54.64C10.7658 54.64 10.7932 54.64 10.8206 54.64C10.848 54.64 10.8754 54.64 10.9029 54.64C10.9304 54.64 10.9579 54.64 10.9855 54.64C11.0131 54.64 11.0407 54.64 11.0683 54.64C11.096 54.64 11.1237 54.64 11.1514 54.64C11.1792 54.64 11.207 54.64 11.2348 54.64C11.2626 54.64 11.2905 54.64 11.3184 54.64C11.3463 54.64 11.3742 54.64 11.4022 54.64C11.4302 54.64 11.4582 54.64 11.4863 54.64C11.5143 54.64 11.5424 54.64 11.5706 54.64C11.5987 54.64 11.6269 54.64 11.6551 54.64C11.6834 54.64 11.7116 54.64 11.7399 54.64C11.7682 54.64 11.7966 54.64 11.8249 54.64C11.8533 54.64 11.8817 54.64 11.9102 54.64C11.9386 54.64 11.9671 54.64 11.9957 54.64C12.0242 54.64 12.0528 54.64 12.0814 54.64C12.11 54.64 12.1386 54.64 12.1673 54.64C12.196 54.64 12.2247 54.64 12.2535 54.64C12.2822 54.64 12.311 54.64 12.3399 54.64C12.3687 54.64 12.3976 54.64 12.4265 54.64C12.4554 54.64 12.4843 54.64 12.5133 54.64C12.5423 54.64 12.5713 54.64 12.6004 54.64C12.6294 54.64 12.6585 54.64 12.6876 54.64C12.7168 54.64 12.7459 54.64 12.7751 54.64C12.8043 54.64 12.8336 54.64 12.8628 54.64C12.8921 54.64 12.9214 54.64 12.9507 54.64C12.9801 54.64 13.0094 54.64 13.0388 54.64C13.0683 54.64 13.0977 54.64 13.1272 54.64C13.1567 54.64 13.1862 54.64 13.2157 54.64C13.2453 54.64 13.2748 54.64 13.3044 54.64C13.3341 54.64 13.3637 54.64 13.3934 54.64C13.4231 54.64 13.4528 54.64 13.4825 54.64C13.5123 54.64 13.5421 54.64 13.5719 54.64C13.6017 54.64 13.6315 54.64 13.6614 54.64C13.6913 54.64 13.7212 54.64 13.7512 54.64C13.7811 54.64 13.8111 54.64 13.8411 54.64C13.8711 54.64 13.9011 54.64 13.9312 54.64C13.9613 54.64 13.9914 54.64 14.0215 54.64C14.0517 54.64 14.0818 54.64 14.112 54.64C14.1422 54.64 14.1725 54.64 14.2027 54.64C14.233 54.64 14.2633 54.64 14.2936 54.64C14.3239 54.64 14.3543 54.64 14.3847 54.64C14.4151 54.64 14.4455 54.64 14.4759 54.64C14.5064 54.64 14.5369 54.64 14.5674 54.64C14.5979 54.64 14.6284 54.64 14.659 54.64C14.6895 54.64 14.7201 54.64 14.7508 54.64C14.7814 54.64 14.812 54.64 14.8427 54.64C14.8734 54.64 14.9041 54.64 14.9349 54.64C14.9656 54.64 14.9964 54.64 15.0272 54.64C15.058 54.64 15.0888 54.64 15.1196 54.64C15.1505 54.64 15.1814 54.64 15.2123 54.64C15.2432 54.64 15.2741 54.64 15.3051 54.64C15.3361 54.64 15.3671 54.64 15.3981 54.64C15.4291 54.64 15.4602 54.64 15.4912 54.64C15.5223 54.64 15.5534 54.64 15.5845 54.64C15.6157 54.64 15.6468 54.64 15.678 54.64C15.7092 54.64 15.7404 54.64 15.7716 54.64C15.8029 54.64 15.8341 54.64 15.8654 54.64C15.8967 54.64 15.928 54.64 15.9593 54.64C15.9907 54.64 16.022 54.64 16.0534 54.64C16.0848 54.64 16.1162 54.64 16.1477 54.64C16.1791 54.64 16.2106 54.64 16.2421 54.64C16.2736 54.64 16.3051 54.64 16.3366 54.64C16.3681 54.64 16.3997 54.64 16.4313 54.64C16.4629 54.64 16.4945 54.64 16.5261 54.64C16.5578 54.64 16.5894 54.64 16.6211 54.64C16.6528 54.64 16.6845 54.64 16.7162 54.64C16.7479 54.64 16.7797 54.64 16.8115 54.64C16.8432 54.64 16.875 54.64 16.9069 54.64C16.9387 54.64 16.9705 54.64 17.0024 54.64C17.0342 54.64 17.0661 54.64 17.098 54.64C17.13 54.64 17.1619 54.64 17.1938 54.64C17.2258 54.64 17.2578 54.64 17.2898 54.64C17.3218 54.64 17.3538 54.64 17.3858 54.64C17.4179 54.64 17.4499 54.64 17.482 54.64C17.5141 54.64 17.5462 54.64 17.5783 54.64C17.6104 54.64 17.6426 54.64 17.6747 54.64C17.7069 54.64 17.7391 54.64 17.7713 54.64C17.8035 54.64 17.8357 54.64 17.868 54.64C17.9002 54.64 17.9325 54.64 17.9648 54.64C17.9971 54.64 18.0294 54.64 18.0617 54.64C18.094 54.64 18.1263 54.64 18.1587 54.64C18.1911 54.64 18.2235 54.64 18.2558 54.64C18.2882 54.64 18.3207 54.64 18.3531 54.64C18.3855 54.64 18.418 54.64 18.4505 54.64C18.4829 54.64 18.5154 54.64 18.5479 54.64C18.5804 54.64 18.613 54.64 18.6455 54.64C18.6781 54.64 18.7106 54.64 18.7432 54.64C18.7758 54.64 18.8084 54.64 18.841 54.64C18.8736 54.64 18.9062 54.64 18.9389 54.64C18.9715 54.64 19.0042 54.64 19.0369 54.64C19.0695 54.64 19.1022 54.64 19.1349 54.64C19.1677 54.64 19.2004 54.64 19.2331 54.64C19.2659 54.64 19.2986 54.64 19.3314 54.64C19.3642 54.64 19.397 54.64 19.4298 54.64C19.4626 54.64 19.4954 54.64 19.5282 54.64C19.5611 54.64 19.5939 54.64 19.6268 54.64C19.6597 54.64 19.6925 54.64 19.7254 54.64C19.7583 54.64 19.7912 54.64 19.8242 54.64C19.8571 54.64 19.89 54.64 19.923 54.64C19.9559 54.64 19.9889 54.64 20.0219 54.64C20.0548 54.64 20.0878 54.64 20.1208 54.64C20.1538 54.64 20.1869 54.64 20.2199 54.64C20.2529 54.64 20.286 54.64 20.319 54.64C20.3521 54.64 20.3851 54.64 20.4182 54.64C20.4513 54.64 20.4844 54.64 20.5175 54.64C20.5506 54.64 20.5837 54.64 20.6169 54.64C20.65 54.64 20.6831 54.64 20.7163 54.64C20.7494 54.64 20.7826 54.64 20.8158 54.64C20.8489 54.64 20.8821 54.64 20.9153 54.64C20.9485 54.64 20.9817 54.64 21.015 54.64C21.0482 54.64 21.0814 54.64 21.1146 54.64C21.1479 54.64 21.1811 54.64 21.2144 54.64C21.2477 54.64 21.2809 54.64 21.3142 54.64C21.3475 54.64 21.3808 54.64 21.4141 54.64C21.4474 54.64 21.4807 54.64 21.514 54.64C21.5473 54.64 21.5806 54.64 21.614 54.64C21.6473 54.64 21.6807 54.64 21.714 54.64C21.7474 54.64 21.7807 54.64 21.8141 54.64C21.8475 54.64 21.8808 54.64 21.9142 54.64C21.9476 54.64 21.981 54.64 22.0144 54.64C22.0478 54.64 22.0812 54.64 22.1146 54.64C22.1481 54.64 22.1815 54.64 22.2149 54.64C22.2484 54.64 22.2818 54.64 22.3152 54.64C22.3487 54.64 22.3821 54.64 22.4156 54.64C22.4491 54.64 22.4825 54.64 22.516 54.64C22.5495 54.64 22.5829 54.64 22.6164 54.64C22.6499 54.64 22.6834 54.64 22.7169 54.64C22.7504 54.64 22.7839 54.64 22.8174 54.64C22.8509 54.64 22.8844 54.64 22.918 54.64C22.9515 54.64 22.985 54.64 23.0185 54.64C23.0521 54.64 23.0856 54.64 23.1191 54.64C23.1527 54.64 23.1862 54.64 23.2198 54.64C23.2533 54.64 23.2869 54.64 23.3204 54.64C23.354 54.64 23.3875 54.64 23.4211 54.64C23.4546 54.64 23.4882 54.64 23.5218 54.64C23.5554 54.64 23.5889 54.64 23.6225 54.64C23.6561 54.64 23.6897 54.64 23.7232 54.64C23.7568 54.64 23.7904 54.64 23.824 54.64C23.8576 54.64 23.8912 54.64 23.9248 54.64C23.9584 54.64 23.992 54.64 24.0256 54.64C24.0592 54.64 24.0928 54.64 24.1264 54.64C24.16 54.64 24.1936 54.64 24.2272 54.64C24.2608 54.64 24.2944 54.64 24.328 54.64C24.3616 54.64 24.3952 54.64 24.4288 54.64C24.4624 54.64 24.496 54.64 24.5296 54.64C24.5632 54.64 24.5969 54.64 24.6305 54.64C24.6641 54.64 24.6977 54.64 24.7313 54.64C24.7649 54.64 24.7985 54.64 24.8321 54.64C24.8657 54.64 24.8994 54.64 24.933 54.64C24.9666 54.64 25.0002 54.64 25.0338 54.64C25.0674 54.64 25.101 54.64 25.1346 54.64C25.1682 54.64 25.2018 54.64 25.2354 54.64C25.269 54.64 25.3026 54.64 25.3362 54.64C25.3698 54.64 25.4034 54.64 25.437 54.64C25.4706 54.64 25.5042 54.64 25.5378 54.64C25.5714 54.64 25.605 54.64 25.6386 54.64C25.6722 54.64 25.7058 54.64 25.7393 54.64C25.7729 54.64 25.8065 54.64 25.8401 54.64C25.8737 54.64 25.9072 54.64 25.9408 54.64C25.9744 54.64 26.0079 54.64 26.0415 54.64C26.0751 54.64 26.1086 54.64 26.1422 54.64C26.1757 54.64 26.2093 54.64 26.2428 54.64C26.2764 54.64 26.3099 54.64 26.3435 54.64C26.377 54.64 26.4105 54.64 26.444 54.64C26.4776 54.64 26.5111 54.64 26.5446 54.64C26.5781 54.64 26.6116 54.64 26.6452 54.64C26.6787 54.64 26.7122 54.64 26.7457 54.64C26.7792 54.64 26.8126 54.64 26.8461 54.64C26.8796 54.64 26.9131 54.64 26.9466 54.64C26.98 54.64 27.0135 54.64 27.047 54.64C27.0804 54.64 27.1139 54.64 27.1473 54.64C27.1808 54.64 27.2142 54.64 27.2476 54.64C27.2811 54.64 27.3145 54.64 27.3479 54.64C27.3813 54.64 27.4147 54.64 27.4481 54.64C27.4815 54.64 27.5149 54.64 27.5483 54.64C27.5817 54.64 27.6151 54.64 27.6484 54.64C27.6818 54.64 27.7152 54.64 27.7485 54.64C27.7819 54.64 27.8152 54.64 27.8486 54.64C27.8819 54.64 27.9152 54.64 27.9485 54.64C27.9818 54.64 28.0152 54.64 28.0484 54.64C28.0817 54.64 28.115 54.64 28.1483 54.64C28.1816 54.64 28.2149 54.64 28.2481 54.64C28.2814 54.64 28.3146 54.64 28.3479 54.64C28.3811 54.64 28.4143 54.64 28.4475 54.64C28.4808 54.64 28.514 54.64 28.5472 54.64C28.5804 54.64 28.6135 54.64 28.6467 54.64C28.6799 54.64 28.7131 54.64 28.7462 54.64C28.7794 54.64 28.8125 54.64 28.8456 54.64C28.8787 54.64 28.9119 54.64 28.945 54.64C28.9781 54.64 29.0112 54.64 29.0442 54.64C29.0773 54.64 29.1104 54.64 29.1434 54.64C29.1765 54.64 29.2095 54.64 29.2426 54.64C29.2756 54.64 29.3086 54.64 29.3416 54.64C29.3746 54.64 29.4076 54.64 29.4406 54.64C29.4736 54.64 29.5065 54.64 29.5395 54.64C29.5724 54.64 29.6053 54.64 29.6383 54.64C29.6712 54.64 29.7041 54.64 29.737 54.64C29.7699 54.64 29.8028 54.64 29.8356 54.64C29.8685 54.64 29.9013 54.64 29.9342 54.64C29.967 54.64 29.9998 54.64 30.0326 54.64C30.0654 54.64 30.0982 54.64 30.131 54.64C30.1638 54.64 30.1965 54.64 30.2292 54.64C30.262 54.64 30.2947 54.64 30.3274 54.64C30.3601 54.64 30.3928 54.64 30.4255 54.64C30.4582 54.64 30.4908 54.64 30.5235 54.64C30.5561 54.64 30.5888 54.64 30.6214 54.64C30.654 54.64 30.6866 54.64 30.7191 54.64C30.7517 54.64 30.7843 54.64 30.8168 54.64C30.8494 54.64 30.8819 54.64 30.9144 54.64C30.9469 54.64 30.9794 54.64 31.0118 54.64C31.0443 54.64 31.0768 54.64 31.1092 54.64C31.1416 54.64 31.174 54.64 31.2064 54.64C31.2388 54.64 31.2712 54.64 31.3036 54.64C31.3359 54.64 31.3683 54.64 31.4006 54.64C31.4329 54.64 31.4652 54.64 31.4975 54.64C31.5298 54.64 31.562 54.64 31.5943 54.64C31.6265 54.64 31.6587 54.64 31.6909 54.64C31.7231 54.64 31.7553 54.64 31.7875 54.64C31.8197 54.64 31.8518 54.64 31.8839 54.64C31.916 54.64 31.9481 54.64 31.9802 54.64C32.0123 54.64 32.0443 54.64 32.0764 54.64C32.1084 54.64 32.1404 54.64 32.1724 54.64C32.2044 54.64 32.2364 54.64 32.2683 54.64C32.3003 54.64 32.3322 54.64 32.3641 54.64C32.396 54.64 32.4279 54.64 32.4598 54.64C32.4916 54.64 32.5235 54.64 32.5553 54.64C32.5871 54.64 32.6189 54.64 32.6507 54.64C32.6824 54.64 32.7142 54.64 32.7459 54.64C32.7776 54.64 32.8093 54.64 32.841 54.64C32.8727 54.64 32.9044 54.64 32.936 54.64C32.9676 54.64 32.9992 54.64 33.0308 54.64C33.0624 54.64 33.0939 54.64 33.1255 54.64C33.157 54.64 33.1885 54.64 33.22 54.64C33.2515 54.64 33.2829 54.64 33.3144 54.64C33.3458 54.64 33.3772 54.64 33.4086 54.64C33.44 54.64 33.4714 54.64 33.5027 54.64C33.534 54.64 33.5653 54.64 33.5966 54.64C33.6279 54.64 33.6591 54.64 33.6904 54.64C33.7216 54.64 33.7528 54.64 33.784 54.64C33.8152 54.64 33.8463 54.64 33.8774 54.64C33.9086 54.64 33.9397 54.64 33.9707 54.64C34.0018 54.64 34.0328 54.64 34.0639 54.64C34.0949 54.64 34.1259 54.64 34.1568 54.64C34.1878 54.64 34.2187 54.64 34.2496 54.64C34.2805 54.64 34.3114 54.64 34.3423 54.64C34.3731 54.64 34.4039 54.64 34.4347 54.64C34.4655 54.64 34.4963 54.64 34.527 54.64C34.5578 54.64 34.5885 54.64 34.6191 54.64C34.6498 54.64 34.6805 54.64 34.7111 54.64C34.7417 54.64 34.7723 54.64 34.8029 54.64C34.8334 54.64 34.864 54.64 34.8945 54.64C34.925 54.64 34.9554 54.64 34.9859 54.64C35.0163 54.64 35.0467 54.64 35.0771 54.64C35.1075 54.64 35.1378 54.64 35.1682 54.64C35.1985 54.64 35.2288 54.64 35.259 54.64C35.2893 54.64 35.3195 54.64 35.3497 54.64C35.3799 54.64 35.4101 54.64 35.4402 54.64C35.4703 54.64 35.5004 54.64 35.5305 54.64C35.5606 54.64 35.5906 54.64 35.6206 54.64C35.6506 54.64 35.6806 54.64 35.7105 54.64C35.7405 54.64 35.7704 54.64 35.8002 54.64C35.8301 54.64 35.86 54.64 35.8898 54.64C35.9196 54.64 35.9494 54.64 35.9791 54.64C36.0088 54.64 36.0386 54.64 36.0682 54.64C36.0979 54.64 36.1275 54.64 36.1572 54.64C36.1868 54.64 36.2163 54.64 36.2459 54.64C36.2754 54.64 36.3049 54.64 36.3344 54.64C36.3639 54.64 36.3933 54.64 36.4227 54.64C36.4521 54.64 36.4815 54.64 36.5108 54.64C36.5401 54.64 36.5694 54.64 36.5987 54.64C36.628 54.64 36.6572 54.64 36.6864 54.64C36.7156 54.64 36.7447 54.64 36.7738 54.64C36.803 54.64 36.832 54.64 36.8611 54.64C36.8901 54.64 36.9191 54.64 36.9481 54.64C36.9771 54.64 37.006 54.64 37.0349 54.64C37.0638 54.64 37.0927 54.64 37.1215 54.64C37.1504 54.64 37.1791 54.64 37.2079 54.64C37.2367 54.64 37.2654 54.64 37.294 54.64C37.3227 54.64 37.3514 54.64 37.38 54.64C37.4086 54.64 37.4371 54.64 37.4657 54.64C37.4942 54.64 37.5227 54.64 37.5511 54.64C37.5796 54.64 37.608 54.64 37.6364 54.64C37.6647 54.64 37.6931 54.64 37.7214 54.64C37.7496 54.64 37.7779 54.64 37.8061 54.64C37.8343 54.64 37.8625 54.64 37.8906 54.64C37.9188 54.64 37.9469 54.64 37.9749 54.64C38.003 54.64 38.031 54.64 38.059 54.64C38.087 54.64 38.1149 54.64 38.1428 54.64C38.1707 54.64 38.1986 54.64 38.2264 54.64C38.2542 54.64 38.282 54.64 38.3097 54.64C38.3374 54.64 38.3651 54.64 38.3928 54.64C38.4204 54.64 38.448 54.64 38.4756 54.64C38.5032 54.64 38.5307 54.64 38.5582 54.64C38.5857 54.64 38.6131 54.64 38.6405 54.64C38.6679 54.64 38.6953 54.64 38.7226 54.64C38.7499 54.64 38.7772 54.64 38.8044 54.64C38.8316 54.64 38.8588 54.64 38.8859 54.64C38.9131 54.64 38.9402 54.64 38.9672 54.64C38.9943 54.64 39.0213 54.64 39.0483 54.64C39.0753 54.64 39.1022 54.64 39.1291 54.64C39.1559 54.64 39.1828 54.64 39.2096 54.64C39.2364 54.64 39.2631 54.64 39.2898 54.64C39.3165 54.64 39.3432 54.64 39.3698 54.64C39.3964 54.64 39.423 54.64 39.4495 54.64C39.476 54.64 39.5025 54.64 39.529 54.64C39.5554 54.64 39.5818 54.64 39.6081 54.64C39.6345 54.64 39.6608 54.64 39.687 54.64C39.7133 54.64 39.7395 54.64 39.7656 54.64C39.7918 54.64 39.8179 54.64 39.844 54.64C39.8701 54.64 39.8961 54.64 39.9221 54.64C39.948 54.64 39.974 54.64 39.9998 54.64C40.0257 54.64 40.0515 54.64 40.0773 54.64C40.1031 54.64 40.1289 54.64 40.1545 54.64C40.1802 54.64 40.2059 54.64 40.2315 54.64C40.2571 54.64 40.2826 54.64 40.3081 54.64C40.3336 54.64 40.3591 54.64 40.3845 54.64C40.4099 54.64 40.4352 54.64 40.4605 54.64C40.4858 54.64 40.5111 54.64 40.5363 54.64C40.5615 54.64 40.5867 54.64 40.6118 54.64C40.6369 54.64 40.6619 54.64 40.6869 54.64C40.7119 54.64 40.7369 54.64 40.7618 54.64C40.7867 54.64 40.8116 54.64 40.8364 54.64C40.8612 54.64 40.886 54.64 40.9107 54.64C40.9354 54.64 40.96 54.64 40.9846 54.64C41.0092 54.64 41.0338 54.64 41.0583 54.64C41.0828 54.64 41.1073 54.64 41.1317 54.64C41.1561 54.64 41.1804 54.64 41.2047 54.64C41.229 54.64 41.2533 54.64 41.2775 54.64C41.3017 54.64 41.3258 54.64 41.3499 54.64C41.374 54.64 41.398 54.64 41.422 54.64C41.446 54.64 41.4699 54.64 41.4938 54.64C41.5177 54.64 41.5415 54.64 41.5653 54.64C41.5891 54.64 41.6128 54.64 41.6364 54.64C41.6601 54.64 41.6837 54.64 41.7073 54.64C41.7308 54.64 41.7544 54.64 41.7778 54.64C41.8013 54.64 41.8247 54.64 41.848 54.64C41.8713 54.64 41.8946 54.64 41.9179 54.64C41.9411 54.64 41.9643 54.64 41.9874 54.64C42.0105 54.64 42.0336 54.64 42.0566 54.64C42.0796 54.64 42.1026 54.64 42.1255 54.64C42.1484 54.64 42.1713 54.64 42.1941 54.64C42.2169 54.64 42.2396 54.64 42.2623 54.64C42.285 54.64 42.3076 54.64 42.3302 54.64C42.3527 54.64 42.3752 54.64 42.3977 54.64C42.4201 54.64 42.4425 54.64 42.4649 54.64C42.4872 54.64 42.5095 54.64 42.5317 54.64C42.554 54.64 42.5762 54.64 42.5983 54.64C42.6204 54.64 42.6424 54.64 42.6644 54.64C42.6864 54.64 42.7084 54.64 42.7303 54.64C42.7521 54.64 42.774 54.64 42.7957 54.64C42.8175 54.64 42.8392 54.64 42.8609 54.64C42.8825 54.64 42.9041 54.64 42.9256 54.64C42.9472 54.64 42.9686 54.64 42.9901 54.64C43.0115 54.64 43.0328 54.64 43.0541 54.64C43.0754 54.64 43.0967 54.64 43.1178 54.64C43.139 54.64 43.1601 54.64 43.1812 54.64C43.2022 54.64 43.2232 54.64 43.2442 54.64C43.2651 54.64 43.286 54.64 43.3068 54.64C43.3276 54.64 43.3484 54.64 43.3691 54.64C43.3898 54.64 43.4104 54.64 43.431 54.64C43.4515 54.64 43.4721 54.64 43.4925 54.64C43.513 54.64 43.5333 54.64 43.5537 54.64C43.574 54.64 43.5943 54.64 43.6145 54.64C43.6347 54.64 43.6548 54.64 43.6749 54.64C43.695 54.64 43.715 54.64 43.7349 54.64C43.7549 54.64 43.7748 54.64 43.7946 54.64C43.8144 54.64 43.8342 54.64 43.8539 54.64C43.8736 54.64 43.8932 54.64 43.9128 54.64C43.9324 54.64 43.9519 54.64 43.9713 54.64C43.9908 54.64 44.0102 54.64 44.0295 54.64C44.0488 54.64 44.0681 54.64 44.0872 54.64C44.1064 54.64 44.1256 54.64 44.1446 54.64C44.1637 54.64 44.1827 54.64 44.2016 54.64C44.2205 54.64 44.2394 54.64 44.2582 54.64C44.277 54.64 44.2958 54.64 44.3144 54.64C44.3331 54.64 44.3517 54.64 44.3702 54.64C44.3888 54.64 44.4073 54.64 44.4257 54.64C44.4441 54.64 44.4624 54.64 44.4807 54.64C44.499 54.64 44.5172 54.64 44.5353 54.64C44.5535 54.64 44.5715 54.64 44.5895 54.64C44.6076 54.64 44.6255 54.64 44.6434 54.64C44.6612 54.64 44.6791 54.64 44.6968 54.64C44.7145 54.64 44.7322 54.64 44.7498 54.64C44.7674 54.64 44.7849 54.64 44.8024 54.64C44.8199 54.64 44.8373 54.64 44.8546 54.64C44.8719 54.64 44.8892 54.64 44.9064 54.64C44.9236 54.64 44.9407 54.64 44.9578 54.64C44.9748 54.64 44.9918 54.64 45.0088 54.64C45.0257 54.64 45.0425 54.64 45.0593 54.64C45.0761 54.64 45.0928 54.64 45.1094 54.64C45.1261 54.64 45.1426 54.64 45.1591 54.64C45.1756 54.64 45.1921 54.64 45.2084 54.64C45.2248 54.64 45.2411 54.64 45.2573 54.64C45.2735 54.64 45.2897 54.64 45.3058 54.64C45.3218 54.64 45.3378 54.64 45.3538 54.64C45.3697 54.64 45.3856 54.64 45.4014 54.64C45.4172 54.64 45.4329 54.64 45.4485 54.64C45.4642 54.64 45.4798 54.64 45.4953 54.64C45.5108 54.64 45.5262 54.64 45.5416 54.64C45.5569 54.64 45.5722 54.64 45.5874 54.64C45.6026 54.64 45.6178 54.64 45.6329 54.64C45.6479 54.64 45.6629 54.64 45.6778 54.64C45.6928 54.64 45.7076 54.64 45.7224 54.64C45.7372 54.64 45.7519 54.64 45.7665 54.64C45.7811 54.64 45.7957 54.64 45.8102 54.64C45.8247 54.64 45.8391 54.64 45.8534 54.64C45.8677 54.64 45.882 54.64 45.8962 54.64C45.9104 54.64 45.9245 54.64 45.9385 54.64C45.9525 54.64 45.9665 54.64 45.9804 54.64C45.9943 54.64 46.0081 54.64 46.0218 54.64C46.0355 54.64 46.0492 54.64 46.0628 54.64C46.0764 54.64 46.0899 54.64 46.1033 54.64C46.1167 54.64 46.1301 54.64 46.1434 54.64C46.1566 54.64 46.1698 54.64 46.183 54.64C46.1961 54.64 46.2091 54.64 46.2221 54.64C46.2351 54.64 46.248 54.64 46.2608 54.64C46.2736 54.64 46.2863 54.64 46.299 54.64C46.3117 54.64 46.3242 54.64 46.3367 54.64C46.3493 54.64 46.3617 54.64 46.374 54.64C46.3864 54.64 46.3986 54.64 46.4108 54.64C46.423 54.64 46.4352 54.64 46.4472 54.64C46.4592 54.64 46.4712 54.64 46.4831 54.64C46.4949 54.64 46.5067 54.64 46.5185 54.64C46.5302 54.64 46.5418 54.64 46.5534 54.64C46.5649 54.64 46.5764 54.64 46.5878 54.64C46.5992 54.64 46.6105 54.64 46.6218 54.64C46.633 54.64 46.6442 54.64 46.6553 54.64C46.6663 54.64 46.6773 54.64 46.6883 54.64C46.6992 54.64 46.71 54.64 46.7208 54.64C46.7315 54.64 46.7422 54.64 46.7528 54.64C46.7634 54.64 46.7739 54.64 46.7844 54.64C46.7948 54.64 46.8051 54.64 46.8154 54.64C46.8257 54.64 46.8359 54.64 46.846 54.64C46.8561 54.64 46.8661 54.64 46.876 54.64C46.886 54.64 46.8958 54.64 46.9056 54.64C46.9154 54.64 46.9251 54.64 46.9347 54.64C46.9443 54.64 46.9538 54.64 46.9633 54.64C46.9727 54.64 46.9821 54.64 46.9913 54.64C47.0006 54.64 47.0098 54.64 47.0189 54.64C47.028 54.64 47.037 54.64 47.046 54.64C47.0549 54.64 47.0638 54.64 47.0726 54.64C47.0813 54.64 47.09 54.64 47.0986 54.64C47.1072 54.64 47.1157 54.64 47.1242 54.64C47.1326 54.64 47.141 54.64 47.1492 54.64C47.1575 54.64 47.1657 54.64 47.1737 54.64C47.1818 54.64 47.1898 54.64 47.1978 54.64C47.2057 54.64 47.2135 54.64 47.2213 54.64C47.229 54.64 47.2367 54.64 47.2442 54.64C47.2518 54.64 47.2593 54.64 47.2667 54.64C47.2741 54.64 47.2814 54.64 47.2887 54.64C47.2959 54.64 47.303 54.64 47.3101 54.64C47.3171 54.64 47.3241 54.64 47.331 54.64C47.3379 54.64 47.3446 54.64 47.3513 54.64C47.3581 54.64 47.3647 54.64 47.3712 54.64C47.3777 54.64 47.3842 54.64 47.3905 54.64C47.3969 54.64 47.4031 54.64 47.4093 54.64C47.4155 54.64 47.4215 54.64 47.4275 54.64C47.4335 54.64 47.4394 54.64 47.4453 54.64C47.4511 54.64 47.4568 54.64 47.4624 54.64C47.4681 54.64 47.4736 54.64 47.4791 54.64C47.4845 54.64 47.4899 54.64 47.4952 54.64C47.5005 54.64 47.5057 54.64 47.5107 54.64C47.5158 54.64 47.5209 54.64 47.5258 54.64C47.5307 54.64 47.5355 54.64 47.5402 54.64C47.545 54.64 47.5496 54.64 47.5542 54.64C47.5587 54.64 47.5632 54.64 47.5676 54.64C47.5719 54.64 47.5762 54.64 47.5804 54.64C47.5846 54.64 47.5887 54.64 47.5927 54.64C47.5967 54.64 47.6006 54.64 47.6044 54.64C47.6082 54.64 47.6119 54.64 47.6156 54.64C47.6192 54.64 47.6227 54.64 47.6262 54.64C47.6296 54.64 47.633 54.64 47.6362 54.64C47.6395 54.64 47.6426 54.64 47.6457 54.64C47.6488 54.64 47.6518 54.64 47.6546 54.64C47.6575 54.64 47.6603 54.64 47.663 54.64C47.6657 54.64 47.6683 54.64 47.6708 54.64C47.6733 54.64 47.6757 54.64 47.6781 54.64C47.6804 54.64 47.6826 54.64 47.6847 54.64C47.6868 54.64 47.6889 54.64 47.6908 54.64C47.6927 54.64 47.6946 54.64 47.6963 54.64C47.6981 54.64 47.6997 54.64 47.7013 54.64C47.7028 54.64 47.7043 54.64 47.7057 54.64C47.707 54.64 47.7083 54.64 47.7095 54.64C47.7106 54.64 47.7117 54.64 47.7127 54.64C47.7136 54.64 47.7145 54.64 47.7153 54.64C47.7161 54.64 47.7168 54.64 47.7174 54.64C47.7179 54.64 47.7184 54.64 47.7188 54.64C47.7192 54.64 47.7195 54.64 47.7197 54.64C47.7199 54.64 47.72 54.64 47.72 47.64C47.72 40.64 47.7199 40.64 47.7197 40.64C47.7195 40.64 47.7192 40.64 47.7188 40.64C47.7184 40.64 47.7179 40.64 47.7174 40.64C47.7168 40.64 47.7161 40.64 47.7153 40.64C47.7145 40.64 47.7136 40.64 47.7127 40.64C47.7117 40.64 47.7106 40.64 47.7095 40.64C47.7083 40.64 47.707 40.64 47.7057 40.64C47.7043 40.64 47.7028 40.64 47.7013 40.64C47.6997 40.64 47.6981 40.64 47.6963 40.64C47.6946 40.64 47.6927 40.64 47.6908 40.64C47.6889 40.64 47.6868 40.64 47.6847 40.64C47.6826 40.64 47.6804 40.64 47.6781 40.64C47.6757 40.64 47.6733 40.64 47.6708 40.64C47.6683 40.64 47.6657 40.64 47.663 40.64C47.6603 40.64 47.6575 40.64 47.6546 40.64C47.6518 40.64 47.6488 40.64 47.6457 40.64C47.6426 40.64 47.6395 40.64 47.6362 40.64C47.633 40.64 47.6296 40.64 47.6262 40.64C47.6227 40.64 47.6192 40.64 47.6156 40.64C47.6119 40.64 47.6082 40.64 47.6044 40.64C47.6006 40.64 47.5967 40.64 47.5927 40.64C47.5887 40.64 47.5846 40.64 47.5804 40.64C47.5762 40.64 47.5719 40.64 47.5676 40.64C47.5632 40.64 47.5587 40.64 47.5542 40.64C47.5496 40.64 47.545 40.64 47.5402 40.64C47.5355 40.64 47.5307 40.64 47.5258 40.64C47.5209 40.64 47.5158 40.64 47.5107 40.64C47.5057 40.64 47.5005 40.64 47.4952 40.64C47.4899 40.64 47.4845 40.64 47.4791 40.64C47.4736 40.64 47.4681 40.64 47.4624 40.64C47.4568 40.64 47.4511 40.64 47.4453 40.64C47.4394 40.64 47.4335 40.64 47.4275 40.64C47.4215 40.64 47.4155 40.64 47.4093 40.64C47.4031 40.64 47.3969 40.64 47.3905 40.64C47.3842 40.64 47.3777 40.64 47.3712 40.64C47.3647 40.64 47.3581 40.64 47.3513 40.64C47.3446 40.64 47.3379 40.64 47.331 40.64C47.3241 40.64 47.3171 40.64 47.3101 40.64C47.303 40.64 47.2959 40.64 47.2887 40.64C47.2814 40.64 47.2741 40.64 47.2667 40.64C47.2593 40.64 47.2518 40.64 47.2442 40.64C47.2367 40.64 47.229 40.64 47.2213 40.64C47.2135 40.64 47.2057 40.64 47.1978 40.64C47.1898 40.64 47.1818 40.64 47.1737 40.64C47.1657 40.64 47.1575 40.64 47.1492 40.64C47.141 40.64 47.1326 40.64 47.1242 40.64C47.1157 40.64 47.1072 40.64 47.0986 40.64C47.09 40.64 47.0813 40.64 47.0726 40.64C47.0638 40.64 47.0549 40.64 47.046 40.64C47.037 40.64 47.028 40.64 47.0189 40.64C47.0098 40.64 47.0006 40.64 46.9913 40.64C46.9821 40.64 46.9727 40.64 46.9633 40.64C46.9538 40.64 46.9443 40.64 46.9347 40.64C46.9251 40.64 46.9154 40.64 46.9056 40.64C46.8958 40.64 46.886 40.64 46.876 40.64C46.8661 40.64 46.8561 40.64 46.846 40.64C46.8359 40.64 46.8257 40.64 46.8154 40.64C46.8051 40.64 46.7948 40.64 46.7844 40.64C46.7739 40.64 46.7634 40.64 46.7528 40.64C46.7422 40.64 46.7315 40.64 46.7208 40.64C46.71 40.64 46.6992 40.64 46.6883 40.64C46.6773 40.64 46.6663 40.64 46.6553 40.64C46.6442 40.64 46.633 40.64 46.6218 40.64C46.6105 40.64 46.5992 40.64 46.5878 40.64C46.5764 40.64 46.5649 40.64 46.5534 40.64C46.5418 40.64 46.5302 40.64 46.5185 40.64C46.5067 40.64 46.4949 40.64 46.4831 40.64C46.4712 40.64 46.4592 40.64 46.4472 40.64C46.4352 40.64 46.423 40.64 46.4108 40.64C46.3986 40.64 46.3864 40.64 46.374 40.64C46.3617 40.64 46.3493 40.64 46.3367 40.64C46.3242 40.64 46.3117 40.64 46.299 40.64C46.2863 40.64 46.2736 40.64 46.2608 40.64C46.248 40.64 46.2351 40.64 46.2221 40.64C46.2091 40.64 46.1961 40.64 46.183 40.64C46.1698 40.64 46.1566 40.64 46.1434 40.64C46.1301 40.64 46.1167 40.64 46.1033 40.64C46.0899 40.64 46.0764 40.64 46.0628 40.64C46.0492 40.64 46.0355 40.64 46.0218 40.64C46.0081 40.64 45.9943 40.64 45.9804 40.64C45.9665 40.64 45.9525 40.64 45.9385 40.64C45.9245 40.64 45.9104 40.64 45.8962 40.64C45.882 40.64 45.8677 40.64 45.8534 40.64C45.8391 40.64 45.8247 40.64 45.8102 40.64C45.7957 40.64 45.7811 40.64 45.7665 40.64C45.7519 40.64 45.7372 40.64 45.7224 40.64C45.7076 40.64 45.6928 40.64 45.6778 40.64C45.6629 40.64 45.6479 40.64 45.6329 40.64C45.6178 40.64 45.6026 40.64 45.5874 40.64C45.5722 40.64 45.5569 40.64 45.5416 40.64C45.5262 40.64 45.5108 40.64 45.4953 40.64C45.4798 40.64 45.4642 40.64 45.4485 40.64C45.4329 40.64 45.4172 40.64 45.4014 40.64C45.3856 40.64 45.3697 40.64 45.3538 40.64C45.3378 40.64 45.3218 40.64 45.3058 40.64C45.2897 40.64 45.2735 40.64 45.2573 40.64C45.2411 40.64 45.2248 40.64 45.2084 40.64C45.1921 40.64 45.1756 40.64 45.1591 40.64C45.1426 40.64 45.1261 40.64 45.1094 40.64C45.0928 40.64 45.0761 40.64 45.0593 40.64C45.0425 40.64 45.0257 40.64 45.0088 40.64C44.9918 40.64 44.9748 40.64 44.9578 40.64C44.9407 40.64 44.9236 40.64 44.9064 40.64C44.8892 40.64 44.8719 40.64 44.8546 40.64C44.8373 40.64 44.8199 40.64 44.8024 40.64C44.7849 40.64 44.7674 40.64 44.7498 40.64C44.7322 40.64 44.7145 40.64 44.6968 40.64C44.6791 40.64 44.6612 40.64 44.6434 40.64C44.6255 40.64 44.6076 40.64 44.5895 40.64C44.5715 40.64 44.5535 40.64 44.5353 40.64C44.5172 40.64 44.499 40.64 44.4807 40.64C44.4624 40.64 44.4441 40.64 44.4257 40.64C44.4073 40.64 44.3888 40.64 44.3702 40.64C44.3517 40.64 44.3331 40.64 44.3144 40.64C44.2958 40.64 44.277 40.64 44.2582 40.64C44.2394 40.64 44.2205 40.64 44.2016 40.64C44.1827 40.64 44.1637 40.64 44.1446 40.64C44.1256 40.64 44.1064 40.64 44.0872 40.64C44.0681 40.64 44.0488 40.64 44.0295 40.64C44.0102 40.64 43.9908 40.64 43.9713 40.64C43.9519 40.64 43.9324 40.64 43.9128 40.64C43.8932 40.64 43.8736 40.64 43.8539 40.64C43.8342 40.64 43.8144 40.64 43.7946 40.64C43.7748 40.64 43.7549 40.64 43.7349 40.64C43.715 40.64 43.695 40.64 43.6749 40.64C43.6548 40.64 43.6347 40.64 43.6145 40.64C43.5943 40.64 43.574 40.64 43.5537 40.64C43.5333 40.64 43.513 40.64 43.4925 40.64C43.4721 40.64 43.4515 40.64 43.431 40.64C43.4104 40.64 43.3898 40.64 43.3691 40.64C43.3484 40.64 43.3276 40.64 43.3068 40.64C43.286 40.64 43.2651 40.64 43.2442 40.64C43.2232 40.64 43.2022 40.64 43.1812 40.64C43.1601 40.64 43.139 40.64 43.1178 40.64C43.0967 40.64 43.0754 40.64 43.0541 40.64C43.0328 40.64 43.0115 40.64 42.9901 40.64C42.9686 40.64 42.9472 40.64 42.9256 40.64C42.9041 40.64 42.8825 40.64 42.8609 40.64C42.8392 40.64 42.8175 40.64 42.7957 40.64C42.774 40.64 42.7521 40.64 42.7303 40.64C42.7084 40.64 42.6864 40.64 42.6644 40.64C42.6424 40.64 42.6204 40.64 42.5983 40.64C42.5762 40.64 42.554 40.64 42.5317 40.64C42.5095 40.64 42.4872 40.64 42.4649 40.64C42.4425 40.64 42.4201 40.64 42.3977 40.64C42.3752 40.64 42.3527 40.64 42.3302 40.64C42.3076 40.64 42.285 40.64 42.2623 40.64C42.2396 40.64 42.2169 40.64 42.1941 40.64C42.1713 40.64 42.1484 40.64 42.1255 40.64C42.1026 40.64 42.0796 40.64 42.0566 40.64C42.0336 40.64 42.0105 40.64 41.9874 40.64C41.9643 40.64 41.9411 40.64 41.9179 40.64C41.8946 40.64 41.8713 40.64 41.848 40.64C41.8247 40.64 41.8013 40.64 41.7778 40.64C41.7544 40.64 41.7308 40.64 41.7073 40.64C41.6837 40.64 41.6601 40.64 41.6364 40.64C41.6128 40.64 41.5891 40.64 41.5653 40.64C41.5415 40.64 41.5177 40.64 41.4938 40.64C41.4699 40.64 41.446 40.64 41.422 40.64C41.398 40.64 41.374 40.64 41.3499 40.64C41.3258 40.64 41.3017 40.64 41.2775 40.64C41.2533 40.64 41.229 40.64 41.2047 40.64C41.1804 40.64 41.1561 40.64 41.1317 40.64C41.1073 40.64 41.0828 40.64 41.0583 40.64C41.0338 40.64 41.0092 40.64 40.9846 40.64C40.96 40.64 40.9354 40.64 40.9107 40.64C40.886 40.64 40.8612 40.64 40.8364 40.64C40.8116 40.64 40.7867 40.64 40.7618 40.64C40.7369 40.64 40.7119 40.64 40.6869 40.64C40.6619 40.64 40.6369 40.64 40.6118 40.64C40.5867 40.64 40.5615 40.64 40.5363 40.64C40.5111 40.64 40.4858 40.64 40.4605 40.64C40.4352 40.64 40.4099 40.64 40.3845 40.64C40.3591 40.64 40.3336 40.64 40.3081 40.64C40.2826 40.64 40.2571 40.64 40.2315 40.64C40.2059 40.64 40.1802 40.64 40.1545 40.64C40.1289 40.64 40.1031 40.64 40.0773 40.64C40.0515 40.64 40.0257 40.64 39.9998 40.64C39.974 40.64 39.948 40.64 39.9221 40.64C39.8961 40.64 39.8701 40.64 39.844 40.64C39.8179 40.64 39.7918 40.64 39.7656 40.64C39.7395 40.64 39.7133 40.64 39.687 40.64C39.6608 40.64 39.6345 40.64 39.6081 40.64C39.5818 40.64 39.5554 40.64 39.529 40.64C39.5025 40.64 39.476 40.64 39.4495 40.64C39.423 40.64 39.3964 40.64 39.3698 40.64C39.3432 40.64 39.3165 40.64 39.2898 40.64C39.2631 40.64 39.2364 40.64 39.2096 40.64C39.1828 40.64 39.1559 40.64 39.1291 40.64C39.1022 40.64 39.0753 40.64 39.0483 40.64C39.0213 40.64 38.9943 40.64 38.9672 40.64C38.9402 40.64 38.9131 40.64 38.8859 40.64C38.8588 40.64 38.8316 40.64 38.8044 40.64C38.7772 40.64 38.7499 40.64 38.7226 40.64C38.6953 40.64 38.6679 40.64 38.6405 40.64C38.6131 40.64 38.5857 40.64 38.5582 40.64C38.5307 40.64 38.5032 40.64 38.4756 40.64C38.448 40.64 38.4204 40.64 38.3928 40.64C38.3651 40.64 38.3374 40.64 38.3097 40.64C38.282 40.64 38.2542 40.64 38.2264 40.64C38.1986 40.64 38.1707 40.64 38.1428 40.64C38.1149 40.64 38.087 40.64 38.059 40.64C38.031 40.64 38.003 40.64 37.9749 40.64C37.9469 40.64 37.9188 40.64 37.8906 40.64C37.8625 40.64 37.8343 40.64 37.8061 40.64C37.7779 40.64 37.7496 40.64 37.7214 40.64C37.6931 40.64 37.6647 40.64 37.6364 40.64C37.608 40.64 37.5796 40.64 37.5511 40.64C37.5227 40.64 37.4942 40.64 37.4657 40.64C37.4371 40.64 37.4086 40.64 37.38 40.64C37.3514 40.64 37.3227 40.64 37.294 40.64C37.2654 40.64 37.2367 40.64 37.2079 40.64C37.1791 40.64 37.1504 40.64 37.1215 40.64C37.0927 40.64 37.0638 40.64 37.0349 40.64C37.006 40.64 36.9771 40.64 36.9481 40.64C36.9191 40.64 36.8901 40.64 36.8611 40.64C36.832 40.64 36.803 40.64 36.7738 40.64C36.7447 40.64 36.7156 40.64 36.6864 40.64C36.6572 40.64 36.628 40.64 36.5987 40.64C36.5694 40.64 36.5401 40.64 36.5108 40.64C36.4815 40.64 36.4521 40.64 36.4227 40.64C36.3933 40.64 36.3639 40.64 36.3344 40.64C36.3049 40.64 36.2754 40.64 36.2459 40.64C36.2163 40.64 36.1868 40.64 36.1572 40.64C36.1275 40.64 36.0979 40.64 36.0682 40.64C36.0386 40.64 36.0088 40.64 35.9791 40.64C35.9494 40.64 35.9196 40.64 35.8898 40.64C35.86 40.64 35.8301 40.64 35.8002 40.64C35.7704 40.64 35.7405 40.64 35.7105 40.64C35.6806 40.64 35.6506 40.64 35.6206 40.64C35.5906 40.64 35.5606 40.64 35.5305 40.64C35.5004 40.64 35.4703 40.64 35.4402 40.64C35.4101 40.64 35.3799 40.64 35.3497 40.64C35.3195 40.64 35.2893 40.64 35.259 40.64C35.2288 40.64 35.1985 40.64 35.1682 40.64C35.1378 40.64 35.1075 40.64 35.0771 40.64C35.0467 40.64 35.0163 40.64 34.9859 40.64C34.9554 40.64 34.925 40.64 34.8945 40.64C34.864 40.64 34.8334 40.64 34.8029 40.64C34.7723 40.64 34.7417 40.64 34.7111 40.64C34.6805 40.64 34.6498 40.64 34.6191 40.64C34.5885 40.64 34.5578 40.64 34.527 40.64C34.4963 40.64 34.4655 40.64 34.4347 40.64C34.4039 40.64 34.3731 40.64 34.3423 40.64C34.3114 40.64 34.2805 40.64 34.2496 40.64C34.2187 40.64 34.1878 40.64 34.1568 40.64C34.1259 40.64 34.0949 40.64 34.0639 40.64C34.0328 40.64 34.0018 40.64 33.9707 40.64C33.9397 40.64 33.9086 40.64 33.8774 40.64C33.8463 40.64 33.8152 40.64 33.784 40.64C33.7528 40.64 33.7216 40.64 33.6904 40.64C33.6591 40.64 33.6279 40.64 33.5966 40.64C33.5653 40.64 33.534 40.64 33.5027 40.64C33.4714 40.64 33.44 40.64 33.4086 40.64C33.3772 40.64 33.3458 40.64 33.3144 40.64C33.2829 40.64 33.2515 40.64 33.22 40.64C33.1885 40.64 33.157 40.64 33.1255 40.64C33.0939 40.64 33.0624 40.64 33.0308 40.64C32.9992 40.64 32.9676 40.64 32.936 40.64C32.9044 40.64 32.8727 40.64 32.841 40.64C32.8093 40.64 32.7776 40.64 32.7459 40.64C32.7142 40.64 32.6824 40.64 32.6507 40.64C32.6189 40.64 32.5871 40.64 32.5553 40.64C32.5235 40.64 32.4916 40.64 32.4598 40.64C32.4279 40.64 32.396 40.64 32.3641 40.64C32.3322 40.64 32.3003 40.64 32.2683 40.64C32.2364 40.64 32.2044 40.64 32.1724 40.64C32.1404 40.64 32.1084 40.64 32.0764 40.64C32.0443 40.64 32.0123 40.64 31.9802 40.64C31.9481 40.64 31.916 40.64 31.8839 40.64C31.8518 40.64 31.8197 40.64 31.7875 40.64C31.7553 40.64 31.7231 40.64 31.6909 40.64C31.6587 40.64 31.6265 40.64 31.5943 40.64C31.562 40.64 31.5298 40.64 31.4975 40.64C31.4652 40.64 31.4329 40.64 31.4006 40.64C31.3683 40.64 31.3359 40.64 31.3036 40.64C31.2712 40.64 31.2388 40.64 31.2064 40.64C31.174 40.64 31.1416 40.64 31.1092 40.64C31.0768 40.64 31.0443 40.64 31.0118 40.64C30.9794 40.64 30.9469 40.64 30.9144 40.64C30.8819 40.64 30.8494 40.64 30.8168 40.64C30.7843 40.64 30.7517 40.64 30.7191 40.64C30.6866 40.64 30.654 40.64 30.6214 40.64C30.5888 40.64 30.5561 40.64 30.5235 40.64C30.4908 40.64 30.4582 40.64 30.4255 40.64C30.3928 40.64 30.3601 40.64 30.3274 40.64C30.2947 40.64 30.262 40.64 30.2292 40.64C30.1965 40.64 30.1638 40.64 30.131 40.64C30.0982 40.64 30.0654 40.64 30.0326 40.64C29.9998 40.64 29.967 40.64 29.9342 40.64C29.9013 40.64 29.8685 40.64 29.8356 40.64C29.8028 40.64 29.7699 40.64 29.737 40.64C29.7041 40.64 29.6712 40.64 29.6383 40.64C29.6053 40.64 29.5724 40.64 29.5395 40.64C29.5065 40.64 29.4736 40.64 29.4406 40.64C29.4076 40.64 29.3746 40.64 29.3416 40.64C29.3086 40.64 29.2756 40.64 29.2426 40.64C29.2095 40.64 29.1765 40.64 29.1434 40.64C29.1104 40.64 29.0773 40.64 29.0442 40.64C29.0112 40.64 28.9781 40.64 28.945 40.64C28.9119 40.64 28.8787 40.64 28.8456 40.64C28.8125 40.64 28.7794 40.64 28.7462 40.64C28.7131 40.64 28.6799 40.64 28.6467 40.64C28.6135 40.64 28.5804 40.64 28.5472 40.64C28.514 40.64 28.4808 40.64 28.4475 40.64C28.4143 40.64 28.3811 40.64 28.3479 40.64C28.3146 40.64 28.2814 40.64 28.2481 40.64C28.2149 40.64 28.1816 40.64 28.1483 40.64C28.115 40.64 28.0817 40.64 28.0484 40.64C28.0152 40.64 27.9818 40.64 27.9485 40.64C27.9152 40.64 27.8819 40.64 27.8486 40.64C27.8152 40.64 27.7819 40.64 27.7485 40.64C27.7152 40.64 27.6818 40.64 27.6484 40.64C27.6151 40.64 27.5817 40.64 27.5483 40.64C27.5149 40.64 27.4815 40.64 27.4481 40.64C27.4147 40.64 27.3813 40.64 27.3479 40.64C27.3145 40.64 27.2811 40.64 27.2476 40.64C27.2142 40.64 27.1808 40.64 27.1473 40.64C27.1139 40.64 27.0804 40.64 27.047 40.64C27.0135 40.64 26.98 40.64 26.9466 40.64C26.9131 40.64 26.8796 40.64 26.8461 40.64C26.8126 40.64 26.7792 40.64 26.7457 40.64C26.7122 40.64 26.6787 40.64 26.6452 40.64C26.6116 40.64 26.5781 40.64 26.5446 40.64C26.5111 40.64 26.4776 40.64 26.444 40.64C26.4105 40.64 26.377 40.64 26.3435 40.64C26.3099 40.64 26.2764 40.64 26.2428 40.64C26.2093 40.64 26.1757 40.64 26.1422 40.64C26.1086 40.64 26.0751 40.64 26.0415 40.64C26.0079 40.64 25.9744 40.64 25.9408 40.64C25.9072 40.64 25.8737 40.64 25.8401 40.64C25.8065 40.64 25.7729 40.64 25.7393 40.64C25.7058 40.64 25.6722 40.64 25.6386 40.64C25.605 40.64 25.5714 40.64 25.5378 40.64C25.5042 40.64 25.4706 40.64 25.437 40.64C25.4034 40.64 25.3698 40.64 25.3362 40.64C25.3026 40.64 25.269 40.64 25.2354 40.64C25.2018 40.64 25.1682 40.64 25.1346 40.64C25.101 40.64 25.0674 40.64 25.0338 40.64C25.0002 40.64 24.9666 40.64 24.933 40.64C24.8994 40.64 24.8657 40.64 24.8321 40.64C24.7985 40.64 24.7649 40.64 24.7313 40.64C24.6977 40.64 24.6641 40.64 24.6305 40.64C24.5969 40.64 24.5632 40.64 24.5296 40.64C24.496 40.64 24.4624 40.64 24.4288 40.64C24.3952 40.64 24.3616 40.64 24.328 40.64C24.2944 40.64 24.2608 40.64 24.2272 40.64C24.1936 40.64 24.16 40.64 24.1264 40.64C24.0928 40.64 24.0592 40.64 24.0256 40.64C23.992 40.64 23.9584 40.64 23.9248 40.64C23.8912 40.64 23.8576 40.64 23.824 40.64C23.7904 40.64 23.7568 40.64 23.7232 40.64C23.6897 40.64 23.6561 40.64 23.6225 40.64C23.5889 40.64 23.5554 40.64 23.5218 40.64C23.4882 40.64 23.4546 40.64 23.4211 40.64C23.3875 40.64 23.354 40.64 23.3204 40.64C23.2869 40.64 23.2533 40.64 23.2198 40.64C23.1862 40.64 23.1527 40.64 23.1191 40.64C23.0856 40.64 23.0521 40.64 23.0185 40.64C22.985 40.64 22.9515 40.64 22.918 40.64C22.8844 40.64 22.8509 40.64 22.8174 40.64C22.7839 40.64 22.7504 40.64 22.7169 40.64C22.6834 40.64 22.6499 40.64 22.6164 40.64C22.5829 40.64 22.5495 40.64 22.516 40.64C22.4825 40.64 22.4491 40.64 22.4156 40.64C22.3821 40.64 22.3487 40.64 22.3152 40.64C22.2818 40.64 22.2484 40.64 22.2149 40.64C22.1815 40.64 22.1481 40.64 22.1146 40.64C22.0812 40.64 22.0478 40.64 22.0144 40.64C21.981 40.64 21.9476 40.64 21.9142 40.64C21.8808 40.64 21.8475 40.64 21.8141 40.64C21.7807 40.64 21.7474 40.64 21.714 40.64C21.6807 40.64 21.6473 40.64 21.614 40.64C21.5806 40.64 21.5473 40.64 21.514 40.64C21.4807 40.64 21.4474 40.64 21.4141 40.64C21.3808 40.64 21.3475 40.64 21.3142 40.64C21.2809 40.64 21.2477 40.64 21.2144 40.64C21.1811 40.64 21.1479 40.64 21.1146 40.64C21.0814 40.64 21.0482 40.64 21.015 40.64C20.9817 40.64 20.9485 40.64 20.9153 40.64C20.8821 40.64 20.8489 40.64 20.8158 40.64C20.7826 40.64 20.7494 40.64 20.7163 40.64C20.6831 40.64 20.65 40.64 20.6169 40.64C20.5837 40.64 20.5506 40.64 20.5175 40.64C20.4844 40.64 20.4513 40.64 20.4182 40.64C20.3851 40.64 20.3521 40.64 20.319 40.64C20.286 40.64 20.2529 40.64 20.2199 40.64C20.1869 40.64 20.1538 40.64 20.1208 40.64C20.0878 40.64 20.0548 40.64 20.0219 40.64C19.9889 40.64 19.9559 40.64 19.923 40.64C19.89 40.64 19.8571 40.64 19.8242 40.64C19.7912 40.64 19.7583 40.64 19.7254 40.64C19.6925 40.64 19.6597 40.64 19.6268 40.64C19.5939 40.64 19.5611 40.64 19.5282 40.64C19.4954 40.64 19.4626 40.64 19.4298 40.64C19.397 40.64 19.3642 40.64 19.3314 40.64C19.2986 40.64 19.2659 40.64 19.2331 40.64C19.2004 40.64 19.1677 40.64 19.1349 40.64C19.1022 40.64 19.0695 40.64 19.0369 40.64C19.0042 40.64 18.9715 40.64 18.9389 40.64C18.9062 40.64 18.8736 40.64 18.841 40.64C18.8084 40.64 18.7758 40.64 18.7432 40.64C18.7106 40.64 18.6781 40.64 18.6455 40.64C18.613 40.64 18.5804 40.64 18.5479 40.64C18.5154 40.64 18.4829 40.64 18.4505 40.64C18.418 40.64 18.3855 40.64 18.3531 40.64C18.3207 40.64 18.2882 40.64 18.2558 40.64C18.2235 40.64 18.1911 40.64 18.1587 40.64C18.1263 40.64 18.094 40.64 18.0617 40.64C18.0294 40.64 17.9971 40.64 17.9648 40.64C17.9325 40.64 17.9002 40.64 17.868 40.64C17.8357 40.64 17.8035 40.64 17.7713 40.64C17.7391 40.64 17.7069 40.64 17.6747 40.64C17.6426 40.64 17.6104 40.64 17.5783 40.64C17.5462 40.64 17.5141 40.64 17.482 40.64C17.4499 40.64 17.4179 40.64 17.3858 40.64C17.3538 40.64 17.3218 40.64 17.2898 40.64C17.2578 40.64 17.2258 40.64 17.1938 40.64C17.1619 40.64 17.13 40.64 17.098 40.64C17.0661 40.64 17.0342 40.64 17.0024 40.64C16.9705 40.64 16.9387 40.64 16.9069 40.64C16.875 40.64 16.8432 40.64 16.8115 40.64C16.7797 40.64 16.7479 40.64 16.7162 40.64C16.6845 40.64 16.6528 40.64 16.6211 40.64C16.5894 40.64 16.5578 40.64 16.5261 40.64C16.4945 40.64 16.4629 40.64 16.4313 40.64C16.3997 40.64 16.3681 40.64 16.3366 40.64C16.3051 40.64 16.2736 40.64 16.2421 40.64C16.2106 40.64 16.1791 40.64 16.1477 40.64C16.1162 40.64 16.0848 40.64 16.0534 40.64C16.022 40.64 15.9907 40.64 15.9593 40.64C15.928 40.64 15.8967 40.64 15.8654 40.64C15.8341 40.64 15.8029 40.64 15.7716 40.64C15.7404 40.64 15.7092 40.64 15.678 40.64C15.6468 40.64 15.6157 40.64 15.5845 40.64C15.5534 40.64 15.5223 40.64 15.4912 40.64C15.4602 40.64 15.4291 40.64 15.3981 40.64C15.3671 40.64 15.3361 40.64 15.3051 40.64C15.2741 40.64 15.2432 40.64 15.2123 40.64C15.1814 40.64 15.1505 40.64 15.1196 40.64C15.0888 40.64 15.058 40.64 15.0272 40.64C14.9964 40.64 14.9656 40.64 14.9349 40.64C14.9041 40.64 14.8734 40.64 14.8427 40.64C14.812 40.64 14.7814 40.64 14.7508 40.64C14.7201 40.64 14.6895 40.64 14.659 40.64C14.6284 40.64 14.5979 40.64 14.5674 40.64C14.5369 40.64 14.5064 40.64 14.4759 40.64C14.4455 40.64 14.4151 40.64 14.3847 40.64C14.3543 40.64 14.3239 40.64 14.2936 40.64C14.2633 40.64 14.233 40.64 14.2027 40.64C14.1725 40.64 14.1422 40.64 14.112 40.64C14.0818 40.64 14.0517 40.64 14.0215 40.64C13.9914 40.64 13.9613 40.64 13.9312 40.64C13.9011 40.64 13.8711 40.64 13.8411 40.64C13.8111 40.64 13.7811 40.64 13.7512 40.64C13.7212 40.64 13.6913 40.64 13.6614 40.64C13.6315 40.64 13.6017 40.64 13.5719 40.64C13.5421 40.64 13.5123 40.64 13.4825 40.64C13.4528 40.64 13.4231 40.64 13.3934 40.64C13.3637 40.64 13.3341 40.64 13.3044 40.64C13.2748 40.64 13.2453 40.64 13.2157 40.64C13.1862 40.64 13.1567 40.64 13.1272 40.64C13.0977 40.64 13.0683 40.64 13.0388 40.64C13.0094 40.64 12.9801 40.64 12.9507 40.64C12.9214 40.64 12.8921 40.64 12.8628 40.64C12.8336 40.64 12.8043 40.64 12.7751 40.64C12.7459 40.64 12.7168 40.64 12.6876 40.64C12.6585 40.64 12.6294 40.64 12.6004 40.64C12.5713 40.64 12.5423 40.64 12.5133 40.64C12.4843 40.64 12.4554 40.64 12.4265 40.64C12.3976 40.64 12.3687 40.64 12.3399 40.64C12.311 40.64 12.2822 40.64 12.2535 40.64C12.2247 40.64 12.196 40.64 12.1673 40.64C12.1386 40.64 12.11 40.64 12.0814 40.64C12.0528 40.64 12.0242 40.64 11.9957 40.64C11.9671 40.64 11.9386 40.64 11.9102 40.64C11.8817 40.64 11.8533 40.64 11.8249 40.64C11.7966 40.64 11.7682 40.64 11.7399 40.64C11.7116 40.64 11.6834 40.64 11.6551 40.64C11.6269 40.64 11.5987 40.64 11.5706 40.64C11.5424 40.64 11.5143 40.64 11.4863 40.64C11.4582 40.64 11.4302 40.64 11.4022 40.64C11.3742 40.64 11.3463 40.64 11.3184 40.64C11.2905 40.64 11.2626 40.64 11.2348 40.64C11.207 40.64 11.1792 40.64 11.1514 40.64C11.1237 40.64 11.096 40.64 11.0683 40.64C11.0407 40.64 11.0131 40.64 10.9855 40.64C10.9579 40.64 10.9304 40.64 10.9029 40.64C10.8754 40.64 10.848 40.64 10.8206 40.64C10.7932 40.64 10.7658 40.64 10.7385 40.64C10.7111 40.64 10.6839 40.64 10.6566 40.64C10.6294 40.64 10.6022 40.64 10.575 40.64C10.5479 40.64 10.5208 40.64 10.4937 40.64C10.4667 40.64 10.4396 40.64 10.4127 40.64C10.3857 40.64 10.3588 40.64 10.3319 40.64C10.305 40.64 10.2781 40.64 10.2513 40.64C10.2245 40.64 10.1978 40.64 10.1711 40.64C10.1443 40.64 10.1177 40.64 10.091 40.64C10.0644 40.64 10.0378 40.64 10.0113 40.64C9.98478 40.64 9.95829 40.64 9.93185 40.64C9.9054 40.64 9.87901 40.64 9.85266 40.64C9.8263 40.64 9.8 40.64 9.77374 40.64C9.74748 40.64 9.72126 40.64 9.69509 40.64C9.66893 40.64 9.6428 40.64 9.61673 40.64C9.59065 40.64 9.56462 40.64 9.53864 40.64C9.51266 40.64 9.48672 40.64 9.46084 40.64C9.43495 40.64 9.40911 40.64 9.38331 40.64C9.35752 40.64 9.33177 40.64 9.30608 40.64C9.28038 40.64 9.25473 40.64 9.22912 40.64C9.20352 40.64 9.17797 40.64 9.15246 40.64C9.12695 40.64 9.10149 40.64 9.07608 40.64C9.05067 40.64 9.02531 40.64 9 40.64V54.64ZM54.72 47.64C54.72 46.2948 54.8073 45.3886 54.9218 44.7988C55.0366 44.207 55.1322 44.1811 54.9844 44.4029C54.9023 44.526 54.7705 44.6866 54.5832 44.8449C54.3952 45.0038 54.2097 45.1112 54.0627 45.1762C53.7897 45.297 53.8179 45.2 54.44 45.2V31.2C50.3856 31.2 46.0819 32.5177 43.3357 36.6371C41.0701 40.0354 40.72 44.2222 40.72 47.64H54.72ZM54.44 45.2C54.8363 45.2 54.9183 45.2518 54.7918 45.21C54.6349 45.1583 54.2931 45.005 53.9405 44.6595C53.585 44.3111 53.4163 43.9609 53.3546 43.7812C53.3043 43.6349 53.36 43.708 53.36 44.12H67.36C67.36 40.97 66.528 37.3933 63.7395 34.6605C60.9768 31.9531 57.4387 31.2 54.44 31.2V45.2ZM53.3608 44.0171C53.35 44.7488 53.0688 46.2691 47.4371 48.6883C44.8849 49.7847 42.055 50.7244 38.7875 51.868C35.6968 52.9498 32.2172 54.2149 29.1155 55.8373L35.6045 68.2427C37.7028 67.1451 40.3032 66.1702 43.4125 65.082C46.345 64.0556 49.8351 62.8953 52.9629 61.5517C58.6912 59.0909 67.21 54.3711 67.3592 44.2229L53.3608 44.0171ZM29.0569 55.8683C23.1622 59.0232 15.8832 63.4078 10.1486 70.5938C4.27427 77.955 0.4 87.7604 0.4 101.08H14.4C14.4 90.7196 17.3257 84.045 21.0914 79.3262C24.9968 74.4322 30.1978 71.1368 35.6631 68.2116L29.0569 55.8683ZM0.4 101.08L0.4 123H14.4L14.4 101.08H0.4ZM7.4 130H103.4V116H7.4V130ZM110.4 123V91H96.4V123H110.4ZM103.4 84H51.08L51.08 98H103.4V84ZM57.7916 92.9886C57.6017 93.6296 57.2511 93.5658 58.17 92.9979C59.1392 92.3988 60.7218 91.7359 63.1985 90.9484C67.5221 89.5738 75.1961 87.7419 81.7969 85.1284C88.7871 82.3608 96.3012 78.1735 101.912 70.9124C107.614 63.5318 110.797 53.6992 110.397 40.7043L96.4033 41.1357C96.7228 51.5008 94.2055 57.9882 90.8334 62.3526C87.3688 66.8365 82.4329 69.8192 76.6431 72.1116C70.4639 74.5581 65.0279 75.6762 58.9565 77.6066C56.2357 78.4716 53.2995 79.5499 50.8094 81.089C48.2689 82.6592 45.5183 85.1304 44.3684 89.0114L57.7916 92.9886ZM185.784 0.959991C168.996 0.959991 154.769 7.1405 144.867 19.0177C135.096 30.7388 130.144 47.2666 130.144 67H144.144C144.144 49.4534 148.552 36.4612 155.62 27.9823C162.559 19.6595 172.652 14.96 185.784 14.96V0.959991ZM130.144 67C130.144 86.7334 135.096 103.261 144.867 114.982C154.769 126.859 168.996 133.04 185.784 133.04V119.04C172.652 119.04 162.559 114.341 155.62 106.018C148.552 97.5388 144.144 84.5466 144.144 67H130.144ZM185.784 133.04C202.643 133.04 216.878 126.865 226.766 114.976C236.519 103.249 241.424 86.7195 241.424 67H227.424C227.424 84.5605 223.049 97.5509 216.002 106.024C209.09 114.335 199.004 119.04 185.784 119.04V133.04ZM241.424 67C241.424 47.2805 236.519 30.7509 226.766 19.0239C216.878 7.13493 202.643 0.959991 185.784 0.959991V14.96C199.004 14.96 209.09 19.6651 216.002 27.976C223.049 36.4491 227.424 49.4395 227.424 67H241.424ZM185.784 84.64C185.197 84.64 184.975 84.5066 184.803 84.3745C184.537 84.1698 183.985 83.606 183.379 82.219C182.102 79.294 181.264 74.2957 181.264 67H167.264C167.264 74.9043 168.106 82.226 170.549 87.821C171.803 90.694 173.621 93.4402 176.279 95.4805C179.032 97.5934 182.29 98.64 185.784 98.64V84.64ZM181.264 67C181.264 59.7043 182.102 54.706 183.379 51.781C183.985 50.394 184.537 49.8302 184.803 49.6255C184.975 49.4934 185.197 49.36 185.784 49.36V35.36C182.29 35.36 179.032 36.4066 176.279 38.5195C173.621 40.5598 171.803 43.306 170.549 46.179C168.106 51.774 167.264 59.0956 167.264 67H181.264ZM185.784 49.36C186.441 49.36 186.682 49.5113 186.845 49.636C187.102 49.8315 187.643 50.3787 188.238 51.7556C189.499 54.6751 190.304 59.6688 190.304 67H204.304C204.304 59.1312 203.509 51.8049 201.09 46.2044C199.845 43.3213 198.026 40.5585 195.342 38.509C192.565 36.3887 189.287 35.36 185.784 35.36V49.36ZM190.304 67C190.304 74.3312 189.499 79.3249 188.238 82.2444C187.643 83.6213 187.102 84.1685 186.845 84.364C186.682 84.4887 186.441 84.64 185.784 84.64V98.64C189.287 98.64 192.565 97.6113 195.342 95.491C198.026 93.4415 199.845 90.6787 201.09 87.7956C203.509 82.1951 204.304 74.8688 204.304 67H190.304ZM365.619 40.92L372.615 40.7043L372.615 40.6906L365.619 40.92ZM271.219 47.64H264.219V54.64H271.219V47.64ZM309.939 47.64V54.64H316.939V47.64H309.939ZM322.579 44.12L329.578 44.2229L329.579 44.1715V44.12H322.579ZM294.579 62.04L291.334 55.8373L291.305 55.8527L291.276 55.8683L294.579 62.04ZM269.619 123H262.619V130H269.619V123ZM365.619 123V130H372.619V123H365.619ZM365.619 91H372.619V84H365.619V91ZM313.299 91L306.587 89.0114L303.924 98H313.299V91ZM372.615 40.6906C372.335 32.1443 369.943 25.0602 365.891 19.3615C361.872 13.7077 356.499 9.80811 350.828 7.13012C339.685 1.86915 326.605 0.959991 317.459 0.959991V14.96C326.073 14.96 336.592 15.8908 344.85 19.7899C348.878 21.6919 352.156 24.2023 354.481 27.4735C356.775 30.6998 358.423 35.0557 358.623 41.1494L372.615 40.6906ZM317.459 0.959991C305.31 0.959991 292.169 3.80083 281.86 11.1909C271.232 18.8105 264.219 30.8668 264.219 47.64H278.219C278.219 35.2932 283.126 27.5095 290.017 22.5691C297.229 17.3992 307.207 14.96 317.459 14.96V0.959991ZM271.219 54.64C271.244 54.64 271.269 54.64 271.295 54.64C271.32 54.64 271.346 54.64 271.371 54.64C271.397 54.64 271.422 54.64 271.448 54.64C271.473 54.64 271.499 54.64 271.525 54.64C271.551 54.64 271.576 54.64 271.602 54.64C271.628 54.64 271.654 54.64 271.68 54.64C271.705 54.64 271.731 54.64 271.757 54.64C271.783 54.64 271.809 54.64 271.835 54.64C271.862 54.64 271.888 54.64 271.914 54.64C271.94 54.64 271.966 54.64 271.992 54.64C272.019 54.64 272.045 54.64 272.071 54.64C272.098 54.64 272.124 54.64 272.151 54.64C272.177 54.64 272.204 54.64 272.23 54.64C272.257 54.64 272.283 54.64 272.31 54.64C272.336 54.64 272.363 54.64 272.39 54.64C272.417 54.64 272.443 54.64 272.47 54.64C272.497 54.64 272.524 54.64 272.551 54.64C272.578 54.64 272.604 54.64 272.631 54.64C272.658 54.64 272.685 54.64 272.712 54.64C272.74 54.64 272.767 54.64 272.794 54.64C272.821 54.64 272.848 54.64 272.875 54.64C272.903 54.64 272.93 54.64 272.957 54.64C272.985 54.64 273.012 54.64 273.039 54.64C273.067 54.64 273.094 54.64 273.122 54.64C273.149 54.64 273.177 54.64 273.204 54.64C273.232 54.64 273.259 54.64 273.287 54.64C273.315 54.64 273.342 54.64 273.37 54.64C273.398 54.64 273.426 54.64 273.454 54.64C273.481 54.64 273.509 54.64 273.537 54.64C273.565 54.64 273.593 54.64 273.621 54.64C273.649 54.64 273.677 54.64 273.705 54.64C273.733 54.64 273.761 54.64 273.789 54.64C273.817 54.64 273.846 54.64 273.874 54.64C273.902 54.64 273.93 54.64 273.959 54.64C273.987 54.64 274.015 54.64 274.044 54.64C274.072 54.64 274.1 54.64 274.129 54.64C274.157 54.64 274.186 54.64 274.214 54.64C274.243 54.64 274.272 54.64 274.3 54.64C274.329 54.64 274.357 54.64 274.386 54.64C274.415 54.64 274.443 54.64 274.472 54.64C274.501 54.64 274.53 54.64 274.559 54.64C274.587 54.64 274.616 54.64 274.645 54.64C274.674 54.64 274.703 54.64 274.732 54.64C274.761 54.64 274.79 54.64 274.819 54.64C274.848 54.64 274.877 54.64 274.906 54.64C274.936 54.64 274.965 54.64 274.994 54.64C275.023 54.64 275.052 54.64 275.082 54.64C275.111 54.64 275.14 54.64 275.169 54.64C275.199 54.64 275.228 54.64 275.258 54.64C275.287 54.64 275.316 54.64 275.346 54.64C275.375 54.64 275.405 54.64 275.434 54.64C275.464 54.64 275.494 54.64 275.523 54.64C275.553 54.64 275.582 54.64 275.612 54.64C275.642 54.64 275.672 54.64 275.701 54.64C275.731 54.64 275.761 54.64 275.791 54.64C275.82 54.64 275.85 54.64 275.88 54.64C275.91 54.64 275.94 54.64 275.97 54.64C276 54.64 276.03 54.64 276.06 54.64C276.09 54.64 276.12 54.64 276.15 54.64C276.18 54.64 276.21 54.64 276.24 54.64C276.27 54.64 276.301 54.64 276.331 54.64C276.361 54.64 276.391 54.64 276.421 54.64C276.452 54.64 276.482 54.64 276.512 54.64C276.543 54.64 276.573 54.64 276.603 54.64C276.634 54.64 276.664 54.64 276.695 54.64C276.725 54.64 276.756 54.64 276.786 54.64C276.817 54.64 276.847 54.64 276.878 54.64C276.908 54.64 276.939 54.64 276.97 54.64C277 54.64 277.031 54.64 277.061 54.64C277.092 54.64 277.123 54.64 277.154 54.64C277.184 54.64 277.215 54.64 277.246 54.64C277.277 54.64 277.308 54.64 277.338 54.64C277.369 54.64 277.4 54.64 277.431 54.64C277.462 54.64 277.493 54.64 277.524 54.64C277.555 54.64 277.586 54.64 277.617 54.64C277.648 54.64 277.679 54.64 277.71 54.64C277.741 54.64 277.772 54.64 277.803 54.64C277.834 54.64 277.866 54.64 277.897 54.64C277.928 54.64 277.959 54.64 277.99 54.64C278.022 54.64 278.053 54.64 278.084 54.64C278.115 54.64 278.147 54.64 278.178 54.64C278.209 54.64 278.241 54.64 278.272 54.64C278.304 54.64 278.335 54.64 278.366 54.64C278.398 54.64 278.429 54.64 278.461 54.64C278.492 54.64 278.524 54.64 278.555 54.64C278.587 54.64 278.618 54.64 278.65 54.64C278.682 54.64 278.713 54.64 278.745 54.64C278.776 54.64 278.808 54.64 278.84 54.64C278.872 54.64 278.903 54.64 278.935 54.64C278.967 54.64 278.998 54.64 279.03 54.64C279.062 54.64 279.094 54.64 279.126 54.64C279.157 54.64 279.189 54.64 279.221 54.64C279.253 54.64 279.285 54.64 279.317 54.64C279.349 54.64 279.381 54.64 279.413 54.64C279.445 54.64 279.477 54.64 279.509 54.64C279.541 54.64 279.573 54.64 279.605 54.64C279.637 54.64 279.669 54.64 279.701 54.64C279.733 54.64 279.765 54.64 279.797 54.64C279.829 54.64 279.861 54.64 279.893 54.64C279.926 54.64 279.958 54.64 279.99 54.64C280.022 54.64 280.054 54.64 280.087 54.64C280.119 54.64 280.151 54.64 280.184 54.64C280.216 54.64 280.248 54.64 280.28 54.64C280.313 54.64 280.345 54.64 280.377 54.64C280.41 54.64 280.442 54.64 280.475 54.64C280.507 54.64 280.539 54.64 280.572 54.64C280.604 54.64 280.637 54.64 280.669 54.64C280.702 54.64 280.734 54.64 280.767 54.64C280.799 54.64 280.832 54.64 280.864 54.64C280.897 54.64 280.929 54.64 280.962 54.64C280.995 54.64 281.027 54.64 281.06 54.64C281.092 54.64 281.125 54.64 281.158 54.64C281.19 54.64 281.223 54.64 281.256 54.64C281.288 54.64 281.321 54.64 281.354 54.64C281.386 54.64 281.419 54.64 281.452 54.64C281.485 54.64 281.517 54.64 281.55 54.64C281.583 54.64 281.616 54.64 281.649 54.64C281.681 54.64 281.714 54.64 281.747 54.64C281.78 54.64 281.813 54.64 281.846 54.64C281.878 54.64 281.911 54.64 281.944 54.64C281.977 54.64 282.01 54.64 282.043 54.64C282.076 54.64 282.109 54.64 282.142 54.64C282.175 54.64 282.208 54.64 282.241 54.64C282.274 54.64 282.307 54.64 282.34 54.64C282.373 54.64 282.406 54.64 282.439 54.64C282.472 54.64 282.505 54.64 282.538 54.64C282.571 54.64 282.604 54.64 282.637 54.64C282.67 54.64 282.703 54.64 282.736 54.64C282.769 54.64 282.802 54.64 282.836 54.64C282.869 54.64 282.902 54.64 282.935 54.64C282.968 54.64 283.001 54.64 283.035 54.64C283.068 54.64 283.101 54.64 283.134 54.64C283.167 54.64 283.2 54.64 283.234 54.64C283.267 54.64 283.3 54.64 283.333 54.64C283.367 54.64 283.4 54.64 283.433 54.64C283.466 54.64 283.5 54.64 283.533 54.64C283.566 54.64 283.6 54.64 283.633 54.64C283.666 54.64 283.699 54.64 283.733 54.64C283.766 54.64 283.799 54.64 283.833 54.64C283.866 54.64 283.899 54.64 283.933 54.64C283.966 54.64 283.999 54.64 284.033 54.64C284.066 54.64 284.1 54.64 284.133 54.64C284.166 54.64 284.2 54.64 284.233 54.64C284.267 54.64 284.3 54.64 284.333 54.64C284.367 54.64 284.4 54.64 284.434 54.64C284.467 54.64 284.501 54.64 284.534 54.64C284.567 54.64 284.601 54.64 284.634 54.64C284.668 54.64 284.701 54.64 284.735 54.64C284.768 54.64 284.802 54.64 284.835 54.64C284.869 54.64 284.902 54.64 284.936 54.64C284.969 54.64 285.003 54.64 285.036 54.64C285.07 54.64 285.103 54.64 285.137 54.64C285.17 54.64 285.204 54.64 285.237 54.64C285.271 54.64 285.304 54.64 285.338 54.64C285.371 54.64 285.405 54.64 285.439 54.64C285.472 54.64 285.506 54.64 285.539 54.64C285.573 54.64 285.606 54.64 285.64 54.64C285.673 54.64 285.707 54.64 285.741 54.64C285.774 54.64 285.808 54.64 285.841 54.64C285.875 54.64 285.908 54.64 285.942 54.64C285.976 54.64 286.009 54.64 286.043 54.64C286.076 54.64 286.11 54.64 286.144 54.64C286.177 54.64 286.211 54.64 286.244 54.64C286.278 54.64 286.311 54.64 286.345 54.64C286.379 54.64 286.412 54.64 286.446 54.64C286.48 54.64 286.513 54.64 286.547 54.64C286.58 54.64 286.614 54.64 286.648 54.64C286.681 54.64 286.715 54.64 286.748 54.64C286.782 54.64 286.816 54.64 286.849 54.64C286.883 54.64 286.916 54.64 286.95 54.64C286.984 54.64 287.017 54.64 287.051 54.64C287.085 54.64 287.118 54.64 287.152 54.64C287.185 54.64 287.219 54.64 287.253 54.64C287.286 54.64 287.32 54.64 287.353 54.64C287.387 54.64 287.421 54.64 287.454 54.64C287.488 54.64 287.521 54.64 287.555 54.64C287.589 54.64 287.622 54.64 287.656 54.64C287.689 54.64 287.723 54.64 287.757 54.64C287.79 54.64 287.824 54.64 287.857 54.64C287.891 54.64 287.924 54.64 287.958 54.64C287.992 54.64 288.025 54.64 288.059 54.64C288.092 54.64 288.126 54.64 288.16 54.64C288.193 54.64 288.227 54.64 288.26 54.64C288.294 54.64 288.327 54.64 288.361 54.64C288.394 54.64 288.428 54.64 288.462 54.64C288.495 54.64 288.529 54.64 288.562 54.64C288.596 54.64 288.629 54.64 288.663 54.64C288.696 54.64 288.73 54.64 288.763 54.64C288.797 54.64 288.83 54.64 288.864 54.64C288.897 54.64 288.931 54.64 288.964 54.64C288.998 54.64 289.031 54.64 289.065 54.64C289.098 54.64 289.132 54.64 289.165 54.64C289.199 54.64 289.232 54.64 289.266 54.64C289.299 54.64 289.333 54.64 289.366 54.64C289.4 54.64 289.433 54.64 289.466 54.64C289.5 54.64 289.533 54.64 289.567 54.64C289.6 54.64 289.633 54.64 289.667 54.64C289.7 54.64 289.734 54.64 289.767 54.64C289.8 54.64 289.834 54.64 289.867 54.64C289.901 54.64 289.934 54.64 289.967 54.64C290.001 54.64 290.034 54.64 290.067 54.64C290.101 54.64 290.134 54.64 290.167 54.64C290.201 54.64 290.234 54.64 290.267 54.64C290.301 54.64 290.334 54.64 290.367 54.64C290.4 54.64 290.434 54.64 290.467 54.64C290.5 54.64 290.533 54.64 290.567 54.64C290.6 54.64 290.633 54.64 290.666 54.64C290.7 54.64 290.733 54.64 290.766 54.64C290.799 54.64 290.832 54.64 290.865 54.64C290.899 54.64 290.932 54.64 290.965 54.64C290.998 54.64 291.031 54.64 291.064 54.64C291.098 54.64 291.131 54.64 291.164 54.64C291.197 54.64 291.23 54.64 291.263 54.64C291.296 54.64 291.329 54.64 291.362 54.64C291.395 54.64 291.428 54.64 291.461 54.64C291.494 54.64 291.527 54.64 291.56 54.64C291.593 54.64 291.626 54.64 291.659 54.64C291.692 54.64 291.725 54.64 291.758 54.64C291.791 54.64 291.824 54.64 291.857 54.64C291.89 54.64 291.923 54.64 291.956 54.64C291.989 54.64 292.022 54.64 292.054 54.64C292.087 54.64 292.12 54.64 292.153 54.64C292.186 54.64 292.219 54.64 292.251 54.64C292.284 54.64 292.317 54.64 292.35 54.64C292.383 54.64 292.415 54.64 292.448 54.64C292.481 54.64 292.513 54.64 292.546 54.64C292.579 54.64 292.612 54.64 292.644 54.64C292.677 54.64 292.71 54.64 292.742 54.64C292.775 54.64 292.807 54.64 292.84 54.64C292.873 54.64 292.905 54.64 292.938 54.64C292.97 54.64 293.003 54.64 293.036 54.64C293.068 54.64 293.101 54.64 293.133 54.64C293.166 54.64 293.198 54.64 293.231 54.64C293.263 54.64 293.296 54.64 293.328 54.64C293.36 54.64 293.393 54.64 293.425 54.64C293.458 54.64 293.49 54.64 293.522 54.64C293.555 54.64 293.587 54.64 293.619 54.64C293.652 54.64 293.684 54.64 293.716 54.64C293.749 54.64 293.781 54.64 293.813 54.64C293.845 54.64 293.878 54.64 293.91 54.64C293.942 54.64 293.974 54.64 294.006 54.64C294.038 54.64 294.071 54.64 294.103 54.64C294.135 54.64 294.167 54.64 294.199 54.64C294.231 54.64 294.263 54.64 294.295 54.64C294.327 54.64 294.359 54.64 294.391 54.64C294.423 54.64 294.455 54.64 294.487 54.64C294.519 54.64 294.551 54.64 294.583 54.64C294.615 54.64 294.647 54.64 294.679 54.64C294.71 54.64 294.742 54.64 294.774 54.64C294.806 54.64 294.838 54.64 294.869 54.64C294.901 54.64 294.933 54.64 294.965 54.64C294.996 54.64 295.028 54.64 295.06 54.64C295.091 54.64 295.123 54.64 295.155 54.64C295.186 54.64 295.218 54.64 295.25 54.64C295.281 54.64 295.313 54.64 295.344 54.64C295.376 54.64 295.407 54.64 295.439 54.64C295.47 54.64 295.502 54.64 295.533 54.64C295.565 54.64 295.596 54.64 295.627 54.64C295.659 54.64 295.69 54.64 295.721 54.64C295.753 54.64 295.784 54.64 295.815 54.64C295.847 54.64 295.878 54.64 295.909 54.64C295.94 54.64 295.972 54.64 296.003 54.64C296.034 54.64 296.065 54.64 296.096 54.64C296.127 54.64 296.158 54.64 296.189 54.64C296.221 54.64 296.252 54.64 296.283 54.64C296.314 54.64 296.345 54.64 296.376 54.64C296.407 54.64 296.437 54.64 296.468 54.64C296.499 54.64 296.53 54.64 296.561 54.64C296.592 54.64 296.623 54.64 296.653 54.64C296.684 54.64 296.715 54.64 296.746 54.64C296.777 54.64 296.807 54.64 296.838 54.64C296.869 54.64 296.899 54.64 296.93 54.64C296.96 54.64 296.991 54.64 297.022 54.64C297.052 54.64 297.083 54.64 297.113 54.64C297.144 54.64 297.174 54.64 297.205 54.64C297.235 54.64 297.265 54.64 297.296 54.64C297.326 54.64 297.357 54.64 297.387 54.64C297.417 54.64 297.448 54.64 297.478 54.64C297.508 54.64 297.538 54.64 297.568 54.64C297.599 54.64 297.629 54.64 297.659 54.64C297.689 54.64 297.719 54.64 297.749 54.64C297.779 54.64 297.809 54.64 297.839 54.64C297.869 54.64 297.899 54.64 297.929 54.64C297.959 54.64 297.989 54.64 298.019 54.64C298.049 54.64 298.079 54.64 298.109 54.64C298.138 54.64 298.168 54.64 298.198 54.64C298.228 54.64 298.257 54.64 298.287 54.64C298.317 54.64 298.346 54.64 298.376 54.64C298.406 54.64 298.435 54.64 298.465 54.64C298.494 54.64 298.524 54.64 298.553 54.64C298.583 54.64 298.612 54.64 298.641 54.64C298.671 54.64 298.7 54.64 298.73 54.64C298.759 54.64 298.788 54.64 298.817 54.64C298.847 54.64 298.876 54.64 298.905 54.64C298.934 54.64 298.963 54.64 298.993 54.64C299.022 54.64 299.051 54.64 299.08 54.64C299.109 54.64 299.138 54.64 299.167 54.64C299.196 54.64 299.225 54.64 299.254 54.64C299.283 54.64 299.311 54.64 299.34 54.64C299.369 54.64 299.398 54.64 299.427 54.64C299.455 54.64 299.484 54.64 299.513 54.64C299.541 54.64 299.57 54.64 299.599 54.64C299.627 54.64 299.656 54.64 299.684 54.64C299.713 54.64 299.741 54.64 299.77 54.64C299.798 54.64 299.827 54.64 299.855 54.64C299.883 54.64 299.912 54.64 299.94 54.64C299.968 54.64 299.997 54.64 300.025 54.64C300.053 54.64 300.081 54.64 300.109 54.64C300.138 54.64 300.166 54.64 300.194 54.64C300.222 54.64 300.25 54.64 300.278 54.64C300.306 54.64 300.334 54.64 300.362 54.64C300.389 54.64 300.417 54.64 300.445 54.64C300.473 54.64 300.501 54.64 300.528 54.64C300.556 54.64 300.584 54.64 300.612 54.64C300.639 54.64 300.667 54.64 300.694 54.64C300.722 54.64 300.749 54.64 300.777 54.64C300.804 54.64 300.832 54.64 300.859 54.64C300.887 54.64 300.914 54.64 300.941 54.64C300.969 54.64 300.996 54.64 301.023 54.64C301.05 54.64 301.078 54.64 301.105 54.64C301.132 54.64 301.159 54.64 301.186 54.64C301.213 54.64 301.24 54.64 301.267 54.64C301.294 54.64 301.321 54.64 301.348 54.64C301.375 54.64 301.402 54.64 301.428 54.64C301.455 54.64 301.482 54.64 301.509 54.64C301.535 54.64 301.562 54.64 301.589 54.64C301.615 54.64 301.642 54.64 301.668 54.64C301.695 54.64 301.721 54.64 301.748 54.64C301.774 54.64 301.801 54.64 301.827 54.64C301.853 54.64 301.88 54.64 301.906 54.64C301.932 54.64 301.958 54.64 301.984 54.64C302.011 54.64 302.037 54.64 302.063 54.64C302.089 54.64 302.115 54.64 302.141 54.64C302.167 54.64 302.193 54.64 302.219 54.64C302.244 54.64 302.27 54.64 302.296 54.64C302.322 54.64 302.348 54.64 302.373 54.64C302.399 54.64 302.425 54.64 302.45 54.64C302.476 54.64 302.501 54.64 302.527 54.64C302.552 54.64 302.578 54.64 302.603 54.64C302.629 54.64 302.654 54.64 302.679 54.64C302.705 54.64 302.73 54.64 302.755 54.64C302.78 54.64 302.805 54.64 302.831 54.64C302.856 54.64 302.881 54.64 302.906 54.64C302.931 54.64 302.956 54.64 302.981 54.64C303.005 54.64 303.03 54.64 303.055 54.64C303.08 54.64 303.105 54.64 303.129 54.64C303.154 54.64 303.179 54.64 303.203 54.64C303.228 54.64 303.253 54.64 303.277 54.64C303.302 54.64 303.326 54.64 303.35 54.64C303.375 54.64 303.399 54.64 303.423 54.64C303.448 54.64 303.472 54.64 303.496 54.64C303.52 54.64 303.545 54.64 303.569 54.64C303.593 54.64 303.617 54.64 303.641 54.64C303.665 54.64 303.689 54.64 303.713 54.64C303.736 54.64 303.76 54.64 303.784 54.64C303.808 54.64 303.832 54.64 303.855 54.64C303.879 54.64 303.902 54.64 303.926 54.64C303.95 54.64 303.973 54.64 303.997 54.64C304.02 54.64 304.043 54.64 304.067 54.64C304.09 54.64 304.113 54.64 304.137 54.64C304.16 54.64 304.183 54.64 304.206 54.64C304.229 54.64 304.252 54.64 304.275 54.64C304.298 54.64 304.321 54.64 304.344 54.64C304.367 54.64 304.39 54.64 304.413 54.64C304.436 54.64 304.458 54.64 304.481 54.64C304.504 54.64 304.526 54.64 304.549 54.64C304.571 54.64 304.594 54.64 304.616 54.64C304.639 54.64 304.661 54.64 304.684 54.64C304.706 54.64 304.728 54.64 304.75 54.64C304.773 54.64 304.795 54.64 304.817 54.64C304.839 54.64 304.861 54.64 304.883 54.64C304.905 54.64 304.927 54.64 304.949 54.64C304.971 54.64 304.993 54.64 305.014 54.64C305.036 54.64 305.058 54.64 305.08 54.64C305.101 54.64 305.123 54.64 305.144 54.64C305.166 54.64 305.187 54.64 305.209 54.64C305.23 54.64 305.252 54.64 305.273 54.64C305.294 54.64 305.315 54.64 305.337 54.64C305.358 54.64 305.379 54.64 305.4 54.64C305.421 54.64 305.442 54.64 305.463 54.64C305.484 54.64 305.505 54.64 305.526 54.64C305.546 54.64 305.567 54.64 305.588 54.64C305.609 54.64 305.629 54.64 305.65 54.64C305.67 54.64 305.691 54.64 305.711 54.64C305.732 54.64 305.752 54.64 305.772 54.64C305.793 54.64 305.813 54.64 305.833 54.64C305.853 54.64 305.874 54.64 305.894 54.64C305.914 54.64 305.934 54.64 305.954 54.64C305.974 54.64 305.994 54.64 306.013 54.64C306.033 54.64 306.053 54.64 306.073 54.64C306.092 54.64 306.112 54.64 306.132 54.64C306.151 54.64 306.171 54.64 306.19 54.64C306.21 54.64 306.229 54.64 306.248 54.64C306.268 54.64 306.287 54.64 306.306 54.64C306.325 54.64 306.344 54.64 306.363 54.64C306.382 54.64 306.401 54.64 306.42 54.64C306.439 54.64 306.458 54.64 306.477 54.64C306.496 54.64 306.514 54.64 306.533 54.64C306.552 54.64 306.57 54.64 306.589 54.64C306.608 54.64 306.626 54.64 306.644 54.64C306.663 54.64 306.681 54.64 306.699 54.64C306.718 54.64 306.736 54.64 306.754 54.64C306.772 54.64 306.79 54.64 306.808 54.64C306.826 54.64 306.844 54.64 306.862 54.64C306.88 54.64 306.898 54.64 306.916 54.64C306.933 54.64 306.951 54.64 306.969 54.64C306.986 54.64 307.004 54.64 307.021 54.64C307.039 54.64 307.056 54.64 307.073 54.64C307.091 54.64 307.108 54.64 307.125 54.64C307.142 54.64 307.159 54.64 307.177 54.64C307.194 54.64 307.211 54.64 307.228 54.64C307.244 54.64 307.261 54.64 307.278 54.64C307.295 54.64 307.312 54.64 307.328 54.64C307.345 54.64 307.361 54.64 307.378 54.64C307.394 54.64 307.411 54.64 307.427 54.64C307.444 54.64 307.46 54.64 307.476 54.64C307.492 54.64 307.508 54.64 307.525 54.64C307.541 54.64 307.557 54.64 307.573 54.64C307.588 54.64 307.604 54.64 307.62 54.64C307.636 54.64 307.652 54.64 307.667 54.64C307.683 54.64 307.699 54.64 307.714 54.64C307.73 54.64 307.745 54.64 307.76 54.64C307.776 54.64 307.791 54.64 307.806 54.64C307.821 54.64 307.837 54.64 307.852 54.64C307.867 54.64 307.882 54.64 307.897 54.64C307.912 54.64 307.926 54.64 307.941 54.64C307.956 54.64 307.971 54.64 307.985 54.64C308 54.64 308.014 54.64 308.029 54.64C308.043 54.64 308.058 54.64 308.072 54.64C308.086 54.64 308.101 54.64 308.115 54.64C308.129 54.64 308.143 54.64 308.157 54.64C308.171 54.64 308.185 54.64 308.199 54.64C308.213 54.64 308.227 54.64 308.241 54.64C308.254 54.64 308.268 54.64 308.282 54.64C308.295 54.64 308.309 54.64 308.322 54.64C308.335 54.64 308.349 54.64 308.362 54.64C308.375 54.64 308.389 54.64 308.402 54.64C308.415 54.64 308.428 54.64 308.441 54.64C308.454 54.64 308.467 54.64 308.48 54.64C308.492 54.64 308.505 54.64 308.518 54.64C308.53 54.64 308.543 54.64 308.555 54.64C308.568 54.64 308.58 54.64 308.593 54.64C308.605 54.64 308.617 54.64 308.63 54.64C308.642 54.64 308.654 54.64 308.666 54.64C308.678 54.64 308.69 54.64 308.702 54.64C308.714 54.64 308.725 54.64 308.737 54.64C308.749 54.64 308.761 54.64 308.772 54.64C308.784 54.64 308.795 54.64 308.807 54.64C308.818 54.64 308.829 54.64 308.841 54.64C308.852 54.64 308.863 54.64 308.874 54.64C308.885 54.64 308.896 54.64 308.907 54.64C308.918 54.64 308.929 54.64 308.94 54.64C308.95 54.64 308.961 54.64 308.972 54.64C308.982 54.64 308.993 54.64 309.003 54.64C309.014 54.64 309.024 54.64 309.034 54.64C309.044 54.64 309.055 54.64 309.065 54.64C309.075 54.64 309.085 54.64 309.095 54.64C309.105 54.64 309.115 54.64 309.124 54.64C309.134 54.64 309.144 54.64 309.153 54.64C309.163 54.64 309.173 54.64 309.182 54.64C309.191 54.64 309.201 54.64 309.21 54.64C309.219 54.64 309.229 54.64 309.238 54.64C309.247 54.64 309.256 54.64 309.265 54.64C309.274 54.64 309.283 54.64 309.291 54.64C309.3 54.64 309.309 54.64 309.317 54.64C309.326 54.64 309.335 54.64 309.343 54.64C309.351 54.64 309.36 54.64 309.368 54.64C309.376 54.64 309.384 54.64 309.392 54.64C309.401 54.64 309.409 54.64 309.417 54.64C309.424 54.64 309.432 54.64 309.44 54.64C309.448 54.64 309.455 54.64 309.463 54.64C309.471 54.64 309.478 54.64 309.485 54.64C309.493 54.64 309.5 54.64 309.507 54.64C309.515 54.64 309.522 54.64 309.529 54.64C309.536 54.64 309.543 54.64 309.55 54.64C309.557 54.64 309.563 54.64 309.57 54.64C309.577 54.64 309.583 54.64 309.59 54.64C309.596 54.64 309.603 54.64 309.609 54.64C309.616 54.64 309.622 54.64 309.628 54.64C309.634 54.64 309.64 54.64 309.646 54.64C309.652 54.64 309.658 54.64 309.664 54.64C309.67 54.64 309.676 54.64 309.681 54.64C309.687 54.64 309.692 54.64 309.698 54.64C309.703 54.64 309.709 54.64 309.714 54.64C309.719 54.64 309.724 54.64 309.729 54.64C309.735 54.64 309.74 54.64 309.745 54.64C309.749 54.64 309.754 54.64 309.759 54.64C309.764 54.64 309.768 54.64 309.773 54.64C309.777 54.64 309.782 54.64 309.786 54.64C309.791 54.64 309.795 54.64 309.799 54.64C309.803 54.64 309.807 54.64 309.811 54.64C309.815 54.64 309.819 54.64 309.823 54.64C309.827 54.64 309.831 54.64 309.834 54.64C309.838 54.64 309.841 54.64 309.845 54.64C309.848 54.64 309.852 54.64 309.855 54.64C309.858 54.64 309.861 54.64 309.864 54.64C309.868 54.64 309.871 54.64 309.873 54.64C309.876 54.64 309.879 54.64 309.882 54.64C309.884 54.64 309.887 54.64 309.89 54.64C309.892 54.64 309.894 54.64 309.897 54.64C309.899 54.64 309.901 54.64 309.903 54.64C309.906 54.64 309.908 54.64 309.91 54.64C309.911 54.64 309.913 54.64 309.915 54.64C309.917 54.64 309.918 54.64 309.92 54.64C309.922 54.64 309.923 54.64 309.924 54.64C309.926 54.64 309.927 54.64 309.928 54.64C309.929 54.64 309.93 54.64 309.931 54.64C309.932 54.64 309.933 54.64 309.934 54.64C309.935 54.64 309.936 54.64 309.936 54.64C309.937 54.64 309.937 54.64 309.938 54.64C309.938 54.64 309.938 54.64 309.938 54.64C309.939 54.64 309.939 54.64 309.939 47.64C309.939 40.64 309.939 40.64 309.938 40.64C309.938 40.64 309.938 40.64 309.938 40.64C309.937 40.64 309.937 40.64 309.936 40.64C309.936 40.64 309.935 40.64 309.934 40.64C309.933 40.64 309.932 40.64 309.931 40.64C309.93 40.64 309.929 40.64 309.928 40.64C309.927 40.64 309.926 40.64 309.924 40.64C309.923 40.64 309.922 40.64 309.92 40.64C309.918 40.64 309.917 40.64 309.915 40.64C309.913 40.64 309.911 40.64 309.91 40.64C309.908 40.64 309.906 40.64 309.903 40.64C309.901 40.64 309.899 40.64 309.897 40.64C309.894 40.64 309.892 40.64 309.89 40.64C309.887 40.64 309.884 40.64 309.882 40.64C309.879 40.64 309.876 40.64 309.873 40.64C309.871 40.64 309.868 40.64 309.864 40.64C309.861 40.64 309.858 40.64 309.855 40.64C309.852 40.64 309.848 40.64 309.845 40.64C309.841 40.64 309.838 40.64 309.834 40.64C309.831 40.64 309.827 40.64 309.823 40.64C309.819 40.64 309.815 40.64 309.811 40.64C309.807 40.64 309.803 40.64 309.799 40.64C309.795 40.64 309.791 40.64 309.786 40.64C309.782 40.64 309.777 40.64 309.773 40.64C309.768 40.64 309.764 40.64 309.759 40.64C309.754 40.64 309.749 40.64 309.745 40.64C309.74 40.64 309.735 40.64 309.729 40.64C309.724 40.64 309.719 40.64 309.714 40.64C309.709 40.64 309.703 40.64 309.698 40.64C309.692 40.64 309.687 40.64 309.681 40.64C309.676 40.64 309.67 40.64 309.664 40.64C309.658 40.64 309.652 40.64 309.646 40.64C309.64 40.64 309.634 40.64 309.628 40.64C309.622 40.64 309.616 40.64 309.609 40.64C309.603 40.64 309.596 40.64 309.59 40.64C309.583 40.64 309.577 40.64 309.57 40.64C309.563 40.64 309.557 40.64 309.55 40.64C309.543 40.64 309.536 40.64 309.529 40.64C309.522 40.64 309.515 40.64 309.507 40.64C309.5 40.64 309.493 40.64 309.485 40.64C309.478 40.64 309.471 40.64 309.463 40.64C309.455 40.64 309.448 40.64 309.44 40.64C309.432 40.64 309.424 40.64 309.417 40.64C309.409 40.64 309.401 40.64 309.392 40.64C309.384 40.64 309.376 40.64 309.368 40.64C309.36 40.64 309.351 40.64 309.343 40.64C309.335 40.64 309.326 40.64 309.317 40.64C309.309 40.64 309.3 40.64 309.291 40.64C309.283 40.64 309.274 40.64 309.265 40.64C309.256 40.64 309.247 40.64 309.238 40.64C309.229 40.64 309.219 40.64 309.21 40.64C309.201 40.64 309.191 40.64 309.182 40.64C309.173 40.64 309.163 40.64 309.153 40.64C309.144 40.64 309.134 40.64 309.124 40.64C309.115 40.64 309.105 40.64 309.095 40.64C309.085 40.64 309.075 40.64 309.065 40.64C309.055 40.64 309.044 40.64 309.034 40.64C309.024 40.64 309.014 40.64 309.003 40.64C308.993 40.64 308.982 40.64 308.972 40.64C308.961 40.64 308.95 40.64 308.94 40.64C308.929 40.64 308.918 40.64 308.907 40.64C308.896 40.64 308.885 40.64 308.874 40.64C308.863 40.64 308.852 40.64 308.841 40.64C308.829 40.64 308.818 40.64 308.807 40.64C308.795 40.64 308.784 40.64 308.772 40.64C308.761 40.64 308.749 40.64 308.737 40.64C308.725 40.64 308.714 40.64 308.702 40.64C308.69 40.64 308.678 40.64 308.666 40.64C308.654 40.64 308.642 40.64 308.63 40.64C308.617 40.64 308.605 40.64 308.593 40.64C308.58 40.64 308.568 40.64 308.555 40.64C308.543 40.64 308.53 40.64 308.518 40.64C308.505 40.64 308.492 40.64 308.48 40.64C308.467 40.64 308.454 40.64 308.441 40.64C308.428 40.64 308.415 40.64 308.402 40.64C308.389 40.64 308.375 40.64 308.362 40.64C308.349 40.64 308.335 40.64 308.322 40.64C308.309 40.64 308.295 40.64 308.282 40.64C308.268 40.64 308.254 40.64 308.241 40.64C308.227 40.64 308.213 40.64 308.199 40.64C308.185 40.64 308.171 40.64 308.157 40.64C308.143 40.64 308.129 40.64 308.115 40.64C308.101 40.64 308.086 40.64 308.072 40.64C308.058 40.64 308.043 40.64 308.029 40.64C308.014 40.64 308 40.64 307.985 40.64C307.971 40.64 307.956 40.64 307.941 40.64C307.926 40.64 307.912 40.64 307.897 40.64C307.882 40.64 307.867 40.64 307.852 40.64C307.837 40.64 307.821 40.64 307.806 40.64C307.791 40.64 307.776 40.64 307.76 40.64C307.745 40.64 307.73 40.64 307.714 40.64C307.699 40.64 307.683 40.64 307.667 40.64C307.652 40.64 307.636 40.64 307.62 40.64C307.604 40.64 307.588 40.64 307.573 40.64C307.557 40.64 307.541 40.64 307.525 40.64C307.508 40.64 307.492 40.64 307.476 40.64C307.46 40.64 307.444 40.64 307.427 40.64C307.411 40.64 307.394 40.64 307.378 40.64C307.361 40.64 307.345 40.64 307.328 40.64C307.312 40.64 307.295 40.64 307.278 40.64C307.261 40.64 307.244 40.64 307.228 40.64C307.211 40.64 307.194 40.64 307.177 40.64C307.159 40.64 307.142 40.64 307.125 40.64C307.108 40.64 307.091 40.64 307.073 40.64C307.056 40.64 307.039 40.64 307.021 40.64C307.004 40.64 306.986 40.64 306.969 40.64C306.951 40.64 306.933 40.64 306.916 40.64C306.898 40.64 306.88 40.64 306.862 40.64C306.844 40.64 306.826 40.64 306.808 40.64C306.79 40.64 306.772 40.64 306.754 40.64C306.736 40.64 306.718 40.64 306.699 40.64C306.681 40.64 306.663 40.64 306.644 40.64C306.626 40.64 306.608 40.64 306.589 40.64C306.57 40.64 306.552 40.64 306.533 40.64C306.514 40.64 306.496 40.64 306.477 40.64C306.458 40.64 306.439 40.64 306.42 40.64C306.401 40.64 306.382 40.64 306.363 40.64C306.344 40.64 306.325 40.64 306.306 40.64C306.287 40.64 306.268 40.64 306.248 40.64C306.229 40.64 306.21 40.64 306.19 40.64C306.171 40.64 306.151 40.64 306.132 40.64C306.112 40.64 306.092 40.64 306.073 40.64C306.053 40.64 306.033 40.64 306.013 40.64C305.994 40.64 305.974 40.64 305.954 40.64C305.934 40.64 305.914 40.64 305.894 40.64C305.874 40.64 305.853 40.64 305.833 40.64C305.813 40.64 305.793 40.64 305.772 40.64C305.752 40.64 305.732 40.64 305.711 40.64C305.691 40.64 305.67 40.64 305.65 40.64C305.629 40.64 305.609 40.64 305.588 40.64C305.567 40.64 305.546 40.64 305.526 40.64C305.505 40.64 305.484 40.64 305.463 40.64C305.442 40.64 305.421 40.64 305.4 40.64C305.379 40.64 305.358 40.64 305.337 40.64C305.315 40.64 305.294 40.64 305.273 40.64C305.252 40.64 305.23 40.64 305.209 40.64C305.187 40.64 305.166 40.64 305.144 40.64C305.123 40.64 305.101 40.64 305.08 40.64C305.058 40.64 305.036 40.64 305.014 40.64C304.993 40.64 304.971 40.64 304.949 40.64C304.927 40.64 304.905 40.64 304.883 40.64C304.861 40.64 304.839 40.64 304.817 40.64C304.795 40.64 304.773 40.64 304.75 40.64C304.728 40.64 304.706 40.64 304.684 40.64C304.661 40.64 304.639 40.64 304.616 40.64C304.594 40.64 304.571 40.64 304.549 40.64C304.526 40.64 304.504 40.64 304.481 40.64C304.458 40.64 304.436 40.64 304.413 40.64C304.39 40.64 304.367 40.64 304.344 40.64C304.321 40.64 304.298 40.64 304.275 40.64C304.252 40.64 304.229 40.64 304.206 40.64C304.183 40.64 304.16 40.64 304.137 40.64C304.113 40.64 304.09 40.64 304.067 40.64C304.043 40.64 304.02 40.64 303.997 40.64C303.973 40.64 303.95 40.64 303.926 40.64C303.902 40.64 303.879 40.64 303.855 40.64C303.832 40.64 303.808 40.64 303.784 40.64C303.76 40.64 303.736 40.64 303.713 40.64C303.689 40.64 303.665 40.64 303.641 40.64C303.617 40.64 303.593 40.64 303.569 40.64C303.545 40.64 303.52 40.64 303.496 40.64C303.472 40.64 303.448 40.64 303.423 40.64C303.399 40.64 303.375 40.64 303.35 40.64C303.326 40.64 303.302 40.64 303.277 40.64C303.253 40.64 303.228 40.64 303.203 40.64C303.179 40.64 303.154 40.64 303.129 40.64C303.105 40.64 303.08 40.64 303.055 40.64C303.03 40.64 303.005 40.64 302.981 40.64C302.956 40.64 302.931 40.64 302.906 40.64C302.881 40.64 302.856 40.64 302.831 40.64C302.805 40.64 302.78 40.64 302.755 40.64C302.73 40.64 302.705 40.64 302.679 40.64C302.654 40.64 302.629 40.64 302.603 40.64C302.578 40.64 302.552 40.64 302.527 40.64C302.501 40.64 302.476 40.64 302.45 40.64C302.425 40.64 302.399 40.64 302.373 40.64C302.348 40.64 302.322 40.64 302.296 40.64C302.27 40.64 302.244 40.64 302.219 40.64C302.193 40.64 302.167 40.64 302.141 40.64C302.115 40.64 302.089 40.64 302.063 40.64C302.037 40.64 302.011 40.64 301.984 40.64C301.958 40.64 301.932 40.64 301.906 40.64C301.88 40.64 301.853 40.64 301.827 40.64C301.801 40.64 301.774 40.64 301.748 40.64C301.721 40.64 301.695 40.64 301.668 40.64C301.642 40.64 301.615 40.64 301.589 40.64C301.562 40.64 301.535 40.64 301.509 40.64C301.482 40.64 301.455 40.64 301.428 40.64C301.402 40.64 301.375 40.64 301.348 40.64C301.321 40.64 301.294 40.64 301.267 40.64C301.24 40.64 301.213 40.64 301.186 40.64C301.159 40.64 301.132 40.64 301.105 40.64C301.078 40.64 301.05 40.64 301.023 40.64C300.996 40.64 300.969 40.64 300.941 40.64C300.914 40.64 300.887 40.64 300.859 40.64C300.832 40.64 300.804 40.64 300.777 40.64C300.749 40.64 300.722 40.64 300.694 40.64C300.667 40.64 300.639 40.64 300.612 40.64C300.584 40.64 300.556 40.64 300.528 40.64C300.501 40.64 300.473 40.64 300.445 40.64C300.417 40.64 300.389 40.64 300.362 40.64C300.334 40.64 300.306 40.64 300.278 40.64C300.25 40.64 300.222 40.64 300.194 40.64C300.166 40.64 300.138 40.64 300.109 40.64C300.081 40.64 300.053 40.64 300.025 40.64C299.997 40.64 299.968 40.64 299.94 40.64C299.912 40.64 299.883 40.64 299.855 40.64C299.827 40.64 299.798 40.64 299.77 40.64C299.741 40.64 299.713 40.64 299.684 40.64C299.656 40.64 299.627 40.64 299.599 40.64C299.57 40.64 299.541 40.64 299.513 40.64C299.484 40.64 299.455 40.64 299.427 40.64C299.398 40.64 299.369 40.64 299.34 40.64C299.311 40.64 299.283 40.64 299.254 40.64C299.225 40.64 299.196 40.64 299.167 40.64C299.138 40.64 299.109 40.64 299.08 40.64C299.051 40.64 299.022 40.64 298.993 40.64C298.963 40.64 298.934 40.64 298.905 40.64C298.876 40.64 298.847 40.64 298.817 40.64C298.788 40.64 298.759 40.64 298.73 40.64C298.7 40.64 298.671 40.64 298.641 40.64C298.612 40.64 298.583 40.64 298.553 40.64C298.524 40.64 298.494 40.64 298.465 40.64C298.435 40.64 298.406 40.64 298.376 40.64C298.346 40.64 298.317 40.64 298.287 40.64C298.257 40.64 298.228 40.64 298.198 40.64C298.168 40.64 298.138 40.64 298.109 40.64C298.079 40.64 298.049 40.64 298.019 40.64C297.989 40.64 297.959 40.64 297.929 40.64C297.899 40.64 297.869 40.64 297.839 40.64C297.809 40.64 297.779 40.64 297.749 40.64C297.719 40.64 297.689 40.64 297.659 40.64C297.629 40.64 297.599 40.64 297.568 40.64C297.538 40.64 297.508 40.64 297.478 40.64C297.448 40.64 297.417 40.64 297.387 40.64C297.357 40.64 297.326 40.64 297.296 40.64C297.265 40.64 297.235 40.64 297.205 40.64C297.174 40.64 297.144 40.64 297.113 40.64C297.083 40.64 297.052 40.64 297.022 40.64C296.991 40.64 296.96 40.64 296.93 40.64C296.899 40.64 296.869 40.64 296.838 40.64C296.807 40.64 296.777 40.64 296.746 40.64C296.715 40.64 296.684 40.64 296.653 40.64C296.623 40.64 296.592 40.64 296.561 40.64C296.53 40.64 296.499 40.64 296.468 40.64C296.437 40.64 296.407 40.64 296.376 40.64C296.345 40.64 296.314 40.64 296.283 40.64C296.252 40.64 296.221 40.64 296.189 40.64C296.158 40.64 296.127 40.64 296.096 40.64C296.065 40.64 296.034 40.64 296.003 40.64C295.972 40.64 295.94 40.64 295.909 40.64C295.878 40.64 295.847 40.64 295.815 40.64C295.784 40.64 295.753 40.64 295.721 40.64C295.69 40.64 295.659 40.64 295.627 40.64C295.596 40.64 295.565 40.64 295.533 40.64C295.502 40.64 295.47 40.64 295.439 40.64C295.407 40.64 295.376 40.64 295.344 40.64C295.313 40.64 295.281 40.64 295.25 40.64C295.218 40.64 295.186 40.64 295.155 40.64C295.123 40.64 295.091 40.64 295.06 40.64C295.028 40.64 294.996 40.64 294.965 40.64C294.933 40.64 294.901 40.64 294.869 40.64C294.838 40.64 294.806 40.64 294.774 40.64C294.742 40.64 294.71 40.64 294.679 40.64C294.647 40.64 294.615 40.64 294.583 40.64C294.551 40.64 294.519 40.64 294.487 40.64C294.455 40.64 294.423 40.64 294.391 40.64C294.359 40.64 294.327 40.64 294.295 40.64C294.263 40.64 294.231 40.64 294.199 40.64C294.167 40.64 294.135 40.64 294.103 40.64C294.071 40.64 294.038 40.64 294.006 40.64C293.974 40.64 293.942 40.64 293.91 40.64C293.878 40.64 293.845 40.64 293.813 40.64C293.781 40.64 293.749 40.64 293.716 40.64C293.684 40.64 293.652 40.64 293.619 40.64C293.587 40.64 293.555 40.64 293.522 40.64C293.49 40.64 293.458 40.64 293.425 40.64C293.393 40.64 293.36 40.64 293.328 40.64C293.296 40.64 293.263 40.64 293.231 40.64C293.198 40.64 293.166 40.64 293.133 40.64C293.101 40.64 293.068 40.64 293.036 40.64C293.003 40.64 292.97 40.64 292.938 40.64C292.905 40.64 292.873 40.64 292.84 40.64C292.807 40.64 292.775 40.64 292.742 40.64C292.71 40.64 292.677 40.64 292.644 40.64C292.612 40.64 292.579 40.64 292.546 40.64C292.513 40.64 292.481 40.64 292.448 40.64C292.415 40.64 292.383 40.64 292.35 40.64C292.317 40.64 292.284 40.64 292.251 40.64C292.219 40.64 292.186 40.64 292.153 40.64C292.12 40.64 292.087 40.64 292.054 40.64C292.022 40.64 291.989 40.64 291.956 40.64C291.923 40.64 291.89 40.64 291.857 40.64C291.824 40.64 291.791 40.64 291.758 40.64C291.725 40.64 291.692 40.64 291.659 40.64C291.626 40.64 291.593 40.64 291.56 40.64C291.527 40.64 291.494 40.64 291.461 40.64C291.428 40.64 291.395 40.64 291.362 40.64C291.329 40.64 291.296 40.64 291.263 40.64C291.23 40.64 291.197 40.64 291.164 40.64C291.131 40.64 291.098 40.64 291.064 40.64C291.031 40.64 290.998 40.64 290.965 40.64C290.932 40.64 290.899 40.64 290.865 40.64C290.832 40.64 290.799 40.64 290.766 40.64C290.733 40.64 290.7 40.64 290.666 40.64C290.633 40.64 290.6 40.64 290.567 40.64C290.533 40.64 290.5 40.64 290.467 40.64C290.434 40.64 290.4 40.64 290.367 40.64C290.334 40.64 290.301 40.64 290.267 40.64C290.234 40.64 290.201 40.64 290.167 40.64C290.134 40.64 290.101 40.64 290.067 40.64C290.034 40.64 290.001 40.64 289.967 40.64C289.934 40.64 289.901 40.64 289.867 40.64C289.834 40.64 289.8 40.64 289.767 40.64C289.734 40.64 289.7 40.64 289.667 40.64C289.633 40.64 289.6 40.64 289.567 40.64C289.533 40.64 289.5 40.64 289.466 40.64C289.433 40.64 289.4 40.64 289.366 40.64C289.333 40.64 289.299 40.64 289.266 40.64C289.232 40.64 289.199 40.64 289.165 40.64C289.132 40.64 289.098 40.64 289.065 40.64C289.031 40.64 288.998 40.64 288.964 40.64C288.931 40.64 288.897 40.64 288.864 40.64C288.83 40.64 288.797 40.64 288.763 40.64C288.73 40.64 288.696 40.64 288.663 40.64C288.629 40.64 288.596 40.64 288.562 40.64C288.529 40.64 288.495 40.64 288.462 40.64C288.428 40.64 288.394 40.64 288.361 40.64C288.327 40.64 288.294 40.64 288.26 40.64C288.227 40.64 288.193 40.64 288.16 40.64C288.126 40.64 288.092 40.64 288.059 40.64C288.025 40.64 287.992 40.64 287.958 40.64C287.924 40.64 287.891 40.64 287.857 40.64C287.824 40.64 287.79 40.64 287.757 40.64C287.723 40.64 287.689 40.64 287.656 40.64C287.622 40.64 287.589 40.64 287.555 40.64C287.521 40.64 287.488 40.64 287.454 40.64C287.421 40.64 287.387 40.64 287.353 40.64C287.32 40.64 287.286 40.64 287.253 40.64C287.219 40.64 287.185 40.64 287.152 40.64C287.118 40.64 287.085 40.64 287.051 40.64C287.017 40.64 286.984 40.64 286.95 40.64C286.916 40.64 286.883 40.64 286.849 40.64C286.816 40.64 286.782 40.64 286.748 40.64C286.715 40.64 286.681 40.64 286.648 40.64C286.614 40.64 286.58 40.64 286.547 40.64C286.513 40.64 286.48 40.64 286.446 40.64C286.412 40.64 286.379 40.64 286.345 40.64C286.311 40.64 286.278 40.64 286.244 40.64C286.211 40.64 286.177 40.64 286.144 40.64C286.11 40.64 286.076 40.64 286.043 40.64C286.009 40.64 285.976 40.64 285.942 40.64C285.908 40.64 285.875 40.64 285.841 40.64C285.808 40.64 285.774 40.64 285.741 40.64C285.707 40.64 285.673 40.64 285.64 40.64C285.606 40.64 285.573 40.64 285.539 40.64C285.506 40.64 285.472 40.64 285.439 40.64C285.405 40.64 285.371 40.64 285.338 40.64C285.304 40.64 285.271 40.64 285.237 40.64C285.204 40.64 285.17 40.64 285.137 40.64C285.103 40.64 285.07 40.64 285.036 40.64C285.003 40.64 284.969 40.64 284.936 40.64C284.902 40.64 284.869 40.64 284.835 40.64C284.802 40.64 284.768 40.64 284.735 40.64C284.701 40.64 284.668 40.64 284.634 40.64C284.601 40.64 284.567 40.64 284.534 40.64C284.501 40.64 284.467 40.64 284.434 40.64C284.4 40.64 284.367 40.64 284.333 40.64C284.3 40.64 284.267 40.64 284.233 40.64C284.2 40.64 284.166 40.64 284.133 40.64C284.1 40.64 284.066 40.64 284.033 40.64C283.999 40.64 283.966 40.64 283.933 40.64C283.899 40.64 283.866 40.64 283.833 40.64C283.799 40.64 283.766 40.64 283.733 40.64C283.699 40.64 283.666 40.64 283.633 40.64C283.6 40.64 283.566 40.64 283.533 40.64C283.5 40.64 283.466 40.64 283.433 40.64C283.4 40.64 283.367 40.64 283.333 40.64C283.3 40.64 283.267 40.64 283.234 40.64C283.2 40.64 283.167 40.64 283.134 40.64C283.101 40.64 283.068 40.64 283.035 40.64C283.001 40.64 282.968 40.64 282.935 40.64C282.902 40.64 282.869 40.64 282.836 40.64C282.802 40.64 282.769 40.64 282.736 40.64C282.703 40.64 282.67 40.64 282.637 40.64C282.604 40.64 282.571 40.64 282.538 40.64C282.505 40.64 282.472 40.64 282.439 40.64C282.406 40.64 282.373 40.64 282.34 40.64C282.307 40.64 282.274 40.64 282.241 40.64C282.208 40.64 282.175 40.64 282.142 40.64C282.109 40.64 282.076 40.64 282.043 40.64C282.01 40.64 281.977 40.64 281.944 40.64C281.911 40.64 281.878 40.64 281.846 40.64C281.813 40.64 281.78 40.64 281.747 40.64C281.714 40.64 281.681 40.64 281.649 40.64C281.616 40.64 281.583 40.64 281.55 40.64C281.517 40.64 281.485 40.64 281.452 40.64C281.419 40.64 281.386 40.64 281.354 40.64C281.321 40.64 281.288 40.64 281.256 40.64C281.223 40.64 281.19 40.64 281.158 40.64C281.125 40.64 281.092 40.64 281.06 40.64C281.027 40.64 280.995 40.64 280.962 40.64C280.929 40.64 280.897 40.64 280.864 40.64C280.832 40.64 280.799 40.64 280.767 40.64C280.734 40.64 280.702 40.64 280.669 40.64C280.637 40.64 280.604 40.64 280.572 40.64C280.539 40.64 280.507 40.64 280.475 40.64C280.442 40.64 280.41 40.64 280.377 40.64C280.345 40.64 280.313 40.64 280.28 40.64C280.248 40.64 280.216 40.64 280.184 40.64C280.151 40.64 280.119 40.64 280.087 40.64C280.054 40.64 280.022 40.64 279.99 40.64C279.958 40.64 279.926 40.64 279.893 40.64C279.861 40.64 279.829 40.64 279.797 40.64C279.765 40.64 279.733 40.64 279.701 40.64C279.669 40.64 279.637 40.64 279.605 40.64C279.573 40.64 279.541 40.64 279.509 40.64C279.477 40.64 279.445 40.64 279.413 40.64C279.381 40.64 279.349 40.64 279.317 40.64C279.285 40.64 279.253 40.64 279.221 40.64C279.189 40.64 279.157 40.64 279.126 40.64C279.094 40.64 279.062 40.64 279.03 40.64C278.998 40.64 278.967 40.64 278.935 40.64C278.903 40.64 278.872 40.64 278.84 40.64C278.808 40.64 278.776 40.64 278.745 40.64C278.713 40.64 278.682 40.64 278.65 40.64C278.618 40.64 278.587 40.64 278.555 40.64C278.524 40.64 278.492 40.64 278.461 40.64C278.429 40.64 278.398 40.64 278.366 40.64C278.335 40.64 278.304 40.64 278.272 40.64C278.241 40.64 278.209 40.64 278.178 40.64C278.147 40.64 278.115 40.64 278.084 40.64C278.053 40.64 278.022 40.64 277.99 40.64C277.959 40.64 277.928 40.64 277.897 40.64C277.866 40.64 277.834 40.64 277.803 40.64C277.772 40.64 277.741 40.64 277.71 40.64C277.679 40.64 277.648 40.64 277.617 40.64C277.586 40.64 277.555 40.64 277.524 40.64C277.493 40.64 277.462 40.64 277.431 40.64C277.4 40.64 277.369 40.64 277.338 40.64C277.308 40.64 277.277 40.64 277.246 40.64C277.215 40.64 277.184 40.64 277.154 40.64C277.123 40.64 277.092 40.64 277.061 40.64C277.031 40.64 277 40.64 276.97 40.64C276.939 40.64 276.908 40.64 276.878 40.64C276.847 40.64 276.817 40.64 276.786 40.64C276.756 40.64 276.725 40.64 276.695 40.64C276.664 40.64 276.634 40.64 276.603 40.64C276.573 40.64 276.543 40.64 276.512 40.64C276.482 40.64 276.452 40.64 276.421 40.64C276.391 40.64 276.361 40.64 276.331 40.64C276.301 40.64 276.27 40.64 276.24 40.64C276.21 40.64 276.18 40.64 276.15 40.64C276.12 40.64 276.09 40.64 276.06 40.64C276.03 40.64 276 40.64 275.97 40.64C275.94 40.64 275.91 40.64 275.88 40.64C275.85 40.64 275.82 40.64 275.791 40.64C275.761 40.64 275.731 40.64 275.701 40.64C275.672 40.64 275.642 40.64 275.612 40.64C275.582 40.64 275.553 40.64 275.523 40.64C275.494 40.64 275.464 40.64 275.434 40.64C275.405 40.64 275.375 40.64 275.346 40.64C275.316 40.64 275.287 40.64 275.258 40.64C275.228 40.64 275.199 40.64 275.169 40.64C275.14 40.64 275.111 40.64 275.082 40.64C275.052 40.64 275.023 40.64 274.994 40.64C274.965 40.64 274.936 40.64 274.906 40.64C274.877 40.64 274.848 40.64 274.819 40.64C274.79 40.64 274.761 40.64 274.732 40.64C274.703 40.64 274.674 40.64 274.645 40.64C274.616 40.64 274.587 40.64 274.559 40.64C274.53 40.64 274.501 40.64 274.472 40.64C274.443 40.64 274.415 40.64 274.386 40.64C274.357 40.64 274.329 40.64 274.3 40.64C274.272 40.64 274.243 40.64 274.214 40.64C274.186 40.64 274.157 40.64 274.129 40.64C274.1 40.64 274.072 40.64 274.044 40.64C274.015 40.64 273.987 40.64 273.959 40.64C273.93 40.64 273.902 40.64 273.874 40.64C273.846 40.64 273.817 40.64 273.789 40.64C273.761 40.64 273.733 40.64 273.705 40.64C273.677 40.64 273.649 40.64 273.621 40.64C273.593 40.64 273.565 40.64 273.537 40.64C273.509 40.64 273.481 40.64 273.454 40.64C273.426 40.64 273.398 40.64 273.37 40.64C273.342 40.64 273.315 40.64 273.287 40.64C273.259 40.64 273.232 40.64 273.204 40.64C273.177 40.64 273.149 40.64 273.122 40.64C273.094 40.64 273.067 40.64 273.039 40.64C273.012 40.64 272.985 40.64 272.957 40.64C272.93 40.64 272.903 40.64 272.875 40.64C272.848 40.64 272.821 40.64 272.794 40.64C272.767 40.64 272.74 40.64 272.712 40.64C272.685 40.64 272.658 40.64 272.631 40.64C272.604 40.64 272.578 40.64 272.551 40.64C272.524 40.64 272.497 40.64 272.47 40.64C272.443 40.64 272.417 40.64 272.39 40.64C272.363 40.64 272.336 40.64 272.31 40.64C272.283 40.64 272.257 40.64 272.23 40.64C272.204 40.64 272.177 40.64 272.151 40.64C272.124 40.64 272.098 40.64 272.071 40.64C272.045 40.64 272.019 40.64 271.992 40.64C271.966 40.64 271.94 40.64 271.914 40.64C271.888 40.64 271.862 40.64 271.835 40.64C271.809 40.64 271.783 40.64 271.757 40.64C271.731 40.64 271.705 40.64 271.68 40.64C271.654 40.64 271.628 40.64 271.602 40.64C271.576 40.64 271.551 40.64 271.525 40.64C271.499 40.64 271.473 40.64 271.448 40.64C271.422 40.64 271.397 40.64 271.371 40.64C271.346 40.64 271.32 40.64 271.295 40.64C271.269 40.64 271.244 40.64 271.219 40.64V54.64ZM316.939 47.64C316.939 46.2948 317.026 45.3886 317.141 44.7988C317.255 44.207 317.351 44.1811 317.203 44.4029C317.121 44.526 316.989 44.6866 316.802 44.8449C316.614 45.0038 316.428 45.1112 316.281 45.1762C316.008 45.297 316.037 45.2 316.659 45.2V31.2C312.604 31.2 308.301 32.5177 305.554 36.6371C303.289 40.0354 302.939 44.2222 302.939 47.64H316.939ZM316.659 45.2C317.055 45.2 317.137 45.2518 317.011 45.21C316.854 45.1583 316.512 45.005 316.159 44.6595C315.804 44.3111 315.635 43.9609 315.573 43.7812C315.523 43.6349 315.579 43.708 315.579 44.12H329.579C329.579 40.97 328.747 37.3933 325.958 34.6605C323.196 31.9531 319.657 31.2 316.659 31.2V45.2ZM315.579 44.0171C315.569 44.7488 315.288 46.2691 309.656 48.6883C307.104 49.7847 304.274 50.7244 301.006 51.868C297.916 52.9498 294.436 54.2149 291.334 55.8373L297.823 68.2427C299.922 67.1451 302.522 66.1702 305.631 65.082C308.564 64.0556 312.054 62.8953 315.182 61.5517C320.91 59.0909 329.429 54.3711 329.578 44.2229L315.579 44.0171ZM291.276 55.8683C285.381 59.0232 278.102 63.4078 272.367 70.5938C266.493 77.955 262.619 87.7604 262.619 101.08H276.619C276.619 90.7196 279.544 84.045 283.31 79.3262C287.216 74.4322 292.417 71.1368 297.882 68.2116L291.276 55.8683ZM262.619 101.08V123H276.619V101.08H262.619ZM269.619 130H365.619V116H269.619V130ZM372.619 123V91H358.619V123H372.619ZM365.619 84H313.299V98H365.619V84ZM320.01 92.9886C319.82 93.6296 319.47 93.5658 320.389 92.9979C321.358 92.3988 322.941 91.7359 325.417 90.9484C329.741 89.5738 337.415 87.7419 344.016 85.1284C351.006 82.3608 358.52 78.1735 364.13 70.9124C369.833 63.5318 373.016 53.6992 372.615 40.7043L358.622 41.1357C358.942 51.5008 356.424 57.9882 353.052 62.3526C349.588 66.8365 344.652 69.8192 338.862 72.1116C332.683 74.5581 327.247 75.6762 321.175 77.6066C318.454 78.4716 315.518 79.5499 313.028 81.089C310.488 82.6592 307.737 85.1304 306.587 89.0114L320.01 92.9886ZM424.445 11V3.99999H423.014L421.697 4.56174L424.445 11ZM399.325 21.72L396.577 15.2817L392.325 17.0965V21.72H399.325ZM399.325 44.6H392.325V51.6H399.325V44.6ZM422.845 44.6H429.845V37.6H422.845V44.6ZM422.845 123H415.845V130H422.845V123ZM460.925 123V130H467.925V123H460.925ZM460.925 11H467.925V3.99999H460.925V11ZM421.697 4.56174L396.577 15.2817L402.073 28.1582L427.193 17.4382L421.697 4.56174ZM392.325 21.72V44.6H406.325V21.72H392.325ZM399.325 51.6H422.845V37.6H399.325V51.6ZM415.845 44.6V123H429.845V44.6H415.845ZM422.845 130H460.925V116H422.845V130ZM467.925 123V11H453.925V123H467.925ZM460.925 3.99999H424.445V18H460.925V3.99999Z" fill="white"/>
</svg>
