<svg width="75" height="75" viewBox="0 0 75 75" fill="none" xmlns="http://www.w3.org/2000/svg">
<g id="Logo">
<g id="logo-background-blur">
<g id="backgroud-blur" filter="url(#filter0_b)">
<path d="M0 37.5C0 16.7893 16.7893 0 37.5 0C58.2107 0 75 16.7893 75 37.5C75 58.2107 58.2107 75 37.5 75C16.7893 75 0 58.2107 0 37.5Z" fill="black" fill-opacity="0.1"/>
</g>
</g>
<path id="backgroud" d="M37.5 73.5C17.6177 73.5 1.5 57.3823 1.5 37.5C1.5 17.6177 17.6177 1.5 37.5 1.5C57.3823 1.5 73.5 17.6177 73.5 37.5C73.5 57.3823 57.3823 73.5 37.5 73.5Z" stroke="url(#paint1_linear)" stroke-width="3"/>
<path id="Vector" d="M52.883 43.5966L52.886 43.5963C60.4356 42.9445 64.2 37.0817 64.2 31.35C64.2 28.2757 63.1352 25.1864 60.97 22.8567C58.7909 20.5121 55.5553 19 51.35 19H40.9H40.45H35.2C34.4862 19 33.8106 19.3453 33.3818 19.8598L33.3755 19.8673L33.3694 19.875L22.8 33.0752V20.65C22.8 20.2391 22.6673 19.8031 22.3321 19.4679C21.9969 19.1326 21.5609 19 21.15 19H16.45C16.0391 19 15.6031 19.1326 15.2679 19.4679C14.9326 19.8031 14.8 20.2391 14.8 20.65V54.35C14.8 54.7609 14.9326 55.1969 15.2679 55.5321C15.6031 55.8674 16.0391 56 16.45 56H21.15C21.5609 56 21.9969 55.8674 22.3321 55.5321C22.6673 55.1969 22.8 54.7609 22.8 54.35V46.15C22.8 45.5249 23.0735 44.7567 23.4634 44.2959L23.4729 44.2847L23.482 44.2733L38.8007 25.0522C38.8116 25.4476 38.9468 25.861 39.2679 26.1821C39.6031 26.5174 40.0391 26.65 40.45 26.65H51.35C52.9655 26.65 54.1079 27.2473 54.8571 28.0885C55.6226 28.948 56.0286 30.1218 56.0312 31.3272C56.0339 32.5326 55.6332 33.7045 54.8706 34.5621C54.1244 35.4013 52.98 36 51.35 36H40.45C40.0391 36 39.6031 36.1327 39.2679 36.4679C38.9326 36.8031 38.8 37.2391 38.8 37.65V43.9173L34.4067 38.2585C34.1473 37.8918 33.7282 37.625 33.2187 37.625C32.712 37.625 32.2999 37.8881 32.0318 38.2098L32.0248 38.2182L32.018 38.2267L29.2734 41.6699C28.8015 42.2448 28.6088 43.2211 29.2153 43.9702L37.7047 55.1063L37.7179 55.1235L37.7318 55.1402C38.1606 55.6547 38.8362 56 39.55 56H40.45H45.15H45.45C45.7155 56 46.3564 55.9482 46.6932 55.3586C46.8915 55.0117 46.8761 54.6743 46.7991 54.4074C46.7997 54.3882 46.8 54.3691 46.8 54.35V44.05C46.8 43.8821 46.8547 43.7917 46.8972 43.7481C46.936 43.7083 47.0196 43.65 47.2 43.65H49.95H50.0168C51.3569 43.65 52.2413 43.65 52.883 43.5966Z" stroke="white" stroke-width="2"/>
</g>
<defs>
<filter id="filter0_b" x="-20" y="-20" width="115" height="115" filterUnits="userSpaceOnUse" color-interpolation-filters="sRGB">
<feFlood flood-opacity="0" result="BackgroundImageFix"/>
<feGaussianBlur in="BackgroundImage" stdDeviation="10"/>
<feComposite in2="SourceAlpha" operator="in" result="effect1_backgroundBlur"/>
<feBlend mode="normal" in="SourceGraphic" in2="effect1_backgroundBlur" result="shape"/>
</filter>
<linearGradient id="paint0_linear" x1="31.8021" y1="10.0483" x2="59.4063" y2="63.0483" gradientUnits="userSpaceOnUse">
<stop stop-color="#AC38D5"/>
<stop offset="1" stop-color="#4CF0F0"/>
</linearGradient>
<linearGradient id="paint1_linear" x1="72.375" y1="4.00001" x2="-9.2953" y2="48.3668" gradientUnits="userSpaceOnUse">
<stop stop-color="#AC38D5"/>
<stop offset="1" stop-color="#4CF0F0"/>
</linearGradient>
</defs>
</svg>
