<?xml version="1.0" standalone="no"?>
<!DOCTYPE svg PUBLIC "-//W3C//DTD SVG 20010904//EN"
 "http://www.w3.org/TR/2001/REC-SVG-20010904/DTD/svg10.dtd">
<svg version="1.0" xmlns="http://www.w3.org/2000/svg"
 width="75.000000pt" height="75.000000pt" viewBox="0 0 75.000000 75.000000"
 preserveAspectRatio="xMidYMid meet">
<metadata>
Created by potrace 1.14, written by Peter Selinger 2001-2017
</metadata>
<g transform="translate(0.000000,75.000000) scale(0.100000,-0.100000)"
fill="#000000" stroke="none">
<path d="M342 743 c-12 -2 -20 -9 -17 -14 4 -5 -2 -9 -12 -9 -35 0 -142 -59
-184 -102 -23 -24 -54 -68 -68 -98 -22 -47 -26 -69 -26 -145 0 -78 4 -97 28
-147 35 -72 97 -134 167 -167 47 -22 68 -26 150 -26 84 0 101 3 146 27 28 15
65 39 83 54 18 14 35 24 38 21 9 -10 41 36 70 100 22 48 27 72 26 138 0 102
-28 176 -90 245 -58 65 -114 97 -199 115 -71 15 -73 15 -112 8z m-102 -232 l5
-55 44 58 45 58 123 -4 c122 -3 123 -3 154 -34 84 -84 37 -220 -80 -232 l-50
-4 -3 -57 -3 -56 -47 -3 c-46 -3 -47 -3 -97 60 -28 35 -50 69 -51 76 0 22 32
62 50 62 10 0 24 -7 31 -16 12 -15 14 -14 19 7 5 22 12 24 78 29 67 5 91 15
92 41 0 18 -32 28 -97 30 l-71 2 -68 -84 c-65 -79 -69 -88 -74 -144 l-5 -60
-45 0 -45 0 -3 180 c-1 98 0 185 3 193 3 9 19 12 47 10 l43 -3 5 -54z"/>
<path d="M160 375 l0 -175 30 0 c30 0 30 1 30 53 0 50 3 55 87 162 51 64 89
104 90 95 3 -12 16 -14 64 -12 76 5 109 -14 109 -61 0 -48 -15 -57 -97 -57
l-73 0 0 -47 -1 -48 -34 40 c-33 39 -35 39 -49 20 -9 -11 -15 -22 -16 -25 0
-3 21 -31 46 -63 40 -50 50 -57 81 -57 l36 0 -7 49 c-9 65 -1 81 38 81 23 0
34 6 41 22 12 28 45 37 45 12 0 -16 1 -16 20 1 29 26 36 80 16 122 -23 48 -65
63 -178 63 l-93 0 -60 -77 -60 -76 -3 76 -3 77 -29 0 -30 0 0 -175z"/>
</g>
</svg>
