{"asset":{"version":"2.0","generator":"VECTARY"},"nodes":[{"translation":[0,0,0],"scale":[0.005860000000000001,0.005860000000000001,0.005860000000000001],"rotation":[-0.7071067811865475,8.659560562354932e-17,8.659560562354934e-17,0.7071067811865476],"name":"Plane","mesh":0},{"translation":[0,0,0],"scale":[0.001,0.001,0.001],"rotation":[-0.7071067811865475,0,0,0.7071067811865476],"name":"Laptop","children":[2,3,4,5,6,7,8,9,10,11,12,13,14,15]},{"translation":[0,0,0],"scale":[1,1,1],"rotation":[0,0,0,1],"name":"Buffer Layer"},{"translation":[23.419722449143933,100.38098100679304,105.4902158625786],"scale":[1.3071989539389401,1.2319020853466156,0.2738883792688519],"rotation":[0.5735762796744256,0.00028194004444286253,-0.0004023136830546695,0.8191520066802968],"name":"app-background","mesh":1},{"translation":[0,0,0],"scale":[1,1,1],"rotation":[0,0,1.2246467991473532e-16,1],"name":"Body","mesh":2},{"translation":[0,0,0],"scale":[1,1,1],"rotation":[0,0,1.2246467991473532e-16,1],"name":"Top","mesh":3},{"translation":[0,0,0],"scale":[1,1,1],"rotation":[0,0,1.2246467991473532e-16,1],"name":"Black_Frame","mesh":4},{"translation":[0,0,0],"scale":[1,1,1],"rotation":[0,0,1.2246467991473532e-16,1],"name":"Black_Frame_2","mesh":5},{"translation":[0,0,0],"scale":[1,1,1],"rotation":[0,0,1.2246467991473532e-16,1],"name":"Connectors","mesh":6},{"translation":[0,0,0],"scale":[1,1,1],"rotation":[0,0,1.2246467991473532e-16,1],"name":"Touchpad","mesh":7},{"translation":[0,0,0],"scale":[1,1,1],"rotation":[0,0,1.2246467991473532e-16,1],"name":"Stands","mesh":8},{"translation":[0,0,0],"scale":[1,1,1],"rotation":[0,0,1.2246467991473532e-16,1],"name":"Screws","mesh":9},{"translation":[0,0,0],"scale":[1,1,1],"rotation":[0,0,1.2246467991473532e-16,1],"name":"Copper","mesh":10},{"translation":[0,0,0],"scale":[1,1,1],"rotation":[0,0,0,1],"name":"Keyboard","mesh":11},{"translation":[0,0,0],"scale":[1,1,1],"rotation":[0,0,0,1],"name":"Black Plane","mesh":12},{"translation":[0,0,0],"scale":[1,1,1],"rotation":[0,0,0,1],"name":"Speaker","mesh":13},{"translation":[-0.0027376304391350764,0.09216480345427633,0.43364375050187787],"scale":[1,1,1],"rotation":[1.1102230246251565e-16,0,1.1102230246251565e-16,1],"name":"Camera","camera":0}],"materials":[{"pbrMetallicRoughness":{"baseColorFactor":[0,0,0,1],"baseColorTexture":{"index":0,"extensions":{"KHR_texture_transform":{"offset":[0,0],"scale":[1,1],"rotation":0}},"texCoord":0},"metallicFactor":0,"roughnessFactor":1},"name":"SquarePlane material","emissiveFactor":[0,0,0],"alphaMode":"BLEND","doubleSided":false},{"pbrMetallicRoughness":{"baseColorFactor":[0.6120655998656237,0.6120655998656237,0.6120655998656237,1],"metallicFactor":0,"roughnessFactor":0.2},"name":"Buffer Layer material","emissiveFactor":[0,0,0],"alphaMode":"OPAQUE","doubleSided":false},{"pbrMetallicRoughness":{"baseColorFactor":[1,1,1,1],"baseColorTexture":{"index":1,"extensions":{"KHR_texture_transform":{"offset":[0,0],"scale":[1,1],"rotation":0}},"texCoord":0},"metallicFactor":0,"roughnessFactor":1},"name":"","emissiveTexture":{"index":2,"extensions":{"KHR_texture_transform":{"offset":[0,0],"scale":[1,1],"rotation":0}},"texCoord":0},"emissiveFactor":[0,0,0],"alphaMode":"OPAQUE","doubleSided":true},{"pbrMetallicRoughness":{"baseColorFactor":[0.348864834082879,0.348864834082879,0.348864834082879,1],"metallicFactor":0.5,"roughnessFactor":0.5},"name":"Aluminium","emissiveFactor":[0,0,0],"occlusionTexture":{"index":3,"strength":1,"extensions":{"KHR_texture_transform":{"offset":[0,0],"scale":[1,1],"rotation":0}},"texCoord":0},"alphaMode":"OPAQUE","doubleSided":false},{"pbrMetallicRoughness":{"baseColorFactor":[0.0036972395789001307,0.0036972395789001307,0.0036972395789001307,1],"metallicFactor":0,"roughnessFactor":0.2},"name":"Object material 2","emissiveFactor":[0,0,0],"alphaMode":"OPAQUE","doubleSided":false},{"pbrMetallicRoughness":{"baseColorFactor":[0,0,0,1],"metallicFactor":0,"roughnessFactor":0.03},"name":"Object material 3","emissiveFactor":[0,0,0],"occlusionTexture":{"index":3,"strength":1,"extensions":{"KHR_texture_transform":{"offset":[0,0],"scale":[1,1],"rotation":0}},"texCoord":0},"alphaMode":"OPAQUE","doubleSided":false},{"pbrMetallicRoughness":{"baseColorFactor":[0.39929329990267437,0.39929329990267437,0.39929329990267437,1],"metallicFactor":0,"roughnessFactor":0.2},"name":"Object material 4","emissiveFactor":[0,0,0],"occlusionTexture":{"index":3,"strength":1,"extensions":{"KHR_texture_transform":{"offset":[0,0],"scale":[1,1],"rotation":0}},"texCoord":0},"alphaMode":"OPAQUE","doubleSided":false},{"pbrMetallicRoughness":{"baseColorFactor":[0.4423229488192018,0.4423229488192018,0.4423229488192018,1],"metallicFactor":0.5,"roughnessFactor":0.5},"name":"Aluminium 1","emissiveFactor":[0,0,0],"occlusionTexture":{"index":3,"strength":1,"extensions":{"KHR_texture_transform":{"offset":[0,0],"scale":[1,1],"rotation":0}},"texCoord":0},"alphaMode":"OPAQUE","doubleSided":false},{"pbrMetallicRoughness":{"baseColorFactor":[0.348864834082879,0.348864834082879,0.348864834082879,1],"metallicFactor":0,"roughnessFactor":1},"name":"Object material 5","emissiveFactor":[0,0,0],"occlusionTexture":{"index":3,"strength":1,"extensions":{"KHR_texture_transform":{"offset":[0,0],"scale":[1,1],"rotation":0}},"texCoord":0},"alphaMode":"OPAQUE","doubleSided":false},{"pbrMetallicRoughness":{"baseColorFactor":[1,1,1,1],"metallicFactor":1,"roughnessFactor":0.2},"name":"Object material 6","emissiveFactor":[0,0,0],"occlusionTexture":{"index":3,"strength":1,"extensions":{"KHR_texture_transform":{"offset":[0,0],"scale":[1,1],"rotation":0}},"texCoord":0},"alphaMode":"OPAQUE","doubleSided":false},{"pbrMetallicRoughness":{"baseColorFactor":[1,0.5924380303208466,0.24680041960155044,1],"metallicFactor":1,"roughnessFactor":1},"name":"Object material","emissiveFactor":[0,0,0],"occlusionTexture":{"index":3,"strength":1,"extensions":{"KHR_texture_transform":{"offset":[0,0],"scale":[1,1],"rotation":0}},"texCoord":0},"alphaMode":"OPAQUE","doubleSided":false},{"pbrMetallicRoughness":{"baseColorFactor":[0,0,0,1],"metallicFactor":0,"roughnessFactor":0.5},"name":"Keyboard","emissiveTexture":{"index":4,"extensions":{"KHR_texture_transform":{"offset":[0,0],"scale":[1,1],"rotation":0}},"texCoord":0},"emissiveFactor":[1,1,1],"alphaMode":"OPAQUE","doubleSided":false},{"pbrMetallicRoughness":{"baseColorFactor":[0,0,0,1],"metallicFactor":0,"roughnessFactor":1},"name":"changable material 1","emissiveFactor":[0,0,0],"alphaMode":"OPAQUE","doubleSided":false},{"pbrMetallicRoughness":{"baseColorFactor":[0,0,0,1],"metallicFactor":0,"roughnessFactor":1},"name":"Object material 7","emissiveFactor":[0,0,0],"alphaMode":"OPAQUE","doubleSided":false}],"textures":[{"sampler":0,"source":0},{"sampler":1,"source":1},{"sampler":1,"source":2},{"sampler":0,"source":3},{"sampler":0,"source":4}],"images":[{"uri":"colorTexture&Laptop_Plane_transparency.png","mimeType":"image/png"},{"uri":"Screen_Shot_2021-02-16_at_649.jpg","mimeType":"image/jpeg"},{"uri":"Screen_Shot_2021-02-16_at_648.jpg","mimeType":"image/jpeg"},{"uri":"Laptop_AO.jpg","mimeType":"image/jpeg"},{"uri":"Emission_keyboard.jpg","mimeType":"image/jpeg"}],"samplers":[{"wrapS":10497,"wrapT":10497},{"wrapS":33071,"wrapT":33071}],"meshes":[{"primitives":[{"mode":4,"attributes":{"POSITION":1,"NORMAL":2,"TEXCOORD_0":3},"material":0,"indices":0}]},{"primitives":[{"mode":4,"attributes":{"POSITION":5,"NORMAL":6,"TEXCOORD_0":7},"material":2,"indices":4}]},{"primitives":[{"mode":4,"attributes":{"POSITION":9,"NORMAL":10,"TEXCOORD_0":11},"material":3,"indices":8}]},{"primitives":[{"mode":4,"attributes":{"POSITION":13,"NORMAL":14,"TEXCOORD_0":15},"material":3,"indices":12}]},{"primitives":[{"mode":4,"attributes":{"POSITION":17,"NORMAL":18},"material":4,"indices":16}]},{"primitives":[{"mode":4,"attributes":{"POSITION":20,"NORMAL":21,"TEXCOORD_0":22},"material":5,"indices":19}]},{"primitives":[{"mode":4,"attributes":{"POSITION":24,"NORMAL":25,"TEXCOORD_0":26},"material":6,"indices":23}]},{"primitives":[{"mode":4,"attributes":{"POSITION":28,"NORMAL":29,"TEXCOORD_0":30},"material":7,"indices":27}]},{"primitives":[{"mode":4,"attributes":{"POSITION":32,"NORMAL":33,"TEXCOORD_0":34},"material":8,"indices":31}]},{"primitives":[{"mode":4,"attributes":{"POSITION":36,"NORMAL":37,"TEXCOORD_0":38},"material":9,"indices":35}]},{"primitives":[{"mode":4,"attributes":{"POSITION":40,"NORMAL":41,"TEXCOORD_0":42},"material":10,"indices":39}]},{"primitives":[{"mode":4,"attributes":{"POSITION":44,"NORMAL":45,"TEXCOORD_0":46},"material":11,"indices":43}]},{"primitives":[{"mode":4,"attributes":{"POSITION":48,"NORMAL":49},"material":12,"indices":47}]},{"primitives":[{"mode":4,"attributes":{"POSITION":51,"NORMAL":52},"material":13,"indices":50}]}],"accessors":[{"bufferView":0,"byteOffset":0,"componentType":5125,"count":6,"type":"SCALAR"},{"bufferView":1,"byteOffset":0,"componentType":5126,"count":4,"max":[50,50.044368743896484,0],"min":[-50,-49.955631256103516,0],"type":"VEC3"},{"bufferView":2,"byteOffset":0,"componentType":5126,"count":4,"type":"VEC3"},{"bufferView":3,"byteOffset":0,"componentType":5126,"count":4,"type":"VEC2"},{"bufferView":4,"byteOffset":0,"componentType":5125,"count":150,"type":"SCALAR"},{"bufferView":5,"byteOffset":0,"componentType":5126,"count":36,"max":[91.4593505859375,72.64319610595703,0.20000000298023224],"min":[-128,-72.64319610595703,0.20000000298023224],"type":"VEC3"},{"bufferView":6,"byteOffset":0,"componentType":5126,"count":36,"type":"VEC3"},{"bufferView":7,"byteOffset":0,"componentType":5126,"count":36,"type":"VEC2"},{"bufferView":8,"byteOffset":0,"componentType":5125,"count":163350,"type":"SCALAR"},{"bufferView":9,"byteOffset":0,"componentType":5126,"count":41504,"max":[152.0500030517578,61.70000076293945,10.178000450134277],"min":[-152.0500030517578,-150.70001220703125,0.2290000021457672],"type":"VEC3"},{"bufferView":10,"byteOffset":0,"componentType":5126,"count":41504,"type":"VEC3"},{"bufferView":11,"byteOffset":0,"componentType":5126,"count":41504,"type":"VEC2"},{"bufferView":12,"byteOffset":0,"componentType":5125,"count":49794,"type":"SCALAR"},{"bufferView":13,"byteOffset":0,"componentType":5126,"count":9546,"max":[152.0500030517578,135.8929901123047,202.46600341796875],"min":[-152.0500030517578,56.03999710083008,2.316999912261963],"type":"VEC3"},{"bufferView":14,"byteOffset":0,"componentType":5126,"count":9546,"type":"VEC3"},{"bufferView":15,"byteOffset":0,"componentType":5126,"count":9546,"type":"VEC2"},{"bufferView":16,"byteOffset":0,"componentType":5125,"count":357,"type":"SCALAR"},{"bufferView":17,"byteOffset":0,"componentType":5126,"count":119,"max":[149.9499969482422,133.66099548339844,200.44400024414062],"min":[-149.9499969482422,62.85599899291992,5.9070000648498535],"type":"VEC3"},{"bufferView":18,"byteOffset":0,"componentType":5126,"count":119,"type":"VEC3"},{"bufferView":19,"byteOffset":0,"componentType":5125,"count":10344,"type":"SCALAR"},{"bufferView":20,"byteOffset":0,"componentType":5126,"count":3524,"max":[150.92999267578125,135.0399932861328,201.49099731445312],"min":[-150.92999267578125,62.29999923706055,5.131999969482422],"type":"VEC3"},{"bufferView":21,"byteOffset":0,"componentType":5126,"count":3524,"type":"VEC3"},{"bufferView":22,"byteOffset":0,"componentType":5126,"count":3524,"type":"VEC2"},{"bufferView":23,"byteOffset":0,"componentType":5125,"count":5232,"type":"SCALAR"},{"bufferView":24,"byteOffset":0,"componentType":5126,"count":1469,"max":[151.5500030517578,43.73299789428711,9.859000205993652],"min":[-151.37899780273438,9.461000442504883,5.063000202178955],"type":"VEC3"},{"bufferView":25,"byteOffset":0,"componentType":5126,"count":1469,"type":"VEC3"},{"bufferView":26,"byteOffset":0,"componentType":5126,"count":1469,"type":"VEC2"},{"bufferView":27,"byteOffset":0,"componentType":5125,"count":540,"type":"SCALAR"},{"bufferView":28,"byteOffset":0,"componentType":5126,"count":180,"max":[67.875,-60.862003326416016,10.128000259399414],"min":[-67.875,-144.7860107421875,9.977999687194824],"type":"VEC3"},{"bufferView":29,"byteOffset":0,"componentType":5126,"count":180,"type":"VEC3"},{"bufferView":30,"byteOffset":0,"componentType":5126,"count":180,"type":"VEC2"},{"bufferView":31,"byteOffset":0,"componentType":5125,"count":14880,"type":"SCALAR"},{"bufferView":32,"byteOffset":0,"componentType":5126,"count":2800,"max":[137.3000030517578,49.141998291015625,2.250999927520752],"min":[-137.3000030517578,-133.7220001220703,0],"type":"VEC3"},{"bufferView":33,"byteOffset":0,"componentType":5126,"count":2800,"type":"VEC3"},{"bufferView":34,"byteOffset":0,"componentType":5126,"count":2800,"type":"VEC2"},{"bufferView":35,"byteOffset":0,"componentType":5125,"count":18576,"type":"SCALAR"},{"bufferView":36,"byteOffset":0,"componentType":5126,"count":5539,"max":[144.48300170898438,55.72099685668945,4.008999824523926],"min":[-144.48300170898438,-141.55101013183594,2.234999895095825],"type":"VEC3"},{"bufferView":37,"byteOffset":0,"componentType":5126,"count":5539,"type":"VEC3"},{"bufferView":38,"byteOffset":0,"componentType":5126,"count":5539,"type":"VEC2"},{"bufferView":39,"byteOffset":0,"componentType":5125,"count":1728,"type":"SCALAR"},{"bufferView":40,"byteOffset":0,"componentType":5126,"count":1152,"max":[-143.9600067138672,31.253000259399414,7.567999839782715],"min":[-150.21299743652344,10.782000541687012,6.9079999923706055],"type":"VEC3"},{"bufferView":41,"byteOffset":0,"componentType":5126,"count":1152,"type":"VEC3"},{"bufferView":42,"byteOffset":0,"componentType":5126,"count":1152,"type":"VEC2"},{"bufferView":43,"byteOffset":0,"componentType":5125,"count":115464,"type":"SCALAR"},{"bufferView":44,"byteOffset":0,"componentType":5126,"count":21032,"max":[136.5885009765625,43.539703369140625,10.644200325012207],"min":[-136.64230346679688,-56.452598571777344,8.781800270080566],"type":"VEC3"},{"bufferView":45,"byteOffset":0,"componentType":5126,"count":21032,"type":"VEC3"},{"bufferView":46,"byteOffset":0,"componentType":5126,"count":21032,"type":"VEC2"},{"bufferView":47,"byteOffset":0,"componentType":5125,"count":6,"type":"SCALAR"},{"bufferView":48,"byteOffset":0,"componentType":5126,"count":4,"max":[147.69273376464844,132.68658447265625,194.24893188476562],"min":[-147.69273376464844,67.76400756835938,15.875736236572266],"type":"VEC3"},{"bufferView":49,"byteOffset":0,"componentType":5126,"count":4,"type":"VEC3"},{"bufferView":50,"byteOffset":0,"componentType":5125,"count":118308,"type":"SCALAR"},{"bufferView":51,"byteOffset":0,"componentType":5126,"count":77865,"max":[150.3284912109375,43.55970001220703,10.178299903869629],"min":[-149.90802001953125,-56.46649932861328,5.30679988861084],"type":"VEC3"},{"bufferView":52,"byteOffset":0,"componentType":5126,"count":77865,"type":"VEC3"}],"bufferViews":[{"buffer":0,"byteOffset":0,"byteLength":24,"target":34963},{"buffer":0,"byteOffset":24,"byteLength":48,"target":34962},{"buffer":0,"byteOffset":72,"byteLength":48,"target":34962},{"buffer":0,"byteOffset":120,"byteLength":32,"target":34962},{"buffer":0,"byteOffset":152,"byteLength":600,"target":34963},{"buffer":0,"byteOffset":752,"byteLength":432,"target":34962},{"buffer":0,"byteOffset":1184,"byteLength":432,"target":34962},{"buffer":0,"byteOffset":1616,"byteLength":288,"target":34962},{"buffer":0,"byteOffset":1904,"byteLength":653400,"target":34963},{"buffer":0,"byteOffset":655304,"byteLength":498048,"target":34962},{"buffer":0,"byteOffset":1153352,"byteLength":498048,"target":34962},{"buffer":0,"byteOffset":1651400,"byteLength":332032,"target":34962},{"buffer":0,"byteOffset":1983432,"byteLength":199176,"target":34963},{"buffer":0,"byteOffset":2182608,"byteLength":114552,"target":34962},{"buffer":0,"byteOffset":2297160,"byteLength":114552,"target":34962},{"buffer":0,"byteOffset":2411712,"byteLength":76368,"target":34962},{"buffer":0,"byteOffset":2488080,"byteLength":1428,"target":34963},{"buffer":0,"byteOffset":2489508,"byteLength":1428,"target":34962},{"buffer":0,"byteOffset":2490936,"byteLength":1428,"target":34962},{"buffer":0,"byteOffset":2492364,"byteLength":41376,"target":34963},{"buffer":0,"byteOffset":2533740,"byteLength":42288,"target":34962},{"buffer":0,"byteOffset":2576028,"byteLength":42288,"target":34962},{"buffer":0,"byteOffset":2618316,"byteLength":28192,"target":34962},{"buffer":0,"byteOffset":2646508,"byteLength":20928,"target":34963},{"buffer":0,"byteOffset":2667436,"byteLength":17628,"target":34962},{"buffer":0,"byteOffset":2685064,"byteLength":17628,"target":34962},{"buffer":0,"byteOffset":2702692,"byteLength":11752,"target":34962},{"buffer":0,"byteOffset":2714444,"byteLength":2160,"target":34963},{"buffer":0,"byteOffset":2716604,"byteLength":2160,"target":34962},{"buffer":0,"byteOffset":2718764,"byteLength":2160,"target":34962},{"buffer":0,"byteOffset":2720924,"byteLength":1440,"target":34962},{"buffer":0,"byteOffset":2722364,"byteLength":59520,"target":34963},{"buffer":0,"byteOffset":2781884,"byteLength":33600,"target":34962},{"buffer":0,"byteOffset":2815484,"byteLength":33600,"target":34962},{"buffer":0,"byteOffset":2849084,"byteLength":22400,"target":34962},{"buffer":0,"byteOffset":2871484,"byteLength":74304,"target":34963},{"buffer":0,"byteOffset":2945788,"byteLength":66468,"target":34962},{"buffer":0,"byteOffset":3012256,"byteLength":66468,"target":34962},{"buffer":0,"byteOffset":3078724,"byteLength":44312,"target":34962},{"buffer":0,"byteOffset":3123036,"byteLength":6912,"target":34963},{"buffer":0,"byteOffset":3129948,"byteLength":13824,"target":34962},{"buffer":0,"byteOffset":3143772,"byteLength":13824,"target":34962},{"buffer":0,"byteOffset":3157596,"byteLength":9216,"target":34962},{"buffer":0,"byteOffset":3166812,"byteLength":461856,"target":34963},{"buffer":0,"byteOffset":3628668,"byteLength":252384,"target":34962},{"buffer":0,"byteOffset":3881052,"byteLength":252384,"target":34962},{"buffer":0,"byteOffset":4133436,"byteLength":168256,"target":34962},{"buffer":0,"byteOffset":4301692,"byteLength":24,"target":34963},{"buffer":0,"byteOffset":4301716,"byteLength":48,"target":34962},{"buffer":0,"byteOffset":4301764,"byteLength":48,"target":34962},{"buffer":0,"byteOffset":4301812,"byteLength":473232,"target":34963},{"buffer":0,"byteOffset":4775044,"byteLength":934380,"target":34962},{"buffer":0,"byteOffset":5709424,"byteLength":934380,"target":34962}],"cameras":[{"name":"Camera","type":"orthographic","extras":{"targetDistance":0.4257544234408962},"orthographic":{"xmag":0.41529540910787355,"ymag":0.26847970814156896,"zfar":36.142282318985956,"znear":0.002656707922211716}}],"scene":0,"scenes":[{"nodes":[0,1,16],"name":"02 Laptop (copy)"}],"extensionsUsed":["KHR_texture_transform"],"buffers":[{"byteLength":6643804,"uri":"02Laptop (copy).bin"}]}