<svg width="506" height="349" viewBox="0 0 506 349" fill="none" xmlns="http://www.w3.org/2000/svg">
<path opacity="0.3" d="M145.296 0.763982C101.171 0.763982 64.4735 16.9179 38.9915 47.4841C13.6953 77.8276 0.320001 121.312 0.320001 174.6H20.32C20.32 124.436 32.9187 86.0024 54.3535 60.2908C75.6025 34.8021 106.393 20.764 145.296 20.764V0.763982ZM0.320001 174.6C0.320001 227.888 13.6953 271.372 38.9915 301.716C64.4735 332.282 101.171 348.436 145.296 348.436V328.436C106.393 328.436 75.6025 314.398 54.3535 288.909C32.9187 263.198 20.32 224.764 20.32 174.6H0.320001ZM145.296 348.436C189.631 348.436 226.339 332.29 251.774 301.707C277.017 271.355 290.272 227.868 290.272 174.6H270.272C270.272 224.784 257.775 263.215 236.398 288.918C215.213 314.39 184.433 328.436 145.296 328.436V348.436ZM290.272 174.6C290.272 121.332 277.017 77.8448 251.774 47.4931C226.339 16.9099 189.631 0.763982 145.296 0.763982V20.764C184.433 20.764 215.213 34.8101 236.398 60.2818C257.775 85.9852 270.272 124.416 270.272 174.6H290.272ZM145.296 232.976C141.711 232.976 139.052 231.991 136.837 230.291C134.486 228.487 132.102 225.453 129.985 220.604C125.656 210.69 123.328 195.255 123.328 174.6H103.328C103.328 196.125 105.662 214.878 111.656 228.607C114.7 235.579 118.893 241.731 124.659 246.157C130.561 250.686 137.559 252.976 145.296 252.976V232.976ZM123.328 174.6C123.328 153.945 125.656 138.51 129.985 128.596C132.102 123.747 134.486 120.713 136.837 118.909C139.052 117.209 141.711 116.224 145.296 116.224V96.224C137.559 96.224 130.561 98.5135 124.659 103.043C118.893 107.469 114.7 113.621 111.656 120.593C105.662 134.322 103.328 153.075 103.328 174.6H123.328ZM145.296 116.224C149.035 116.224 151.75 117.235 153.962 118.924C156.307 120.715 158.669 123.725 160.758 128.56C165.037 138.466 167.264 153.894 167.264 174.6H187.264C187.264 153.126 185.051 134.366 179.118 120.629C176.101 113.643 171.914 107.468 166.1 103.028C160.154 98.4879 153.101 96.224 145.296 96.224V116.224ZM167.264 174.6C167.264 195.306 165.037 210.734 160.758 220.64C158.669 225.475 156.307 228.485 153.962 230.276C151.75 231.965 149.035 232.976 145.296 232.976V252.976C153.101 252.976 160.154 250.712 166.1 246.172C171.914 241.732 176.101 235.557 179.118 228.571C185.051 214.834 187.264 196.074 187.264 174.6H167.264ZM394.366 19.2V9.19998H392.322L390.441 10.0025L394.366 19.2ZM324.658 48.948L320.733 39.7505L314.658 42.343V48.948H324.658ZM324.658 112.44H314.658V122.44H324.658V112.44ZM389.926 112.44H399.926V102.44H389.926V112.44ZM389.926 330H379.926V340H389.926V330ZM495.598 330V340H505.598V330H495.598ZM495.598 19.2H505.598V9.19998H495.598V19.2ZM390.441 10.0025L320.733 39.7505L328.583 58.1455L398.291 28.3975L390.441 10.0025ZM314.658 48.948V112.44H334.658V48.948H314.658ZM324.658 122.44H389.926V102.44H324.658V122.44ZM379.926 112.44V330H399.926V112.44H379.926ZM389.926 340H495.598V320H389.926V340ZM505.598 330V19.2H485.598V330H505.598ZM495.598 9.19998H394.366V29.2H495.598V9.19998Z" fill="white"/>
</svg>
