<svg width="611" height="349" viewBox="0 0 611 349" fill="none" xmlns="http://www.w3.org/2000/svg">
<path opacity="0.3" d="M145.296 0.763982C101.171 0.763982 64.4735 16.9179 38.9915 47.4841C13.6953 77.8276 0.320001 121.312 0.320001 174.6H20.32C20.32 124.436 32.9187 86.0024 54.3535 60.2908C75.6025 34.8021 106.393 20.764 145.296 20.764V0.763982ZM0.320001 174.6C0.320001 227.888 13.6953 271.372 38.9915 301.716C64.4735 332.282 101.171 348.436 145.296 348.436V328.436C106.393 328.436 75.6025 314.398 54.3535 288.909C32.9187 263.198 20.32 224.764 20.32 174.6H0.320001ZM145.296 348.436C189.631 348.436 226.339 332.29 251.774 301.707C277.017 271.355 290.272 227.868 290.272 174.6H270.272C270.272 224.784 257.775 263.215 236.398 288.918C215.213 314.39 184.433 328.436 145.296 328.436V348.436ZM290.272 174.6C290.272 121.332 277.017 77.8448 251.774 47.4931C226.339 16.9099 189.631 0.763982 145.296 0.763982V20.764C184.433 20.764 215.213 34.8101 236.398 60.2818C257.775 85.9852 270.272 124.416 270.272 174.6H290.272ZM145.296 232.976C141.711 232.976 139.052 231.991 136.837 230.291C134.486 228.487 132.102 225.453 129.985 220.604C125.656 210.69 123.328 195.255 123.328 174.6H103.328C103.328 196.125 105.662 214.878 111.656 228.607C114.7 235.579 118.893 241.731 124.659 246.157C130.561 250.686 137.559 252.976 145.296 252.976V232.976ZM123.328 174.6C123.328 153.945 125.656 138.51 129.985 128.596C132.102 123.747 134.486 120.713 136.837 118.909C139.052 117.209 141.711 116.224 145.296 116.224V96.224C137.559 96.224 130.561 98.5135 124.659 103.043C118.893 107.469 114.7 113.621 111.656 120.593C105.662 134.322 103.328 153.075 103.328 174.6H123.328ZM145.296 116.224C149.035 116.224 151.75 117.235 153.962 118.924C156.307 120.715 158.669 123.725 160.758 128.56C165.037 138.466 167.264 153.894 167.264 174.6H187.264C187.264 153.126 185.051 134.366 179.118 120.629C176.101 113.643 171.914 107.468 166.1 103.028C160.154 98.4879 153.101 96.224 145.296 96.224V116.224ZM167.264 174.6C167.264 195.306 165.037 210.734 160.758 220.64C158.669 225.475 156.307 228.485 153.962 230.276C151.75 231.965 149.035 232.976 145.296 232.976V252.976C153.101 252.976 160.154 250.712 166.1 246.172C171.914 241.732 176.101 235.557 179.118 228.571C185.051 214.834 187.264 196.074 187.264 174.6H167.264ZM599.938 102.228L609.933 101.92L609.933 101.91L609.933 101.9L599.938 102.228ZM337.978 120.876H327.978V130.876H337.978V120.876ZM445.426 120.876V130.876H455.426V120.876H445.426ZM480.502 111.108L490.501 111.255L490.502 111.182V111.108H480.502ZM402.802 160.836L398.167 151.975L398.125 151.997L398.083 152.019L402.802 160.836ZM333.538 330H323.538V340H333.538V330ZM599.938 330V340H609.938V330H599.938ZM599.938 241.2H609.938V231.2H599.938V241.2ZM454.75 241.2L445.162 238.359L441.357 251.2H454.75V241.2ZM609.933 101.9C609.209 79.8354 603.072 62.0137 593.013 47.8643C583 33.7789 569.501 23.8928 554.868 16.9838C525.89 3.3015 491.316 0.763982 466.294 0.763982V20.764C490.556 20.764 521.472 23.3325 546.329 35.0692C558.614 40.8696 569.119 48.7713 576.713 59.4528C584.261 70.0703 589.335 83.9945 589.944 102.556L609.933 101.9ZM466.294 0.763982C433.859 0.763982 399.521 8.37689 373 27.3897C346.021 46.7304 327.978 77.3102 327.978 120.876H347.978C347.978 83.6337 363.013 59.1575 384.653 43.6443C406.75 27.8031 436.569 20.764 466.294 20.764V0.763982ZM337.978 130.876C338.048 130.876 338.119 130.876 338.189 130.876C338.26 130.876 338.33 130.876 338.401 130.876C338.472 130.876 338.543 130.876 338.614 130.876C338.685 130.876 338.756 130.876 338.827 130.876C338.899 130.876 338.97 130.876 339.042 130.876C339.113 130.876 339.185 130.876 339.257 130.876C339.329 130.876 339.401 130.876 339.473 130.876C339.545 130.876 339.617 130.876 339.69 130.876C339.762 130.876 339.834 130.876 339.907 130.876C339.98 130.876 340.052 130.876 340.125 130.876C340.198 130.876 340.271 130.876 340.344 130.876C340.417 130.876 340.491 130.876 340.564 130.876C340.637 130.876 340.711 130.876 340.785 130.876C340.858 130.876 340.932 130.876 341.006 130.876C341.08 130.876 341.154 130.876 341.228 130.876C341.302 130.876 341.376 130.876 341.451 130.876C341.525 130.876 341.599 130.876 341.674 130.876C341.749 130.876 341.823 130.876 341.898 130.876C341.973 130.876 342.048 130.876 342.123 130.876C342.198 130.876 342.274 130.876 342.349 130.876C342.424 130.876 342.5 130.876 342.575 130.876C342.651 130.876 342.727 130.876 342.802 130.876C342.878 130.876 342.954 130.876 343.03 130.876C343.106 130.876 343.182 130.876 343.259 130.876C343.335 130.876 343.411 130.876 343.488 130.876C343.564 130.876 343.641 130.876 343.718 130.876C343.795 130.876 343.871 130.876 343.948 130.876C344.025 130.876 344.102 130.876 344.18 130.876C344.257 130.876 344.334 130.876 344.412 130.876C344.489 130.876 344.567 130.876 344.644 130.876C344.722 130.876 344.8 130.876 344.878 130.876C344.955 130.876 345.033 130.876 345.112 130.876C345.19 130.876 345.268 130.876 345.346 130.876C345.424 130.876 345.503 130.876 345.581 130.876C345.66 130.876 345.739 130.876 345.817 130.876C345.896 130.876 345.975 130.876 346.054 130.876C346.133 130.876 346.212 130.876 346.291 130.876C346.37 130.876 346.45 130.876 346.529 130.876C346.608 130.876 346.688 130.876 346.767 130.876C346.847 130.876 346.927 130.876 347.007 130.876C347.086 130.876 347.166 130.876 347.246 130.876C347.326 130.876 347.406 130.876 347.487 130.876C347.567 130.876 347.647 130.876 347.728 130.876C347.808 130.876 347.889 130.876 347.969 130.876C348.05 130.876 348.131 130.876 348.211 130.876C348.292 130.876 348.373 130.876 348.454 130.876C348.535 130.876 348.616 130.876 348.697 130.876C348.779 130.876 348.86 130.876 348.941 130.876C349.023 130.876 349.104 130.876 349.186 130.876C349.268 130.876 349.349 130.876 349.431 130.876C349.513 130.876 349.595 130.876 349.677 130.876C349.759 130.876 349.841 130.876 349.923 130.876C350.005 130.876 350.087 130.876 350.17 130.876C350.252 130.876 350.335 130.876 350.417 130.876C350.5 130.876 350.582 130.876 350.665 130.876C350.748 130.876 350.831 130.876 350.914 130.876C350.997 130.876 351.08 130.876 351.163 130.876C351.246 130.876 351.329 130.876 351.412 130.876C351.495 130.876 351.579 130.876 351.662 130.876C351.746 130.876 351.829 130.876 351.913 130.876C351.997 130.876 352.08 130.876 352.164 130.876C352.248 130.876 352.332 130.876 352.416 130.876C352.5 130.876 352.584 130.876 352.668 130.876C352.752 130.876 352.836 130.876 352.921 130.876C353.005 130.876 353.089 130.876 353.174 130.876C353.258 130.876 353.343 130.876 353.428 130.876C353.512 130.876 353.597 130.876 353.682 130.876C353.767 130.876 353.852 130.876 353.936 130.876C354.021 130.876 354.107 130.876 354.192 130.876C354.277 130.876 354.362 130.876 354.447 130.876C354.533 130.876 354.618 130.876 354.704 130.876C354.789 130.876 354.875 130.876 354.96 130.876C355.046 130.876 355.131 130.876 355.217 130.876C355.303 130.876 355.389 130.876 355.475 130.876C355.561 130.876 355.647 130.876 355.733 130.876C355.819 130.876 355.905 130.876 355.991 130.876C356.078 130.876 356.164 130.876 356.25 130.876C356.337 130.876 356.423 130.876 356.51 130.876C356.596 130.876 356.683 130.876 356.769 130.876C356.856 130.876 356.943 130.876 357.03 130.876C357.116 130.876 357.203 130.876 357.29 130.876C357.377 130.876 357.464 130.876 357.551 130.876C357.639 130.876 357.726 130.876 357.813 130.876C357.9 130.876 357.987 130.876 358.075 130.876C358.162 130.876 358.25 130.876 358.337 130.876C358.425 130.876 358.512 130.876 358.6 130.876C358.688 130.876 358.775 130.876 358.863 130.876C358.951 130.876 359.039 130.876 359.127 130.876C359.215 130.876 359.303 130.876 359.391 130.876C359.479 130.876 359.567 130.876 359.655 130.876C359.743 130.876 359.831 130.876 359.92 130.876C360.008 130.876 360.096 130.876 360.185 130.876C360.273 130.876 360.362 130.876 360.45 130.876C360.539 130.876 360.627 130.876 360.716 130.876C360.805 130.876 360.893 130.876 360.982 130.876C361.071 130.876 361.16 130.876 361.249 130.876C361.338 130.876 361.427 130.876 361.516 130.876C361.605 130.876 361.694 130.876 361.783 130.876C361.872 130.876 361.961 130.876 362.051 130.876C362.14 130.876 362.229 130.876 362.318 130.876C362.408 130.876 362.497 130.876 362.587 130.876C362.676 130.876 362.766 130.876 362.855 130.876C362.945 130.876 363.035 130.876 363.124 130.876C363.214 130.876 363.304 130.876 363.394 130.876C363.483 130.876 363.573 130.876 363.663 130.876C363.753 130.876 363.843 130.876 363.933 130.876C364.023 130.876 364.113 130.876 364.203 130.876C364.293 130.876 364.383 130.876 364.474 130.876C364.564 130.876 364.654 130.876 364.744 130.876C364.835 130.876 364.925 130.876 365.016 130.876C365.106 130.876 365.196 130.876 365.287 130.876C365.377 130.876 365.468 130.876 365.559 130.876C365.649 130.876 365.74 130.876 365.83 130.876C365.921 130.876 366.012 130.876 366.103 130.876C366.193 130.876 366.284 130.876 366.375 130.876C366.466 130.876 366.557 130.876 366.648 130.876C366.739 130.876 366.83 130.876 366.921 130.876C367.012 130.876 367.103 130.876 367.194 130.876C367.285 130.876 367.376 130.876 367.467 130.876C367.559 130.876 367.65 130.876 367.741 130.876C367.832 130.876 367.924 130.876 368.015 130.876C368.107 130.876 368.198 130.876 368.289 130.876C368.381 130.876 368.472 130.876 368.564 130.876C368.655 130.876 368.747 130.876 368.838 130.876C368.93 130.876 369.022 130.876 369.113 130.876C369.205 130.876 369.297 130.876 369.388 130.876C369.48 130.876 369.572 130.876 369.664 130.876C369.756 130.876 369.847 130.876 369.939 130.876C370.031 130.876 370.123 130.876 370.215 130.876C370.307 130.876 370.399 130.876 370.491 130.876C370.583 130.876 370.675 130.876 370.767 130.876C370.859 130.876 370.951 130.876 371.043 130.876C371.135 130.876 371.227 130.876 371.32 130.876C371.412 130.876 371.504 130.876 371.596 130.876C371.689 130.876 371.781 130.876 371.873 130.876C371.965 130.876 372.058 130.876 372.15 130.876C372.242 130.876 372.335 130.876 372.427 130.876C372.52 130.876 372.612 130.876 372.704 130.876C372.797 130.876 372.889 130.876 372.982 130.876C373.074 130.876 373.167 130.876 373.26 130.876C373.352 130.876 373.445 130.876 373.537 130.876C373.63 130.876 373.722 130.876 373.815 130.876C373.908 130.876 374 130.876 374.093 130.876C374.186 130.876 374.279 130.876 374.371 130.876C374.464 130.876 374.557 130.876 374.65 130.876C374.742 130.876 374.835 130.876 374.928 130.876C375.021 130.876 375.114 130.876 375.206 130.876C375.299 130.876 375.392 130.876 375.485 130.876C375.578 130.876 375.671 130.876 375.764 130.876C375.857 130.876 375.95 130.876 376.043 130.876C376.136 130.876 376.228 130.876 376.321 130.876C376.414 130.876 376.507 130.876 376.6 130.876C376.693 130.876 376.787 130.876 376.88 130.876C376.973 130.876 377.066 130.876 377.159 130.876C377.252 130.876 377.345 130.876 377.438 130.876C377.531 130.876 377.624 130.876 377.717 130.876C377.81 130.876 377.904 130.876 377.997 130.876C378.09 130.876 378.183 130.876 378.276 130.876C378.369 130.876 378.462 130.876 378.556 130.876C378.649 130.876 378.742 130.876 378.835 130.876C378.928 130.876 379.022 130.876 379.115 130.876C379.208 130.876 379.301 130.876 379.394 130.876C379.488 130.876 379.581 130.876 379.674 130.876C379.767 130.876 379.861 130.876 379.954 130.876C380.047 130.876 380.14 130.876 380.234 130.876C380.327 130.876 380.42 130.876 380.513 130.876C380.607 130.876 380.7 130.876 380.793 130.876C380.886 130.876 380.98 130.876 381.073 130.876C381.166 130.876 381.259 130.876 381.353 130.876C381.446 130.876 381.539 130.876 381.632 130.876C381.726 130.876 381.819 130.876 381.912 130.876C382.006 130.876 382.099 130.876 382.192 130.876C382.285 130.876 382.379 130.876 382.472 130.876C382.565 130.876 382.658 130.876 382.752 130.876C382.845 130.876 382.938 130.876 383.031 130.876C383.125 130.876 383.218 130.876 383.311 130.876C383.404 130.876 383.498 130.876 383.591 130.876C383.684 130.876 383.777 130.876 383.871 130.876C383.964 130.876 384.057 130.876 384.15 130.876C384.243 130.876 384.337 130.876 384.43 130.876C384.523 130.876 384.616 130.876 384.709 130.876C384.803 130.876 384.896 130.876 384.989 130.876C385.082 130.876 385.175 130.876 385.268 130.876C385.361 130.876 385.455 130.876 385.548 130.876C385.641 130.876 385.734 130.876 385.827 130.876C385.92 130.876 386.013 130.876 386.106 130.876C386.199 130.876 386.292 130.876 386.385 130.876C386.478 130.876 386.571 130.876 386.664 130.876C386.757 130.876 386.85 130.876 386.943 130.876C387.036 130.876 387.129 130.876 387.222 130.876C387.315 130.876 387.408 130.876 387.501 130.876C387.594 130.876 387.687 130.876 387.78 130.876C387.873 130.876 387.966 130.876 388.058 130.876C388.151 130.876 388.244 130.876 388.337 130.876C388.43 130.876 388.523 130.876 388.615 130.876C388.708 130.876 388.801 130.876 388.894 130.876C388.986 130.876 389.079 130.876 389.172 130.876C389.264 130.876 389.357 130.876 389.45 130.876C389.542 130.876 389.635 130.876 389.728 130.876C389.82 130.876 389.913 130.876 390.005 130.876C390.098 130.876 390.19 130.876 390.283 130.876C390.375 130.876 390.468 130.876 390.56 130.876C390.653 130.876 390.745 130.876 390.838 130.876C390.93 130.876 391.022 130.876 391.115 130.876C391.207 130.876 391.299 130.876 391.392 130.876C391.484 130.876 391.576 130.876 391.668 130.876C391.761 130.876 391.853 130.876 391.945 130.876C392.037 130.876 392.129 130.876 392.222 130.876C392.314 130.876 392.406 130.876 392.498 130.876C392.59 130.876 392.682 130.876 392.774 130.876C392.866 130.876 392.958 130.876 393.05 130.876C393.142 130.876 393.234 130.876 393.325 130.876C393.417 130.876 393.509 130.876 393.601 130.876C393.693 130.876 393.784 130.876 393.876 130.876C393.968 130.876 394.06 130.876 394.151 130.876C394.243 130.876 394.335 130.876 394.426 130.876C394.518 130.876 394.609 130.876 394.701 130.876C394.792 130.876 394.884 130.876 394.975 130.876C395.067 130.876 395.158 130.876 395.249 130.876C395.341 130.876 395.432 130.876 395.523 130.876C395.615 130.876 395.706 130.876 395.797 130.876C395.888 130.876 395.979 130.876 396.07 130.876C396.162 130.876 396.253 130.876 396.344 130.876C396.435 130.876 396.526 130.876 396.617 130.876C396.708 130.876 396.798 130.876 396.889 130.876C396.98 130.876 397.071 130.876 397.162 130.876C397.253 130.876 397.343 130.876 397.434 130.876C397.525 130.876 397.615 130.876 397.706 130.876C397.796 130.876 397.887 130.876 397.977 130.876C398.068 130.876 398.158 130.876 398.249 130.876C398.339 130.876 398.429 130.876 398.52 130.876C398.61 130.876 398.7 130.876 398.791 130.876C398.881 130.876 398.971 130.876 399.061 130.876C399.151 130.876 399.241 130.876 399.331 130.876C399.421 130.876 399.511 130.876 399.601 130.876C399.691 130.876 399.781 130.876 399.871 130.876C399.96 130.876 400.05 130.876 400.14 130.876C400.229 130.876 400.319 130.876 400.409 130.876C400.498 130.876 400.588 130.876 400.677 130.876C400.767 130.876 400.856 130.876 400.946 130.876C401.035 130.876 401.124 130.876 401.213 130.876C401.303 130.876 401.392 130.876 401.481 130.876C401.57 130.876 401.659 130.876 401.748 130.876C401.837 130.876 401.926 130.876 402.015 130.876C402.104 130.876 402.193 130.876 402.282 130.876C402.37 130.876 402.459 130.876 402.548 130.876C402.636 130.876 402.725 130.876 402.814 130.876C402.902 130.876 402.991 130.876 403.079 130.876C403.167 130.876 403.256 130.876 403.344 130.876C403.432 130.876 403.521 130.876 403.609 130.876C403.697 130.876 403.785 130.876 403.873 130.876C403.961 130.876 404.049 130.876 404.137 130.876C404.225 130.876 404.313 130.876 404.4 130.876C404.488 130.876 404.576 130.876 404.664 130.876C404.751 130.876 404.839 130.876 404.926 130.876C405.014 130.876 405.101 130.876 405.189 130.876C405.276 130.876 405.363 130.876 405.451 130.876C405.538 130.876 405.625 130.876 405.712 130.876C405.799 130.876 405.886 130.876 405.973 130.876C406.06 130.876 406.147 130.876 406.234 130.876C406.321 130.876 406.407 130.876 406.494 130.876C406.581 130.876 406.667 130.876 406.754 130.876C406.84 130.876 406.927 130.876 407.013 130.876C407.099 130.876 407.186 130.876 407.272 130.876C407.358 130.876 407.444 130.876 407.53 130.876C407.616 130.876 407.702 130.876 407.788 130.876C407.874 130.876 407.96 130.876 408.046 130.876C408.132 130.876 408.217 130.876 408.303 130.876C408.389 130.876 408.474 130.876 408.56 130.876C408.645 130.876 408.73 130.876 408.816 130.876C408.901 130.876 408.986 130.876 409.071 130.876C409.156 130.876 409.241 130.876 409.326 130.876C409.411 130.876 409.496 130.876 409.581 130.876C409.666 130.876 409.751 130.876 409.835 130.876C409.92 130.876 410.004 130.876 410.089 130.876C410.173 130.876 410.258 130.876 410.342 130.876C410.426 130.876 410.511 130.876 410.595 130.876C410.679 130.876 410.763 130.876 410.847 130.876C410.931 130.876 411.015 130.876 411.099 130.876C411.182 130.876 411.266 130.876 411.35 130.876C411.433 130.876 411.517 130.876 411.6 130.876C411.684 130.876 411.767 130.876 411.85 130.876C411.934 130.876 412.017 130.876 412.1 130.876C412.183 130.876 412.266 130.876 412.349 130.876C412.432 130.876 412.515 130.876 412.597 130.876C412.68 130.876 412.763 130.876 412.845 130.876C412.928 130.876 413.01 130.876 413.092 130.876C413.175 130.876 413.257 130.876 413.339 130.876C413.421 130.876 413.503 130.876 413.585 130.876C413.667 130.876 413.749 130.876 413.831 130.876C413.913 130.876 413.995 130.876 414.076 130.876C414.158 130.876 414.239 130.876 414.321 130.876C414.402 130.876 414.483 130.876 414.565 130.876C414.646 130.876 414.727 130.876 414.808 130.876C414.889 130.876 414.97 130.876 415.051 130.876C415.131 130.876 415.212 130.876 415.293 130.876C415.373 130.876 415.454 130.876 415.534 130.876C415.615 130.876 415.695 130.876 415.775 130.876C415.855 130.876 415.935 130.876 416.015 130.876C416.095 130.876 416.175 130.876 416.255 130.876C416.335 130.876 416.415 130.876 416.494 130.876C416.574 130.876 416.653 130.876 416.733 130.876C416.812 130.876 416.891 130.876 416.97 130.876C417.049 130.876 417.129 130.876 417.207 130.876C417.286 130.876 417.365 130.876 417.444 130.876C417.523 130.876 417.601 130.876 417.68 130.876C417.758 130.876 417.837 130.876 417.915 130.876C417.993 130.876 418.072 130.876 418.15 130.876C418.228 130.876 418.306 130.876 418.384 130.876C418.461 130.876 418.539 130.876 418.617 130.876C418.694 130.876 418.772 130.876 418.849 130.876C418.927 130.876 419.004 130.876 419.081 130.876C419.158 130.876 419.236 130.876 419.313 130.876C419.389 130.876 419.466 130.876 419.543 130.876C419.62 130.876 419.696 130.876 419.773 130.876C419.849 130.876 419.926 130.876 420.002 130.876C420.078 130.876 420.154 130.876 420.231 130.876C420.307 130.876 420.382 130.876 420.458 130.876C420.534 130.876 420.61 130.876 420.685 130.876C420.761 130.876 420.836 130.876 420.912 130.876C420.987 130.876 421.062 130.876 421.137 130.876C421.212 130.876 421.287 130.876 421.362 130.876C421.437 130.876 421.512 130.876 421.586 130.876C421.661 130.876 421.735 130.876 421.81 130.876C421.884 130.876 421.958 130.876 422.032 130.876C422.107 130.876 422.18 130.876 422.254 130.876C422.328 130.876 422.402 130.876 422.476 130.876C422.549 130.876 422.623 130.876 422.696 130.876C422.769 130.876 422.843 130.876 422.916 130.876C422.989 130.876 423.062 130.876 423.135 130.876C423.207 130.876 423.28 130.876 423.353 130.876C423.425 130.876 423.498 130.876 423.57 130.876C423.643 130.876 423.715 130.876 423.787 130.876C423.859 130.876 423.931 130.876 424.003 130.876C424.074 130.876 424.146 130.876 424.218 130.876C424.289 130.876 424.361 130.876 424.432 130.876C424.503 130.876 424.574 130.876 424.645 130.876C424.717 130.876 424.787 130.876 424.858 130.876C424.929 130.876 425 130.876 425.07 130.876C425.141 130.876 425.211 130.876 425.281 130.876C425.351 130.876 425.421 130.876 425.491 130.876C425.561 130.876 425.631 130.876 425.701 130.876C425.77 130.876 425.84 130.876 425.909 130.876C425.979 130.876 426.048 130.876 426.117 130.876C426.186 130.876 426.255 130.876 426.324 130.876C426.393 130.876 426.462 130.876 426.53 130.876C426.599 130.876 426.667 130.876 426.736 130.876C426.804 130.876 426.872 130.876 426.94 130.876C427.008 130.876 427.076 130.876 427.144 130.876C427.211 130.876 427.279 130.876 427.346 130.876C427.414 130.876 427.481 130.876 427.548 130.876C427.615 130.876 427.682 130.876 427.749 130.876C427.816 130.876 427.883 130.876 427.949 130.876C428.016 130.876 428.082 130.876 428.148 130.876C428.215 130.876 428.281 130.876 428.347 130.876C428.413 130.876 428.479 130.876 428.544 130.876C428.61 130.876 428.675 130.876 428.741 130.876C428.806 130.876 428.871 130.876 428.937 130.876C429.002 130.876 429.067 130.876 429.131 130.876C429.196 130.876 429.261 130.876 429.325 130.876C429.39 130.876 429.454 130.876 429.518 130.876C429.582 130.876 429.646 130.876 429.71 130.876C429.774 130.876 429.838 130.876 429.901 130.876C429.965 130.876 430.028 130.876 430.092 130.876C430.155 130.876 430.218 130.876 430.281 130.876C430.344 130.876 430.407 130.876 430.469 130.876C430.532 130.876 430.594 130.876 430.657 130.876C430.719 130.876 430.781 130.876 430.843 130.876C430.905 130.876 430.967 130.876 431.029 130.876C431.09 130.876 431.152 130.876 431.213 130.876C431.275 130.876 431.336 130.876 431.397 130.876C431.458 130.876 431.519 130.876 431.58 130.876C431.64 130.876 431.701 130.876 431.761 130.876C431.822 130.876 431.882 130.876 431.942 130.876C432.002 130.876 432.062 130.876 432.122 130.876C432.182 130.876 432.241 130.876 432.301 130.876C432.36 130.876 432.419 130.876 432.478 130.876C432.537 130.876 432.596 130.876 432.655 130.876C432.714 130.876 432.773 130.876 432.831 130.876C432.889 130.876 432.948 130.876 433.006 130.876C433.064 130.876 433.122 130.876 433.18 130.876C433.237 130.876 433.295 130.876 433.352 130.876C433.41 130.876 433.467 130.876 433.524 130.876C433.581 130.876 433.638 130.876 433.695 130.876C433.752 130.876 433.808 130.876 433.865 130.876C433.921 130.876 433.977 130.876 434.033 130.876C434.089 130.876 434.145 130.876 434.201 130.876C434.257 130.876 434.312 130.876 434.368 130.876C434.423 130.876 434.478 130.876 434.533 130.876C434.588 130.876 434.643 130.876 434.698 130.876C434.752 130.876 434.807 130.876 434.861 130.876C434.915 130.876 434.97 130.876 435.024 130.876C435.078 130.876 435.131 130.876 435.185 130.876C435.239 130.876 435.292 130.876 435.345 130.876C435.398 130.876 435.452 130.876 435.504 130.876C435.557 130.876 435.61 130.876 435.663 130.876C435.715 130.876 435.768 130.876 435.82 130.876C435.872 130.876 435.924 130.876 435.976 130.876C436.027 130.876 436.079 130.876 436.131 130.876C436.182 130.876 436.233 130.876 436.284 130.876C436.335 130.876 436.386 130.876 436.437 130.876C436.488 130.876 436.538 130.876 436.589 130.876C436.639 130.876 436.689 130.876 436.739 130.876C436.789 130.876 436.839 130.876 436.888 130.876C436.938 130.876 436.987 130.876 437.037 130.876C437.086 130.876 437.135 130.876 437.184 130.876C437.233 130.876 437.281 130.876 437.33 130.876C437.378 130.876 437.427 130.876 437.475 130.876C437.523 130.876 437.571 130.876 437.618 130.876C437.666 130.876 437.714 130.876 437.761 130.876C437.808 130.876 437.855 130.876 437.902 130.876C437.949 130.876 437.996 130.876 438.043 130.876C438.089 130.876 438.136 130.876 438.182 130.876C438.228 130.876 438.274 130.876 438.32 130.876C438.366 130.876 438.411 130.876 438.457 130.876C438.502 130.876 438.547 130.876 438.592 130.876C438.637 130.876 438.682 130.876 438.727 130.876C438.771 130.876 438.816 130.876 438.86 130.876C438.904 130.876 438.948 130.876 438.992 130.876C439.036 130.876 439.079 130.876 439.123 130.876C439.166 130.876 439.209 130.876 439.252 130.876C439.296 130.876 439.338 130.876 439.381 130.876C439.424 130.876 439.466 130.876 439.508 130.876C439.55 130.876 439.592 130.876 439.634 130.876C439.676 130.876 439.718 130.876 439.759 130.876C439.801 130.876 439.842 130.876 439.883 130.876C439.924 130.876 439.965 130.876 440.005 130.876C440.046 130.876 440.086 130.876 440.126 130.876C440.167 130.876 440.207 130.876 440.246 130.876C440.286 130.876 440.326 130.876 440.365 130.876C440.404 130.876 440.444 130.876 440.482 130.876C440.521 130.876 440.56 130.876 440.599 130.876C440.637 130.876 440.676 130.876 440.714 130.876C440.752 130.876 440.79 130.876 440.827 130.876C440.865 130.876 440.903 130.876 440.94 130.876C440.977 130.876 441.014 130.876 441.051 130.876C441.088 130.876 441.124 130.876 441.161 130.876C441.197 130.876 441.233 130.876 441.269 130.876C441.305 130.876 441.341 130.876 441.377 130.876C441.412 130.876 441.448 130.876 441.483 130.876C441.518 130.876 441.553 130.876 441.588 130.876C441.622 130.876 441.657 130.876 441.691 130.876C441.725 130.876 441.759 130.876 441.793 130.876C441.827 130.876 441.861 130.876 441.894 130.876C441.927 130.876 441.961 130.876 441.994 130.876C442.027 130.876 442.059 130.876 442.092 130.876C442.124 130.876 442.157 130.876 442.189 130.876C442.221 130.876 442.253 130.876 442.284 130.876C442.316 130.876 442.347 130.876 442.379 130.876C442.41 130.876 442.441 130.876 442.471 130.876C442.502 130.876 442.533 130.876 442.563 130.876C442.593 130.876 442.623 130.876 442.653 130.876C442.683 130.876 442.713 130.876 442.742 130.876C442.772 130.876 442.801 130.876 442.83 130.876C442.859 130.876 442.887 130.876 442.916 130.876C442.944 130.876 442.973 130.876 443.001 130.876C443.029 130.876 443.057 130.876 443.084 130.876C443.112 130.876 443.139 130.876 443.166 130.876C443.193 130.876 443.22 130.876 443.247 130.876C443.274 130.876 443.3 130.876 443.326 130.876C443.352 130.876 443.378 130.876 443.404 130.876C443.43 130.876 443.455 130.876 443.481 130.876C443.506 130.876 443.531 130.876 443.556 130.876C443.581 130.876 443.605 130.876 443.629 130.876C443.654 130.876 443.678 130.876 443.702 130.876C443.726 130.876 443.749 130.876 443.773 130.876C443.796 130.876 443.819 130.876 443.842 130.876C443.865 130.876 443.888 130.876 443.91 130.876C443.933 130.876 443.955 130.876 443.977 130.876C443.999 130.876 444.021 130.876 444.042 130.876C444.064 130.876 444.085 130.876 444.106 130.876C444.127 130.876 444.148 130.876 444.168 130.876C444.189 130.876 444.209 130.876 444.229 130.876C444.249 130.876 444.269 130.876 444.289 130.876C444.308 130.876 444.328 130.876 444.347 130.876C444.366 130.876 444.385 130.876 444.403 130.876C444.422 130.876 444.44 130.876 444.458 130.876C444.476 130.876 444.494 130.876 444.512 130.876C444.529 130.876 444.547 130.876 444.564 130.876C444.581 130.876 444.598 130.876 444.615 130.876C444.631 130.876 444.648 130.876 444.664 130.876C444.68 130.876 444.696 130.876 444.711 130.876C444.727 130.876 444.742 130.876 444.758 130.876C444.773 130.876 444.788 130.876 444.802 130.876C444.817 130.876 444.831 130.876 444.845 130.876C444.86 130.876 444.874 130.876 444.887 130.876C444.901 130.876 444.914 130.876 444.927 130.876C444.94 130.876 444.953 130.876 444.966 130.876C444.979 130.876 444.991 130.876 445.003 130.876C445.015 130.876 445.027 130.876 445.039 130.876C445.05 130.876 445.062 130.876 445.073 130.876C445.084 130.876 445.095 130.876 445.105 130.876C445.116 130.876 445.126 130.876 445.136 130.876C445.146 130.876 445.156 130.876 445.166 130.876C445.175 130.876 445.185 130.876 445.194 130.876C445.203 130.876 445.211 130.876 445.22 130.876C445.229 130.876 445.237 130.876 445.245 130.876C445.253 130.876 445.261 130.876 445.268 130.876C445.275 130.876 445.283 130.876 445.29 130.876C445.297 130.876 445.303 130.876 445.31 130.876C445.316 130.876 445.322 130.876 445.328 130.876C445.334 130.876 445.34 130.876 445.345 130.876C445.351 130.876 445.356 130.876 445.36 130.876C445.365 130.876 445.37 130.876 445.374 130.876C445.379 130.876 445.383 130.876 445.386 130.876C445.39 130.876 445.394 130.876 445.397 130.876C445.4 130.876 445.403 130.876 445.406 130.876C445.409 130.876 445.411 130.876 445.413 130.876C445.415 130.876 445.417 130.876 445.419 130.876C445.42 130.876 445.422 130.876 445.423 130.876C445.424 130.876 445.425 130.876 445.425 130.876C445.426 130.876 445.426 130.876 445.426 120.876C445.426 110.876 445.426 110.876 445.425 110.876C445.425 110.876 445.424 110.876 445.423 110.876C445.422 110.876 445.42 110.876 445.419 110.876C445.417 110.876 445.415 110.876 445.413 110.876C445.411 110.876 445.409 110.876 445.406 110.876C445.403 110.876 445.4 110.876 445.397 110.876C445.394 110.876 445.39 110.876 445.386 110.876C445.383 110.876 445.379 110.876 445.374 110.876C445.37 110.876 445.365 110.876 445.36 110.876C445.356 110.876 445.351 110.876 445.345 110.876C445.34 110.876 445.334 110.876 445.328 110.876C445.322 110.876 445.316 110.876 445.31 110.876C445.303 110.876 445.297 110.876 445.29 110.876C445.283 110.876 445.275 110.876 445.268 110.876C445.261 110.876 445.253 110.876 445.245 110.876C445.237 110.876 445.229 110.876 445.22 110.876C445.211 110.876 445.203 110.876 445.194 110.876C445.185 110.876 445.175 110.876 445.166 110.876C445.156 110.876 445.146 110.876 445.136 110.876C445.126 110.876 445.116 110.876 445.105 110.876C445.095 110.876 445.084 110.876 445.073 110.876C445.062 110.876 445.05 110.876 445.039 110.876C445.027 110.876 445.015 110.876 445.003 110.876C444.991 110.876 444.979 110.876 444.966 110.876C444.953 110.876 444.94 110.876 444.927 110.876C444.914 110.876 444.901 110.876 444.887 110.876C444.874 110.876 444.86 110.876 444.845 110.876C444.831 110.876 444.817 110.876 444.802 110.876C444.788 110.876 444.773 110.876 444.758 110.876C444.742 110.876 444.727 110.876 444.711 110.876C444.696 110.876 444.68 110.876 444.664 110.876C444.648 110.876 444.631 110.876 444.615 110.876C444.598 110.876 444.581 110.876 444.564 110.876C444.547 110.876 444.529 110.876 444.512 110.876C444.494 110.876 444.476 110.876 444.458 110.876C444.44 110.876 444.422 110.876 444.403 110.876C444.385 110.876 444.366 110.876 444.347 110.876C444.328 110.876 444.308 110.876 444.289 110.876C444.269 110.876 444.249 110.876 444.229 110.876C444.209 110.876 444.189 110.876 444.168 110.876C444.148 110.876 444.127 110.876 444.106 110.876C444.085 110.876 444.064 110.876 444.042 110.876C444.021 110.876 443.999 110.876 443.977 110.876C443.955 110.876 443.933 110.876 443.91 110.876C443.888 110.876 443.865 110.876 443.842 110.876C443.819 110.876 443.796 110.876 443.773 110.876C443.749 110.876 443.726 110.876 443.702 110.876C443.678 110.876 443.654 110.876 443.629 110.876C443.605 110.876 443.581 110.876 443.556 110.876C443.531 110.876 443.506 110.876 443.481 110.876C443.455 110.876 443.43 110.876 443.404 110.876C443.378 110.876 443.352 110.876 443.326 110.876C443.3 110.876 443.274 110.876 443.247 110.876C443.22 110.876 443.193 110.876 443.166 110.876C443.139 110.876 443.112 110.876 443.084 110.876C443.057 110.876 443.029 110.876 443.001 110.876C442.973 110.876 442.944 110.876 442.916 110.876C442.887 110.876 442.859 110.876 442.83 110.876C442.801 110.876 442.772 110.876 442.742 110.876C442.713 110.876 442.683 110.876 442.653 110.876C442.623 110.876 442.593 110.876 442.563 110.876C442.533 110.876 442.502 110.876 442.471 110.876C442.441 110.876 442.41 110.876 442.379 110.876C442.347 110.876 442.316 110.876 442.284 110.876C442.253 110.876 442.221 110.876 442.189 110.876C442.157 110.876 442.124 110.876 442.092 110.876C442.059 110.876 442.027 110.876 441.994 110.876C441.961 110.876 441.927 110.876 441.894 110.876C441.861 110.876 441.827 110.876 441.793 110.876C441.759 110.876 441.725 110.876 441.691 110.876C441.657 110.876 441.622 110.876 441.588 110.876C441.553 110.876 441.518 110.876 441.483 110.876C441.448 110.876 441.412 110.876 441.377 110.876C441.341 110.876 441.305 110.876 441.269 110.876C441.233 110.876 441.197 110.876 441.161 110.876C441.124 110.876 441.088 110.876 441.051 110.876C441.014 110.876 440.977 110.876 440.94 110.876C440.903 110.876 440.865 110.876 440.827 110.876C440.79 110.876 440.752 110.876 440.714 110.876C440.676 110.876 440.637 110.876 440.599 110.876C440.56 110.876 440.521 110.876 440.482 110.876C440.444 110.876 440.404 110.876 440.365 110.876C440.326 110.876 440.286 110.876 440.246 110.876C440.207 110.876 440.167 110.876 440.126 110.876C440.086 110.876 440.046 110.876 440.005 110.876C439.965 110.876 439.924 110.876 439.883 110.876C439.842 110.876 439.801 110.876 439.759 110.876C439.718 110.876 439.676 110.876 439.634 110.876C439.592 110.876 439.55 110.876 439.508 110.876C439.466 110.876 439.424 110.876 439.381 110.876C439.338 110.876 439.296 110.876 439.252 110.876C439.209 110.876 439.166 110.876 439.123 110.876C439.079 110.876 439.036 110.876 438.992 110.876C438.948 110.876 438.904 110.876 438.86 110.876C438.816 110.876 438.771 110.876 438.727 110.876C438.682 110.876 438.637 110.876 438.592 110.876C438.547 110.876 438.502 110.876 438.457 110.876C438.411 110.876 438.366 110.876 438.32 110.876C438.274 110.876 438.228 110.876 438.182 110.876C438.136 110.876 438.089 110.876 438.043 110.876C437.996 110.876 437.949 110.876 437.902 110.876C437.855 110.876 437.808 110.876 437.761 110.876C437.714 110.876 437.666 110.876 437.618 110.876C437.571 110.876 437.523 110.876 437.475 110.876C437.427 110.876 437.378 110.876 437.33 110.876C437.281 110.876 437.233 110.876 437.184 110.876C437.135 110.876 437.086 110.876 437.037 110.876C436.987 110.876 436.938 110.876 436.888 110.876C436.839 110.876 436.789 110.876 436.739 110.876C436.689 110.876 436.639 110.876 436.589 110.876C436.538 110.876 436.488 110.876 436.437 110.876C436.386 110.876 436.335 110.876 436.284 110.876C436.233 110.876 436.182 110.876 436.131 110.876C436.079 110.876 436.027 110.876 435.976 110.876C435.924 110.876 435.872 110.876 435.82 110.876C435.768 110.876 435.715 110.876 435.663 110.876C435.61 110.876 435.557 110.876 435.504 110.876C435.452 110.876 435.398 110.876 435.345 110.876C435.292 110.876 435.239 110.876 435.185 110.876C435.131 110.876 435.078 110.876 435.024 110.876C434.97 110.876 434.915 110.876 434.861 110.876C434.807 110.876 434.752 110.876 434.698 110.876C434.643 110.876 434.588 110.876 434.533 110.876C434.478 110.876 434.423 110.876 434.368 110.876C434.312 110.876 434.257 110.876 434.201 110.876C434.145 110.876 434.089 110.876 434.033 110.876C433.977 110.876 433.921 110.876 433.865 110.876C433.808 110.876 433.752 110.876 433.695 110.876C433.638 110.876 433.581 110.876 433.524 110.876C433.467 110.876 433.41 110.876 433.352 110.876C433.295 110.876 433.237 110.876 433.18 110.876C433.122 110.876 433.064 110.876 433.006 110.876C432.948 110.876 432.889 110.876 432.831 110.876C432.773 110.876 432.714 110.876 432.655 110.876C432.596 110.876 432.537 110.876 432.478 110.876C432.419 110.876 432.36 110.876 432.301 110.876C432.241 110.876 432.182 110.876 432.122 110.876C432.062 110.876 432.002 110.876 431.942 110.876C431.882 110.876 431.822 110.876 431.761 110.876C431.701 110.876 431.64 110.876 431.58 110.876C431.519 110.876 431.458 110.876 431.397 110.876C431.336 110.876 431.275 110.876 431.213 110.876C431.152 110.876 431.09 110.876 431.029 110.876C430.967 110.876 430.905 110.876 430.843 110.876C430.781 110.876 430.719 110.876 430.657 110.876C430.594 110.876 430.532 110.876 430.469 110.876C430.407 110.876 430.344 110.876 430.281 110.876C430.218 110.876 430.155 110.876 430.092 110.876C430.028 110.876 429.965 110.876 429.901 110.876C429.838 110.876 429.774 110.876 429.71 110.876C429.646 110.876 429.582 110.876 429.518 110.876C429.454 110.876 429.39 110.876 429.325 110.876C429.261 110.876 429.196 110.876 429.131 110.876C429.067 110.876 429.002 110.876 428.937 110.876C428.871 110.876 428.806 110.876 428.741 110.876C428.675 110.876 428.61 110.876 428.544 110.876C428.479 110.876 428.413 110.876 428.347 110.876C428.281 110.876 428.215 110.876 428.148 110.876C428.082 110.876 428.016 110.876 427.949 110.876C427.883 110.876 427.816 110.876 427.749 110.876C427.682 110.876 427.615 110.876 427.548 110.876C427.481 110.876 427.414 110.876 427.346 110.876C427.279 110.876 427.211 110.876 427.144 110.876C427.076 110.876 427.008 110.876 426.94 110.876C426.872 110.876 426.804 110.876 426.736 110.876C426.667 110.876 426.599 110.876 426.53 110.876C426.462 110.876 426.393 110.876 426.324 110.876C426.255 110.876 426.186 110.876 426.117 110.876C426.048 110.876 425.979 110.876 425.909 110.876C425.84 110.876 425.77 110.876 425.701 110.876C425.631 110.876 425.561 110.876 425.491 110.876C425.421 110.876 425.351 110.876 425.281 110.876C425.211 110.876 425.141 110.876 425.07 110.876C425 110.876 424.929 110.876 424.858 110.876C424.787 110.876 424.717 110.876 424.645 110.876C424.574 110.876 424.503 110.876 424.432 110.876C424.361 110.876 424.289 110.876 424.218 110.876C424.146 110.876 424.074 110.876 424.003 110.876C423.931 110.876 423.859 110.876 423.787 110.876C423.715 110.876 423.643 110.876 423.57 110.876C423.498 110.876 423.425 110.876 423.353 110.876C423.28 110.876 423.207 110.876 423.135 110.876C423.062 110.876 422.989 110.876 422.916 110.876C422.843 110.876 422.769 110.876 422.696 110.876C422.623 110.876 422.549 110.876 422.476 110.876C422.402 110.876 422.328 110.876 422.254 110.876C422.18 110.876 422.107 110.876 422.032 110.876C421.958 110.876 421.884 110.876 421.81 110.876C421.735 110.876 421.661 110.876 421.586 110.876C421.512 110.876 421.437 110.876 421.362 110.876C421.287 110.876 421.212 110.876 421.137 110.876C421.062 110.876 420.987 110.876 420.912 110.876C420.836 110.876 420.761 110.876 420.685 110.876C420.61 110.876 420.534 110.876 420.458 110.876C420.382 110.876 420.307 110.876 420.231 110.876C420.154 110.876 420.078 110.876 420.002 110.876C419.926 110.876 419.849 110.876 419.773 110.876C419.696 110.876 419.62 110.876 419.543 110.876C419.466 110.876 419.389 110.876 419.313 110.876C419.236 110.876 419.158 110.876 419.081 110.876C419.004 110.876 418.927 110.876 418.849 110.876C418.772 110.876 418.694 110.876 418.617 110.876C418.539 110.876 418.461 110.876 418.384 110.876C418.306 110.876 418.228 110.876 418.15 110.876C418.072 110.876 417.993 110.876 417.915 110.876C417.837 110.876 417.758 110.876 417.68 110.876C417.601 110.876 417.523 110.876 417.444 110.876C417.365 110.876 417.286 110.876 417.207 110.876C417.129 110.876 417.049 110.876 416.97 110.876C416.891 110.876 416.812 110.876 416.733 110.876C416.653 110.876 416.574 110.876 416.494 110.876C416.415 110.876 416.335 110.876 416.255 110.876C416.175 110.876 416.095 110.876 416.015 110.876C415.935 110.876 415.855 110.876 415.775 110.876C415.695 110.876 415.615 110.876 415.534 110.876C415.454 110.876 415.373 110.876 415.293 110.876C415.212 110.876 415.131 110.876 415.051 110.876C414.97 110.876 414.889 110.876 414.808 110.876C414.727 110.876 414.646 110.876 414.565 110.876C414.483 110.876 414.402 110.876 414.321 110.876C414.239 110.876 414.158 110.876 414.076 110.876C413.995 110.876 413.913 110.876 413.831 110.876C413.749 110.876 413.667 110.876 413.585 110.876C413.503 110.876 413.421 110.876 413.339 110.876C413.257 110.876 413.175 110.876 413.092 110.876C413.01 110.876 412.928 110.876 412.845 110.876C412.763 110.876 412.68 110.876 412.597 110.876C412.515 110.876 412.432 110.876 412.349 110.876C412.266 110.876 412.183 110.876 412.1 110.876C412.017 110.876 411.934 110.876 411.85 110.876C411.767 110.876 411.684 110.876 411.6 110.876C411.517 110.876 411.433 110.876 411.35 110.876C411.266 110.876 411.182 110.876 411.099 110.876C411.015 110.876 410.931 110.876 410.847 110.876C410.763 110.876 410.679 110.876 410.595 110.876C410.511 110.876 410.426 110.876 410.342 110.876C410.258 110.876 410.173 110.876 410.089 110.876C410.004 110.876 409.92 110.876 409.835 110.876C409.751 110.876 409.666 110.876 409.581 110.876C409.496 110.876 409.411 110.876 409.326 110.876C409.241 110.876 409.156 110.876 409.071 110.876C408.986 110.876 408.901 110.876 408.816 110.876C408.73 110.876 408.645 110.876 408.56 110.876C408.474 110.876 408.389 110.876 408.303 110.876C408.217 110.876 408.132 110.876 408.046 110.876C407.96 110.876 407.874 110.876 407.788 110.876C407.702 110.876 407.616 110.876 407.53 110.876C407.444 110.876 407.358 110.876 407.272 110.876C407.186 110.876 407.099 110.876 407.013 110.876C406.927 110.876 406.84 110.876 406.754 110.876C406.667 110.876 406.581 110.876 406.494 110.876C406.407 110.876 406.321 110.876 406.234 110.876C406.147 110.876 406.06 110.876 405.973 110.876C405.886 110.876 405.799 110.876 405.712 110.876C405.625 110.876 405.538 110.876 405.451 110.876C405.363 110.876 405.276 110.876 405.189 110.876C405.101 110.876 405.014 110.876 404.926 110.876C404.839 110.876 404.751 110.876 404.664 110.876C404.576 110.876 404.488 110.876 404.4 110.876C404.313 110.876 404.225 110.876 404.137 110.876C404.049 110.876 403.961 110.876 403.873 110.876C403.785 110.876 403.697 110.876 403.609 110.876C403.521 110.876 403.432 110.876 403.344 110.876C403.256 110.876 403.167 110.876 403.079 110.876C402.991 110.876 402.902 110.876 402.814 110.876C402.725 110.876 402.636 110.876 402.548 110.876C402.459 110.876 402.37 110.876 402.282 110.876C402.193 110.876 402.104 110.876 402.015 110.876C401.926 110.876 401.837 110.876 401.748 110.876C401.659 110.876 401.57 110.876 401.481 110.876C401.392 110.876 401.303 110.876 401.213 110.876C401.124 110.876 401.035 110.876 400.946 110.876C400.856 110.876 400.767 110.876 400.677 110.876C400.588 110.876 400.498 110.876 400.409 110.876C400.319 110.876 400.229 110.876 400.14 110.876C400.05 110.876 399.96 110.876 399.871 110.876C399.781 110.876 399.691 110.876 399.601 110.876C399.511 110.876 399.421 110.876 399.331 110.876C399.241 110.876 399.151 110.876 399.061 110.876C398.971 110.876 398.881 110.876 398.791 110.876C398.7 110.876 398.61 110.876 398.52 110.876C398.429 110.876 398.339 110.876 398.249 110.876C398.158 110.876 398.068 110.876 397.977 110.876C397.887 110.876 397.796 110.876 397.706 110.876C397.615 110.876 397.525 110.876 397.434 110.876C397.343 110.876 397.253 110.876 397.162 110.876C397.071 110.876 396.98 110.876 396.889 110.876C396.798 110.876 396.708 110.876 396.617 110.876C396.526 110.876 396.435 110.876 396.344 110.876C396.253 110.876 396.162 110.876 396.07 110.876C395.979 110.876 395.888 110.876 395.797 110.876C395.706 110.876 395.615 110.876 395.523 110.876C395.432 110.876 395.341 110.876 395.249 110.876C395.158 110.876 395.067 110.876 394.975 110.876C394.884 110.876 394.792 110.876 394.701 110.876C394.609 110.876 394.518 110.876 394.426 110.876C394.335 110.876 394.243 110.876 394.151 110.876C394.06 110.876 393.968 110.876 393.876 110.876C393.784 110.876 393.693 110.876 393.601 110.876C393.509 110.876 393.417 110.876 393.325 110.876C393.234 110.876 393.142 110.876 393.05 110.876C392.958 110.876 392.866 110.876 392.774 110.876C392.682 110.876 392.59 110.876 392.498 110.876C392.406 110.876 392.314 110.876 392.222 110.876C392.129 110.876 392.037 110.876 391.945 110.876C391.853 110.876 391.761 110.876 391.668 110.876C391.576 110.876 391.484 110.876 391.392 110.876C391.299 110.876 391.207 110.876 391.115 110.876C391.022 110.876 390.93 110.876 390.838 110.876C390.745 110.876 390.653 110.876 390.56 110.876C390.468 110.876 390.375 110.876 390.283 110.876C390.19 110.876 390.098 110.876 390.005 110.876C389.913 110.876 389.82 110.876 389.728 110.876C389.635 110.876 389.542 110.876 389.45 110.876C389.357 110.876 389.264 110.876 389.172 110.876C389.079 110.876 388.986 110.876 388.894 110.876C388.801 110.876 388.708 110.876 388.615 110.876C388.523 110.876 388.43 110.876 388.337 110.876C388.244 110.876 388.151 110.876 388.058 110.876C387.966 110.876 387.873 110.876 387.78 110.876C387.687 110.876 387.594 110.876 387.501 110.876C387.408 110.876 387.315 110.876 387.222 110.876C387.129 110.876 387.036 110.876 386.943 110.876C386.85 110.876 386.757 110.876 386.664 110.876C386.571 110.876 386.478 110.876 386.385 110.876C386.292 110.876 386.199 110.876 386.106 110.876C386.013 110.876 385.92 110.876 385.827 110.876C385.734 110.876 385.641 110.876 385.548 110.876C385.455 110.876 385.361 110.876 385.268 110.876C385.175 110.876 385.082 110.876 384.989 110.876C384.896 110.876 384.803 110.876 384.709 110.876C384.616 110.876 384.523 110.876 384.43 110.876C384.337 110.876 384.243 110.876 384.15 110.876C384.057 110.876 383.964 110.876 383.871 110.876C383.777 110.876 383.684 110.876 383.591 110.876C383.498 110.876 383.404 110.876 383.311 110.876C383.218 110.876 383.125 110.876 383.031 110.876C382.938 110.876 382.845 110.876 382.752 110.876C382.658 110.876 382.565 110.876 382.472 110.876C382.379 110.876 382.285 110.876 382.192 110.876C382.099 110.876 382.006 110.876 381.912 110.876C381.819 110.876 381.726 110.876 381.632 110.876C381.539 110.876 381.446 110.876 381.353 110.876C381.259 110.876 381.166 110.876 381.073 110.876C380.98 110.876 380.886 110.876 380.793 110.876C380.7 110.876 380.607 110.876 380.513 110.876C380.42 110.876 380.327 110.876 380.234 110.876C380.14 110.876 380.047 110.876 379.954 110.876C379.861 110.876 379.767 110.876 379.674 110.876C379.581 110.876 379.488 110.876 379.394 110.876C379.301 110.876 379.208 110.876 379.115 110.876C379.022 110.876 378.928 110.876 378.835 110.876C378.742 110.876 378.649 110.876 378.556 110.876C378.462 110.876 378.369 110.876 378.276 110.876C378.183 110.876 378.09 110.876 377.997 110.876C377.904 110.876 377.81 110.876 377.717 110.876C377.624 110.876 377.531 110.876 377.438 110.876C377.345 110.876 377.252 110.876 377.159 110.876C377.066 110.876 376.973 110.876 376.88 110.876C376.787 110.876 376.693 110.876 376.6 110.876C376.507 110.876 376.414 110.876 376.321 110.876C376.228 110.876 376.136 110.876 376.043 110.876C375.95 110.876 375.857 110.876 375.764 110.876C375.671 110.876 375.578 110.876 375.485 110.876C375.392 110.876 375.299 110.876 375.206 110.876C375.114 110.876 375.021 110.876 374.928 110.876C374.835 110.876 374.742 110.876 374.65 110.876C374.557 110.876 374.464 110.876 374.371 110.876C374.279 110.876 374.186 110.876 374.093 110.876C374 110.876 373.908 110.876 373.815 110.876C373.722 110.876 373.63 110.876 373.537 110.876C373.445 110.876 373.352 110.876 373.26 110.876C373.167 110.876 373.074 110.876 372.982 110.876C372.889 110.876 372.797 110.876 372.704 110.876C372.612 110.876 372.52 110.876 372.427 110.876C372.335 110.876 372.242 110.876 372.15 110.876C372.058 110.876 371.965 110.876 371.873 110.876C371.781 110.876 371.689 110.876 371.596 110.876C371.504 110.876 371.412 110.876 371.32 110.876C371.227 110.876 371.135 110.876 371.043 110.876C370.951 110.876 370.859 110.876 370.767 110.876C370.675 110.876 370.583 110.876 370.491 110.876C370.399 110.876 370.307 110.876 370.215 110.876C370.123 110.876 370.031 110.876 369.939 110.876C369.847 110.876 369.756 110.876 369.664 110.876C369.572 110.876 369.48 110.876 369.388 110.876C369.297 110.876 369.205 110.876 369.113 110.876C369.022 110.876 368.93 110.876 368.838 110.876C368.747 110.876 368.655 110.876 368.564 110.876C368.472 110.876 368.381 110.876 368.289 110.876C368.198 110.876 368.107 110.876 368.015 110.876C367.924 110.876 367.832 110.876 367.741 110.876C367.65 110.876 367.559 110.876 367.467 110.876C367.376 110.876 367.285 110.876 367.194 110.876C367.103 110.876 367.012 110.876 366.921 110.876C366.83 110.876 366.739 110.876 366.648 110.876C366.557 110.876 366.466 110.876 366.375 110.876C366.284 110.876 366.193 110.876 366.103 110.876C366.012 110.876 365.921 110.876 365.83 110.876C365.74 110.876 365.649 110.876 365.559 110.876C365.468 110.876 365.377 110.876 365.287 110.876C365.196 110.876 365.106 110.876 365.016 110.876C364.925 110.876 364.835 110.876 364.744 110.876C364.654 110.876 364.564 110.876 364.474 110.876C364.383 110.876 364.293 110.876 364.203 110.876C364.113 110.876 364.023 110.876 363.933 110.876C363.843 110.876 363.753 110.876 363.663 110.876C363.573 110.876 363.483 110.876 363.394 110.876C363.304 110.876 363.214 110.876 363.124 110.876C363.035 110.876 362.945 110.876 362.855 110.876C362.766 110.876 362.676 110.876 362.587 110.876C362.497 110.876 362.408 110.876 362.318 110.876C362.229 110.876 362.14 110.876 362.051 110.876C361.961 110.876 361.872 110.876 361.783 110.876C361.694 110.876 361.605 110.876 361.516 110.876C361.427 110.876 361.338 110.876 361.249 110.876C361.16 110.876 361.071 110.876 360.982 110.876C360.893 110.876 360.805 110.876 360.716 110.876C360.627 110.876 360.539 110.876 360.45 110.876C360.362 110.876 360.273 110.876 360.185 110.876C360.096 110.876 360.008 110.876 359.92 110.876C359.831 110.876 359.743 110.876 359.655 110.876C359.567 110.876 359.479 110.876 359.391 110.876C359.303 110.876 359.215 110.876 359.127 110.876C359.039 110.876 358.951 110.876 358.863 110.876C358.775 110.876 358.688 110.876 358.6 110.876C358.512 110.876 358.425 110.876 358.337 110.876C358.25 110.876 358.162 110.876 358.075 110.876C357.987 110.876 357.9 110.876 357.813 110.876C357.726 110.876 357.639 110.876 357.551 110.876C357.464 110.876 357.377 110.876 357.29 110.876C357.203 110.876 357.116 110.876 357.03 110.876C356.943 110.876 356.856 110.876 356.769 110.876C356.683 110.876 356.596 110.876 356.51 110.876C356.423 110.876 356.337 110.876 356.25 110.876C356.164 110.876 356.078 110.876 355.991 110.876C355.905 110.876 355.819 110.876 355.733 110.876C355.647 110.876 355.561 110.876 355.475 110.876C355.389 110.876 355.303 110.876 355.217 110.876C355.131 110.876 355.046 110.876 354.96 110.876C354.875 110.876 354.789 110.876 354.704 110.876C354.618 110.876 354.533 110.876 354.447 110.876C354.362 110.876 354.277 110.876 354.192 110.876C354.107 110.876 354.021 110.876 353.936 110.876C353.852 110.876 353.767 110.876 353.682 110.876C353.597 110.876 353.512 110.876 353.428 110.876C353.343 110.876 353.258 110.876 353.174 110.876C353.089 110.876 353.005 110.876 352.921 110.876C352.836 110.876 352.752 110.876 352.668 110.876C352.584 110.876 352.5 110.876 352.416 110.876C352.332 110.876 352.248 110.876 352.164 110.876C352.08 110.876 351.997 110.876 351.913 110.876C351.829 110.876 351.746 110.876 351.662 110.876C351.579 110.876 351.495 110.876 351.412 110.876C351.329 110.876 351.246 110.876 351.163 110.876C351.08 110.876 350.997 110.876 350.914 110.876C350.831 110.876 350.748 110.876 350.665 110.876C350.582 110.876 350.5 110.876 350.417 110.876C350.335 110.876 350.252 110.876 350.17 110.876C350.087 110.876 350.005 110.876 349.923 110.876C349.841 110.876 349.759 110.876 349.677 110.876C349.595 110.876 349.513 110.876 349.431 110.876C349.349 110.876 349.268 110.876 349.186 110.876C349.104 110.876 349.023 110.876 348.941 110.876C348.86 110.876 348.779 110.876 348.697 110.876C348.616 110.876 348.535 110.876 348.454 110.876C348.373 110.876 348.292 110.876 348.211 110.876C348.131 110.876 348.05 110.876 347.969 110.876C347.889 110.876 347.808 110.876 347.728 110.876C347.647 110.876 347.567 110.876 347.487 110.876C347.406 110.876 347.326 110.876 347.246 110.876C347.166 110.876 347.086 110.876 347.007 110.876C346.927 110.876 346.847 110.876 346.767 110.876C346.688 110.876 346.608 110.876 346.529 110.876C346.45 110.876 346.37 110.876 346.291 110.876C346.212 110.876 346.133 110.876 346.054 110.876C345.975 110.876 345.896 110.876 345.817 110.876C345.739 110.876 345.66 110.876 345.581 110.876C345.503 110.876 345.424 110.876 345.346 110.876C345.268 110.876 345.19 110.876 345.112 110.876C345.033 110.876 344.955 110.876 344.878 110.876C344.8 110.876 344.722 110.876 344.644 110.876C344.567 110.876 344.489 110.876 344.412 110.876C344.334 110.876 344.257 110.876 344.18 110.876C344.102 110.876 344.025 110.876 343.948 110.876C343.871 110.876 343.795 110.876 343.718 110.876C343.641 110.876 343.564 110.876 343.488 110.876C343.411 110.876 343.335 110.876 343.259 110.876C343.182 110.876 343.106 110.876 343.03 110.876C342.954 110.876 342.878 110.876 342.802 110.876C342.727 110.876 342.651 110.876 342.575 110.876C342.5 110.876 342.424 110.876 342.349 110.876C342.274 110.876 342.198 110.876 342.123 110.876C342.048 110.876 341.973 110.876 341.898 110.876C341.823 110.876 341.749 110.876 341.674 110.876C341.599 110.876 341.525 110.876 341.451 110.876C341.376 110.876 341.302 110.876 341.228 110.876C341.154 110.876 341.08 110.876 341.006 110.876C340.932 110.876 340.858 110.876 340.785 110.876C340.711 110.876 340.637 110.876 340.564 110.876C340.491 110.876 340.417 110.876 340.344 110.876C340.271 110.876 340.198 110.876 340.125 110.876C340.052 110.876 339.98 110.876 339.907 110.876C339.834 110.876 339.762 110.876 339.69 110.876C339.617 110.876 339.545 110.876 339.473 110.876C339.401 110.876 339.329 110.876 339.257 110.876C339.185 110.876 339.113 110.876 339.042 110.876C338.97 110.876 338.899 110.876 338.827 110.876C338.756 110.876 338.685 110.876 338.614 110.876C338.543 110.876 338.472 110.876 338.401 110.876C338.33 110.876 338.26 110.876 338.189 110.876C338.119 110.876 338.048 110.876 337.978 110.876V130.876ZM455.426 120.876C455.426 112.307 456.607 108.368 457.743 106.665C458.191 105.992 459.105 104.68 464.074 104.68V84.68C454.835 84.68 446.425 87.5857 441.102 95.571C436.465 102.526 435.426 111.685 435.426 120.876H455.426ZM464.074 104.68C467.861 104.68 469.028 105.622 469.285 105.874C469.505 106.089 470.502 107.201 470.502 111.108H490.502C490.502 103.915 488.613 96.8128 483.283 91.5894C477.99 86.4021 470.943 84.68 464.074 84.68V104.68ZM470.503 110.961C470.38 119.331 464.054 125.704 448.361 132.445C440.891 135.654 432.594 138.41 423.752 141.505C415.163 144.511 406.099 147.826 398.167 151.975L407.437 169.697C413.935 166.298 421.743 163.397 430.359 160.382C438.722 157.455 447.963 154.383 456.255 150.821C472.086 144.02 490.18 133.077 490.501 111.255L470.503 110.961ZM398.083 152.019C382.015 160.619 363.214 172.053 348.532 190.452C333.651 209.1 323.538 234.202 323.538 269.172H343.538C343.538 238.43 352.296 217.8 364.165 202.926C376.234 187.803 392.066 177.925 407.521 169.653L398.083 152.019ZM323.538 269.172V330H343.538V269.172H323.538ZM333.538 340H599.938V320H333.538V340ZM609.938 330V241.2H589.938V330H609.938ZM599.938 231.2H454.75V251.2H599.938V231.2ZM464.338 244.041C464.713 242.775 465.828 240.978 469.47 238.727C473.183 236.432 478.486 234.312 485.523 232.075C498.698 227.886 518.487 223.283 536.52 216.143C555.11 208.783 574.226 197.974 588.35 179.694C602.606 161.244 610.99 136.21 609.933 101.92L589.943 102.536C590.884 133.07 583.451 153.324 572.524 167.466C561.465 181.778 546.032 190.866 529.157 197.548C511.726 204.449 495.135 208.033 479.463 213.015C472.077 215.363 464.841 218.076 458.955 221.714C452.996 225.397 447.451 230.634 445.162 238.359L464.338 244.041Z" fill="white"/>
</svg>
