<svg width="19" height="19" viewBox="0 0 19 19" fill="none" xmlns="http://www.w3.org/2000/svg">
<g opacity="0.8">
<circle cx="9.5" cy="9.5" r="8.5" stroke="white" stroke-width="2"/>
<path d="M12.688 10.492C12.6073 10.91 12.479 11.2877 12.303 11.625C12.127 11.9623 11.9033 12.252 11.632 12.494C11.368 12.736 11.06 12.923 10.708 13.055C10.356 13.187 9.96733 13.253 9.542 13.253C9.06533 13.253 8.618 13.1723 8.2 13.011C7.78933 12.8497 7.43367 12.6077 7.133 12.285C6.83233 11.9623 6.594 11.5663 6.418 11.097C6.24933 10.6203 6.165 10.0667 6.165 9.436C6.165 8.82 6.242 8.26633 6.396 7.775C6.55733 7.27633 6.78467 6.85833 7.078 6.521C7.37133 6.17633 7.727 5.91233 8.145 5.729C8.57033 5.54567 9.04333 5.454 9.564 5.454C10.0187 5.454 10.4293 5.52367 10.796 5.663C11.17 5.795 11.489 5.982 11.753 6.224C12.0243 6.45867 12.237 6.73733 12.391 7.06C12.5523 7.38267 12.6513 7.72733 12.688 8.094H11.159C11.0563 7.676 10.8583 7.35333 10.565 7.126C10.2717 6.89133 9.94167 6.774 9.575 6.774C8.937 6.774 8.46767 7.005 8.167 7.467C7.86633 7.92167 7.716 8.54867 7.716 9.348C7.716 10.162 7.86267 10.7963 8.156 11.251C8.45667 11.6983 8.904 11.922 9.498 11.922C9.95267 11.922 10.3157 11.801 10.587 11.559C10.8657 11.3097 11.0563 10.954 11.159 10.492H12.688Z" fill="white"/>
</g>
</svg>
