<svg width="173" height="174" viewBox="0 0 173 174" fill="none" xmlns="http://www.w3.org/2000/svg">
<path opacity="0.1" d="M120.684 82.8566L122.086 81.4467L156.796 46.5371C156.797 46.5366 156.797 46.5361 156.798 46.5357C157.07 46.2599 157.25 45.8781 157.292 45.4351L157.447 43.7975L159.084 43.634C159.499 43.5925 159.867 43.4263 160.147 43.1436L160.149 43.1415C168.443 34.7988 168.443 21.2159 160.149 12.8732L160.149 12.8725C156.13 8.82699 150.8 6.60634 145.12 6.60634C139.44 6.60634 134.109 8.82863 130.091 12.8729L130.09 12.8732C129.801 13.1643 129.632 13.5485 129.595 13.9833L129.452 15.6482L127.788 15.8037C127.319 15.8476 126.96 16.0209 126.732 16.2511L126.73 16.2532L92.0235 51.1726L90.6051 52.5997L89.1865 51.1728L40.7755 2.47544L40.7737 2.47355C40.1482 1.84271 38.9237 1.84106 38.2929 2.47514C38.2928 2.47524 38.2927 2.47534 38.2926 2.47544L2.52012 38.4747L2.51982 38.4749C1.82673 39.1721 1.82673 40.3069 2.51982 41.0041L2.51996 41.0042L50.9216 89.7016L52.323 91.1115L50.9215 92.5215L19.5432 124.087L18.1247 122.677L19.5431 124.087C19.3597 124.272 19.2221 124.489 19.1367 124.725L19.134 124.733L7.54132 156.385L7.54066 156.387C6.47626 159.285 6.4822 161.351 6.80527 162.762C7.12941 164.179 7.80883 165.093 8.33779 165.625L8.33912 165.627C9.04148 166.335 10.4544 167.356 12.9311 167.356C14.1319 167.356 15.6368 167.117 17.487 166.428L17.49 166.427L48.8833 154.794L48.9046 154.787L48.926 154.779C49.1658 154.696 49.3925 154.559 49.5871 154.363L49.5886 154.362L49.5891 154.361L120.684 82.8566ZM120.684 82.8566L122.086 84.2668M120.684 82.8566L122.086 84.2668M161.568 44.5516C160.93 45.1947 160.116 45.5408 159.283 45.6241C159.2 46.4961 158.837 47.3189 158.217 47.945L161.568 44.5516ZM161.568 44.5516C170.637 35.4287 170.637 20.5859 161.568 11.4631V44.5516ZM122.086 84.2668L170.48 132.953L171.899 131.543L122.086 84.2668ZM43.5807 77.2861L44.9819 75.8764L54.6584 66.1407L54.6586 66.1406C55.3517 65.4434 55.3517 64.3067 54.6586 63.6095C53.9714 62.9202 52.8638 62.9195 52.1759 63.6093L43.5807 77.2861ZM43.5807 77.2861L44.9817 78.696L53.4021 87.1701L54.8206 88.5975L56.2393 87.1703L86.7056 56.5219L88.1072 55.1119L86.7055 53.7019L40.9553 7.67924L39.5366 6.25211L38.1182 7.67952L7.66132 38.3298L6.26028 39.7397L7.66153 41.1495L21.3095 54.88L22.7279 56.307L24.1464 54.8801L33.8173 45.152L33.8182 45.1511C34.5022 44.4622 35.6112 44.4609 36.2983 45.152C36.9914 45.8492 36.9914 46.984 36.2983 47.6812L26.6274 57.4093L25.2257 58.8192L26.6273 60.2293L39.6641 73.3451L41.0828 74.7724L42.5013 73.3449L52.1748 63.6104L43.5807 77.2861ZM132.575 15.4023C132.497 15.4807 132.382 15.5689 132.192 15.6778L129.927 16.9733L131.766 18.8238L154.235 41.4276L156.106 43.309L157.4 40.9932C157.503 40.8074 157.59 40.6926 157.668 40.6143L157.668 40.614C164.579 33.6601 164.579 22.3584 157.668 15.4044C154.321 12.0356 149.859 10.1743 145.122 10.1743C140.383 10.1743 135.92 12.0353 132.575 15.4023ZM46.9319 149.152L48.3501 150.579L49.7686 149.152L81.0266 117.715L81.0573 117.684L81.0866 117.652C81.1081 117.628 81.1277 117.606 81.1452 117.585C81.1693 117.565 81.1957 117.542 81.2236 117.516L81.2555 117.486L81.2861 117.456L151.655 46.6805L153.056 45.2705L151.655 43.8604L129.389 21.4609L127.97 20.034L126.552 21.4609L91.9996 56.2215L91.9744 56.2468L91.9502 56.2729C91.9118 56.3145 91.8786 56.3532 91.8513 56.3862C91.8267 56.4067 91.7993 56.4302 91.7702 56.4565L91.7296 56.493L91.6912 56.5317L56.1308 92.3061L56.1027 92.3344L56.0757 92.3639C56.0714 92.3685 56.0672 92.3731 56.0631 92.3777C56.0585 92.3819 56.0539 92.3861 56.0493 92.3904L56.0199 92.4177L55.9917 92.4461L22.6089 126.028L22.3 126.339L22.1493 126.75L10.8424 157.624L10.7205 157.957V157.973C10.3528 159.054 10.1909 159.945 10.1534 160.659C10.1328 161.052 10.1492 161.405 10.1967 161.715C10.2307 161.937 10.3141 162.383 10.579 162.792L10.8495 163.21L11.2845 163.452C11.5335 163.591 11.7683 163.652 11.8597 163.675C11.9963 163.71 12.1376 163.735 12.2792 163.752C12.5648 163.788 12.8998 163.799 13.2829 163.775C14.0519 163.728 15.0451 163.536 16.2777 163.079L42.2308 153.461L45.1459 152.38L42.9543 150.175L32.078 139.233L32.0779 139.233C31.3848 138.536 31.3848 137.401 32.0779 136.704L32.0788 136.703C32.7633 136.013 33.8735 136.013 34.558 136.703L34.5588 136.704L46.9319 149.152ZM91.9841 56.282C91.986 56.2806 91.9862 56.2804 91.9843 56.2819L91.9841 56.282ZM55.8921 92.5922C55.8926 92.5916 55.8943 92.5892 55.897 92.5855L55.8929 92.5911L55.8921 92.5922ZM132.041 166.274L133.46 167.701L134.878 166.274L165.337 135.625L166.738 134.215L165.337 132.806L119.603 86.7961L118.185 85.3693L116.767 86.7959L86.2965 117.44L84.8943 118.851L86.2965 120.261L94.7151 128.727L96.1335 130.154L97.5517 128.727L107.23 118.991L107.231 118.991C107.916 118.301 109.026 118.301 109.71 118.991L109.711 118.991C110.404 119.689 110.404 120.823 109.711 121.521L100.033 131.256L98.6311 132.666L100.033 134.076L113.066 147.188L114.484 148.615L115.903 147.188L125.579 137.455L125.58 137.454C126.265 136.764 127.375 136.764 128.059 137.454L128.06 137.455C128.753 138.152 128.753 139.287 128.06 139.984L118.384 149.718L116.982 151.128L118.384 152.538L132.041 166.274Z" stroke="white" stroke-width="4"/>
</svg>
