<svg width="200" height="150" viewBox="0 0 200 150" fill="none" xmlns="http://www.w3.org/2000/svg">
<g opacity="0.3">
<path d="M122.991 80.2755C128.149 83.6288 133.88 85.797 139.833 86.6472C145.785 87.4974 151.834 87.0116 157.609 85.2197C157.909 85.1182 158.217 85.0455 158.529 85.0025C158.405 89.5548 157.075 93.9703 154.7 97.7144C149.446 107.619 139.393 118.491 126.945 119.306C125.894 119.374 124.901 119.853 124.147 120.656C123.393 121.458 122.929 122.53 122.84 123.676L121.197 144.811C121.143 145.505 121.229 146.202 121.448 146.856C121.666 147.509 122.013 148.103 122.463 148.595C122.912 149.09 123.455 149.471 124.053 149.71C124.652 149.95 125.292 150.043 125.927 149.982C152.924 147.527 193.306 123.565 198.913 84.9647C202.621 59.431 196.665 32.2606 183.746 15.7438C180.219 10.9044 175.748 6.98405 170.658 4.26802C165.568 1.55198 159.988 0.108532 154.323 0.0426138C147.042 -0.274129 139.787 1.17761 133.082 4.29307C126.377 7.40853 120.389 12.11 115.55 18.0583C111.74 22.9847 108.984 28.7766 107.482 35.0124C105.981 41.2482 105.772 47.771 106.871 54.1061C107.67 59.4794 109.524 64.6003 112.307 69.1175C115.089 73.6347 118.734 77.4411 122.991 80.2755ZM122.271 24.1988C126.295 19.3339 131.257 15.5027 136.799 12.9803C142.342 10.458 148.327 9.30719 154.325 9.61059C158.725 9.66662 163.057 10.8061 166.998 12.9441C170.938 15.082 174.386 18.1634 177.084 21.9584C188.236 36.2119 193.533 60.9348 190.26 83.4681C185.697 114.887 154.183 135.274 130.389 139.723L131.272 128.37C148.418 125.081 160.764 107.862 165.104 96.2948C168.084 88.3549 168.054 81.9548 165.017 78.2742C163.765 76.8679 162.155 75.9034 160.396 75.505C158.637 75.1066 156.809 75.2926 155.148 76.0391C150.553 77.4418 145.746 77.8199 141.014 77.151C136.282 76.4821 131.722 74.7799 127.606 72.1457C124.405 70.0064 121.665 67.1367 119.575 63.7332C117.485 60.3297 116.094 56.4731 115.498 52.4277C114.633 47.4687 114.793 42.3616 115.964 37.4783C117.136 32.5949 119.29 28.0583 122.271 24.1988ZM0.69349 54.1066C1.49244 59.4794 3.34657 64.6 6.12867 69.1171C8.91077 73.6341 12.555 77.4406 16.8113 80.2755C21.9696 83.63 27.7011 85.7989 33.6545 86.6491C39.6078 87.4993 45.6575 87.0128 51.4326 85.2197C51.7328 85.1178 52.0407 85.0451 52.3526 85.0025C52.2281 89.5548 50.898 93.9701 48.523 97.7144C43.2692 107.619 33.2148 118.491 20.7688 119.306C19.7179 119.374 18.7246 119.853 17.971 120.655C17.2174 121.458 16.754 122.53 16.6659 123.676L15.0229 144.811C14.9684 145.505 15.0532 146.202 15.2713 146.856C15.4895 147.51 15.8358 148.104 16.2861 148.596C16.7363 149.089 17.2796 149.468 17.8781 149.707C18.4765 149.947 19.1156 150.041 19.7507 149.982C46.7478 147.525 87.1329 123.566 92.7329 84.9652C96.442 59.4315 90.4867 32.2611 77.5658 15.7419C74.0387 10.9031 69.5681 6.9834 64.4791 4.2678C59.3902 1.55217 53.8108 0.10895 48.1467 0.0430928C40.8656 -0.273619 33.6109 1.17789 26.9059 4.29291C20.2009 7.40793 14.2128 12.1088 9.37346 18.0564C5.56306 22.9832 2.8068 28.7754 1.30528 35.0116C-0.196234 41.2478 -0.405234 47.7711 0.69349 54.1066ZM16.0915 24.1964C20.1168 19.3324 25.0786 15.5017 30.6208 12.9794C36.1629 10.4572 42.1478 9.30586 48.1458 9.60819C52.5454 9.66419 56.8768 10.8034 60.817 12.941C64.7573 15.0785 68.2049 18.1593 70.9029 21.9536C82.0569 36.2114 87.3498 60.9324 84.081 83.4633C79.5198 114.883 48.0047 135.269 24.212 139.718L25.0917 128.367C42.2356 125.079 54.5831 107.86 58.9257 96.2924C61.9049 88.3525 61.8738 81.9524 58.838 78.2718C57.5845 76.8674 55.9749 75.9041 54.2161 75.5058C52.4573 75.1075 50.6296 75.2924 48.9677 76.0367C44.3727 77.4383 39.5664 77.8159 34.8349 77.147C30.1035 76.4781 25.5437 74.7764 21.4273 72.1433C18.2261 70.0043 15.4866 67.1346 13.3967 63.7311C11.3068 60.3275 9.91592 56.4708 9.31954 52.4253C8.45525 47.4664 8.61466 42.3594 9.78613 37.4761C10.9576 32.5929 13.1116 28.0563 16.0915 24.1964Z" fill="white"/>
</g>
</svg>
