<svg width="85" height="92" viewBox="0 0 85 92" fill="none" xmlns="http://www.w3.org/2000/svg">
<path d="M31.359 76.7299C11.1026 82.865 11.1026 66.5049 3 64.4599M59.7179 89V73.1716C59.8699 71.2213 59.6089 69.2608 58.9523 67.4202C58.2957 65.5796 57.2585 63.9013 55.9097 62.4967C68.6308 61.0652 82 56.198 82 33.8665C81.999 28.1562 79.8232 22.6648 75.9231 18.529C77.7699 13.533 77.6393 8.01086 75.5585 3.10958C75.5585 3.10958 70.7779 1.67808 59.7179 9.16281C50.4324 6.62218 40.6445 6.62218 31.359 9.16281C20.299 1.67808 15.5185 3.10958 15.5185 3.10958C13.4376 8.01086 13.307 13.533 15.1538 18.529C11.2246 22.6955 9.04663 28.2365 9.07692 33.9892C9.07692 56.1571 22.4462 61.0243 35.1672 62.6194C33.8343 64.0099 32.8063 65.6681 32.1502 67.4862C31.4941 69.3042 31.2245 71.2414 31.359 73.1716V89" stroke="url(#paint0_linear)" stroke-width="5" stroke-linecap="round" stroke-linejoin="round"/>
<defs>
<linearGradient id="paint0_linear" x1="42.5" y1="3" x2="42.5" y2="89" gradientUnits="userSpaceOnUse">
<stop stop-color="#4CF0F0"/>
<stop offset="1" stop-color="#6D36B4"/>
</linearGradient>
</defs>
</svg>
