<svg width="182" height="197" viewBox="0 0 182 197" fill="none" xmlns="http://www.w3.org/2000/svg">
<g opacity="0.1">
<path d="M181.375 65.483C181.375 47.6182 168.661 32.8898 152.477 31.3005C151.045 13.7959 137.383 0 120.795 0C108.042 0 97.0439 8.18008 91.9788 19.8992C86.7724 8.15888 75.4718 0 62.3551 0C45.3033 0 31.2583 13.7747 29.7851 31.2793C13.1168 32.8263 0 47.5758 0 65.483C0 73.4512 2.60317 81.0379 7.36557 87.1623C2.60317 93.2868 0 100.873 0 108.842C0 122.51 7.64808 134.675 19.3321 140.163C17.7783 144.232 16.9509 148.619 16.9509 153.006C16.9509 167.268 25.5272 180.195 38.301 185.175C42.4378 186.785 46.7966 187.527 51.0545 187.294C57.1891 193.567 65.2206 197 73.7969 197C80.3553 197 86.5908 194.966 91.9788 191.151C97.2255 194.987 103.3 197 109.676 197C118.031 197 125.84 193.567 131.793 187.294C135.91 187.506 140.148 186.764 144.163 185.154C156.574 180.174 164.908 167.247 164.908 153.006C164.908 148.598 164.121 144.211 162.587 140.142C173.928 134.653 181.354 122.489 181.354 108.842C181.354 100.873 178.832 93.2868 174.191 87.1623C178.852 81.0379 181.375 73.4512 181.375 65.483ZM54.4245 181.827C53.8393 181.191 53.0523 180.831 52.2249 180.831C52.1442 180.831 52.0433 180.831 51.9626 180.852C48.1486 181.212 44.153 180.682 40.3795 179.22C29.9668 175.172 22.9846 164.64 22.9846 153.027C22.9846 148.407 24.034 144.02 26.0923 139.93C26.516 139.104 26.5564 138.129 26.2335 137.26C25.9107 136.391 25.2245 135.713 24.377 135.437C13.4195 131.665 6.05389 120.985 6.05389 108.884C6.05389 107.125 6.21533 105.409 6.51802 103.713H52.2451C53.6173 109.838 58.864 114.415 65.0995 114.415C72.3844 114.415 78.3172 108.185 78.3172 100.534C78.3172 92.8841 72.3844 86.6537 65.0995 86.6537C58.8438 86.6537 53.6173 91.2312 52.2451 97.3556H8.45527C9.70641 94.4523 11.4217 91.761 13.5809 89.4087C14.711 88.1795 14.711 86.2087 13.5809 84.9796C8.7176 79.724 6.05389 72.8154 6.05389 65.5254C6.05389 50.0977 18.0002 37.5521 32.691 37.5521C34.3659 37.5521 35.718 36.1322 35.718 34.3733C35.718 18.9456 47.6643 6.39996 62.3551 6.39996C77.0459 6.39996 88.9922 18.9456 88.9922 34.3733V70.9293H73.6355V63.6817C73.6355 61.9228 72.2835 60.5029 70.6086 60.5029H42.9221C42.8414 60.5029 42.7808 60.5241 42.7203 60.5241C41.1059 54.7599 36.0408 50.5215 30.0273 50.5215C22.7425 50.5215 16.8096 56.7519 16.8096 64.4022C16.8096 72.0525 22.7425 78.2829 30.0273 78.2829C36.5252 78.2829 41.9333 73.3452 43.023 66.8393H67.5412V74.0869C67.5412 75.8458 68.8933 77.2657 70.5682 77.2657H88.9518V126.622H59.0658C57.3909 126.622 56.0389 128.042 56.0389 129.8V141.35C50.2069 142.791 45.8481 148.301 45.8481 154.849C45.8481 162.5 51.781 168.73 59.0658 168.73C66.3507 168.73 72.2835 162.5 72.2835 154.849C72.2835 148.28 67.9247 142.791 62.0928 141.35V132.979H88.9922V185.641C84.5123 188.926 79.2858 190.664 73.7969 190.664C66.4112 190.642 59.5299 187.506 54.4245 181.827ZM57.9357 100.492C57.9357 96.3384 61.1443 92.9689 65.0995 92.9689C69.0547 92.9689 72.2633 96.3384 72.2633 100.492C72.2633 104.646 69.0547 108.015 65.0995 108.015C61.1443 108.015 57.9357 104.646 57.9357 100.492ZM37.2113 64.3598C37.2113 68.5134 34.0027 71.8829 30.0475 71.8829C26.0923 71.8829 22.8837 68.5134 22.8837 64.3598C22.8837 60.2062 26.0923 56.8367 30.0475 56.8367C34.0027 56.8367 37.2113 60.2062 37.2113 64.3598ZM59.0658 147.284C63.021 147.284 66.2296 150.653 66.2296 154.807C66.2296 158.961 63.021 162.33 59.0658 162.33C55.1106 162.33 51.902 158.961 51.902 154.807C51.902 150.674 55.1106 147.284 59.0658 147.284ZM175.321 108.842C175.321 119.967 169.307 129.843 160.125 134.314C155.363 123.973 147.695 117.806 137.282 115.983C135.627 115.687 134.074 116.873 133.791 118.59C133.508 120.328 134.639 121.959 136.273 122.256C145.536 123.888 151.912 129.546 155.726 139.591C155.746 139.633 155.767 139.655 155.787 139.697C155.807 139.761 155.827 139.824 155.847 139.867C157.845 143.957 158.874 148.365 158.874 152.984C158.874 164.619 152.094 175.151 142.024 179.199C138.473 180.619 134.739 181.127 131.127 180.831C120.129 177.419 117.97 172.354 115.871 167.48C115.185 165.869 113.389 165.17 111.876 165.89C110.342 166.611 109.676 168.497 110.362 170.086C112.905 176.062 115.871 181.382 124.811 185.238C120.432 188.735 115.206 190.621 109.676 190.621C104.389 190.621 99.3444 188.905 95.0259 185.62V34.3097C95.0259 18.882 106.569 6.33638 120.775 6.33638C134.982 6.33638 146.524 18.882 146.524 34.3097C146.524 47.6182 142.63 55.5228 134.618 58.4261C133.044 58.9983 132.197 60.7996 132.742 62.4737C133.165 63.7876 134.356 64.6141 135.607 64.6141C135.93 64.6141 136.273 64.5506 136.596 64.4446C146.444 60.8632 151.771 51.8778 152.477 37.7004C165.291 39.2898 175.301 51.1361 175.301 65.483C175.301 71.7346 173.383 77.6895 169.892 82.5849C162.809 76.3121 154.697 73.9174 144.627 75.1465C142.973 75.3584 141.782 76.9266 141.964 78.6644C142.166 80.4021 143.679 81.6524 145.314 81.4617C154.677 80.3173 161.679 82.7544 167.995 89.3663C172.738 94.6219 175.321 101.53 175.321 108.842Z" fill="white"/>
<path d="M130.623 95.321C120.371 95.321 109.717 105.154 108.708 115.538C108.546 117.276 109.757 118.844 111.412 119.014C111.513 119.035 111.613 119.035 111.714 119.035C113.248 119.035 114.56 117.806 114.721 116.174C115.407 109.117 123.58 101.657 130.602 101.657C132.277 101.657 133.629 100.238 133.629 98.4786C133.629 96.7197 132.277 95.321 130.623 95.321Z" fill="white"/>
<path d="M109.494 144.741C108.344 146.012 108.425 148.025 109.636 149.233C110.846 150.42 112.764 150.357 113.914 149.085C116.961 145.652 125.497 146.267 128.544 149.233C129.129 149.806 129.876 150.081 130.602 150.081C131.41 150.081 132.217 149.742 132.822 149.064C133.952 147.771 133.892 145.758 132.661 144.571C127.394 139.443 114.983 138.574 109.494 144.741Z" fill="white"/>
<path d="M115.67 73.515C116.417 73.515 117.163 73.2184 117.748 72.6462C118.959 71.4382 119.02 69.425 117.87 68.1535C114.863 64.8051 115.609 54.7813 119.524 46.2833C120.251 44.6939 119.625 42.8078 118.112 42.0449C116.598 41.282 114.802 41.9389 114.076 43.5283C109.596 53.2767 107.941 66.3521 113.47 72.519C114.056 73.176 114.863 73.515 115.67 73.515Z" fill="white"/>
</g>
</svg>
