<svg width="172" height="59" viewBox="0 0 172 59" fill="none" xmlns="http://www.w3.org/2000/svg">
<path fill-rule="evenodd" clip-rule="evenodd" d="M162 3.88757H10C6.13401 3.88757 3 7.02158 3 10.8876V48.7889C3 52.6549 6.13401 55.7889 10 55.7889H162C165.866 55.7889 169 52.6549 169 48.7889V10.8876C169 7.02158 165.866 3.88757 162 3.88757ZM10 0.887573C4.47715 0.887573 0 5.36473 0 10.8876V48.7889C0 54.3118 4.47716 58.7889 10 58.7889H162C167.523 58.7889 172 54.3118 172 48.7889V10.8876C172 5.36473 167.523 0.887573 162 0.887573H10Z" fill="url(#paint0_linear)"/>
<path d="M21.506 37.8876L21.506 23.2796H24.564L24.564 35.2256H31.802L31.802 37.8876H21.506ZM35.3875 37.8876V23.2796H46.1235V25.8316L38.3575 25.8316V28.9556L45.5075 28.9556V31.5296L38.3575 31.5296V35.2916H46.4755V37.8876H35.3875ZM53.9385 37.8876V25.8316H49.5385V23.2796H61.4185V25.8316H56.9965V37.8876H53.9385ZM65.0201 27.9876C65.5774 27.8409 65.9954 27.5916 66.2741 27.2396C66.5528 26.8876 66.6994 26.3596 66.7141 25.6556H65.0201V22.6856H68.0561V24.9296C68.0561 25.5456 68.0048 26.0882 67.9021 26.5576C67.7994 27.0269 67.6308 27.4302 67.3961 27.7676C67.1614 28.0902 66.8461 28.3616 66.4501 28.5816C66.0688 28.8016 65.5921 28.9702 65.0201 29.0876V27.9876ZM80.384 27.5916C80.3107 26.8436 80.0393 26.2862 79.57 25.9196C79.1007 25.5529 78.404 25.3696 77.48 25.3696C76.6147 25.3696 75.962 25.5162 75.522 25.8096C75.082 26.1029 74.862 26.5282 74.862 27.0856C74.862 27.5549 75.0307 27.9289 75.368 28.2076C75.72 28.4862 76.3067 28.7282 77.128 28.9336C77.964 29.1389 78.756 29.3442 79.504 29.5496C80.2667 29.7402 80.9193 29.9602 81.462 30.2096C81.7847 30.3562 82.0853 30.5249 82.364 30.7156C82.6427 30.9062 82.8847 31.1409 83.09 31.4196C83.2953 31.6982 83.4567 32.0282 83.574 32.4096C83.6913 32.7909 83.75 33.2382 83.75 33.7516C83.75 34.5582 83.6033 35.2549 83.31 35.8416C83.0313 36.4136 82.628 36.8902 82.1 37.2716C81.5867 37.6529 80.9707 37.9316 80.252 38.1076C79.548 38.2982 78.7707 38.3936 77.92 38.3936C77.0107 38.3936 76.182 38.2909 75.434 38.0856C74.686 37.8949 74.0407 37.5942 73.498 37.1836C72.9553 36.7729 72.53 36.2669 72.222 35.6656C71.914 35.0496 71.7527 34.3309 71.738 33.5096H74.686C74.7153 34.2576 75.016 34.8516 75.588 35.2916C76.1747 35.7169 76.9593 35.9296 77.942 35.9296C78.8513 35.9296 79.548 35.7536 80.032 35.4016C80.5307 35.0349 80.78 34.5216 80.78 33.8616C80.78 33.6416 80.7433 33.4436 80.67 33.2676C80.6113 33.0916 80.494 32.9302 80.318 32.7836C80.1567 32.6222 79.9293 32.4829 79.636 32.3656C79.3427 32.2336 78.9687 32.1162 78.514 32.0136C77.6047 31.8082 76.8347 31.6322 76.204 31.4856C75.588 31.3242 75.0233 31.1262 74.51 30.8916C73.718 30.5396 73.1093 30.0849 72.684 29.5276C72.2733 28.9556 72.068 28.2076 72.068 27.2836C72.068 26.6236 72.178 26.0222 72.398 25.4796C72.618 24.9222 72.948 24.4456 73.388 24.0496C73.8427 23.6536 74.4 23.3456 75.06 23.1256C75.7347 22.9056 76.5193 22.7956 77.414 22.7956C78.338 22.7956 79.1593 22.9129 79.878 23.1476C80.5967 23.3822 81.198 23.7122 81.682 24.1376C82.1807 24.5629 82.562 25.0689 82.826 25.6556C83.1047 26.2422 83.2587 26.8876 83.288 27.5916H80.384ZM99.5171 37.8876V25.8316H95.1171V23.2796H106.997V25.8316H102.575V37.8876H99.5171ZM113.286 26.5576H113.264L111.394 32.3656H115.112L113.286 26.5576ZM116.916 37.8876L115.992 34.8736H110.602L109.568 37.8876H106.334L111.548 23.2796H115.09L120.238 37.8876H116.916ZM123.771 37.8876V23.2796L126.829 23.2796V35.2256L134.067 35.2256V37.8876L123.771 37.8876ZM146.628 37.8876L142.294 31.3096L140.666 32.9156V37.8876H137.652V23.2796H140.666V29.2196L146.254 23.2796L150.214 23.2796L144.45 29.0436L150.346 37.8876L146.628 37.8876Z" fill="white"/>
<defs>
<linearGradient id="paint0_linear" x1="-4.48745e-08" y1="0.616948" x2="172" y2="58.6169" gradientUnits="userSpaceOnUse">
<stop stop-color="#944CF0"/>
<stop offset="1" stop-color="#4CF0F0"/>
</linearGradient>
</defs>
</svg>
