<svg width="172" height="59" viewBox="0 0 172 59" fill="none" xmlns="http://www.w3.org/2000/svg">
<rect x="1.5" y="2.38757" width="169" height="54.9014" rx="8.5" fill="url(#paint0_linear)" fill-opacity="0.5" stroke="url(#paint1_linear)" stroke-width="3"/>
<path d="M42.814 37.8876V27.8776L40.086 37.8876H37.05L34.344 27.9216V37.8876H31.506L31.506 23.2796H35.994L38.634 33.9936L41.274 23.2796L45.674 23.2796V37.8876H42.814ZM54.2829 37.8876V32.3656L49.2229 23.2796H52.7869L55.8669 29.2196L58.7049 23.2796H62.2249L57.3409 32.4096V37.8876H54.2829ZM85.0559 37.8876L82.7899 28.3836L80.4799 37.8876L77.6199 37.8876L73.4839 23.2796H76.7399L79.1379 32.7396L81.1619 23.2796L84.3739 23.2796L86.5959 32.7396L88.9719 23.2796H92.0959L88.0039 37.8876H85.0559ZM100.985 35.7756C101.528 35.7756 102.041 35.6802 102.525 35.4896C103.009 35.2842 103.427 34.9836 103.779 34.5876C104.146 34.1769 104.432 33.6562 104.637 33.0256C104.843 32.3949 104.945 31.6469 104.945 30.7816C104.945 29.0509 104.608 27.7382 103.933 26.8436C103.259 25.9489 102.276 25.5016 100.985 25.5016C99.6946 25.5016 98.7046 25.9489 98.0153 26.8436C97.3259 27.7382 96.9813 29.0509 96.9813 30.7816C96.9813 32.5122 97.3259 33.7809 98.0153 34.5876C98.7193 35.3796 99.7093 35.7756 100.985 35.7756ZM100.985 38.3936C98.7266 38.3936 96.9886 37.7336 95.7713 36.4136C94.5686 35.0936 93.9673 33.1942 93.9673 30.7156C93.9673 29.4836 94.1213 28.3762 94.4293 27.3936C94.7373 26.4109 95.1919 25.5822 95.7933 24.9076C96.3946 24.2182 97.1279 23.6976 97.9933 23.3456C98.8586 22.9789 99.8559 22.7956 100.985 22.7956C102.1 22.7956 103.09 22.9789 103.955 23.3456C104.835 23.6976 105.569 24.2182 106.155 24.9076C106.742 25.5969 107.189 26.4402 107.497 27.4376C107.805 28.4202 107.959 29.5349 107.959 30.7816C107.959 33.3042 107.358 35.2036 106.155 36.4796C104.967 37.7556 103.244 38.3936 100.985 38.3936ZM114.712 25.8096V29.7036H118.54C119.361 29.7036 119.94 29.5202 120.278 29.1536C120.615 28.7869 120.784 28.3249 120.784 27.7676C120.784 27.1956 120.615 26.7262 120.278 26.3596C119.955 25.9929 119.412 25.8096 118.65 25.8096H114.712ZM120.256 37.8876V34.1256C120.256 33.4216 120.094 32.9229 119.772 32.6296C119.449 32.3216 118.848 32.1676 117.968 32.1676H114.712V37.8876H111.742V23.2796H119.156C119.83 23.2796 120.439 23.3896 120.982 23.6096C121.539 23.8149 122.016 24.1082 122.412 24.4896C122.808 24.8562 123.108 25.3036 123.314 25.8316C123.534 26.3449 123.644 26.9022 123.644 27.5036C123.644 28.2956 123.453 28.9996 123.072 29.6156C122.705 30.2169 122.17 30.6422 121.466 30.8916C122.111 31.0969 122.566 31.4122 122.83 31.8376C123.108 32.2629 123.248 32.9009 123.248 33.7516V37.8876H120.256ZM136.296 37.8876L131.962 31.3096L130.334 32.9156V37.8876H127.32V23.2796H130.334V29.2196L135.922 23.2796H139.882L134.118 29.0436L140.014 37.8876L136.296 37.8876Z" fill="white"/>
<defs>
<linearGradient id="paint0_linear" x1="0" y1="0.887573" x2="175.174" y2="46.6376" gradientUnits="userSpaceOnUse">
<stop stop-color="#AC38D5"/>
<stop offset="1" stop-color="#0EE0AE"/>
</linearGradient>
<linearGradient id="paint1_linear" x1="-4.48745e-08" y1="0.616948" x2="172" y2="58.6169" gradientUnits="userSpaceOnUse">
<stop stop-color="#944CF0"/>
<stop offset="1" stop-color="#4CF0F0"/>
</linearGradient>
</defs>
</svg>
