<svg width="95" height="79" viewBox="0 0 95 79" fill="none" xmlns="http://www.w3.org/2000/svg">
<path d="M92 3.04091C88.126 5.78894 83.8367 7.89075 79.2973 9.26539C76.8609 6.44814 73.6228 4.45135 70.0212 3.54508C66.4195 2.6388 62.628 2.86677 59.1593 4.19815C55.6907 5.52952 52.7123 7.90007 50.6271 10.9892C48.5418 14.0783 47.4502 17.7369 47.5 21.4702V25.5385C40.3907 25.7239 33.3461 24.1383 26.9936 20.9228C20.6412 17.7074 15.1781 12.962 11.0909 7.10919C11.0909 7.10919 -5.09091 43.7238 31.3182 59.9969C22.9867 65.6842 13.0617 68.5359 3 68.1335C39.4091 88.4749 83.9091 68.1335 83.9091 21.3482C83.9054 20.215 83.797 19.0846 83.5855 17.9715C87.7143 13.8768 90.6279 8.70686 92 3.04091Z" stroke="url(#paint0_linear)" stroke-width="5" stroke-linecap="round" stroke-linejoin="round"/>
<defs>
<linearGradient id="paint0_linear" x1="47.5" y1="3" x2="47.5" y2="76" gradientUnits="userSpaceOnUse">
<stop stop-color="#4CF0F0"/>
<stop offset="1" stop-color="#6D36B4"/>
</linearGradient>
</defs>
</svg>
