<svg width="200" height="150" viewBox="0 0 200 150" fill="none" xmlns="http://www.w3.org/2000/svg">
<g opacity="0.3">
<path d="M77.0086 69.7245C71.8507 66.3712 66.1198 64.203 60.1673 63.3528C54.2147 62.5026 48.1659 62.9884 42.3913 64.7803C42.091 64.8818 41.7832 64.9545 41.4713 64.9975C41.5953 60.4452 42.9253 56.0297 45.3004 52.2856C50.5543 42.3809 60.6069 31.5091 73.0551 30.6941C74.1061 30.6258 75.0994 30.1466 75.8533 29.3441C76.6072 28.5417 77.0711 27.4697 77.1602 26.3243L78.8031 5.18863C78.8568 4.49538 78.7712 3.79771 78.5525 3.14427C78.3337 2.49083 77.987 1.89737 77.5366 1.40525C77.0882 0.910348 76.5453 0.529455 75.9467 0.289707C75.3481 0.0499579 74.7084 -0.0427546 74.0732 0.0181728C47.0761 2.47282 6.69365 26.4348 1.08664 65.0353C-2.6207 90.569 3.33505 117.739 16.2538 134.256C19.7813 139.096 24.2525 143.016 29.3421 145.732C34.4318 148.448 40.0119 149.891 45.6768 149.957C52.9581 150.274 60.213 148.822 66.9181 145.707C73.6231 142.591 79.6111 137.89 84.45 131.942C88.2602 127.015 91.0163 121.223 92.5176 114.988C94.019 108.752 94.2279 102.229 93.1291 95.8939C92.3301 90.5206 90.4757 85.3997 87.6931 80.8825C84.9105 76.3653 81.2657 72.5589 77.0086 69.7245ZM77.7293 125.801C73.7047 130.666 68.743 134.497 63.2007 137.02C57.6584 139.542 51.6732 140.693 45.675 140.389C41.2749 140.333 36.9431 139.194 33.0024 137.056C29.0617 134.918 25.6139 131.837 22.9158 128.042C11.764 113.788 6.46714 89.0652 9.7403 66.5319C14.3033 35.1127 45.8165 14.7265 69.611 10.2773L68.7278 21.6303C51.5817 24.9186 39.236 42.138 34.8956 53.7052C31.9164 61.6451 31.9458 68.0452 34.9832 71.7258C36.2353 73.1321 37.8447 74.0966 39.6036 74.495C41.3626 74.8934 43.1906 74.7074 44.8518 73.9609C49.447 72.5582 54.2539 72.1801 58.9858 72.849C63.7178 73.5179 68.2779 75.2201 72.3944 77.8542C75.5954 79.9935 78.3348 82.8633 80.4247 86.2668C82.5146 89.6702 83.9055 93.5269 84.5022 97.5723C85.3668 102.531 85.2075 107.638 84.0358 112.522C82.8642 117.405 80.7097 121.942 77.7293 125.801ZM199.307 95.8934C198.508 90.5205 196.653 85.3999 193.871 80.8829C191.089 76.3659 187.445 72.5594 183.189 69.7245C178.03 66.37 172.299 64.2011 166.346 63.3509C160.392 62.5007 154.342 62.9871 148.567 64.7803C148.267 64.8822 147.959 64.9549 147.647 64.9975C147.772 60.4452 149.102 56.0299 151.477 52.2856C156.731 42.3809 166.785 31.5091 179.231 30.6941C180.282 30.6262 181.275 30.1471 182.029 29.3445C182.783 28.5419 183.246 27.4696 183.334 26.3243L184.977 5.18863C185.032 4.49539 184.947 3.7975 184.729 3.14375C184.51 2.49 184.164 1.89615 183.714 1.40369C183.264 0.911241 182.72 0.532068 182.122 0.292672C181.524 0.0532747 180.884 -0.040568 180.249 0.0176984C153.252 2.47474 112.867 26.4343 107.267 65.0348C103.558 90.5685 109.513 117.739 122.434 134.258C125.961 139.097 130.432 143.017 135.521 145.732C140.61 148.448 146.189 149.891 151.853 149.957C159.134 150.274 166.389 148.822 173.094 145.707C179.799 142.592 185.787 137.891 190.627 131.944C194.437 127.017 197.193 121.225 198.695 114.988C200.196 108.752 200.405 102.229 199.307 95.8934ZM183.909 125.804C179.883 130.668 174.921 134.498 169.379 137.021C163.837 139.543 157.852 140.694 151.854 140.392C147.455 140.336 143.123 139.197 139.183 137.059C135.243 134.921 131.795 131.841 129.097 128.046C117.943 113.789 112.65 89.0676 115.919 66.5367C120.48 35.1174 151.995 14.7312 175.788 10.2821L174.908 21.6327C157.764 24.921 145.417 42.1404 141.074 53.7076C138.095 61.6474 138.126 68.0476 141.162 71.7281C142.416 73.1326 144.025 74.0959 145.784 74.4942C147.543 74.8925 149.37 74.7076 151.032 73.9632C155.627 72.5617 160.434 72.1841 165.165 72.853C169.897 73.5219 174.456 75.2235 178.573 77.8566C181.774 79.9957 184.513 82.8654 186.603 86.2689C188.693 89.6724 190.084 93.5292 190.68 97.5746C191.545 102.534 191.385 107.641 190.214 112.524C189.042 117.407 186.888 121.944 183.909 125.804Z" fill="white"/>
</g>
</svg>
