<svg width="36" height="31" viewBox="0 0 36 31" fill="none" xmlns="http://www.w3.org/2000/svg">
<path d="M17.1266 5.41523L18 6.98148L18.8734 5.41523C20.3429 2.77995 23.175 1 26.4 1C31.1738 1 35 4.8109 35 9.53846C35 11.4099 34.3617 13.1517 33.3168 14.5863L33.225 14.7078L33.221 14.7121C33.1934 14.741 33.1501 14.7853 33.0899 14.8461C32.9704 14.9668 32.7963 15.1404 32.5741 15.3607C32.1302 15.8006 31.5015 16.4194 30.749 17.1578C29.2443 18.6342 27.2488 20.5846 25.2565 22.5294C23.2643 24.4741 21.2757 26.4126 19.7852 27.865C19.0486 28.5828 18.4336 29.1819 18 29.6042C17.5664 29.1819 16.9514 28.5828 16.2148 27.865C14.7243 26.4126 12.7357 24.4741 10.7435 22.5294C8.75116 20.5846 6.75566 18.6342 5.251 17.1578C4.49848 16.4194 3.86977 15.8006 3.42591 15.3607C3.20366 15.1404 3.02962 14.9668 2.91014 14.8461C2.84992 14.7853 2.80663 14.741 2.77899 14.7121L2.77497 14.7079L2.68315 14.5862C1.63829 13.1517 1 11.4099 1 9.53846C1 4.8109 4.82621 1 9.6 1C12.825 1 15.6571 2.77995 17.1266 5.41523Z" fill="url(#paint0_linear)" fill-opacity="0.5" stroke="url(#paint1_linear)" strokeWidth="2"/>
<defs>
<linearGradient id="paint0_linear" x1="4.4" y1="2.1859" x2="25.0518" y2="25.3692" gradientUnits="userSpaceOnUse">
<stop stop-color="#FF0000"/>
<stop offset="1" stop-color="#E0B20E"/>
</linearGradient>
<linearGradient id="paint1_linear" x1="33.2" y1="2.38461" x2="10.7249" y2="22.0021" gradientUnits="userSpaceOnUse">
<stop stop-color="#EC2121"/>
<stop offset="1" stop-color="#E0BF0E"/>
</linearGradient>
</defs>
</svg>
