<svg width="223" height="75" viewBox="0 0 223 75" fill="none" xmlns="http://www.w3.org/2000/svg">
<rect x="2.5" y="2.5" width="217.793" height="70" rx="7.5" fill="url(#paint0_linear)" fill-opacity="0.3" stroke="url(#paint1_linear)" stroke-width="5"/>
<path d="M47.177 35.236C47.1003 34.454 46.8167 33.8713 46.326 33.488C45.8353 33.1047 45.107 32.913 44.141 32.913C43.2363 32.913 42.554 33.0663 42.094 33.373C41.634 33.6797 41.404 34.1243 41.404 34.707C41.404 35.1977 41.5803 35.5887 41.933 35.88C42.301 36.1713 42.9143 36.4243 43.773 36.639C44.647 36.8537 45.475 37.0683 46.257 37.283C47.0543 37.4823 47.7367 37.7123 48.304 37.973C48.6413 38.1263 48.9557 38.3027 49.247 38.502C49.5383 38.7013 49.7913 38.9467 50.006 39.238C50.2207 39.5293 50.3893 39.8743 50.512 40.273C50.6347 40.6717 50.696 41.1393 50.696 41.676C50.696 42.5193 50.5427 43.2477 50.236 43.861C49.9447 44.459 49.523 44.9573 48.971 45.356C48.4343 45.7547 47.7903 46.046 47.039 46.23C46.303 46.4293 45.4903 46.529 44.601 46.529C43.6503 46.529 42.784 46.4217 42.002 46.207C41.22 46.0077 40.5453 45.6933 39.978 45.264C39.4107 44.8347 38.966 44.3057 38.644 43.677C38.322 43.033 38.1533 42.2817 38.138 41.423H41.22C41.2507 42.205 41.565 42.826 42.163 43.286C42.7763 43.7307 43.5967 43.953 44.624 43.953C45.5747 43.953 46.303 43.769 46.809 43.401C47.3303 43.0177 47.591 42.481 47.591 41.791C47.591 41.561 47.5527 41.354 47.476 41.17C47.4147 40.986 47.292 40.8173 47.108 40.664C46.9393 40.4953 46.7017 40.3497 46.395 40.227C46.0883 40.089 45.6973 39.9663 45.222 39.859C44.2713 39.6443 43.4663 39.4603 42.807 39.307C42.163 39.1383 41.5727 38.9313 41.036 38.686C40.208 38.318 39.5717 37.8427 39.127 37.26C38.6977 36.662 38.483 35.88 38.483 34.914C38.483 34.224 38.598 33.5953 38.828 33.028C39.058 32.4453 39.403 31.947 39.863 31.533C40.3383 31.119 40.921 30.797 41.611 30.567C42.3163 30.337 43.1367 30.222 44.072 30.222C45.038 30.222 45.8967 30.3447 46.648 30.59C47.3993 30.8353 48.028 31.1803 48.534 31.625C49.0553 32.0697 49.454 32.5987 49.73 33.212C50.0213 33.8253 50.1823 34.5 50.213 35.236H47.177ZM54.479 46V30.728L65.703 30.728V33.396L57.584 33.396V36.662L65.059 36.662V39.353L57.584 39.353V43.286H66.071V46H54.479ZM79.2092 46L72.6772 35.742V46H69.7102V30.728H73.0912L79.1632 40.549V30.728H82.1532V46H79.2092ZM92.039 43.401C93.4344 43.401 94.4464 42.9717 95.075 42.113C95.7037 41.239 96.018 39.9357 96.018 38.203C96.018 37.3443 95.9414 36.6083 95.788 35.995C95.6347 35.3817 95.3817 34.8833 95.029 34.5C94.6917 34.1013 94.2547 33.8177 93.718 33.649C93.1814 33.465 92.5297 33.373 91.763 33.373L89.394 33.373V43.401H92.039ZM86.289 46V30.728L92.2 30.728C93.2274 30.728 94.178 30.9043 95.052 31.257C95.926 31.5943 96.6697 32.085 97.283 32.729C97.9117 33.373 98.4024 34.155 98.755 35.075C99.1077 35.995 99.284 37.0377 99.284 38.203C99.284 39.3683 99.123 40.434 98.801 41.4C98.4944 42.3507 98.0497 43.171 97.467 43.861C96.8844 44.5357 96.1867 45.0647 95.374 45.448C94.5614 45.816 93.6644 46 92.683 46L86.289 46ZM111.788 46V30.728H123.012V33.396H114.893V36.662H122.368V39.353H114.893V43.286H123.38V46H111.788ZM138.841 46V35.535L135.989 46H132.815L129.986 35.581V46H127.019V30.728L131.711 30.728L134.471 41.929L137.231 30.728H141.831V46H138.841ZM152.809 34.155H152.786L150.831 40.227H154.718L152.809 34.155ZM156.604 46L155.638 42.849H150.003L148.922 46H145.541L150.992 30.728H154.695L160.077 46H156.604ZM163.77 46V30.728L166.967 30.728V46L163.77 46ZM171.05 46V30.728H174.247V43.217H181.814V46H171.05Z" fill="white"/>
<defs>
<linearGradient id="paint0_linear" x1="0" y1="0" x2="226.903" y2="59.2603" gradientUnits="userSpaceOnUse">
<stop stop-color="#AC38D5"/>
<stop offset="1" stop-color="#0EE0AE"/>
</linearGradient>
<linearGradient id="paint1_linear" x1="-5.81262e-08" y1="-0.350543" x2="222.793" y2="74.7772" gradientUnits="userSpaceOnUse">
<stop stop-color="#944CF0"/>
<stop offset="1" stop-color="#4CF0F0"/>
</linearGradient>
</defs>
</svg>
